%
M48
M72
T01C0.02362
T02C0.02756
T03C0.03150
T04C0.03543
T05C0.04000
T06C0.04016
T07C0.04400
T08C0.05118
T09C0.05200
T10C0.07480
T11C0.13000
%
T01
X41465Y22438
X41465Y30312
X41465Y38186
X41465Y46060
X70590Y46060
X70590Y38186
X70590Y30312
X70590Y22438
X98090Y22438
X98090Y30312
X98090Y38186
X98090Y46060
X127840Y46060
X127840Y38186
X127840Y30312
X127840Y22438
X138500Y11000
X154715Y22438
X154715Y30312
X154715Y38186
X154715Y46060
X182340Y46060
X182340Y38186
X182340Y30312
X182340Y22438
X194750Y11000
X209340Y22438
X209340Y30312
X209340Y38186
X209340Y46060
X142250Y86000
T02
X442250Y297017
X442250Y302922
X442250Y308828
X442250Y314733
X442500Y275358
X442500Y269453
X442500Y263547
X442500Y257642
X374358Y380250
X368453Y380250
X362547Y380250
X356642Y380250
X132358Y383000
X126453Y383000
X120547Y383000
X114642Y383000
X95358Y382750
X89453Y382750
X83547Y382750
X77642Y382750
T03
X101000Y368500
X119750Y337250
X119750Y327250
X119750Y309750
X146000Y338500
X173500Y334750
X197250Y329750
X197250Y314750
X197250Y302875
X197250Y289750
X201000Y277250
X223500Y266000
X241000Y277250
X252250Y278500
X252250Y263500
X234750Y243500
X282250Y204750
X311000Y176000
X306000Y157250
X288500Y162250
X304750Y124750
X346000Y181000
X367250Y257250
X296000Y318500
X296000Y336000
X296000Y353500
X296000Y371000
X296000Y382250
X362250Y347250
X221000Y353500
X188500Y386625
X77250Y270375
X151000Y226625
X179750Y232250
X179750Y213500
X108500Y198500
X72250Y202250
X56000Y156000
X172250Y141000
X183500Y141000
X228000Y48153
X240175Y48575
X252500Y48153
X264550Y48300
X264550Y18772
X252500Y18625
X240175Y19047
X228000Y18625
X201782Y26000
X174750Y26000
X146000Y26000
X118500Y26000
X89750Y26000
X62250Y26000
X33500Y24750
X411000Y83500
T04
X326921Y120640
X326921Y150640
X282045Y82500
X256455Y82500
X55039Y173587
X25039Y173587
T05
X66000Y162250
X76000Y162250
X93250Y225000
X93250Y235750
X93000Y246250
X93250Y256750
X93375Y267125
X40813Y242750
X40813Y232750
X192378Y226600
X202378Y226600
X212378Y226600
X222378Y226600
X232378Y226600
X242378Y226600
X252378Y226600
X262378Y226600
X355250Y250500
X355750Y239750
X356000Y207250
X356000Y197250
X351125Y103625
X361125Y103625
X371125Y103625
X381125Y103625
X391125Y103625
X401125Y103625
X319500Y40500
X319500Y30500
X304500Y30750
X304500Y40750
X289125Y40500
X289125Y30500
T06
X424875Y63032
X424875Y72875
X424802Y90116
X424802Y99959
X424750Y117407
X424750Y127250
X424750Y144907
X424750Y154750
X410033Y159731
X397514Y159731
X372553Y159731
X425000Y173657
X425000Y183500
X410053Y222251
X372553Y222251
X333500Y239000
X333500Y249000
X333500Y259000
X333500Y269000
X333500Y279000
X333500Y289000
X333500Y299000
X333500Y309000
X333500Y319000
X333500Y329000
X323500Y329000
X323500Y319000
X323500Y309000
X323500Y299000
X323500Y289000
X323500Y279000
X323500Y269000
X323500Y259000
X323500Y249000
X323500Y239000
X394750Y364125
X404593Y364125
X414435Y364125
X424278Y364125
X163500Y329000
X163500Y319000
X153500Y319000
X153500Y329000
X153500Y309000
X153500Y299000
X163500Y299000
X163500Y309000
X163500Y289000
X163500Y279000
X153500Y279000
X153500Y289000
X153500Y269000
X153500Y259000
X163500Y259000
X163500Y269000
X163500Y249000
X163500Y239000
X153500Y239000
X153500Y249000
T07
X109750Y162500
X99750Y162500
X89750Y162500
T08
X48500Y374750
X28815Y374750
T09
X40813Y343926
X40813Y255326
T10
X10843Y10843
X10843Y384858
X443913Y384858
X443913Y10843
T11
X99750Y93500
M30
