G75*
%MOIN*%
%OFA0B0*%
%FSLAX25Y25*%
%IPPOS*%
%LPD*%
%AMOC8*
5,1,8,0,0,1.08239X$1,22.5*
%
%ADD10C,0.00600*%
%ADD11R,0.02000X0.10000*%
%ADD12R,0.01500X0.03000*%
%ADD13C,0.00500*%
%ADD14C,0.00400*%
%ADD15C,0.00200*%
%ADD16R,0.03000X0.02500*%
%ADD17R,0.05000X0.11000*%
%ADD18R,0.10000X0.02000*%
%ADD19R,0.03000X0.01500*%
%ADD20C,0.00800*%
%ADD21R,0.01673X0.01280*%
%ADD22R,0.01378X0.01378*%
%ADD23R,0.01280X0.01673*%
%ADD24R,0.04500X0.02500*%
%ADD25R,0.16000X0.02500*%
%ADD26R,0.02000X0.40000*%
%ADD27R,0.00500X0.15500*%
%ADD28R,0.02000X0.19000*%
D10*
X0032039Y0168587D02*
X0032039Y0178587D01*
X0048039Y0178587D01*
X0048039Y0168587D01*
X0032039Y0168587D01*
X0034313Y0250126D02*
X0025313Y0250126D01*
X0025313Y0349126D01*
X0034313Y0349126D01*
X0032813Y0344626D02*
X0026313Y0344626D01*
X0026313Y0342126D01*
X0026313Y0322126D01*
X0030813Y0322126D01*
X0030813Y0342126D01*
X0028313Y0342126D01*
X0028313Y0343626D01*
X0032813Y0343626D01*
X0028313Y0342126D02*
X0026313Y0342126D01*
X0047313Y0349126D02*
X0056313Y0349126D01*
X0056313Y0250126D01*
X0047313Y0250126D01*
X0048813Y0254626D02*
X0055313Y0254626D01*
X0055313Y0257126D01*
X0055313Y0277126D01*
X0050813Y0277126D01*
X0050813Y0257126D01*
X0053313Y0257126D01*
X0053313Y0255626D01*
X0048813Y0255626D01*
X0053313Y0257126D02*
X0055313Y0257126D01*
X0030813Y0257126D02*
X0030813Y0277126D01*
X0026313Y0277126D01*
X0026313Y0257126D01*
X0030813Y0257126D01*
X0050813Y0322126D02*
X0055313Y0322126D01*
X0055313Y0342126D01*
X0050813Y0342126D01*
X0050813Y0322126D01*
X0207005Y0277704D02*
X0207005Y0272504D01*
X0218205Y0272504D01*
X0218205Y0277704D01*
X0207005Y0277704D01*
X0211814Y0264925D02*
X0217014Y0264925D01*
X0217014Y0253725D01*
X0211814Y0253725D01*
X0211814Y0264925D01*
X0321921Y0143640D02*
X0321921Y0127640D01*
X0331921Y0127640D01*
X0331921Y0143640D01*
X0321921Y0143640D01*
D11*
X0034539Y0173587D03*
D12*
X0031289Y0173587D03*
X0048789Y0173587D03*
D13*
X0049339Y0014684D02*
X0030376Y0014684D01*
X0030307Y0014867D02*
X0030307Y0053487D01*
X0030376Y0053684D02*
X0049339Y0053684D01*
X0049339Y0014684D01*
X0059432Y0014867D02*
X0059432Y0053487D01*
X0059501Y0053684D02*
X0078464Y0053684D01*
X0078464Y0014684D01*
X0059501Y0014684D01*
X0086932Y0014867D02*
X0086932Y0053487D01*
X0087001Y0053684D02*
X0105964Y0053684D01*
X0105964Y0014684D01*
X0087001Y0014684D01*
X0116682Y0014867D02*
X0116682Y0053487D01*
X0116751Y0053684D02*
X0135714Y0053684D01*
X0135714Y0014684D01*
X0116751Y0014684D01*
X0143557Y0014867D02*
X0143557Y0053487D01*
X0143626Y0053684D02*
X0162589Y0053684D01*
X0162589Y0014684D01*
X0143626Y0014684D01*
X0171182Y0014867D02*
X0171182Y0053487D01*
X0171251Y0053684D02*
X0190214Y0053684D01*
X0190214Y0014684D01*
X0171251Y0014684D01*
X0198182Y0014867D02*
X0198182Y0053487D01*
X0198251Y0053684D02*
X0217214Y0053684D01*
X0217214Y0014684D01*
X0198251Y0014684D01*
X0223000Y0013625D02*
X0223000Y0053625D01*
X0233000Y0053625D01*
X0233000Y0013625D01*
X0223000Y0013625D01*
X0235175Y0013575D02*
X0245175Y0013575D01*
X0245175Y0053575D01*
X0235175Y0053575D01*
X0235175Y0013575D01*
X0247500Y0013625D02*
X0247500Y0053625D01*
X0257500Y0053625D01*
X0257500Y0013625D01*
X0247500Y0013625D01*
X0259550Y0013300D02*
X0269550Y0013300D01*
X0269550Y0053300D01*
X0259550Y0053300D01*
X0259550Y0013300D01*
X0341374Y0113016D02*
X0144524Y0113016D01*
X0144524Y0380732D01*
X0341374Y0380732D01*
X0341374Y0113016D01*
X0366549Y0153747D02*
X0416037Y0153747D01*
X0416037Y0228235D01*
X0366549Y0228235D01*
X0366549Y0153747D01*
X0418844Y0160656D02*
X0418844Y0139002D01*
X0424750Y0139002D01*
X0424750Y0160656D01*
X0418844Y0160656D01*
X0424750Y0160656D02*
X0452309Y0160656D01*
X0452309Y0152781D01*
X0434593Y0152781D01*
X0434593Y0146876D01*
X0452309Y0146876D01*
X0452309Y0152781D01*
X0452309Y0146876D02*
X0452309Y0139002D01*
X0424750Y0139002D01*
X0424750Y0133156D02*
X0418844Y0133156D01*
X0418844Y0111502D01*
X0424750Y0111502D01*
X0424750Y0133156D01*
X0452309Y0133156D01*
X0452309Y0125281D01*
X0434593Y0125281D01*
X0434593Y0119376D01*
X0452309Y0119376D01*
X0452309Y0125281D01*
X0452309Y0119376D02*
X0452309Y0111502D01*
X0424750Y0111502D01*
X0424802Y0105864D02*
X0418897Y0105864D01*
X0418897Y0084211D01*
X0424802Y0084211D01*
X0424802Y0105864D01*
X0452361Y0105864D01*
X0452361Y0097990D01*
X0434645Y0097990D01*
X0434645Y0092085D01*
X0452361Y0092085D01*
X0452361Y0097990D01*
X0452361Y0092085D02*
X0452361Y0084211D01*
X0424802Y0084211D01*
X0424875Y0078781D02*
X0418969Y0078781D01*
X0418969Y0057127D01*
X0424875Y0057127D01*
X0424875Y0078781D01*
X0452434Y0078781D01*
X0452434Y0070906D01*
X0434718Y0070906D01*
X0434718Y0065001D01*
X0452434Y0065001D01*
X0452434Y0070906D01*
X0452434Y0065001D02*
X0452434Y0057127D01*
X0424875Y0057127D01*
X0425000Y0167752D02*
X0419094Y0167752D01*
X0419094Y0189406D01*
X0425000Y0189406D01*
X0425000Y0167752D01*
X0452559Y0167752D01*
X0452559Y0175626D01*
X0434843Y0175626D01*
X0434843Y0181531D01*
X0452559Y0181531D01*
X0452559Y0189406D01*
X0425000Y0189406D01*
X0452559Y0181531D02*
X0452559Y0175626D01*
X0338500Y0234000D02*
X0338500Y0334000D01*
X0328500Y0334000D01*
X0328500Y0234000D01*
X0318500Y0234000D01*
X0318500Y0334000D01*
X0328500Y0334000D01*
X0388844Y0358219D02*
X0388844Y0364125D01*
X0430183Y0364125D01*
X0430183Y0391684D01*
X0388844Y0391684D01*
X0388844Y0364125D01*
X0388844Y0358219D02*
X0430183Y0358219D01*
X0430183Y0364125D01*
X0338500Y0234000D02*
X0328500Y0234000D01*
X0168500Y0234000D02*
X0158500Y0234000D01*
X0158500Y0334000D01*
X0148500Y0334000D01*
X0148500Y0234000D01*
X0158500Y0234000D01*
X0168500Y0234000D02*
X0168500Y0334000D01*
X0158500Y0334000D01*
X0105843Y0345907D02*
X0105843Y0365593D01*
X0090094Y0365593D01*
X0086157Y0361656D01*
X0086157Y0365593D01*
X0090094Y0365593D01*
X0086157Y0361656D02*
X0086157Y0345907D01*
X0105843Y0345907D01*
X0087732Y0355750D02*
X0087734Y0355953D01*
X0087742Y0356156D01*
X0087754Y0356358D01*
X0087772Y0356560D01*
X0087794Y0356762D01*
X0087821Y0356963D01*
X0087854Y0357164D01*
X0087891Y0357363D01*
X0087933Y0357562D01*
X0087980Y0357759D01*
X0088031Y0357955D01*
X0088088Y0358150D01*
X0088149Y0358344D01*
X0088215Y0358535D01*
X0088286Y0358726D01*
X0088361Y0358914D01*
X0088441Y0359101D01*
X0088526Y0359285D01*
X0088615Y0359467D01*
X0088708Y0359648D01*
X0088806Y0359825D01*
X0088908Y0360001D01*
X0089015Y0360173D01*
X0089125Y0360343D01*
X0089240Y0360511D01*
X0089359Y0360675D01*
X0089482Y0360837D01*
X0089609Y0360995D01*
X0089739Y0361150D01*
X0089874Y0361302D01*
X0090012Y0361451D01*
X0090154Y0361596D01*
X0090299Y0361738D01*
X0090448Y0361876D01*
X0090600Y0362011D01*
X0090755Y0362141D01*
X0090913Y0362268D01*
X0091075Y0362391D01*
X0091239Y0362510D01*
X0091407Y0362625D01*
X0091577Y0362735D01*
X0091749Y0362842D01*
X0091925Y0362944D01*
X0092102Y0363042D01*
X0092283Y0363135D01*
X0092465Y0363224D01*
X0092649Y0363309D01*
X0092836Y0363389D01*
X0093024Y0363464D01*
X0093215Y0363535D01*
X0093406Y0363601D01*
X0093600Y0363662D01*
X0093795Y0363719D01*
X0093991Y0363770D01*
X0094188Y0363817D01*
X0094387Y0363859D01*
X0094586Y0363896D01*
X0094787Y0363929D01*
X0094988Y0363956D01*
X0095190Y0363978D01*
X0095392Y0363996D01*
X0095594Y0364008D01*
X0095797Y0364016D01*
X0096000Y0364018D01*
X0096203Y0364016D01*
X0096406Y0364008D01*
X0096608Y0363996D01*
X0096810Y0363978D01*
X0097012Y0363956D01*
X0097213Y0363929D01*
X0097414Y0363896D01*
X0097613Y0363859D01*
X0097812Y0363817D01*
X0098009Y0363770D01*
X0098205Y0363719D01*
X0098400Y0363662D01*
X0098594Y0363601D01*
X0098785Y0363535D01*
X0098976Y0363464D01*
X0099164Y0363389D01*
X0099351Y0363309D01*
X0099535Y0363224D01*
X0099717Y0363135D01*
X0099898Y0363042D01*
X0100075Y0362944D01*
X0100251Y0362842D01*
X0100423Y0362735D01*
X0100593Y0362625D01*
X0100761Y0362510D01*
X0100925Y0362391D01*
X0101087Y0362268D01*
X0101245Y0362141D01*
X0101400Y0362011D01*
X0101552Y0361876D01*
X0101701Y0361738D01*
X0101846Y0361596D01*
X0101988Y0361451D01*
X0102126Y0361302D01*
X0102261Y0361150D01*
X0102391Y0360995D01*
X0102518Y0360837D01*
X0102641Y0360675D01*
X0102760Y0360511D01*
X0102875Y0360343D01*
X0102985Y0360173D01*
X0103092Y0360001D01*
X0103194Y0359825D01*
X0103292Y0359648D01*
X0103385Y0359467D01*
X0103474Y0359285D01*
X0103559Y0359101D01*
X0103639Y0358914D01*
X0103714Y0358726D01*
X0103785Y0358535D01*
X0103851Y0358344D01*
X0103912Y0358150D01*
X0103969Y0357955D01*
X0104020Y0357759D01*
X0104067Y0357562D01*
X0104109Y0357363D01*
X0104146Y0357164D01*
X0104179Y0356963D01*
X0104206Y0356762D01*
X0104228Y0356560D01*
X0104246Y0356358D01*
X0104258Y0356156D01*
X0104266Y0355953D01*
X0104268Y0355750D01*
X0104266Y0355547D01*
X0104258Y0355344D01*
X0104246Y0355142D01*
X0104228Y0354940D01*
X0104206Y0354738D01*
X0104179Y0354537D01*
X0104146Y0354336D01*
X0104109Y0354137D01*
X0104067Y0353938D01*
X0104020Y0353741D01*
X0103969Y0353545D01*
X0103912Y0353350D01*
X0103851Y0353156D01*
X0103785Y0352965D01*
X0103714Y0352774D01*
X0103639Y0352586D01*
X0103559Y0352399D01*
X0103474Y0352215D01*
X0103385Y0352033D01*
X0103292Y0351852D01*
X0103194Y0351675D01*
X0103092Y0351499D01*
X0102985Y0351327D01*
X0102875Y0351157D01*
X0102760Y0350989D01*
X0102641Y0350825D01*
X0102518Y0350663D01*
X0102391Y0350505D01*
X0102261Y0350350D01*
X0102126Y0350198D01*
X0101988Y0350049D01*
X0101846Y0349904D01*
X0101701Y0349762D01*
X0101552Y0349624D01*
X0101400Y0349489D01*
X0101245Y0349359D01*
X0101087Y0349232D01*
X0100925Y0349109D01*
X0100761Y0348990D01*
X0100593Y0348875D01*
X0100423Y0348765D01*
X0100251Y0348658D01*
X0100075Y0348556D01*
X0099898Y0348458D01*
X0099717Y0348365D01*
X0099535Y0348276D01*
X0099351Y0348191D01*
X0099164Y0348111D01*
X0098976Y0348036D01*
X0098785Y0347965D01*
X0098594Y0347899D01*
X0098400Y0347838D01*
X0098205Y0347781D01*
X0098009Y0347730D01*
X0097812Y0347683D01*
X0097613Y0347641D01*
X0097414Y0347604D01*
X0097213Y0347571D01*
X0097012Y0347544D01*
X0096810Y0347522D01*
X0096608Y0347504D01*
X0096406Y0347492D01*
X0096203Y0347484D01*
X0096000Y0347482D01*
X0095797Y0347484D01*
X0095594Y0347492D01*
X0095392Y0347504D01*
X0095190Y0347522D01*
X0094988Y0347544D01*
X0094787Y0347571D01*
X0094586Y0347604D01*
X0094387Y0347641D01*
X0094188Y0347683D01*
X0093991Y0347730D01*
X0093795Y0347781D01*
X0093600Y0347838D01*
X0093406Y0347899D01*
X0093215Y0347965D01*
X0093024Y0348036D01*
X0092836Y0348111D01*
X0092649Y0348191D01*
X0092465Y0348276D01*
X0092283Y0348365D01*
X0092102Y0348458D01*
X0091925Y0348556D01*
X0091749Y0348658D01*
X0091577Y0348765D01*
X0091407Y0348875D01*
X0091239Y0348990D01*
X0091075Y0349109D01*
X0090913Y0349232D01*
X0090755Y0349359D01*
X0090600Y0349489D01*
X0090448Y0349624D01*
X0090299Y0349762D01*
X0090154Y0349904D01*
X0090012Y0350049D01*
X0089874Y0350198D01*
X0089739Y0350350D01*
X0089609Y0350505D01*
X0089482Y0350663D01*
X0089359Y0350825D01*
X0089240Y0350989D01*
X0089125Y0351157D01*
X0089015Y0351327D01*
X0088908Y0351499D01*
X0088806Y0351675D01*
X0088708Y0351852D01*
X0088615Y0352033D01*
X0088526Y0352215D01*
X0088441Y0352399D01*
X0088361Y0352586D01*
X0088286Y0352774D01*
X0088215Y0352965D01*
X0088149Y0353156D01*
X0088088Y0353350D01*
X0088031Y0353545D01*
X0087980Y0353741D01*
X0087933Y0353938D01*
X0087891Y0354137D01*
X0087854Y0354336D01*
X0087821Y0354537D01*
X0087794Y0354738D01*
X0087772Y0354940D01*
X0087754Y0355142D01*
X0087742Y0355344D01*
X0087734Y0355547D01*
X0087732Y0355750D01*
X0083892Y0366333D02*
X0083894Y0366380D01*
X0083900Y0366426D01*
X0083909Y0366472D01*
X0083923Y0366516D01*
X0083940Y0366560D01*
X0083961Y0366601D01*
X0083985Y0366641D01*
X0084012Y0366679D01*
X0084043Y0366714D01*
X0084076Y0366747D01*
X0084112Y0366777D01*
X0084151Y0366803D01*
X0084191Y0366827D01*
X0084233Y0366846D01*
X0084277Y0366863D01*
X0084322Y0366875D01*
X0084368Y0366884D01*
X0084414Y0366889D01*
X0084461Y0366890D01*
X0084507Y0366887D01*
X0084553Y0366880D01*
X0084599Y0366869D01*
X0084643Y0366855D01*
X0084686Y0366837D01*
X0084727Y0366815D01*
X0084767Y0366790D01*
X0084804Y0366762D01*
X0084839Y0366731D01*
X0084871Y0366697D01*
X0084900Y0366660D01*
X0084925Y0366622D01*
X0084948Y0366581D01*
X0084967Y0366538D01*
X0084982Y0366494D01*
X0084994Y0366449D01*
X0085002Y0366403D01*
X0085006Y0366356D01*
X0085006Y0366310D01*
X0085002Y0366263D01*
X0084994Y0366217D01*
X0084982Y0366172D01*
X0084967Y0366128D01*
X0084948Y0366085D01*
X0084925Y0366044D01*
X0084900Y0366006D01*
X0084871Y0365969D01*
X0084839Y0365935D01*
X0084804Y0365904D01*
X0084767Y0365876D01*
X0084728Y0365851D01*
X0084686Y0365829D01*
X0084643Y0365811D01*
X0084599Y0365797D01*
X0084553Y0365786D01*
X0084507Y0365779D01*
X0084461Y0365776D01*
X0084414Y0365777D01*
X0084368Y0365782D01*
X0084322Y0365791D01*
X0084277Y0365803D01*
X0084233Y0365820D01*
X0084191Y0365839D01*
X0084151Y0365863D01*
X0084112Y0365889D01*
X0084076Y0365919D01*
X0084043Y0365952D01*
X0084012Y0365987D01*
X0083985Y0366025D01*
X0083961Y0366065D01*
X0083940Y0366106D01*
X0083923Y0366150D01*
X0083909Y0366194D01*
X0083900Y0366240D01*
X0083894Y0366286D01*
X0083892Y0366333D01*
X0079250Y0142500D02*
X0079250Y0093500D01*
X0082750Y0093500D01*
X0082750Y0087500D01*
X0079250Y0087500D01*
X0079250Y0080000D01*
X0120250Y0080000D01*
X0120250Y0087500D01*
X0116750Y0087500D01*
X0116750Y0093500D01*
X0120250Y0093500D01*
X0120250Y0142500D01*
X0079250Y0142500D01*
X0094694Y0106253D02*
X0095828Y0105119D01*
X0095828Y0102850D01*
X0097151Y0102850D02*
X0099419Y0102850D01*
X0098285Y0102850D02*
X0098285Y0106253D01*
X0097151Y0105119D01*
X0095828Y0104551D02*
X0093560Y0104551D01*
X0093560Y0105119D02*
X0094694Y0106253D01*
X0093560Y0105119D02*
X0093560Y0102850D01*
X0100742Y0102850D02*
X0100742Y0103417D01*
X0103010Y0105686D01*
X0103010Y0106253D01*
X0100742Y0106253D01*
X0104900Y0103417D02*
X0104900Y0102850D01*
X0105467Y0102850D01*
X0105467Y0103417D01*
X0104900Y0103417D01*
X0105467Y0102850D02*
X0104333Y0101716D01*
X0106727Y0103417D02*
X0107294Y0102850D01*
X0108428Y0102850D01*
X0108995Y0103417D01*
X0108995Y0104551D01*
X0108428Y0105119D01*
X0107861Y0105119D01*
X0106727Y0104551D01*
X0106727Y0106253D01*
X0108995Y0106253D01*
X0110318Y0105119D02*
X0110318Y0102850D01*
X0111452Y0102850D02*
X0111452Y0104551D01*
X0112019Y0105119D01*
X0112586Y0104551D01*
X0112586Y0102850D01*
X0113909Y0102850D02*
X0113909Y0105119D01*
X0114476Y0105119D01*
X0115043Y0104551D01*
X0115610Y0105119D01*
X0116178Y0104551D01*
X0116178Y0102850D01*
X0115043Y0102850D02*
X0115043Y0104551D01*
X0111452Y0104551D02*
X0110885Y0105119D01*
X0110318Y0105119D01*
X0092650Y0093500D02*
X0092652Y0093674D01*
X0092659Y0093848D01*
X0092669Y0094022D01*
X0092684Y0094196D01*
X0092703Y0094369D01*
X0092727Y0094542D01*
X0092755Y0094714D01*
X0092786Y0094885D01*
X0092823Y0095056D01*
X0092863Y0095225D01*
X0092907Y0095394D01*
X0092956Y0095561D01*
X0093008Y0095727D01*
X0093065Y0095892D01*
X0093126Y0096055D01*
X0093190Y0096217D01*
X0093259Y0096377D01*
X0093332Y0096536D01*
X0093408Y0096692D01*
X0093488Y0096847D01*
X0093572Y0097000D01*
X0093660Y0097150D01*
X0093752Y0097298D01*
X0093847Y0097445D01*
X0093945Y0097588D01*
X0094047Y0097729D01*
X0094153Y0097868D01*
X0094262Y0098004D01*
X0094374Y0098138D01*
X0094489Y0098268D01*
X0094608Y0098396D01*
X0094730Y0098520D01*
X0094854Y0098642D01*
X0094982Y0098761D01*
X0095112Y0098876D01*
X0095246Y0098988D01*
X0095382Y0099097D01*
X0095521Y0099203D01*
X0095662Y0099305D01*
X0095805Y0099403D01*
X0095952Y0099498D01*
X0096100Y0099590D01*
X0096250Y0099678D01*
X0096403Y0099762D01*
X0096558Y0099842D01*
X0096714Y0099918D01*
X0096873Y0099991D01*
X0097033Y0100060D01*
X0097195Y0100124D01*
X0097358Y0100185D01*
X0097523Y0100242D01*
X0097689Y0100294D01*
X0097856Y0100343D01*
X0098025Y0100387D01*
X0098194Y0100427D01*
X0098365Y0100464D01*
X0098536Y0100495D01*
X0098708Y0100523D01*
X0098881Y0100547D01*
X0099054Y0100566D01*
X0099228Y0100581D01*
X0099402Y0100591D01*
X0099576Y0100598D01*
X0099750Y0100600D01*
X0099924Y0100598D01*
X0100098Y0100591D01*
X0100272Y0100581D01*
X0100446Y0100566D01*
X0100619Y0100547D01*
X0100792Y0100523D01*
X0100964Y0100495D01*
X0101135Y0100464D01*
X0101306Y0100427D01*
X0101475Y0100387D01*
X0101644Y0100343D01*
X0101811Y0100294D01*
X0101977Y0100242D01*
X0102142Y0100185D01*
X0102305Y0100124D01*
X0102467Y0100060D01*
X0102627Y0099991D01*
X0102786Y0099918D01*
X0102942Y0099842D01*
X0103097Y0099762D01*
X0103250Y0099678D01*
X0103400Y0099590D01*
X0103548Y0099498D01*
X0103695Y0099403D01*
X0103838Y0099305D01*
X0103979Y0099203D01*
X0104118Y0099097D01*
X0104254Y0098988D01*
X0104388Y0098876D01*
X0104518Y0098761D01*
X0104646Y0098642D01*
X0104770Y0098520D01*
X0104892Y0098396D01*
X0105011Y0098268D01*
X0105126Y0098138D01*
X0105238Y0098004D01*
X0105347Y0097868D01*
X0105453Y0097729D01*
X0105555Y0097588D01*
X0105653Y0097445D01*
X0105748Y0097298D01*
X0105840Y0097150D01*
X0105928Y0097000D01*
X0106012Y0096847D01*
X0106092Y0096692D01*
X0106168Y0096536D01*
X0106241Y0096377D01*
X0106310Y0096217D01*
X0106374Y0096055D01*
X0106435Y0095892D01*
X0106492Y0095727D01*
X0106544Y0095561D01*
X0106593Y0095394D01*
X0106637Y0095225D01*
X0106677Y0095056D01*
X0106714Y0094885D01*
X0106745Y0094714D01*
X0106773Y0094542D01*
X0106797Y0094369D01*
X0106816Y0094196D01*
X0106831Y0094022D01*
X0106841Y0093848D01*
X0106848Y0093674D01*
X0106850Y0093500D01*
X0106848Y0093326D01*
X0106841Y0093152D01*
X0106831Y0092978D01*
X0106816Y0092804D01*
X0106797Y0092631D01*
X0106773Y0092458D01*
X0106745Y0092286D01*
X0106714Y0092115D01*
X0106677Y0091944D01*
X0106637Y0091775D01*
X0106593Y0091606D01*
X0106544Y0091439D01*
X0106492Y0091273D01*
X0106435Y0091108D01*
X0106374Y0090945D01*
X0106310Y0090783D01*
X0106241Y0090623D01*
X0106168Y0090464D01*
X0106092Y0090308D01*
X0106012Y0090153D01*
X0105928Y0090000D01*
X0105840Y0089850D01*
X0105748Y0089702D01*
X0105653Y0089555D01*
X0105555Y0089412D01*
X0105453Y0089271D01*
X0105347Y0089132D01*
X0105238Y0088996D01*
X0105126Y0088862D01*
X0105011Y0088732D01*
X0104892Y0088604D01*
X0104770Y0088480D01*
X0104646Y0088358D01*
X0104518Y0088239D01*
X0104388Y0088124D01*
X0104254Y0088012D01*
X0104118Y0087903D01*
X0103979Y0087797D01*
X0103838Y0087695D01*
X0103695Y0087597D01*
X0103548Y0087502D01*
X0103400Y0087410D01*
X0103250Y0087322D01*
X0103097Y0087238D01*
X0102942Y0087158D01*
X0102786Y0087082D01*
X0102627Y0087009D01*
X0102467Y0086940D01*
X0102305Y0086876D01*
X0102142Y0086815D01*
X0101977Y0086758D01*
X0101811Y0086706D01*
X0101644Y0086657D01*
X0101475Y0086613D01*
X0101306Y0086573D01*
X0101135Y0086536D01*
X0100964Y0086505D01*
X0100792Y0086477D01*
X0100619Y0086453D01*
X0100446Y0086434D01*
X0100272Y0086419D01*
X0100098Y0086409D01*
X0099924Y0086402D01*
X0099750Y0086400D01*
X0099576Y0086402D01*
X0099402Y0086409D01*
X0099228Y0086419D01*
X0099054Y0086434D01*
X0098881Y0086453D01*
X0098708Y0086477D01*
X0098536Y0086505D01*
X0098365Y0086536D01*
X0098194Y0086573D01*
X0098025Y0086613D01*
X0097856Y0086657D01*
X0097689Y0086706D01*
X0097523Y0086758D01*
X0097358Y0086815D01*
X0097195Y0086876D01*
X0097033Y0086940D01*
X0096873Y0087009D01*
X0096714Y0087082D01*
X0096558Y0087158D01*
X0096403Y0087238D01*
X0096250Y0087322D01*
X0096100Y0087410D01*
X0095952Y0087502D01*
X0095805Y0087597D01*
X0095662Y0087695D01*
X0095521Y0087797D01*
X0095382Y0087903D01*
X0095246Y0088012D01*
X0095112Y0088124D01*
X0094982Y0088239D01*
X0094854Y0088358D01*
X0094730Y0088480D01*
X0094608Y0088604D01*
X0094489Y0088732D01*
X0094374Y0088862D01*
X0094262Y0088996D01*
X0094153Y0089132D01*
X0094047Y0089271D01*
X0093945Y0089412D01*
X0093847Y0089555D01*
X0093752Y0089702D01*
X0093660Y0089850D01*
X0093572Y0090000D01*
X0093488Y0090153D01*
X0093408Y0090308D01*
X0093332Y0090464D01*
X0093259Y0090623D01*
X0093190Y0090783D01*
X0093126Y0090945D01*
X0093065Y0091108D01*
X0093008Y0091273D01*
X0092956Y0091439D01*
X0092907Y0091606D01*
X0092863Y0091775D01*
X0092823Y0091944D01*
X0092786Y0092115D01*
X0092755Y0092286D01*
X0092727Y0092458D01*
X0092703Y0092631D01*
X0092684Y0092804D01*
X0092669Y0092978D01*
X0092659Y0093152D01*
X0092652Y0093326D01*
X0092650Y0093500D01*
D14*
X0060339Y0096033D02*
X0060339Y0079892D01*
X0029236Y0079892D01*
X0020181Y0088947D01*
X0020181Y0096033D01*
X0020181Y0103907D02*
X0020181Y0110994D01*
X0029236Y0120049D01*
X0060339Y0120049D01*
X0060339Y0103907D01*
X0059354Y0096033D02*
X0059253Y0095568D01*
X0059139Y0095106D01*
X0059015Y0094646D01*
X0058879Y0094190D01*
X0058733Y0093737D01*
X0058575Y0093288D01*
X0058406Y0092842D01*
X0058227Y0092401D01*
X0058037Y0091965D01*
X0057836Y0091533D01*
X0057625Y0091107D01*
X0057403Y0090685D01*
X0057171Y0090270D01*
X0056930Y0089860D01*
X0056678Y0089456D01*
X0056416Y0089058D01*
X0056145Y0088667D01*
X0055864Y0088282D01*
X0055574Y0087905D01*
X0055275Y0087534D01*
X0054967Y0087171D01*
X0054650Y0086816D01*
X0054324Y0086469D01*
X0053991Y0086129D01*
X0053649Y0085798D01*
X0053299Y0085476D01*
X0052941Y0085161D01*
X0052575Y0084856D01*
X0052203Y0084560D01*
X0051823Y0084273D01*
X0051436Y0083995D01*
X0051043Y0083727D01*
X0050643Y0083469D01*
X0050237Y0083220D01*
X0049825Y0082982D01*
X0049407Y0082753D01*
X0048984Y0082535D01*
X0048556Y0082327D01*
X0048123Y0082130D01*
X0047685Y0081943D01*
X0047242Y0081767D01*
X0046796Y0081602D01*
X0046346Y0081448D01*
X0045891Y0081305D01*
X0045434Y0081173D01*
X0044974Y0081052D01*
X0044510Y0080943D01*
X0044044Y0080845D01*
X0043576Y0080758D01*
X0043106Y0080683D01*
X0042634Y0080619D01*
X0042161Y0080567D01*
X0041687Y0080526D01*
X0041212Y0080497D01*
X0040736Y0080480D01*
X0040260Y0080474D01*
X0039784Y0080480D01*
X0039308Y0080497D01*
X0038833Y0080526D01*
X0038359Y0080567D01*
X0037886Y0080619D01*
X0037414Y0080683D01*
X0036944Y0080758D01*
X0036476Y0080845D01*
X0036010Y0080943D01*
X0035546Y0081052D01*
X0035086Y0081173D01*
X0034629Y0081305D01*
X0034174Y0081448D01*
X0033724Y0081602D01*
X0033278Y0081767D01*
X0032835Y0081943D01*
X0032397Y0082130D01*
X0031964Y0082327D01*
X0031536Y0082535D01*
X0031113Y0082753D01*
X0030695Y0082982D01*
X0030283Y0083220D01*
X0029877Y0083469D01*
X0029477Y0083727D01*
X0029084Y0083995D01*
X0028697Y0084273D01*
X0028317Y0084560D01*
X0027945Y0084856D01*
X0027579Y0085161D01*
X0027221Y0085476D01*
X0026871Y0085798D01*
X0026529Y0086129D01*
X0026196Y0086469D01*
X0025870Y0086816D01*
X0025553Y0087171D01*
X0025245Y0087534D01*
X0024946Y0087905D01*
X0024656Y0088282D01*
X0024375Y0088667D01*
X0024104Y0089058D01*
X0023842Y0089456D01*
X0023590Y0089860D01*
X0023349Y0090270D01*
X0023117Y0090685D01*
X0022895Y0091107D01*
X0022684Y0091533D01*
X0022483Y0091965D01*
X0022293Y0092401D01*
X0022114Y0092842D01*
X0021945Y0093288D01*
X0021787Y0093737D01*
X0021641Y0094190D01*
X0021505Y0094646D01*
X0021381Y0095106D01*
X0021267Y0095568D01*
X0021166Y0096033D01*
X0021166Y0103907D02*
X0021267Y0104372D01*
X0021381Y0104834D01*
X0021505Y0105294D01*
X0021641Y0105750D01*
X0021787Y0106203D01*
X0021945Y0106652D01*
X0022114Y0107098D01*
X0022293Y0107539D01*
X0022483Y0107975D01*
X0022684Y0108407D01*
X0022895Y0108833D01*
X0023117Y0109255D01*
X0023349Y0109670D01*
X0023590Y0110080D01*
X0023842Y0110484D01*
X0024104Y0110882D01*
X0024375Y0111273D01*
X0024656Y0111658D01*
X0024946Y0112035D01*
X0025245Y0112406D01*
X0025553Y0112769D01*
X0025870Y0113124D01*
X0026196Y0113471D01*
X0026529Y0113811D01*
X0026871Y0114142D01*
X0027221Y0114464D01*
X0027579Y0114779D01*
X0027945Y0115084D01*
X0028317Y0115380D01*
X0028697Y0115667D01*
X0029084Y0115945D01*
X0029477Y0116213D01*
X0029877Y0116471D01*
X0030283Y0116720D01*
X0030695Y0116958D01*
X0031113Y0117187D01*
X0031536Y0117405D01*
X0031964Y0117613D01*
X0032397Y0117810D01*
X0032835Y0117997D01*
X0033278Y0118173D01*
X0033724Y0118338D01*
X0034174Y0118492D01*
X0034629Y0118635D01*
X0035086Y0118767D01*
X0035546Y0118888D01*
X0036010Y0118997D01*
X0036476Y0119095D01*
X0036944Y0119182D01*
X0037414Y0119257D01*
X0037886Y0119321D01*
X0038359Y0119373D01*
X0038833Y0119414D01*
X0039308Y0119443D01*
X0039784Y0119460D01*
X0040260Y0119466D01*
X0040736Y0119460D01*
X0041212Y0119443D01*
X0041687Y0119414D01*
X0042161Y0119373D01*
X0042634Y0119321D01*
X0043106Y0119257D01*
X0043576Y0119182D01*
X0044044Y0119095D01*
X0044510Y0118997D01*
X0044974Y0118888D01*
X0045434Y0118767D01*
X0045891Y0118635D01*
X0046346Y0118492D01*
X0046796Y0118338D01*
X0047242Y0118173D01*
X0047685Y0117997D01*
X0048123Y0117810D01*
X0048556Y0117613D01*
X0048984Y0117405D01*
X0049407Y0117187D01*
X0049825Y0116958D01*
X0050237Y0116720D01*
X0050643Y0116471D01*
X0051043Y0116213D01*
X0051436Y0115945D01*
X0051823Y0115667D01*
X0052203Y0115380D01*
X0052575Y0115084D01*
X0052941Y0114779D01*
X0053299Y0114464D01*
X0053649Y0114142D01*
X0053991Y0113811D01*
X0054324Y0113471D01*
X0054650Y0113124D01*
X0054967Y0112769D01*
X0055275Y0112406D01*
X0055574Y0112035D01*
X0055864Y0111658D01*
X0056145Y0111273D01*
X0056416Y0110882D01*
X0056678Y0110484D01*
X0056930Y0110080D01*
X0057171Y0109670D01*
X0057403Y0109255D01*
X0057625Y0108833D01*
X0057836Y0108407D01*
X0058037Y0107975D01*
X0058227Y0107539D01*
X0058406Y0107098D01*
X0058575Y0106652D01*
X0058733Y0106203D01*
X0058879Y0105750D01*
X0059015Y0105294D01*
X0059139Y0104834D01*
X0059253Y0104372D01*
X0059354Y0103907D01*
X0060026Y0124579D02*
X0028923Y0124579D01*
X0019868Y0133634D01*
X0019868Y0140720D01*
X0019868Y0148594D02*
X0019868Y0155681D01*
X0028923Y0164736D01*
X0060026Y0164736D01*
X0060026Y0148594D01*
X0060026Y0140720D02*
X0060026Y0124579D01*
X0059041Y0148594D02*
X0058940Y0149059D01*
X0058826Y0149521D01*
X0058702Y0149981D01*
X0058566Y0150437D01*
X0058420Y0150890D01*
X0058262Y0151339D01*
X0058093Y0151785D01*
X0057914Y0152226D01*
X0057724Y0152662D01*
X0057523Y0153094D01*
X0057312Y0153520D01*
X0057090Y0153942D01*
X0056858Y0154357D01*
X0056617Y0154767D01*
X0056365Y0155171D01*
X0056103Y0155569D01*
X0055832Y0155960D01*
X0055551Y0156345D01*
X0055261Y0156722D01*
X0054962Y0157093D01*
X0054654Y0157456D01*
X0054337Y0157811D01*
X0054011Y0158158D01*
X0053678Y0158498D01*
X0053336Y0158829D01*
X0052986Y0159151D01*
X0052628Y0159466D01*
X0052262Y0159771D01*
X0051890Y0160067D01*
X0051510Y0160354D01*
X0051123Y0160632D01*
X0050730Y0160900D01*
X0050330Y0161158D01*
X0049924Y0161407D01*
X0049512Y0161645D01*
X0049094Y0161874D01*
X0048671Y0162092D01*
X0048243Y0162300D01*
X0047810Y0162497D01*
X0047372Y0162684D01*
X0046929Y0162860D01*
X0046483Y0163025D01*
X0046033Y0163179D01*
X0045578Y0163322D01*
X0045121Y0163454D01*
X0044661Y0163575D01*
X0044197Y0163684D01*
X0043731Y0163782D01*
X0043263Y0163869D01*
X0042793Y0163944D01*
X0042321Y0164008D01*
X0041848Y0164060D01*
X0041374Y0164101D01*
X0040899Y0164130D01*
X0040423Y0164147D01*
X0039947Y0164153D01*
X0039471Y0164147D01*
X0038995Y0164130D01*
X0038520Y0164101D01*
X0038046Y0164060D01*
X0037573Y0164008D01*
X0037101Y0163944D01*
X0036631Y0163869D01*
X0036163Y0163782D01*
X0035697Y0163684D01*
X0035233Y0163575D01*
X0034773Y0163454D01*
X0034316Y0163322D01*
X0033861Y0163179D01*
X0033411Y0163025D01*
X0032965Y0162860D01*
X0032522Y0162684D01*
X0032084Y0162497D01*
X0031651Y0162300D01*
X0031223Y0162092D01*
X0030800Y0161874D01*
X0030382Y0161645D01*
X0029970Y0161407D01*
X0029564Y0161158D01*
X0029164Y0160900D01*
X0028771Y0160632D01*
X0028384Y0160354D01*
X0028004Y0160067D01*
X0027632Y0159771D01*
X0027266Y0159466D01*
X0026908Y0159151D01*
X0026558Y0158829D01*
X0026216Y0158498D01*
X0025883Y0158158D01*
X0025557Y0157811D01*
X0025240Y0157456D01*
X0024932Y0157093D01*
X0024633Y0156722D01*
X0024343Y0156345D01*
X0024062Y0155960D01*
X0023791Y0155569D01*
X0023529Y0155171D01*
X0023277Y0154767D01*
X0023036Y0154357D01*
X0022804Y0153942D01*
X0022582Y0153520D01*
X0022371Y0153094D01*
X0022170Y0152662D01*
X0021980Y0152226D01*
X0021801Y0151785D01*
X0021632Y0151339D01*
X0021474Y0150890D01*
X0021328Y0150437D01*
X0021192Y0149981D01*
X0021068Y0149521D01*
X0020954Y0149059D01*
X0020853Y0148594D01*
X0020853Y0140720D02*
X0020954Y0140255D01*
X0021068Y0139793D01*
X0021192Y0139333D01*
X0021328Y0138877D01*
X0021474Y0138424D01*
X0021632Y0137975D01*
X0021801Y0137529D01*
X0021980Y0137088D01*
X0022170Y0136652D01*
X0022371Y0136220D01*
X0022582Y0135794D01*
X0022804Y0135372D01*
X0023036Y0134957D01*
X0023277Y0134547D01*
X0023529Y0134143D01*
X0023791Y0133745D01*
X0024062Y0133354D01*
X0024343Y0132969D01*
X0024633Y0132592D01*
X0024932Y0132221D01*
X0025240Y0131858D01*
X0025557Y0131503D01*
X0025883Y0131156D01*
X0026216Y0130816D01*
X0026558Y0130485D01*
X0026908Y0130163D01*
X0027266Y0129848D01*
X0027632Y0129543D01*
X0028004Y0129247D01*
X0028384Y0128960D01*
X0028771Y0128682D01*
X0029164Y0128414D01*
X0029564Y0128156D01*
X0029970Y0127907D01*
X0030382Y0127669D01*
X0030800Y0127440D01*
X0031223Y0127222D01*
X0031651Y0127014D01*
X0032084Y0126817D01*
X0032522Y0126630D01*
X0032965Y0126454D01*
X0033411Y0126289D01*
X0033861Y0126135D01*
X0034316Y0125992D01*
X0034773Y0125860D01*
X0035233Y0125739D01*
X0035697Y0125630D01*
X0036163Y0125532D01*
X0036631Y0125445D01*
X0037101Y0125370D01*
X0037573Y0125306D01*
X0038046Y0125254D01*
X0038520Y0125213D01*
X0038995Y0125184D01*
X0039471Y0125167D01*
X0039947Y0125161D01*
X0040423Y0125167D01*
X0040899Y0125184D01*
X0041374Y0125213D01*
X0041848Y0125254D01*
X0042321Y0125306D01*
X0042793Y0125370D01*
X0043263Y0125445D01*
X0043731Y0125532D01*
X0044197Y0125630D01*
X0044661Y0125739D01*
X0045121Y0125860D01*
X0045578Y0125992D01*
X0046033Y0126135D01*
X0046483Y0126289D01*
X0046929Y0126454D01*
X0047372Y0126630D01*
X0047810Y0126817D01*
X0048243Y0127014D01*
X0048671Y0127222D01*
X0049094Y0127440D01*
X0049512Y0127669D01*
X0049924Y0127907D01*
X0050330Y0128156D01*
X0050730Y0128414D01*
X0051123Y0128682D01*
X0051510Y0128960D01*
X0051890Y0129247D01*
X0052262Y0129543D01*
X0052628Y0129848D01*
X0052986Y0130163D01*
X0053336Y0130485D01*
X0053678Y0130816D01*
X0054011Y0131156D01*
X0054337Y0131503D01*
X0054654Y0131858D01*
X0054962Y0132221D01*
X0055261Y0132592D01*
X0055551Y0132969D01*
X0055832Y0133354D01*
X0056103Y0133745D01*
X0056365Y0134143D01*
X0056617Y0134547D01*
X0056858Y0134957D01*
X0057090Y0135372D01*
X0057312Y0135794D01*
X0057523Y0136220D01*
X0057724Y0136652D01*
X0057914Y0137088D01*
X0058093Y0137529D01*
X0058262Y0137975D01*
X0058420Y0138424D01*
X0058566Y0138877D01*
X0058702Y0139333D01*
X0058826Y0139793D01*
X0058940Y0140255D01*
X0059041Y0140720D01*
X0060618Y0182809D02*
X0029516Y0182809D01*
X0020461Y0191864D01*
X0020461Y0198951D01*
X0020461Y0206825D02*
X0020461Y0213911D01*
X0029516Y0222967D01*
X0060618Y0222967D01*
X0060618Y0206825D01*
X0060618Y0198951D02*
X0060618Y0182809D01*
X0059633Y0198951D02*
X0059532Y0198486D01*
X0059418Y0198024D01*
X0059294Y0197564D01*
X0059158Y0197108D01*
X0059012Y0196655D01*
X0058854Y0196206D01*
X0058685Y0195760D01*
X0058506Y0195319D01*
X0058316Y0194883D01*
X0058115Y0194451D01*
X0057904Y0194025D01*
X0057682Y0193603D01*
X0057450Y0193188D01*
X0057209Y0192778D01*
X0056957Y0192374D01*
X0056695Y0191976D01*
X0056424Y0191585D01*
X0056143Y0191200D01*
X0055853Y0190823D01*
X0055554Y0190452D01*
X0055246Y0190089D01*
X0054929Y0189734D01*
X0054603Y0189387D01*
X0054270Y0189047D01*
X0053928Y0188716D01*
X0053578Y0188394D01*
X0053220Y0188079D01*
X0052854Y0187774D01*
X0052482Y0187478D01*
X0052102Y0187191D01*
X0051715Y0186913D01*
X0051322Y0186645D01*
X0050922Y0186387D01*
X0050516Y0186138D01*
X0050104Y0185900D01*
X0049686Y0185671D01*
X0049263Y0185453D01*
X0048835Y0185245D01*
X0048402Y0185048D01*
X0047964Y0184861D01*
X0047521Y0184685D01*
X0047075Y0184520D01*
X0046625Y0184366D01*
X0046170Y0184223D01*
X0045713Y0184091D01*
X0045253Y0183970D01*
X0044789Y0183861D01*
X0044323Y0183763D01*
X0043855Y0183676D01*
X0043385Y0183601D01*
X0042913Y0183537D01*
X0042440Y0183485D01*
X0041966Y0183444D01*
X0041491Y0183415D01*
X0041015Y0183398D01*
X0040539Y0183392D01*
X0040063Y0183398D01*
X0039587Y0183415D01*
X0039112Y0183444D01*
X0038638Y0183485D01*
X0038165Y0183537D01*
X0037693Y0183601D01*
X0037223Y0183676D01*
X0036755Y0183763D01*
X0036289Y0183861D01*
X0035825Y0183970D01*
X0035365Y0184091D01*
X0034908Y0184223D01*
X0034453Y0184366D01*
X0034003Y0184520D01*
X0033557Y0184685D01*
X0033114Y0184861D01*
X0032676Y0185048D01*
X0032243Y0185245D01*
X0031815Y0185453D01*
X0031392Y0185671D01*
X0030974Y0185900D01*
X0030562Y0186138D01*
X0030156Y0186387D01*
X0029756Y0186645D01*
X0029363Y0186913D01*
X0028976Y0187191D01*
X0028596Y0187478D01*
X0028224Y0187774D01*
X0027858Y0188079D01*
X0027500Y0188394D01*
X0027150Y0188716D01*
X0026808Y0189047D01*
X0026475Y0189387D01*
X0026149Y0189734D01*
X0025832Y0190089D01*
X0025524Y0190452D01*
X0025225Y0190823D01*
X0024935Y0191200D01*
X0024654Y0191585D01*
X0024383Y0191976D01*
X0024121Y0192374D01*
X0023869Y0192778D01*
X0023628Y0193188D01*
X0023396Y0193603D01*
X0023174Y0194025D01*
X0022963Y0194451D01*
X0022762Y0194883D01*
X0022572Y0195319D01*
X0022393Y0195760D01*
X0022224Y0196206D01*
X0022066Y0196655D01*
X0021920Y0197108D01*
X0021784Y0197564D01*
X0021660Y0198024D01*
X0021546Y0198486D01*
X0021445Y0198951D01*
X0021445Y0206825D02*
X0021546Y0207290D01*
X0021660Y0207752D01*
X0021784Y0208212D01*
X0021920Y0208668D01*
X0022066Y0209121D01*
X0022224Y0209570D01*
X0022393Y0210016D01*
X0022572Y0210457D01*
X0022762Y0210893D01*
X0022963Y0211325D01*
X0023174Y0211751D01*
X0023396Y0212173D01*
X0023628Y0212588D01*
X0023869Y0212998D01*
X0024121Y0213402D01*
X0024383Y0213800D01*
X0024654Y0214191D01*
X0024935Y0214576D01*
X0025225Y0214953D01*
X0025524Y0215324D01*
X0025832Y0215687D01*
X0026149Y0216042D01*
X0026475Y0216389D01*
X0026808Y0216729D01*
X0027150Y0217060D01*
X0027500Y0217382D01*
X0027858Y0217697D01*
X0028224Y0218002D01*
X0028596Y0218298D01*
X0028976Y0218585D01*
X0029363Y0218863D01*
X0029756Y0219131D01*
X0030156Y0219389D01*
X0030562Y0219638D01*
X0030974Y0219876D01*
X0031392Y0220105D01*
X0031815Y0220323D01*
X0032243Y0220531D01*
X0032676Y0220728D01*
X0033114Y0220915D01*
X0033557Y0221091D01*
X0034003Y0221256D01*
X0034453Y0221410D01*
X0034908Y0221553D01*
X0035365Y0221685D01*
X0035825Y0221806D01*
X0036289Y0221915D01*
X0036755Y0222013D01*
X0037223Y0222100D01*
X0037693Y0222175D01*
X0038165Y0222239D01*
X0038638Y0222291D01*
X0039112Y0222332D01*
X0039587Y0222361D01*
X0040063Y0222378D01*
X0040539Y0222384D01*
X0041015Y0222378D01*
X0041491Y0222361D01*
X0041966Y0222332D01*
X0042440Y0222291D01*
X0042913Y0222239D01*
X0043385Y0222175D01*
X0043855Y0222100D01*
X0044323Y0222013D01*
X0044789Y0221915D01*
X0045253Y0221806D01*
X0045713Y0221685D01*
X0046170Y0221553D01*
X0046625Y0221410D01*
X0047075Y0221256D01*
X0047521Y0221091D01*
X0047964Y0220915D01*
X0048402Y0220728D01*
X0048835Y0220531D01*
X0049263Y0220323D01*
X0049686Y0220105D01*
X0050104Y0219876D01*
X0050516Y0219638D01*
X0050922Y0219389D01*
X0051322Y0219131D01*
X0051715Y0218863D01*
X0052102Y0218585D01*
X0052482Y0218298D01*
X0052854Y0218002D01*
X0053220Y0217697D01*
X0053578Y0217382D01*
X0053928Y0217060D01*
X0054270Y0216729D01*
X0054603Y0216389D01*
X0054929Y0216042D01*
X0055246Y0215687D01*
X0055554Y0215324D01*
X0055853Y0214953D01*
X0056143Y0214576D01*
X0056424Y0214191D01*
X0056695Y0213800D01*
X0056957Y0213402D01*
X0057209Y0212998D01*
X0057450Y0212588D01*
X0057682Y0212173D01*
X0057904Y0211751D01*
X0058115Y0211325D01*
X0058316Y0210893D01*
X0058506Y0210457D01*
X0058685Y0210016D01*
X0058854Y0209570D01*
X0059012Y0209121D01*
X0059158Y0208668D01*
X0059294Y0208212D01*
X0059418Y0207752D01*
X0059532Y0207290D01*
X0059633Y0206825D01*
X0285498Y0149601D02*
X0286899Y0148200D01*
X0286899Y0150068D01*
X0288300Y0149601D02*
X0285498Y0149601D01*
X0288582Y0173082D02*
X0288582Y0178004D01*
X0288582Y0173082D02*
X0300787Y0173082D01*
X0305118Y0177413D01*
X0303739Y0184696D02*
X0303656Y0184863D01*
X0303569Y0185027D01*
X0303477Y0185190D01*
X0303382Y0185350D01*
X0303283Y0185507D01*
X0303180Y0185662D01*
X0303073Y0185815D01*
X0302962Y0185965D01*
X0302848Y0186112D01*
X0302731Y0186257D01*
X0302610Y0186398D01*
X0302485Y0186537D01*
X0302358Y0186672D01*
X0302227Y0186805D01*
X0302092Y0186934D01*
X0301955Y0187060D01*
X0301815Y0187182D01*
X0301671Y0187301D01*
X0301525Y0187417D01*
X0301376Y0187528D01*
X0301225Y0187637D01*
X0301071Y0187741D01*
X0300914Y0187842D01*
X0300755Y0187939D01*
X0300594Y0188032D01*
X0300430Y0188121D01*
X0300264Y0188206D01*
X0300097Y0188287D01*
X0299927Y0188364D01*
X0299755Y0188437D01*
X0299582Y0188505D01*
X0299407Y0188569D01*
X0299231Y0188629D01*
X0299053Y0188685D01*
X0298874Y0188737D01*
X0298694Y0188784D01*
X0298513Y0188826D01*
X0298331Y0188865D01*
X0298147Y0188898D01*
X0297964Y0188928D01*
X0297779Y0188952D01*
X0297594Y0188973D01*
X0297408Y0188989D01*
X0297222Y0189000D01*
X0297036Y0189007D01*
X0296850Y0189009D01*
X0296664Y0189007D01*
X0296478Y0189000D01*
X0296292Y0188989D01*
X0296106Y0188973D01*
X0295921Y0188952D01*
X0295736Y0188928D01*
X0295553Y0188898D01*
X0295369Y0188865D01*
X0295187Y0188826D01*
X0295006Y0188784D01*
X0294826Y0188737D01*
X0294647Y0188685D01*
X0294469Y0188629D01*
X0294293Y0188569D01*
X0294118Y0188505D01*
X0293945Y0188437D01*
X0293773Y0188364D01*
X0293603Y0188287D01*
X0293436Y0188206D01*
X0293270Y0188121D01*
X0293106Y0188032D01*
X0292945Y0187939D01*
X0292786Y0187842D01*
X0292629Y0187741D01*
X0292475Y0187637D01*
X0292324Y0187528D01*
X0292175Y0187417D01*
X0292029Y0187301D01*
X0291885Y0187182D01*
X0291745Y0187060D01*
X0291608Y0186934D01*
X0291473Y0186805D01*
X0291342Y0186672D01*
X0291215Y0186537D01*
X0291090Y0186398D01*
X0290969Y0186257D01*
X0290852Y0186112D01*
X0290738Y0185965D01*
X0290627Y0185815D01*
X0290520Y0185662D01*
X0290417Y0185507D01*
X0290318Y0185350D01*
X0290223Y0185190D01*
X0290131Y0185027D01*
X0290044Y0184863D01*
X0289961Y0184696D01*
X0288582Y0184696D02*
X0288582Y0189618D01*
X0300787Y0189618D01*
X0305118Y0185287D01*
X0303739Y0178004D02*
X0303656Y0177837D01*
X0303569Y0177673D01*
X0303477Y0177510D01*
X0303382Y0177350D01*
X0303283Y0177193D01*
X0303180Y0177038D01*
X0303073Y0176885D01*
X0302962Y0176735D01*
X0302848Y0176588D01*
X0302731Y0176443D01*
X0302610Y0176302D01*
X0302485Y0176163D01*
X0302358Y0176028D01*
X0302227Y0175895D01*
X0302092Y0175766D01*
X0301955Y0175640D01*
X0301815Y0175518D01*
X0301671Y0175399D01*
X0301525Y0175283D01*
X0301376Y0175172D01*
X0301225Y0175063D01*
X0301071Y0174959D01*
X0300914Y0174858D01*
X0300755Y0174761D01*
X0300594Y0174668D01*
X0300430Y0174579D01*
X0300264Y0174494D01*
X0300097Y0174413D01*
X0299927Y0174336D01*
X0299755Y0174263D01*
X0299582Y0174195D01*
X0299407Y0174131D01*
X0299231Y0174071D01*
X0299053Y0174015D01*
X0298874Y0173963D01*
X0298694Y0173916D01*
X0298513Y0173874D01*
X0298331Y0173835D01*
X0298147Y0173802D01*
X0297964Y0173772D01*
X0297779Y0173748D01*
X0297594Y0173727D01*
X0297408Y0173711D01*
X0297222Y0173700D01*
X0297036Y0173693D01*
X0296850Y0173691D01*
X0296664Y0173693D01*
X0296478Y0173700D01*
X0296292Y0173711D01*
X0296106Y0173727D01*
X0295921Y0173748D01*
X0295736Y0173772D01*
X0295553Y0173802D01*
X0295369Y0173835D01*
X0295187Y0173874D01*
X0295006Y0173916D01*
X0294826Y0173963D01*
X0294647Y0174015D01*
X0294469Y0174071D01*
X0294293Y0174131D01*
X0294118Y0174195D01*
X0293945Y0174263D01*
X0293773Y0174336D01*
X0293603Y0174413D01*
X0293436Y0174494D01*
X0293270Y0174579D01*
X0293106Y0174668D01*
X0292945Y0174761D01*
X0292786Y0174858D01*
X0292629Y0174959D01*
X0292475Y0175063D01*
X0292324Y0175172D01*
X0292175Y0175283D01*
X0292029Y0175399D01*
X0291885Y0175518D01*
X0291745Y0175640D01*
X0291608Y0175766D01*
X0291473Y0175895D01*
X0291342Y0176028D01*
X0291215Y0176163D01*
X0291090Y0176302D01*
X0290969Y0176443D01*
X0290852Y0176588D01*
X0290738Y0176735D01*
X0290627Y0176885D01*
X0290520Y0177038D01*
X0290417Y0177193D01*
X0290318Y0177350D01*
X0290223Y0177510D01*
X0290131Y0177673D01*
X0290044Y0177837D01*
X0289961Y0178004D01*
X0312965Y0146587D02*
X0313432Y0146587D01*
X0313899Y0146120D01*
X0314366Y0146587D01*
X0314833Y0146587D01*
X0315300Y0146120D01*
X0315300Y0145186D01*
X0314833Y0144719D01*
X0313899Y0145653D02*
X0313899Y0146120D01*
X0312965Y0146587D02*
X0312498Y0146120D01*
X0312498Y0145186D01*
X0312965Y0144719D01*
X0313002Y0137487D02*
X0312535Y0137020D01*
X0312535Y0136086D01*
X0313002Y0135619D01*
X0313002Y0137487D02*
X0313469Y0137487D01*
X0315337Y0135619D01*
X0315337Y0137487D01*
X0315300Y0128975D02*
X0315300Y0127107D01*
X0315300Y0128041D02*
X0312498Y0128041D01*
X0313432Y0127107D01*
X0355553Y0128972D02*
X0355553Y0132516D01*
X0355553Y0128972D02*
X0364608Y0119917D01*
X0387837Y0119917D01*
X0387837Y0132516D01*
X0387837Y0139602D02*
X0387837Y0152201D01*
X0364608Y0152201D01*
X0355553Y0143146D01*
X0355553Y0139602D01*
X0356538Y0139602D02*
X0356629Y0139971D01*
X0356728Y0140337D01*
X0356837Y0140701D01*
X0356955Y0141062D01*
X0357081Y0141419D01*
X0357216Y0141774D01*
X0357360Y0142125D01*
X0357512Y0142473D01*
X0357673Y0142817D01*
X0357842Y0143157D01*
X0358019Y0143493D01*
X0358204Y0143824D01*
X0358397Y0144151D01*
X0358599Y0144472D01*
X0358808Y0144789D01*
X0359024Y0145101D01*
X0359249Y0145407D01*
X0359480Y0145708D01*
X0359719Y0146003D01*
X0359965Y0146292D01*
X0360218Y0146575D01*
X0360478Y0146851D01*
X0360744Y0147122D01*
X0361017Y0147385D01*
X0361297Y0147642D01*
X0361582Y0147892D01*
X0361874Y0148136D01*
X0362171Y0148371D01*
X0362474Y0148600D01*
X0362783Y0148821D01*
X0363096Y0149035D01*
X0363415Y0149240D01*
X0363739Y0149438D01*
X0364068Y0149628D01*
X0364401Y0149810D01*
X0364738Y0149984D01*
X0365080Y0150149D01*
X0365426Y0150307D01*
X0365775Y0150455D01*
X0366128Y0150595D01*
X0366484Y0150727D01*
X0366843Y0150849D01*
X0367205Y0150963D01*
X0367570Y0151068D01*
X0367937Y0151165D01*
X0368306Y0151252D01*
X0368678Y0151330D01*
X0369051Y0151399D01*
X0369426Y0151459D01*
X0369802Y0151509D01*
X0370179Y0151551D01*
X0370557Y0151583D01*
X0370936Y0151606D01*
X0371315Y0151620D01*
X0371695Y0151625D01*
X0372075Y0151620D01*
X0372454Y0151606D01*
X0372833Y0151583D01*
X0373211Y0151551D01*
X0373588Y0151509D01*
X0373964Y0151459D01*
X0374339Y0151399D01*
X0374712Y0151330D01*
X0375084Y0151252D01*
X0375453Y0151165D01*
X0375820Y0151068D01*
X0376185Y0150963D01*
X0376547Y0150849D01*
X0376906Y0150727D01*
X0377262Y0150595D01*
X0377615Y0150455D01*
X0377964Y0150307D01*
X0378310Y0150149D01*
X0378652Y0149984D01*
X0378989Y0149810D01*
X0379322Y0149628D01*
X0379651Y0149438D01*
X0379975Y0149240D01*
X0380294Y0149035D01*
X0380607Y0148821D01*
X0380916Y0148600D01*
X0381219Y0148371D01*
X0381516Y0148136D01*
X0381808Y0147892D01*
X0382093Y0147642D01*
X0382373Y0147385D01*
X0382646Y0147122D01*
X0382912Y0146851D01*
X0383172Y0146575D01*
X0383425Y0146292D01*
X0383671Y0146003D01*
X0383910Y0145708D01*
X0384141Y0145407D01*
X0384366Y0145101D01*
X0384582Y0144789D01*
X0384791Y0144472D01*
X0384993Y0144151D01*
X0385186Y0143824D01*
X0385371Y0143493D01*
X0385548Y0143157D01*
X0385717Y0142817D01*
X0385878Y0142473D01*
X0386030Y0142125D01*
X0386174Y0141774D01*
X0386309Y0141419D01*
X0386435Y0141062D01*
X0386553Y0140701D01*
X0386662Y0140337D01*
X0386761Y0139971D01*
X0386852Y0139602D01*
X0386852Y0132516D02*
X0386761Y0132147D01*
X0386662Y0131781D01*
X0386553Y0131417D01*
X0386435Y0131056D01*
X0386309Y0130699D01*
X0386174Y0130344D01*
X0386030Y0129993D01*
X0385878Y0129645D01*
X0385717Y0129301D01*
X0385548Y0128961D01*
X0385371Y0128625D01*
X0385186Y0128294D01*
X0384993Y0127967D01*
X0384791Y0127646D01*
X0384582Y0127329D01*
X0384366Y0127017D01*
X0384141Y0126711D01*
X0383910Y0126410D01*
X0383671Y0126115D01*
X0383425Y0125826D01*
X0383172Y0125543D01*
X0382912Y0125267D01*
X0382646Y0124996D01*
X0382373Y0124733D01*
X0382093Y0124476D01*
X0381808Y0124226D01*
X0381516Y0123982D01*
X0381219Y0123747D01*
X0380916Y0123518D01*
X0380607Y0123297D01*
X0380294Y0123083D01*
X0379975Y0122878D01*
X0379651Y0122680D01*
X0379322Y0122490D01*
X0378989Y0122308D01*
X0378652Y0122134D01*
X0378310Y0121969D01*
X0377964Y0121811D01*
X0377615Y0121663D01*
X0377262Y0121523D01*
X0376906Y0121391D01*
X0376547Y0121269D01*
X0376185Y0121155D01*
X0375820Y0121050D01*
X0375453Y0120953D01*
X0375084Y0120866D01*
X0374712Y0120788D01*
X0374339Y0120719D01*
X0373964Y0120659D01*
X0373588Y0120609D01*
X0373211Y0120567D01*
X0372833Y0120535D01*
X0372454Y0120512D01*
X0372075Y0120498D01*
X0371695Y0120493D01*
X0371315Y0120498D01*
X0370936Y0120512D01*
X0370557Y0120535D01*
X0370179Y0120567D01*
X0369802Y0120609D01*
X0369426Y0120659D01*
X0369051Y0120719D01*
X0368678Y0120788D01*
X0368306Y0120866D01*
X0367937Y0120953D01*
X0367570Y0121050D01*
X0367205Y0121155D01*
X0366843Y0121269D01*
X0366484Y0121391D01*
X0366128Y0121523D01*
X0365775Y0121663D01*
X0365426Y0121811D01*
X0365080Y0121969D01*
X0364738Y0122134D01*
X0364401Y0122308D01*
X0364068Y0122490D01*
X0363739Y0122680D01*
X0363415Y0122878D01*
X0363096Y0123083D01*
X0362783Y0123297D01*
X0362474Y0123518D01*
X0362171Y0123747D01*
X0361874Y0123982D01*
X0361582Y0124226D01*
X0361297Y0124476D01*
X0361017Y0124733D01*
X0360744Y0124996D01*
X0360478Y0125267D01*
X0360218Y0125543D01*
X0359965Y0125826D01*
X0359719Y0126115D01*
X0359480Y0126410D01*
X0359249Y0126711D01*
X0359024Y0127017D01*
X0358808Y0127329D01*
X0358599Y0127646D01*
X0358397Y0127967D01*
X0358204Y0128294D01*
X0358019Y0128625D01*
X0357842Y0128961D01*
X0357673Y0129301D01*
X0357512Y0129645D01*
X0357360Y0129993D01*
X0357216Y0130344D01*
X0357081Y0130699D01*
X0356955Y0131056D01*
X0356837Y0131417D01*
X0356728Y0131781D01*
X0356629Y0132147D01*
X0356538Y0132516D01*
X0388871Y0175797D02*
X0388871Y0178099D01*
X0389639Y0178867D01*
X0391173Y0178867D01*
X0391941Y0178099D01*
X0391941Y0175797D01*
X0393475Y0175797D02*
X0388871Y0175797D01*
X0388871Y0180401D02*
X0388871Y0183471D01*
X0388871Y0185005D02*
X0393475Y0188075D01*
X0388871Y0188075D01*
X0388871Y0189609D02*
X0388871Y0192678D01*
X0389639Y0192678D01*
X0392708Y0189609D01*
X0393475Y0189609D01*
X0393475Y0185005D02*
X0388871Y0185005D01*
X0388871Y0181936D02*
X0393475Y0181936D01*
X0392708Y0194213D02*
X0391941Y0194213D01*
X0391173Y0194980D01*
X0391173Y0196515D01*
X0391941Y0197282D01*
X0392708Y0197282D01*
X0393475Y0196515D01*
X0393475Y0194980D01*
X0392708Y0194213D01*
X0391173Y0194980D02*
X0390406Y0194213D01*
X0389639Y0194213D01*
X0388871Y0194980D01*
X0388871Y0196515D01*
X0389639Y0197282D01*
X0390406Y0197282D01*
X0391173Y0196515D01*
X0389639Y0198817D02*
X0388871Y0199584D01*
X0388871Y0201119D01*
X0389639Y0201886D01*
X0392708Y0198817D01*
X0393475Y0199584D01*
X0393475Y0201119D01*
X0392708Y0201886D01*
X0389639Y0201886D01*
X0389639Y0203421D02*
X0388871Y0204188D01*
X0388871Y0205723D01*
X0389639Y0206490D01*
X0392708Y0203421D01*
X0393475Y0204188D01*
X0393475Y0205723D01*
X0392708Y0206490D01*
X0389639Y0206490D01*
X0389639Y0208025D02*
X0388871Y0208792D01*
X0388871Y0210327D01*
X0389639Y0211094D01*
X0392708Y0208025D01*
X0393475Y0208792D01*
X0393475Y0210327D01*
X0392708Y0211094D01*
X0389639Y0211094D01*
X0388871Y0212629D02*
X0393475Y0212629D01*
X0391941Y0214163D01*
X0393475Y0215698D01*
X0388871Y0215698D01*
X0389639Y0208025D02*
X0392708Y0208025D01*
X0392708Y0203421D02*
X0389639Y0203421D01*
X0389639Y0198817D02*
X0392708Y0198817D01*
D15*
X0117750Y0140000D02*
X0117750Y0107500D01*
X0081750Y0107500D01*
X0081750Y0140000D01*
X0117750Y0140000D01*
X0052313Y0279626D02*
X0052313Y0319626D01*
X0040813Y0320126D02*
X0040813Y0279126D01*
X0029313Y0279626D02*
X0029313Y0319626D01*
D16*
X0089750Y0154750D03*
X0099750Y0154750D03*
X0109750Y0154750D03*
D17*
X0109750Y0148000D03*
X0099750Y0148000D03*
X0089750Y0148000D03*
D18*
X0326921Y0130140D03*
D19*
X0326921Y0126890D03*
X0326921Y0144390D03*
D20*
X0305500Y0153400D02*
X0305500Y0127600D01*
X0291500Y0127600D01*
X0291500Y0153400D01*
X0305500Y0153400D01*
X0351000Y0194750D02*
X0353500Y0192250D01*
X0358500Y0192250D01*
X0361000Y0194750D01*
X0361000Y0199750D01*
X0358500Y0202250D01*
X0361000Y0204750D01*
X0361000Y0209750D01*
X0358500Y0212250D01*
X0353500Y0212250D01*
X0351000Y0209750D01*
X0351000Y0204750D01*
X0353500Y0202250D01*
X0351000Y0199750D01*
X0351000Y0194750D01*
X0353250Y0234750D02*
X0350750Y0237250D01*
X0350750Y0242250D01*
X0353250Y0244750D01*
X0358250Y0244750D01*
X0360750Y0242250D01*
X0360750Y0237250D01*
X0358250Y0234750D01*
X0353250Y0234750D01*
X0352750Y0245500D02*
X0357750Y0245500D01*
X0360250Y0248000D01*
X0360250Y0253000D01*
X0357750Y0255500D01*
X0352750Y0255500D01*
X0350250Y0253000D01*
X0350250Y0248000D01*
X0352750Y0245500D01*
X0434232Y0252130D02*
X0447224Y0252130D01*
X0447224Y0280870D01*
X0434232Y0280870D01*
X0434232Y0252130D01*
X0446437Y0277327D02*
X0447028Y0277327D01*
X0446437Y0277327D02*
X0446437Y0279295D01*
X0447028Y0279295D01*
X0446974Y0291505D02*
X0433982Y0291505D01*
X0433982Y0320245D01*
X0446974Y0320245D01*
X0446974Y0291505D01*
X0446778Y0316702D02*
X0446187Y0316702D01*
X0446187Y0318670D01*
X0446778Y0318670D01*
X0379870Y0371982D02*
X0379870Y0384974D01*
X0351130Y0384974D01*
X0351130Y0371982D01*
X0379870Y0371982D01*
X0354673Y0384187D02*
X0354673Y0384778D01*
X0354673Y0384187D02*
X0352705Y0384187D01*
X0352705Y0384778D01*
X0264878Y0231600D02*
X0259878Y0231600D01*
X0257378Y0229100D01*
X0254878Y0231600D01*
X0249878Y0231600D01*
X0247378Y0229100D01*
X0244878Y0231600D01*
X0239878Y0231600D01*
X0237378Y0229100D01*
X0234878Y0231600D01*
X0229878Y0231600D01*
X0227378Y0229100D01*
X0224878Y0231600D01*
X0219878Y0231600D01*
X0217378Y0229100D01*
X0214878Y0231600D01*
X0209878Y0231600D01*
X0207378Y0229100D01*
X0204878Y0231600D01*
X0199878Y0231600D01*
X0197378Y0229100D01*
X0194878Y0231600D01*
X0189878Y0231600D01*
X0187378Y0229100D01*
X0187378Y0224100D01*
X0189878Y0221600D01*
X0194878Y0221600D01*
X0197378Y0224100D01*
X0199878Y0221600D01*
X0204878Y0221600D01*
X0207378Y0224100D01*
X0209878Y0221600D01*
X0214878Y0221600D01*
X0217378Y0224100D01*
X0219878Y0221600D01*
X0224878Y0221600D01*
X0227378Y0224100D01*
X0229878Y0221600D01*
X0234878Y0221600D01*
X0237378Y0224100D01*
X0239878Y0221600D01*
X0244878Y0221600D01*
X0247378Y0224100D01*
X0249878Y0221600D01*
X0254878Y0221600D01*
X0257378Y0224100D01*
X0259878Y0221600D01*
X0264878Y0221600D01*
X0267378Y0224100D01*
X0267378Y0229100D01*
X0264878Y0231600D01*
X0348625Y0108125D02*
X0353625Y0108125D01*
X0356125Y0105625D01*
X0356125Y0100625D01*
X0353625Y0098125D01*
X0348625Y0098125D01*
X0346125Y0100625D01*
X0346125Y0105625D01*
X0348625Y0108125D01*
X0356125Y0105625D02*
X0358625Y0108125D01*
X0363625Y0108125D01*
X0366125Y0105625D01*
X0366125Y0100625D01*
X0363625Y0098125D01*
X0358625Y0098125D01*
X0356125Y0100625D01*
X0366125Y0100625D02*
X0368625Y0098125D01*
X0373625Y0098125D01*
X0376125Y0100625D01*
X0376125Y0105625D01*
X0378625Y0108125D01*
X0383625Y0108125D01*
X0386125Y0105625D01*
X0386125Y0100625D01*
X0383625Y0098125D01*
X0378625Y0098125D01*
X0376125Y0100625D01*
X0376125Y0105625D02*
X0373625Y0108125D01*
X0368625Y0108125D01*
X0366125Y0105625D01*
X0386125Y0105625D02*
X0388625Y0108125D01*
X0393625Y0108125D01*
X0396125Y0105625D01*
X0396125Y0100625D01*
X0393625Y0098125D01*
X0388625Y0098125D01*
X0386125Y0100625D01*
X0396125Y0100625D02*
X0398625Y0098125D01*
X0403625Y0098125D01*
X0406125Y0100625D01*
X0406125Y0105625D01*
X0403625Y0108125D01*
X0398625Y0108125D01*
X0396125Y0105625D01*
X0324500Y0043000D02*
X0322000Y0045500D01*
X0317000Y0045500D01*
X0314500Y0043000D01*
X0314500Y0038000D01*
X0317000Y0035500D01*
X0314500Y0033000D01*
X0314500Y0028000D01*
X0317000Y0025500D01*
X0322000Y0025500D01*
X0324500Y0028000D01*
X0324500Y0033000D01*
X0322000Y0035500D01*
X0324500Y0038000D01*
X0324500Y0043000D01*
X0309500Y0043250D02*
X0309500Y0038250D01*
X0307000Y0035750D01*
X0309500Y0033250D01*
X0309500Y0028250D01*
X0307000Y0025750D01*
X0302000Y0025750D01*
X0299500Y0028250D01*
X0299500Y0033250D01*
X0302000Y0035750D01*
X0299500Y0038250D01*
X0299500Y0043250D01*
X0302000Y0045750D01*
X0307000Y0045750D01*
X0309500Y0043250D01*
X0294125Y0043000D02*
X0294125Y0038000D01*
X0291625Y0035500D01*
X0294125Y0033000D01*
X0294125Y0028000D01*
X0291625Y0025500D01*
X0286625Y0025500D01*
X0284125Y0028000D01*
X0284125Y0033000D01*
X0286625Y0035500D01*
X0284125Y0038000D01*
X0284125Y0043000D01*
X0286625Y0045500D01*
X0291625Y0045500D01*
X0294125Y0043000D01*
X0246022Y0082500D02*
X0246029Y0083070D01*
X0246050Y0083640D01*
X0246085Y0084209D01*
X0246134Y0084777D01*
X0246197Y0085343D01*
X0246273Y0085908D01*
X0246364Y0086471D01*
X0246468Y0087032D01*
X0246586Y0087589D01*
X0246718Y0088144D01*
X0246863Y0088695D01*
X0247022Y0089243D01*
X0247194Y0089786D01*
X0247380Y0090325D01*
X0247578Y0090860D01*
X0247790Y0091389D01*
X0248015Y0091913D01*
X0248252Y0092431D01*
X0248502Y0092944D01*
X0248765Y0093450D01*
X0249040Y0093949D01*
X0249327Y0094442D01*
X0249626Y0094927D01*
X0249937Y0095405D01*
X0250259Y0095875D01*
X0250593Y0096337D01*
X0250938Y0096791D01*
X0251295Y0097236D01*
X0251662Y0097672D01*
X0252039Y0098099D01*
X0252427Y0098517D01*
X0252825Y0098925D01*
X0253233Y0099323D01*
X0253651Y0099711D01*
X0254078Y0100088D01*
X0254514Y0100455D01*
X0254959Y0100812D01*
X0255413Y0101157D01*
X0255875Y0101491D01*
X0256345Y0101813D01*
X0256823Y0102124D01*
X0257308Y0102423D01*
X0257801Y0102710D01*
X0258300Y0102985D01*
X0258806Y0103248D01*
X0259319Y0103498D01*
X0259837Y0103735D01*
X0260361Y0103960D01*
X0260890Y0104172D01*
X0261425Y0104370D01*
X0261964Y0104556D01*
X0262507Y0104728D01*
X0263055Y0104887D01*
X0263606Y0105032D01*
X0264161Y0105164D01*
X0264718Y0105282D01*
X0265279Y0105386D01*
X0265842Y0105477D01*
X0266407Y0105553D01*
X0266973Y0105616D01*
X0267541Y0105665D01*
X0268110Y0105700D01*
X0268680Y0105721D01*
X0269250Y0105728D01*
X0269820Y0105721D01*
X0270390Y0105700D01*
X0270959Y0105665D01*
X0271527Y0105616D01*
X0272093Y0105553D01*
X0272658Y0105477D01*
X0273221Y0105386D01*
X0273782Y0105282D01*
X0274339Y0105164D01*
X0274894Y0105032D01*
X0275445Y0104887D01*
X0275993Y0104728D01*
X0276536Y0104556D01*
X0277075Y0104370D01*
X0277610Y0104172D01*
X0278139Y0103960D01*
X0278663Y0103735D01*
X0279181Y0103498D01*
X0279694Y0103248D01*
X0280200Y0102985D01*
X0280699Y0102710D01*
X0281192Y0102423D01*
X0281677Y0102124D01*
X0282155Y0101813D01*
X0282625Y0101491D01*
X0283087Y0101157D01*
X0283541Y0100812D01*
X0283986Y0100455D01*
X0284422Y0100088D01*
X0284849Y0099711D01*
X0285267Y0099323D01*
X0285675Y0098925D01*
X0286073Y0098517D01*
X0286461Y0098099D01*
X0286838Y0097672D01*
X0287205Y0097236D01*
X0287562Y0096791D01*
X0287907Y0096337D01*
X0288241Y0095875D01*
X0288563Y0095405D01*
X0288874Y0094927D01*
X0289173Y0094442D01*
X0289460Y0093949D01*
X0289735Y0093450D01*
X0289998Y0092944D01*
X0290248Y0092431D01*
X0290485Y0091913D01*
X0290710Y0091389D01*
X0290922Y0090860D01*
X0291120Y0090325D01*
X0291306Y0089786D01*
X0291478Y0089243D01*
X0291637Y0088695D01*
X0291782Y0088144D01*
X0291914Y0087589D01*
X0292032Y0087032D01*
X0292136Y0086471D01*
X0292227Y0085908D01*
X0292303Y0085343D01*
X0292366Y0084777D01*
X0292415Y0084209D01*
X0292450Y0083640D01*
X0292471Y0083070D01*
X0292478Y0082500D01*
X0292471Y0081930D01*
X0292450Y0081360D01*
X0292415Y0080791D01*
X0292366Y0080223D01*
X0292303Y0079657D01*
X0292227Y0079092D01*
X0292136Y0078529D01*
X0292032Y0077968D01*
X0291914Y0077411D01*
X0291782Y0076856D01*
X0291637Y0076305D01*
X0291478Y0075757D01*
X0291306Y0075214D01*
X0291120Y0074675D01*
X0290922Y0074140D01*
X0290710Y0073611D01*
X0290485Y0073087D01*
X0290248Y0072569D01*
X0289998Y0072056D01*
X0289735Y0071550D01*
X0289460Y0071051D01*
X0289173Y0070558D01*
X0288874Y0070073D01*
X0288563Y0069595D01*
X0288241Y0069125D01*
X0287907Y0068663D01*
X0287562Y0068209D01*
X0287205Y0067764D01*
X0286838Y0067328D01*
X0286461Y0066901D01*
X0286073Y0066483D01*
X0285675Y0066075D01*
X0285267Y0065677D01*
X0284849Y0065289D01*
X0284422Y0064912D01*
X0283986Y0064545D01*
X0283541Y0064188D01*
X0283087Y0063843D01*
X0282625Y0063509D01*
X0282155Y0063187D01*
X0281677Y0062876D01*
X0281192Y0062577D01*
X0280699Y0062290D01*
X0280200Y0062015D01*
X0279694Y0061752D01*
X0279181Y0061502D01*
X0278663Y0061265D01*
X0278139Y0061040D01*
X0277610Y0060828D01*
X0277075Y0060630D01*
X0276536Y0060444D01*
X0275993Y0060272D01*
X0275445Y0060113D01*
X0274894Y0059968D01*
X0274339Y0059836D01*
X0273782Y0059718D01*
X0273221Y0059614D01*
X0272658Y0059523D01*
X0272093Y0059447D01*
X0271527Y0059384D01*
X0270959Y0059335D01*
X0270390Y0059300D01*
X0269820Y0059279D01*
X0269250Y0059272D01*
X0268680Y0059279D01*
X0268110Y0059300D01*
X0267541Y0059335D01*
X0266973Y0059384D01*
X0266407Y0059447D01*
X0265842Y0059523D01*
X0265279Y0059614D01*
X0264718Y0059718D01*
X0264161Y0059836D01*
X0263606Y0059968D01*
X0263055Y0060113D01*
X0262507Y0060272D01*
X0261964Y0060444D01*
X0261425Y0060630D01*
X0260890Y0060828D01*
X0260361Y0061040D01*
X0259837Y0061265D01*
X0259319Y0061502D01*
X0258806Y0061752D01*
X0258300Y0062015D01*
X0257801Y0062290D01*
X0257308Y0062577D01*
X0256823Y0062876D01*
X0256345Y0063187D01*
X0255875Y0063509D01*
X0255413Y0063843D01*
X0254959Y0064188D01*
X0254514Y0064545D01*
X0254078Y0064912D01*
X0253651Y0065289D01*
X0253233Y0065677D01*
X0252825Y0066075D01*
X0252427Y0066483D01*
X0252039Y0066901D01*
X0251662Y0067328D01*
X0251295Y0067764D01*
X0250938Y0068209D01*
X0250593Y0068663D01*
X0250259Y0069125D01*
X0249937Y0069595D01*
X0249626Y0070073D01*
X0249327Y0070558D01*
X0249040Y0071051D01*
X0248765Y0071550D01*
X0248502Y0072056D01*
X0248252Y0072569D01*
X0248015Y0073087D01*
X0247790Y0073611D01*
X0247578Y0074140D01*
X0247380Y0074675D01*
X0247194Y0075214D01*
X0247022Y0075757D01*
X0246863Y0076305D01*
X0246718Y0076856D01*
X0246586Y0077411D01*
X0246468Y0077968D01*
X0246364Y0078529D01*
X0246273Y0079092D01*
X0246197Y0079657D01*
X0246134Y0080223D01*
X0246085Y0080791D01*
X0246050Y0081360D01*
X0246029Y0081930D01*
X0246022Y0082500D01*
X0098250Y0222500D02*
X0095750Y0220000D01*
X0090750Y0220000D01*
X0088250Y0222500D01*
X0088250Y0227500D01*
X0090750Y0230000D01*
X0095750Y0230000D01*
X0098250Y0227500D01*
X0098250Y0222500D01*
X0095750Y0230750D02*
X0090750Y0230750D01*
X0088250Y0233250D01*
X0088250Y0238250D01*
X0090750Y0240750D01*
X0095750Y0240750D01*
X0098250Y0238250D01*
X0098250Y0233250D01*
X0095750Y0230750D01*
X0095500Y0241250D02*
X0090500Y0241250D01*
X0088000Y0243750D01*
X0088000Y0248750D01*
X0090500Y0251250D01*
X0095500Y0251250D01*
X0098000Y0248750D01*
X0098000Y0243750D01*
X0095500Y0241250D01*
X0095750Y0251750D02*
X0090750Y0251750D01*
X0088250Y0254250D01*
X0088250Y0259250D01*
X0090750Y0261750D01*
X0095750Y0261750D01*
X0098250Y0259250D01*
X0098250Y0254250D01*
X0095750Y0251750D01*
X0095875Y0262125D02*
X0090875Y0262125D01*
X0088375Y0264625D01*
X0088375Y0269625D01*
X0090875Y0272125D01*
X0095875Y0272125D01*
X0098375Y0269625D01*
X0098375Y0264625D01*
X0095875Y0262125D01*
X0045813Y0245250D02*
X0045813Y0240250D01*
X0043313Y0237750D01*
X0045813Y0235250D01*
X0045813Y0230250D01*
X0043313Y0227750D01*
X0038313Y0227750D01*
X0035813Y0230250D01*
X0035813Y0235250D01*
X0038313Y0237750D01*
X0035813Y0240250D01*
X0035813Y0245250D01*
X0038313Y0247750D01*
X0043313Y0247750D01*
X0045813Y0245250D01*
X0063500Y0167250D02*
X0068500Y0167250D01*
X0071000Y0164750D01*
X0073500Y0167250D01*
X0078500Y0167250D01*
X0081000Y0164750D01*
X0081000Y0159750D01*
X0078500Y0157250D01*
X0073500Y0157250D01*
X0071000Y0159750D01*
X0068500Y0157250D01*
X0063500Y0157250D01*
X0061000Y0159750D01*
X0061000Y0164750D01*
X0063500Y0167250D01*
X0060705Y0358215D02*
X0016610Y0358215D01*
X0016610Y0383805D01*
X0060705Y0383805D01*
X0060705Y0358215D01*
X0072130Y0374482D02*
X0072130Y0387474D01*
X0100870Y0387474D01*
X0100870Y0374482D01*
X0072130Y0374482D01*
X0060705Y0383805D02*
X0060705Y0387742D01*
X0016610Y0387742D01*
X0016610Y0383805D01*
X0073705Y0386687D02*
X0075673Y0386687D01*
X0075673Y0387278D01*
X0073705Y0387278D02*
X0073705Y0386687D01*
X0109130Y0387724D02*
X0109130Y0374732D01*
X0137870Y0374732D01*
X0137870Y0387724D01*
X0109130Y0387724D01*
X0110705Y0387528D02*
X0110705Y0386937D01*
X0112673Y0386937D01*
X0112673Y0387528D01*
D21*
X0185785Y0104207D03*
X0185785Y0098793D03*
X0185785Y0091457D03*
X0185785Y0086043D03*
D22*
X0187311Y0088750D03*
X0187311Y0101500D03*
X0067458Y0264186D03*
X0196625Y0379061D03*
X0212250Y0379186D03*
X0228375Y0379061D03*
X0244125Y0379061D03*
D23*
X0241418Y0377535D03*
X0246832Y0377535D03*
X0231082Y0377535D03*
X0225668Y0377535D03*
X0214957Y0377660D03*
X0209543Y0377660D03*
X0199332Y0377535D03*
X0193918Y0377535D03*
X0070165Y0265712D03*
X0064751Y0265712D03*
D24*
X0051063Y0278376D03*
X0030563Y0278376D03*
X0030563Y0320876D03*
X0051063Y0320876D03*
D25*
X0040813Y0320876D03*
X0040813Y0278376D03*
D26*
X0050313Y0299626D03*
X0031313Y0299626D03*
D27*
X0033063Y0329876D03*
X0048563Y0329876D03*
X0048563Y0269376D03*
X0033063Y0269376D03*
D28*
X0031813Y0267626D03*
X0049813Y0267626D03*
X0049813Y0331626D03*
X0031813Y0331626D03*
M02*
