G75*
%MOIN*%
%OFA0B0*%
%FSLAX25Y25*%
%IPPOS*%
%LPD*%
%AMOC8*
5,1,8,0,0,1.08239X$1,22.5*
%
%ADD10C,0.08280*%
%ADD11R,0.06343X0.06343*%
%ADD12C,0.06343*%
%ADD13C,0.06824*%
%ADD14C,0.07400*%
%ADD15C,0.13800*%
%ADD16C,0.05556*%
%ADD17R,0.08800X0.08800*%
%ADD18C,0.08800*%
%ADD19C,0.08200*%
%ADD20OC8,0.06824*%
%ADD21C,0.05950*%
%ADD22R,0.06824X0.06824*%
%ADD23C,0.10800*%
%ADD24C,0.05162*%
%ADD25C,0.07800*%
%ADD26R,0.05200X0.01800*%
%ADD27R,0.05200X0.02000*%
%ADD28R,0.08200X0.08200*%
%ADD29C,0.05550*%
%ADD30C,0.04762*%
D10*
X0010843Y0010843D03*
X0010843Y0384858D03*
X0443913Y0384858D03*
X0443913Y0010843D03*
D11*
X0326921Y0120640D03*
X0025039Y0173587D03*
D12*
X0055039Y0173587D03*
X0326921Y0150640D03*
D13*
X0424750Y0154750D03*
X0424750Y0144907D03*
X0424750Y0127250D03*
X0424750Y0117407D03*
X0424802Y0099959D03*
X0424802Y0090116D03*
X0424875Y0072875D03*
X0424875Y0063032D03*
X0425000Y0173657D03*
X0425000Y0183500D03*
X0424278Y0364125D03*
X0414435Y0364125D03*
X0404593Y0364125D03*
X0394750Y0364125D03*
D14*
X0109750Y0165800D02*
X0109750Y0159200D01*
X0099750Y0159200D02*
X0099750Y0165800D01*
X0089750Y0165800D02*
X0089750Y0159200D01*
D15*
X0099750Y0093500D03*
D16*
X0356642Y0380250D03*
X0362547Y0380250D03*
X0368453Y0380250D03*
X0374358Y0380250D03*
X0442250Y0314733D03*
X0442250Y0308828D03*
X0442250Y0302922D03*
X0442250Y0297017D03*
X0442500Y0275358D03*
X0442500Y0269453D03*
X0442500Y0263547D03*
X0442500Y0257642D03*
X0132358Y0383000D03*
X0126453Y0383000D03*
X0120547Y0383000D03*
X0114642Y0383000D03*
X0095358Y0382750D03*
X0089453Y0382750D03*
X0083547Y0382750D03*
X0077642Y0382750D03*
D17*
X0048500Y0374750D03*
D18*
X0028815Y0374750D03*
D19*
X0093375Y0267125D03*
X0093250Y0256750D03*
X0093000Y0246250D03*
X0093250Y0235750D03*
X0093250Y0225000D03*
X0040813Y0232750D03*
X0040813Y0242750D03*
X0066000Y0162250D03*
X0076000Y0162250D03*
X0202378Y0226600D03*
X0212378Y0226600D03*
X0222378Y0226600D03*
X0232378Y0226600D03*
X0242378Y0226600D03*
X0252378Y0226600D03*
X0262378Y0226600D03*
X0355250Y0250500D03*
X0355750Y0239750D03*
X0356000Y0207250D03*
X0356000Y0197250D03*
X0351125Y0103625D03*
X0361125Y0103625D03*
X0371125Y0103625D03*
X0381125Y0103625D03*
X0391125Y0103625D03*
X0401125Y0103625D03*
X0319500Y0040500D03*
X0319500Y0030500D03*
X0304500Y0030750D03*
X0304500Y0040750D03*
X0289125Y0040500D03*
X0289125Y0030500D03*
D20*
X0323500Y0239000D03*
X0323500Y0249000D03*
X0323500Y0259000D03*
X0323500Y0269000D03*
X0323500Y0279000D03*
X0323500Y0289000D03*
X0323500Y0299000D03*
X0323500Y0309000D03*
X0323500Y0319000D03*
X0323500Y0329000D03*
X0333500Y0329000D03*
X0333500Y0319000D03*
X0333500Y0309000D03*
X0333500Y0299000D03*
X0333500Y0289000D03*
X0333500Y0279000D03*
X0333500Y0269000D03*
X0333500Y0259000D03*
X0333500Y0249000D03*
X0333500Y0239000D03*
X0163500Y0239000D03*
X0163500Y0249000D03*
X0153500Y0249000D03*
X0153500Y0239000D03*
X0153500Y0259000D03*
X0153500Y0269000D03*
X0163500Y0269000D03*
X0163500Y0259000D03*
X0163500Y0279000D03*
X0163500Y0289000D03*
X0153500Y0289000D03*
X0153500Y0279000D03*
X0153500Y0299000D03*
X0153500Y0309000D03*
X0163500Y0309000D03*
X0163500Y0299000D03*
X0163500Y0319000D03*
X0163500Y0329000D03*
X0153500Y0329000D03*
X0153500Y0319000D03*
D21*
X0228000Y0048153D03*
X0240175Y0048575D03*
X0252500Y0048153D03*
X0264550Y0048300D03*
X0264550Y0018772D03*
X0252500Y0018625D03*
X0240175Y0019047D03*
X0228000Y0018625D03*
D22*
X0372553Y0159731D03*
X0397514Y0159731D03*
X0410033Y0159731D03*
X0410053Y0222251D03*
X0372553Y0222251D03*
D23*
X0045813Y0255326D02*
X0035813Y0255326D01*
X0035813Y0343926D02*
X0045813Y0343926D01*
D24*
X0041465Y0046060D03*
X0041465Y0038186D03*
X0041465Y0030312D03*
X0041465Y0022438D03*
X0070590Y0022438D03*
X0070590Y0030312D03*
X0070590Y0038186D03*
X0070590Y0046060D03*
X0098090Y0046060D03*
X0098090Y0038186D03*
X0098090Y0030312D03*
X0098090Y0022438D03*
X0127840Y0022438D03*
X0127840Y0030312D03*
X0127840Y0038186D03*
X0127840Y0046060D03*
X0154715Y0046060D03*
X0154715Y0038186D03*
X0154715Y0030312D03*
X0154715Y0022438D03*
X0182340Y0022438D03*
X0182340Y0030312D03*
X0182340Y0038186D03*
X0182340Y0046060D03*
X0209340Y0046060D03*
X0209340Y0038186D03*
X0209340Y0030312D03*
X0209340Y0022438D03*
D25*
X0256455Y0082500D03*
X0282045Y0082500D03*
D26*
X0190600Y0026500D03*
X0190600Y0024500D03*
X0190600Y0022500D03*
X0162975Y0022500D03*
X0162975Y0024500D03*
X0162975Y0026500D03*
X0134350Y0026500D03*
X0134350Y0024500D03*
X0134350Y0022500D03*
X0106975Y0022500D03*
X0106975Y0024500D03*
X0106975Y0026500D03*
X0078475Y0026500D03*
X0078475Y0024500D03*
X0078475Y0022500D03*
X0049850Y0022500D03*
X0049850Y0024500D03*
X0049850Y0026500D03*
X0020850Y0026000D03*
X0020850Y0024000D03*
X0020850Y0022000D03*
D27*
X0026650Y0022000D03*
X0026650Y0026000D03*
X0055650Y0026500D03*
X0055650Y0022500D03*
X0084275Y0022500D03*
X0084275Y0026500D03*
X0112775Y0026500D03*
X0112775Y0022500D03*
X0140150Y0022500D03*
X0140150Y0026500D03*
X0168775Y0026500D03*
X0168775Y0022500D03*
X0196400Y0022500D03*
X0196400Y0026500D03*
D28*
X0192378Y0226600D03*
D29*
X0179750Y0232250D03*
X0179750Y0213500D03*
X0151000Y0226625D03*
X0108500Y0198500D03*
X0072250Y0202250D03*
X0056000Y0156000D03*
X0172250Y0141000D03*
X0183500Y0141000D03*
X0282250Y0204750D03*
X0311000Y0176000D03*
X0306000Y0157250D03*
X0288500Y0162250D03*
X0304750Y0124750D03*
X0346000Y0181000D03*
X0367250Y0257250D03*
X0296000Y0318500D03*
X0296000Y0336000D03*
X0296000Y0353500D03*
X0296000Y0371000D03*
X0296000Y0382250D03*
X0362250Y0347250D03*
X0252250Y0278500D03*
X0241000Y0277250D03*
X0252250Y0263500D03*
X0234750Y0243500D03*
X0223500Y0266000D03*
X0201000Y0277250D03*
X0197250Y0289750D03*
X0197250Y0302875D03*
X0197250Y0314750D03*
X0197250Y0329750D03*
X0173500Y0334750D03*
X0146000Y0338500D03*
X0119750Y0337250D03*
X0119750Y0327250D03*
X0119750Y0309750D03*
X0077250Y0270375D03*
X0101000Y0368500D03*
X0188500Y0386625D03*
X0221000Y0353500D03*
X0411000Y0083500D03*
X0201782Y0026000D03*
X0174750Y0026000D03*
X0146000Y0026000D03*
X0118500Y0026000D03*
X0089750Y0026000D03*
X0062250Y0026000D03*
X0033500Y0024750D03*
D30*
X0138500Y0011000D03*
X0194750Y0011000D03*
X0142250Y0086000D03*
M02*
