G75*
%MOIN*%
%OFA0B0*%
%FSLAX25Y25*%
%IPPOS*%
%LPD*%
%AMOC8*
5,1,8,0,0,1.08239X$1,22.5*
%
%ADD10R,0.05543X0.05543*%
%ADD11C,0.05543*%
%ADD12C,0.06024*%
%ADD13C,0.06600*%
%ADD14C,0.04756*%
%ADD15R,0.08000X0.08000*%
%ADD16C,0.08000*%
%ADD17C,0.07400*%
%ADD18OC8,0.06024*%
%ADD19C,0.05150*%
%ADD20R,0.06024X0.06024*%
%ADD21C,0.10000*%
%ADD22C,0.04362*%
%ADD23C,0.07000*%
%ADD24R,0.04400X0.01000*%
%ADD25R,0.04400X0.01200*%
%ADD26R,0.07400X0.07400*%
%ADD27C,0.04750*%
%ADD28C,0.02400*%
%ADD29C,0.01600*%
%ADD30C,0.01200*%
%ADD31C,0.03962*%
D10*
X0025039Y0173587D03*
X0326921Y0120640D03*
D11*
X0326921Y0150640D03*
X0055039Y0173587D03*
D12*
X0394750Y0364125D03*
X0404593Y0364125D03*
X0414435Y0364125D03*
X0424278Y0364125D03*
X0425000Y0183500D03*
X0425000Y0173657D03*
X0424750Y0154750D03*
X0424750Y0144907D03*
X0424750Y0127250D03*
X0424750Y0117407D03*
X0424802Y0099959D03*
X0424802Y0090116D03*
X0424875Y0072875D03*
X0424875Y0063032D03*
D13*
X0109750Y0159200D02*
X0109750Y0165800D01*
X0099750Y0165800D02*
X0099750Y0159200D01*
X0089750Y0159200D02*
X0089750Y0165800D01*
D14*
X0089453Y0382750D03*
X0095358Y0382750D03*
X0083547Y0382750D03*
X0077642Y0382750D03*
X0114642Y0383000D03*
X0120547Y0383000D03*
X0126453Y0383000D03*
X0132358Y0383000D03*
X0356642Y0380250D03*
X0362547Y0380250D03*
X0368453Y0380250D03*
X0374358Y0380250D03*
X0442250Y0314733D03*
X0442250Y0308828D03*
X0442250Y0302922D03*
X0442250Y0297017D03*
X0442500Y0275358D03*
X0442500Y0269453D03*
X0442500Y0263547D03*
X0442500Y0257642D03*
D15*
X0048500Y0374750D03*
D16*
X0028815Y0374750D03*
D17*
X0093375Y0267125D03*
X0093250Y0256750D03*
X0093000Y0246250D03*
X0093250Y0235750D03*
X0093250Y0225000D03*
X0040813Y0232750D03*
X0040813Y0242750D03*
X0066000Y0162250D03*
X0076000Y0162250D03*
X0202378Y0226600D03*
X0212378Y0226600D03*
X0222378Y0226600D03*
X0232378Y0226600D03*
X0242378Y0226600D03*
X0252378Y0226600D03*
X0262378Y0226600D03*
X0355250Y0250500D03*
X0355750Y0239750D03*
X0356000Y0207250D03*
X0356000Y0197250D03*
X0351125Y0103625D03*
X0361125Y0103625D03*
X0371125Y0103625D03*
X0381125Y0103625D03*
X0391125Y0103625D03*
X0401125Y0103625D03*
X0319500Y0040500D03*
X0319500Y0030500D03*
X0304500Y0030750D03*
X0304500Y0040750D03*
X0289125Y0040500D03*
X0289125Y0030500D03*
D18*
X0323500Y0239000D03*
X0323500Y0249000D03*
X0323500Y0259000D03*
X0323500Y0269000D03*
X0323500Y0279000D03*
X0323500Y0289000D03*
X0323500Y0299000D03*
X0323500Y0309000D03*
X0323500Y0319000D03*
X0323500Y0329000D03*
X0333500Y0329000D03*
X0333500Y0319000D03*
X0333500Y0309000D03*
X0333500Y0299000D03*
X0333500Y0289000D03*
X0333500Y0279000D03*
X0333500Y0269000D03*
X0333500Y0259000D03*
X0333500Y0249000D03*
X0333500Y0239000D03*
X0163500Y0239000D03*
X0163500Y0249000D03*
X0153500Y0249000D03*
X0153500Y0239000D03*
X0153500Y0259000D03*
X0153500Y0269000D03*
X0163500Y0269000D03*
X0163500Y0259000D03*
X0163500Y0279000D03*
X0163500Y0289000D03*
X0153500Y0289000D03*
X0153500Y0279000D03*
X0153500Y0299000D03*
X0153500Y0309000D03*
X0163500Y0309000D03*
X0163500Y0299000D03*
X0163500Y0319000D03*
X0163500Y0329000D03*
X0153500Y0329000D03*
X0153500Y0319000D03*
D19*
X0228000Y0048153D03*
X0240175Y0048575D03*
X0252500Y0048153D03*
X0264550Y0048300D03*
X0264550Y0018772D03*
X0252500Y0018625D03*
X0240175Y0019047D03*
X0228000Y0018625D03*
D20*
X0372553Y0159731D03*
X0397514Y0159731D03*
X0410033Y0159731D03*
X0410053Y0222251D03*
X0372553Y0222251D03*
D21*
X0045813Y0255326D02*
X0035813Y0255326D01*
X0035813Y0343926D02*
X0045813Y0343926D01*
D22*
X0041465Y0046060D03*
X0041465Y0038186D03*
X0041465Y0030312D03*
X0041465Y0022438D03*
X0070590Y0022438D03*
X0070590Y0030312D03*
X0070590Y0038186D03*
X0070590Y0046060D03*
X0098090Y0046060D03*
X0098090Y0038186D03*
X0098090Y0030312D03*
X0098090Y0022438D03*
X0127840Y0022438D03*
X0127840Y0030312D03*
X0127840Y0038186D03*
X0127840Y0046060D03*
X0154715Y0046060D03*
X0154715Y0038186D03*
X0154715Y0030312D03*
X0154715Y0022438D03*
X0182340Y0022438D03*
X0182340Y0030312D03*
X0182340Y0038186D03*
X0182340Y0046060D03*
X0209340Y0046060D03*
X0209340Y0038186D03*
X0209340Y0030312D03*
X0209340Y0022438D03*
D23*
X0256455Y0082500D03*
X0282045Y0082500D03*
D24*
X0190600Y0026500D03*
X0190600Y0024500D03*
X0190600Y0022500D03*
X0162975Y0022500D03*
X0162975Y0024500D03*
X0162975Y0026500D03*
X0134350Y0026500D03*
X0134350Y0024500D03*
X0134350Y0022500D03*
X0106975Y0022500D03*
X0106975Y0024500D03*
X0106975Y0026500D03*
X0078475Y0026500D03*
X0078475Y0024500D03*
X0078475Y0022500D03*
X0049850Y0022500D03*
X0049850Y0024500D03*
X0049850Y0026500D03*
X0020850Y0026000D03*
X0020850Y0024000D03*
X0020850Y0022000D03*
D25*
X0026650Y0022000D03*
X0026650Y0026000D03*
X0055650Y0026500D03*
X0055650Y0022500D03*
X0084275Y0022500D03*
X0084275Y0026500D03*
X0112775Y0026500D03*
X0112775Y0022500D03*
X0140150Y0022500D03*
X0140150Y0026500D03*
X0168775Y0026500D03*
X0168775Y0022500D03*
X0196400Y0022500D03*
X0196400Y0026500D03*
D26*
X0192378Y0226600D03*
D27*
X0179750Y0232250D03*
X0179750Y0213500D03*
X0151000Y0226625D03*
X0108500Y0198500D03*
X0072250Y0202250D03*
X0056000Y0156000D03*
X0172250Y0141000D03*
X0183500Y0141000D03*
X0282250Y0204750D03*
X0311000Y0176000D03*
X0306000Y0157250D03*
X0288500Y0162250D03*
X0304750Y0124750D03*
X0346000Y0181000D03*
X0367250Y0257250D03*
X0296000Y0318500D03*
X0296000Y0336000D03*
X0296000Y0353500D03*
X0296000Y0371000D03*
X0296000Y0382250D03*
X0362250Y0347250D03*
X0252250Y0278500D03*
X0241000Y0277250D03*
X0252250Y0263500D03*
X0234750Y0243500D03*
X0223500Y0266000D03*
X0201000Y0277250D03*
X0197250Y0289750D03*
X0197250Y0302875D03*
X0197250Y0314750D03*
X0197250Y0329750D03*
X0173500Y0334750D03*
X0146000Y0338500D03*
X0119750Y0337250D03*
X0119750Y0327250D03*
X0119750Y0309750D03*
X0077250Y0270375D03*
X0101000Y0368500D03*
X0188500Y0386625D03*
X0221000Y0353500D03*
X0411000Y0083500D03*
X0201782Y0026000D03*
X0174750Y0026000D03*
X0146000Y0026000D03*
X0118500Y0026000D03*
X0089750Y0026000D03*
X0062250Y0026000D03*
X0033500Y0024750D03*
D28*
X0006200Y0018596D02*
X0006200Y0168500D01*
X0085132Y0168500D01*
X0084450Y0166854D01*
X0084450Y0158146D01*
X0085257Y0156198D01*
X0086748Y0154707D01*
X0088696Y0153900D01*
X0090804Y0153900D01*
X0092250Y0154499D01*
X0092250Y0149750D01*
X0108500Y0149750D01*
X0108500Y0153981D01*
X0108696Y0153900D01*
X0110804Y0153900D01*
X0112752Y0154707D01*
X0114243Y0156198D01*
X0115050Y0158146D01*
X0115050Y0158925D01*
X0115711Y0158925D01*
X0117025Y0159469D01*
X0118031Y0160475D01*
X0122781Y0165225D01*
X0123325Y0166539D01*
X0123325Y0223769D01*
X0143050Y0243495D01*
X0143050Y0230289D01*
X0143594Y0228975D01*
X0144600Y0227969D01*
X0146625Y0225944D01*
X0146625Y0225755D01*
X0147291Y0224147D01*
X0148522Y0222916D01*
X0150130Y0222250D01*
X0151870Y0222250D01*
X0153478Y0222916D01*
X0154709Y0224147D01*
X0154925Y0224669D01*
X0154925Y0216539D01*
X0155469Y0215225D01*
X0186175Y0184519D01*
X0186175Y0144512D01*
X0185978Y0144709D01*
X0184370Y0145375D01*
X0182630Y0145375D01*
X0181664Y0144975D01*
X0174086Y0144975D01*
X0173120Y0145375D01*
X0171380Y0145375D01*
X0169772Y0144709D01*
X0168541Y0143478D01*
X0167875Y0141870D01*
X0167875Y0140130D01*
X0168541Y0138522D01*
X0169772Y0137291D01*
X0171380Y0136625D01*
X0173120Y0136625D01*
X0174086Y0137025D01*
X0181664Y0137025D01*
X0182630Y0136625D01*
X0184370Y0136625D01*
X0185978Y0137291D01*
X0186175Y0137488D01*
X0186175Y0112789D01*
X0186719Y0111475D01*
X0241719Y0056475D01*
X0242725Y0055469D01*
X0244039Y0054925D01*
X0267019Y0054925D01*
X0273675Y0048269D01*
X0273675Y0035289D01*
X0274219Y0033975D01*
X0275225Y0032969D01*
X0280725Y0027469D01*
X0282039Y0026925D01*
X0284639Y0026925D01*
X0285896Y0025668D01*
X0287991Y0024800D01*
X0290259Y0024800D01*
X0292354Y0025668D01*
X0293957Y0027271D01*
X0294825Y0029366D01*
X0294825Y0031634D01*
X0293957Y0033729D01*
X0292354Y0035332D01*
X0291949Y0035500D01*
X0292354Y0035668D01*
X0293957Y0037271D01*
X0294825Y0039366D01*
X0294825Y0041634D01*
X0293957Y0043729D01*
X0292354Y0045332D01*
X0290259Y0046200D01*
X0287991Y0046200D01*
X0285896Y0045332D01*
X0284293Y0043729D01*
X0283425Y0041634D01*
X0283425Y0039366D01*
X0284293Y0037271D01*
X0285896Y0035668D01*
X0286301Y0035500D01*
X0285896Y0035332D01*
X0284639Y0034075D01*
X0284231Y0034075D01*
X0280825Y0037481D01*
X0280825Y0050461D01*
X0280281Y0051775D01*
X0270525Y0061531D01*
X0269211Y0062075D01*
X0246231Y0062075D01*
X0193325Y0114981D01*
X0193325Y0186711D01*
X0192781Y0188025D01*
X0191775Y0189031D01*
X0162075Y0218731D01*
X0162075Y0233988D01*
X0165576Y0233988D01*
X0168512Y0236924D01*
X0168512Y0241076D01*
X0165588Y0244000D01*
X0168512Y0246924D01*
X0168512Y0251076D01*
X0165588Y0254000D01*
X0168512Y0256924D01*
X0168512Y0261076D01*
X0165588Y0264000D01*
X0168512Y0266924D01*
X0168512Y0271076D01*
X0165588Y0274000D01*
X0168512Y0276924D01*
X0168512Y0280550D01*
X0168894Y0280550D01*
X0177969Y0271475D01*
X0178975Y0270469D01*
X0180289Y0269925D01*
X0183998Y0269925D01*
X0221622Y0232300D01*
X0221244Y0232300D01*
X0219149Y0231433D01*
X0217546Y0229829D01*
X0217378Y0229424D01*
X0217210Y0229829D01*
X0215607Y0231433D01*
X0213512Y0232300D01*
X0211244Y0232300D01*
X0209149Y0231433D01*
X0207546Y0229829D01*
X0207378Y0229424D01*
X0207210Y0229829D01*
X0205607Y0231433D01*
X0203512Y0232300D01*
X0201244Y0232300D01*
X0199149Y0231433D01*
X0198078Y0230361D01*
X0198078Y0231129D01*
X0196906Y0232300D01*
X0187850Y0232300D01*
X0186678Y0231129D01*
X0186678Y0222072D01*
X0187850Y0220900D01*
X0196906Y0220900D01*
X0198078Y0222072D01*
X0198078Y0222839D01*
X0199149Y0221768D01*
X0201244Y0220900D01*
X0203512Y0220900D01*
X0205607Y0221768D01*
X0207210Y0223372D01*
X0207378Y0223777D01*
X0207546Y0223372D01*
X0209149Y0221768D01*
X0211244Y0220900D01*
X0213512Y0220900D01*
X0215607Y0221768D01*
X0217210Y0223372D01*
X0217378Y0223777D01*
X0217546Y0223372D01*
X0219149Y0221768D01*
X0221244Y0220900D01*
X0223512Y0220900D01*
X0225607Y0221768D01*
X0227210Y0223372D01*
X0227378Y0223777D01*
X0227546Y0223372D01*
X0229149Y0221768D01*
X0231244Y0220900D01*
X0233512Y0220900D01*
X0235607Y0221768D01*
X0237210Y0223372D01*
X0237378Y0223777D01*
X0237546Y0223372D01*
X0239149Y0221768D01*
X0241244Y0220900D01*
X0243512Y0220900D01*
X0245607Y0221768D01*
X0247210Y0223372D01*
X0247296Y0223579D01*
X0247332Y0223508D01*
X0247878Y0222757D01*
X0248534Y0222100D01*
X0249286Y0221554D01*
X0250113Y0221133D01*
X0250996Y0220846D01*
X0251914Y0220700D01*
X0252378Y0220700D01*
X0252842Y0220700D01*
X0253760Y0220846D01*
X0254643Y0221133D01*
X0255470Y0221554D01*
X0256222Y0222100D01*
X0256878Y0222757D01*
X0257424Y0223508D01*
X0257460Y0223579D01*
X0257546Y0223372D01*
X0259149Y0221768D01*
X0261244Y0220900D01*
X0263512Y0220900D01*
X0265607Y0221768D01*
X0267210Y0223372D01*
X0267425Y0223891D01*
X0267425Y0140029D01*
X0267358Y0139602D01*
X0267425Y0139325D01*
X0267425Y0139039D01*
X0267591Y0138640D01*
X0267692Y0138220D01*
X0267860Y0137989D01*
X0267969Y0137725D01*
X0268275Y0137420D01*
X0268529Y0137070D01*
X0268773Y0136921D01*
X0268975Y0136719D01*
X0269374Y0136554D01*
X0289925Y0123995D01*
X0289925Y0051039D01*
X0290469Y0049725D01*
X0298800Y0041394D01*
X0298800Y0039616D01*
X0299668Y0037521D01*
X0301271Y0035918D01*
X0301676Y0035750D01*
X0301271Y0035582D01*
X0299668Y0033979D01*
X0298800Y0031884D01*
X0298800Y0029616D01*
X0299023Y0029078D01*
X0292292Y0022347D01*
X0267445Y0022347D01*
X0267141Y0022651D01*
X0265460Y0023347D01*
X0263640Y0023347D01*
X0261959Y0022651D01*
X0261508Y0022200D01*
X0255395Y0022200D01*
X0255091Y0022503D01*
X0253410Y0023200D01*
X0252981Y0023200D01*
X0243403Y0032778D01*
X0242903Y0033280D01*
X0242899Y0033281D01*
X0242897Y0033284D01*
X0242241Y0033555D01*
X0241590Y0033826D01*
X0241586Y0033826D01*
X0241583Y0033828D01*
X0240874Y0033828D01*
X0211645Y0033882D01*
X0210761Y0034249D01*
X0211708Y0034641D01*
X0212884Y0035818D01*
X0213521Y0037354D01*
X0213521Y0039018D01*
X0212884Y0040554D01*
X0211708Y0041731D01*
X0211038Y0042008D01*
X0211636Y0042313D01*
X0212194Y0042718D01*
X0212681Y0043206D01*
X0213087Y0043764D01*
X0213400Y0044378D01*
X0213613Y0045034D01*
X0213721Y0045715D01*
X0213721Y0046060D01*
X0213721Y0046405D01*
X0213613Y0047086D01*
X0213400Y0047742D01*
X0213087Y0048356D01*
X0212681Y0048914D01*
X0212194Y0049402D01*
X0211636Y0049807D01*
X0211021Y0050120D01*
X0210365Y0050333D01*
X0209684Y0050441D01*
X0209340Y0050441D01*
X0209340Y0046060D01*
X0213721Y0046060D01*
X0209340Y0046060D01*
X0209340Y0046060D01*
X0209339Y0046060D01*
X0204958Y0046060D01*
X0204958Y0045715D01*
X0205066Y0045034D01*
X0205279Y0044378D01*
X0205593Y0043764D01*
X0205998Y0043206D01*
X0206485Y0042718D01*
X0207043Y0042313D01*
X0207342Y0042161D01*
X0184337Y0042161D01*
X0184636Y0042313D01*
X0185194Y0042718D01*
X0185681Y0043206D01*
X0186087Y0043764D01*
X0186400Y0044378D01*
X0186613Y0045034D01*
X0186721Y0045715D01*
X0186721Y0046060D01*
X0186721Y0046405D01*
X0186613Y0047086D01*
X0186400Y0047742D01*
X0186087Y0048356D01*
X0185681Y0048914D01*
X0185194Y0049402D01*
X0184636Y0049807D01*
X0184021Y0050120D01*
X0183365Y0050333D01*
X0182684Y0050441D01*
X0182340Y0050441D01*
X0182340Y0046060D01*
X0186721Y0046060D01*
X0182340Y0046060D01*
X0182340Y0046060D01*
X0182339Y0046060D01*
X0177958Y0046060D01*
X0177958Y0045715D01*
X0178066Y0045034D01*
X0178279Y0044378D01*
X0178593Y0043764D01*
X0178998Y0043206D01*
X0179485Y0042718D01*
X0180043Y0042313D01*
X0180342Y0042161D01*
X0156712Y0042161D01*
X0157011Y0042313D01*
X0157569Y0042718D01*
X0158056Y0043206D01*
X0158462Y0043764D01*
X0158775Y0044378D01*
X0158988Y0045034D01*
X0159096Y0045715D01*
X0159096Y0046060D01*
X0159096Y0046405D01*
X0158988Y0047086D01*
X0158775Y0047742D01*
X0158462Y0048356D01*
X0158056Y0048914D01*
X0157569Y0049402D01*
X0157011Y0049807D01*
X0156396Y0050120D01*
X0155740Y0050333D01*
X0155059Y0050441D01*
X0154715Y0050441D01*
X0154715Y0046060D01*
X0159096Y0046060D01*
X0154715Y0046060D01*
X0154715Y0046060D01*
X0154714Y0046060D01*
X0150333Y0046060D01*
X0150333Y0045715D01*
X0150441Y0045034D01*
X0150654Y0044378D01*
X0150968Y0043764D01*
X0151373Y0043206D01*
X0151860Y0042718D01*
X0152418Y0042313D01*
X0152717Y0042161D01*
X0129837Y0042161D01*
X0130136Y0042313D01*
X0130694Y0042718D01*
X0131181Y0043206D01*
X0131587Y0043764D01*
X0131900Y0044378D01*
X0132113Y0045034D01*
X0132221Y0045715D01*
X0132221Y0046060D01*
X0132221Y0046405D01*
X0132113Y0047086D01*
X0131900Y0047742D01*
X0131587Y0048356D01*
X0131181Y0048914D01*
X0130694Y0049402D01*
X0130136Y0049807D01*
X0129521Y0050120D01*
X0128865Y0050333D01*
X0128184Y0050441D01*
X0127840Y0050441D01*
X0127840Y0046060D01*
X0132221Y0046060D01*
X0127840Y0046060D01*
X0127840Y0046060D01*
X0127839Y0046060D01*
X0123458Y0046060D01*
X0123458Y0045715D01*
X0123566Y0045034D01*
X0123779Y0044378D01*
X0124093Y0043764D01*
X0124498Y0043206D01*
X0124985Y0042718D01*
X0125543Y0042313D01*
X0125842Y0042161D01*
X0100087Y0042161D01*
X0100386Y0042313D01*
X0100944Y0042718D01*
X0101431Y0043206D01*
X0101837Y0043764D01*
X0102150Y0044378D01*
X0102363Y0045034D01*
X0102471Y0045715D01*
X0102471Y0046060D01*
X0102471Y0046405D01*
X0102363Y0047086D01*
X0102150Y0047742D01*
X0101837Y0048356D01*
X0101431Y0048914D01*
X0100944Y0049402D01*
X0100386Y0049807D01*
X0099771Y0050120D01*
X0099115Y0050333D01*
X0098434Y0050441D01*
X0098090Y0050441D01*
X0098090Y0046060D01*
X0102471Y0046060D01*
X0098090Y0046060D01*
X0098090Y0046060D01*
X0098089Y0046060D01*
X0093708Y0046060D01*
X0093708Y0045715D01*
X0093816Y0045034D01*
X0094029Y0044378D01*
X0094343Y0043764D01*
X0094748Y0043206D01*
X0095235Y0042718D01*
X0095793Y0042313D01*
X0096092Y0042161D01*
X0072587Y0042161D01*
X0072886Y0042313D01*
X0073444Y0042718D01*
X0073931Y0043206D01*
X0074337Y0043764D01*
X0074650Y0044378D01*
X0074863Y0045034D01*
X0074971Y0045715D01*
X0074971Y0046060D01*
X0074971Y0046405D01*
X0074863Y0047086D01*
X0074650Y0047742D01*
X0074337Y0048356D01*
X0073931Y0048914D01*
X0073444Y0049402D01*
X0072886Y0049807D01*
X0072271Y0050120D01*
X0071615Y0050333D01*
X0070934Y0050441D01*
X0070590Y0050441D01*
X0070590Y0046060D01*
X0074971Y0046060D01*
X0070590Y0046060D01*
X0070590Y0046060D01*
X0070589Y0046060D01*
X0066208Y0046060D01*
X0066208Y0045715D01*
X0066316Y0045034D01*
X0066529Y0044378D01*
X0066843Y0043764D01*
X0067248Y0043206D01*
X0067735Y0042718D01*
X0068293Y0042313D01*
X0068592Y0042161D01*
X0043462Y0042161D01*
X0043761Y0042313D01*
X0044319Y0042718D01*
X0044806Y0043206D01*
X0045212Y0043764D01*
X0045525Y0044378D01*
X0045738Y0045034D01*
X0045846Y0045715D01*
X0045846Y0046060D01*
X0045846Y0046405D01*
X0045738Y0047086D01*
X0045525Y0047742D01*
X0045212Y0048356D01*
X0044806Y0048914D01*
X0044319Y0049402D01*
X0043761Y0049807D01*
X0043146Y0050120D01*
X0042490Y0050333D01*
X0041809Y0050441D01*
X0041465Y0050441D01*
X0041465Y0046060D01*
X0045846Y0046060D01*
X0041465Y0046060D01*
X0041465Y0046060D01*
X0041464Y0046060D01*
X0037083Y0046060D01*
X0037083Y0045715D01*
X0037191Y0045034D01*
X0037404Y0044378D01*
X0037718Y0043764D01*
X0038123Y0043206D01*
X0038610Y0042718D01*
X0039168Y0042313D01*
X0039766Y0042008D01*
X0039096Y0041731D01*
X0037920Y0040554D01*
X0037283Y0039018D01*
X0037283Y0037354D01*
X0037920Y0035818D01*
X0039096Y0034641D01*
X0040044Y0034249D01*
X0039152Y0033880D01*
X0022589Y0033828D01*
X0021886Y0033827D01*
X0021883Y0033826D01*
X0021881Y0033826D01*
X0021225Y0033551D01*
X0020573Y0033280D01*
X0020571Y0033278D01*
X0020569Y0033277D01*
X0020071Y0032777D01*
X0019569Y0032273D01*
X0019568Y0032270D01*
X0019566Y0032268D01*
X0019298Y0031614D01*
X0018014Y0028500D01*
X0017822Y0028500D01*
X0016650Y0027328D01*
X0016650Y0020672D01*
X0017822Y0019500D01*
X0023522Y0019500D01*
X0023622Y0019400D01*
X0024194Y0019400D01*
X0027500Y0016094D01*
X0028814Y0015550D01*
X0044501Y0015550D01*
X0045151Y0015528D01*
X0045210Y0015550D01*
X0071740Y0015550D01*
X0072380Y0015525D01*
X0072449Y0015550D01*
X0101207Y0015550D01*
X0101308Y0015515D01*
X0101915Y0015550D01*
X0116220Y0015550D01*
X0116368Y0015503D01*
X0116926Y0015550D01*
X0129188Y0015550D01*
X0129393Y0015492D01*
X0129893Y0015550D01*
X0145080Y0015550D01*
X0145465Y0015481D01*
X0145784Y0015550D01*
X0157751Y0015550D01*
X0158401Y0015528D01*
X0158460Y0015550D01*
X0172220Y0015550D01*
X0172368Y0015503D01*
X0172926Y0015550D01*
X0185376Y0015550D01*
X0186026Y0015528D01*
X0186085Y0015550D01*
X0199641Y0015550D01*
X0200874Y0015475D01*
X0200978Y0015432D01*
X0201581Y0015432D01*
X0202182Y0015395D01*
X0202288Y0015432D01*
X0202400Y0015432D01*
X0202957Y0015663D01*
X0203526Y0015859D01*
X0203611Y0015933D01*
X0203714Y0015976D01*
X0204140Y0016402D01*
X0204591Y0016801D01*
X0204640Y0016902D01*
X0206614Y0018876D01*
X0207018Y0018874D01*
X0208508Y0018257D01*
X0208873Y0018257D01*
X0211809Y0015947D01*
X0212161Y0015594D01*
X0212363Y0015511D01*
X0212534Y0015376D01*
X0213014Y0015241D01*
X0213475Y0015050D01*
X0213693Y0015050D01*
X0213904Y0014991D01*
X0214399Y0015050D01*
X0225105Y0015050D01*
X0225409Y0014747D01*
X0227090Y0014050D01*
X0228910Y0014050D01*
X0230591Y0014747D01*
X0231317Y0015473D01*
X0237280Y0015473D01*
X0237584Y0015169D01*
X0239265Y0014473D01*
X0239694Y0014473D01*
X0243697Y0010469D01*
X0245011Y0009925D01*
X0303211Y0009925D01*
X0304525Y0010469D01*
X0318856Y0024800D01*
X0320634Y0024800D01*
X0322729Y0025668D01*
X0324332Y0027271D01*
X0325200Y0029366D01*
X0325200Y0031634D01*
X0324332Y0033729D01*
X0322729Y0035332D01*
X0322324Y0035500D01*
X0322729Y0035668D01*
X0324332Y0037271D01*
X0325200Y0039366D01*
X0325200Y0041634D01*
X0324332Y0043729D01*
X0322729Y0045332D01*
X0320634Y0046200D01*
X0318856Y0046200D01*
X0302075Y0062981D01*
X0302075Y0121238D01*
X0302272Y0121041D01*
X0303880Y0120375D01*
X0305620Y0120375D01*
X0306586Y0120775D01*
X0318041Y0120775D01*
X0319502Y0121380D01*
X0322150Y0124028D01*
X0322150Y0117040D01*
X0323321Y0115868D01*
X0330521Y0115868D01*
X0331693Y0117040D01*
X0331693Y0124240D01*
X0330521Y0125411D01*
X0323533Y0125411D01*
X0363896Y0165775D01*
X0385849Y0165775D01*
X0392502Y0159122D01*
X0392502Y0155891D01*
X0393674Y0154719D01*
X0396904Y0154719D01*
X0407025Y0144599D01*
X0407025Y0085336D01*
X0406625Y0084370D01*
X0406625Y0082630D01*
X0407291Y0081022D01*
X0408522Y0079791D01*
X0410130Y0079125D01*
X0411870Y0079125D01*
X0413478Y0079791D01*
X0414709Y0081022D01*
X0415375Y0082630D01*
X0415375Y0084370D01*
X0414975Y0085336D01*
X0414975Y0147036D01*
X0414370Y0148497D01*
X0408147Y0154719D01*
X0413874Y0154719D01*
X0415045Y0155891D01*
X0415045Y0163572D01*
X0413874Y0164743D01*
X0406193Y0164743D01*
X0405022Y0163572D01*
X0405022Y0157845D01*
X0402526Y0160341D01*
X0402526Y0163572D01*
X0401354Y0164743D01*
X0398123Y0164743D01*
X0389747Y0173120D01*
X0388286Y0173725D01*
X0361459Y0173725D01*
X0359998Y0173120D01*
X0358880Y0172002D01*
X0315604Y0128725D01*
X0306586Y0128725D01*
X0305620Y0129125D01*
X0303880Y0129125D01*
X0302272Y0128459D01*
X0302075Y0128262D01*
X0302075Y0130675D01*
X0302144Y0131054D01*
X0302075Y0131379D01*
X0302075Y0131711D01*
X0301927Y0132067D01*
X0301846Y0132444D01*
X0301658Y0132718D01*
X0301531Y0133025D01*
X0301258Y0133298D01*
X0301039Y0133615D01*
X0300760Y0133796D01*
X0300525Y0134031D01*
X0300169Y0134178D01*
X0280825Y0146695D01*
X0280825Y0200605D01*
X0281380Y0200375D01*
X0283120Y0200375D01*
X0284728Y0201041D01*
X0285959Y0202272D01*
X0286127Y0202677D01*
X0297340Y0208212D01*
X0297857Y0208413D01*
X0297973Y0208525D01*
X0298118Y0208596D01*
X0298483Y0209013D01*
X0298884Y0209397D01*
X0298949Y0209545D01*
X0299055Y0209666D01*
X0299233Y0210191D01*
X0299456Y0210699D01*
X0299460Y0210860D01*
X0299511Y0211013D01*
X0299475Y0211566D01*
X0299559Y0215477D01*
X0299575Y0215514D01*
X0299575Y0216187D01*
X0299589Y0216859D01*
X0299575Y0216896D01*
X0299575Y0251711D01*
X0299031Y0253025D01*
X0298025Y0254031D01*
X0290525Y0261531D01*
X0289211Y0262075D01*
X0247481Y0262075D01*
X0229275Y0280281D01*
X0227961Y0280825D01*
X0203612Y0280825D01*
X0203478Y0280959D01*
X0201870Y0281625D01*
X0201681Y0281625D01*
X0200825Y0282481D01*
X0200825Y0287138D01*
X0200959Y0287272D01*
X0201625Y0288880D01*
X0201625Y0290620D01*
X0200959Y0292228D01*
X0200825Y0292362D01*
X0200825Y0300263D01*
X0200959Y0300397D01*
X0201625Y0302005D01*
X0201625Y0303745D01*
X0200959Y0305353D01*
X0200825Y0305487D01*
X0200825Y0312138D01*
X0200959Y0312272D01*
X0201625Y0313880D01*
X0201625Y0315620D01*
X0200959Y0317228D01*
X0200825Y0317362D01*
X0200825Y0327138D01*
X0200959Y0327272D01*
X0201625Y0328880D01*
X0201625Y0330620D01*
X0200959Y0332228D01*
X0199728Y0333459D01*
X0198120Y0334125D01*
X0196380Y0334125D01*
X0194772Y0333459D01*
X0193541Y0332228D01*
X0192875Y0330620D01*
X0192875Y0328880D01*
X0193541Y0327272D01*
X0193675Y0327138D01*
X0193675Y0317362D01*
X0193541Y0317228D01*
X0192875Y0315620D01*
X0192875Y0313880D01*
X0193541Y0312272D01*
X0193675Y0312138D01*
X0193675Y0305487D01*
X0193541Y0305353D01*
X0192875Y0303745D01*
X0192875Y0302005D01*
X0193541Y0300397D01*
X0193675Y0300263D01*
X0193675Y0292362D01*
X0193541Y0292228D01*
X0192875Y0290620D01*
X0192875Y0288880D01*
X0193541Y0287272D01*
X0193675Y0287138D01*
X0193675Y0280359D01*
X0191634Y0282400D01*
X0190628Y0283406D01*
X0189314Y0283950D01*
X0187481Y0283950D01*
X0174275Y0297156D01*
X0172961Y0297700D01*
X0168512Y0297700D01*
X0168512Y0301076D01*
X0165588Y0304000D01*
X0168512Y0306924D01*
X0168512Y0311076D01*
X0165588Y0314000D01*
X0168512Y0316924D01*
X0168512Y0318956D01*
X0176531Y0326975D01*
X0177075Y0328289D01*
X0177075Y0332138D01*
X0177209Y0332272D01*
X0177875Y0333880D01*
X0177875Y0335620D01*
X0177209Y0337228D01*
X0175978Y0338459D01*
X0174370Y0339125D01*
X0172630Y0339125D01*
X0171022Y0338459D01*
X0169791Y0337228D01*
X0169125Y0335620D01*
X0169125Y0333880D01*
X0169791Y0332272D01*
X0169925Y0332138D01*
X0169925Y0330481D01*
X0168512Y0329067D01*
X0168512Y0331076D01*
X0165576Y0334012D01*
X0161424Y0334012D01*
X0158500Y0331088D01*
X0155576Y0334012D01*
X0151424Y0334012D01*
X0149575Y0332163D01*
X0149575Y0335888D01*
X0149709Y0336022D01*
X0150375Y0337630D01*
X0150375Y0339370D01*
X0149709Y0340978D01*
X0148478Y0342209D01*
X0146870Y0342875D01*
X0145130Y0342875D01*
X0143522Y0342209D01*
X0142291Y0340978D01*
X0141625Y0339370D01*
X0141625Y0337630D01*
X0142291Y0336022D01*
X0142425Y0335888D01*
X0142425Y0275789D01*
X0142969Y0274475D01*
X0148488Y0268956D01*
X0148488Y0266924D01*
X0151412Y0264000D01*
X0148488Y0261076D01*
X0148488Y0259044D01*
X0117725Y0228281D01*
X0116719Y0227275D01*
X0116175Y0225961D01*
X0116175Y0168731D01*
X0114830Y0167385D01*
X0114243Y0168802D01*
X0112752Y0170293D01*
X0110804Y0171100D01*
X0108696Y0171100D01*
X0108500Y0171019D01*
X0108500Y0229750D01*
X0096561Y0229750D01*
X0096479Y0229832D01*
X0095168Y0230375D01*
X0096479Y0230918D01*
X0098082Y0232521D01*
X0098950Y0234616D01*
X0098950Y0236884D01*
X0098082Y0238979D01*
X0096479Y0240582D01*
X0095345Y0241052D01*
X0096229Y0241418D01*
X0097832Y0243021D01*
X0098700Y0245116D01*
X0098700Y0247384D01*
X0097832Y0249479D01*
X0096229Y0251082D01*
X0095345Y0251448D01*
X0096479Y0251918D01*
X0098082Y0253521D01*
X0098950Y0255616D01*
X0098950Y0257884D01*
X0098082Y0259979D01*
X0096479Y0261582D01*
X0095684Y0261912D01*
X0096604Y0262293D01*
X0098207Y0263896D01*
X0099075Y0265991D01*
X0099075Y0268259D01*
X0098207Y0270354D01*
X0096604Y0271957D01*
X0094509Y0272825D01*
X0092241Y0272825D01*
X0090146Y0271957D01*
X0088543Y0270354D01*
X0087675Y0268259D01*
X0087675Y0265991D01*
X0088543Y0263896D01*
X0090146Y0262293D01*
X0090941Y0261963D01*
X0090021Y0261582D01*
X0088418Y0259979D01*
X0087550Y0257884D01*
X0087550Y0255616D01*
X0088418Y0253521D01*
X0090021Y0251918D01*
X0090905Y0251552D01*
X0089771Y0251082D01*
X0088168Y0249479D01*
X0087300Y0247384D01*
X0087300Y0245116D01*
X0088168Y0243021D01*
X0089771Y0241418D01*
X0090905Y0240948D01*
X0090021Y0240582D01*
X0088418Y0238979D01*
X0087550Y0236884D01*
X0087550Y0234616D01*
X0088418Y0232521D01*
X0090021Y0230918D01*
X0091332Y0230375D01*
X0090021Y0229832D01*
X0089939Y0229750D01*
X0069750Y0229750D01*
X0069750Y0241000D01*
X0046258Y0241000D01*
X0046513Y0241616D01*
X0046513Y0243884D01*
X0045645Y0245979D01*
X0044042Y0247582D01*
X0042246Y0248326D01*
X0047205Y0248326D01*
X0049778Y0249392D01*
X0051747Y0251361D01*
X0052813Y0253934D01*
X0052813Y0256718D01*
X0051747Y0259291D01*
X0049778Y0261260D01*
X0047205Y0262326D01*
X0034421Y0262326D01*
X0031848Y0261260D01*
X0029879Y0259291D01*
X0028813Y0256718D01*
X0028813Y0253934D01*
X0029879Y0251361D01*
X0031848Y0249392D01*
X0034421Y0248326D01*
X0039380Y0248326D01*
X0037584Y0247582D01*
X0035981Y0245979D01*
X0035113Y0243884D01*
X0035113Y0241616D01*
X0035368Y0241000D01*
X0006200Y0241000D01*
X0006200Y0329750D01*
X0064750Y0329750D01*
X0064750Y0389501D01*
X0183820Y0389501D01*
X0182969Y0388650D01*
X0172644Y0378325D01*
X0106539Y0378325D01*
X0105225Y0377781D01*
X0104219Y0376775D01*
X0100319Y0372875D01*
X0100130Y0372875D01*
X0098522Y0372209D01*
X0097291Y0370978D01*
X0096625Y0369370D01*
X0096625Y0367630D01*
X0097291Y0366022D01*
X0098522Y0364791D01*
X0100130Y0364125D01*
X0101870Y0364125D01*
X0103478Y0364791D01*
X0104709Y0366022D01*
X0105375Y0367630D01*
X0105375Y0367819D01*
X0108731Y0371175D01*
X0174836Y0371175D01*
X0176150Y0371719D01*
X0186959Y0382528D01*
X0187630Y0382250D01*
X0189370Y0382250D01*
X0190978Y0382916D01*
X0192209Y0384147D01*
X0192875Y0385755D01*
X0192875Y0387495D01*
X0192209Y0389103D01*
X0191811Y0389501D01*
X0436160Y0389501D01*
X0434973Y0386637D01*
X0434973Y0383080D01*
X0436334Y0379794D01*
X0438849Y0377279D01*
X0442135Y0375918D01*
X0445692Y0375918D01*
X0448500Y0377081D01*
X0448500Y0018619D01*
X0445692Y0019783D01*
X0442135Y0019783D01*
X0438849Y0018422D01*
X0436334Y0015907D01*
X0434973Y0012621D01*
X0434973Y0009064D01*
X0436160Y0006200D01*
X0018596Y0006200D01*
X0019783Y0009064D01*
X0019783Y0012621D01*
X0018422Y0015907D01*
X0015907Y0018422D01*
X0012621Y0019783D01*
X0009064Y0019783D01*
X0006200Y0018596D01*
X0006200Y0020188D02*
X0017133Y0020188D01*
X0016650Y0022587D02*
X0006200Y0022587D01*
X0006200Y0024985D02*
X0016650Y0024985D01*
X0016705Y0027384D02*
X0006200Y0027384D01*
X0006200Y0029782D02*
X0018542Y0029782D01*
X0019530Y0032181D02*
X0006200Y0032181D01*
X0006200Y0034579D02*
X0039247Y0034579D01*
X0037439Y0036978D02*
X0006200Y0036978D01*
X0006200Y0039376D02*
X0037432Y0039376D01*
X0039203Y0041775D02*
X0006200Y0041775D01*
X0006200Y0044173D02*
X0037509Y0044173D01*
X0037083Y0046060D02*
X0041464Y0046060D01*
X0041464Y0046060D01*
X0041464Y0050441D01*
X0041120Y0050441D01*
X0040439Y0050333D01*
X0039783Y0050120D01*
X0039168Y0049807D01*
X0038610Y0049402D01*
X0038123Y0048914D01*
X0037718Y0048356D01*
X0037404Y0047742D01*
X0037191Y0047086D01*
X0037083Y0046405D01*
X0037083Y0046060D01*
X0037110Y0046572D02*
X0006200Y0046572D01*
X0006200Y0048970D02*
X0038179Y0048970D01*
X0041464Y0048970D02*
X0041465Y0048970D01*
X0041464Y0046572D02*
X0041465Y0046572D01*
X0041465Y0046060D02*
X0070590Y0046060D01*
X0098090Y0046060D01*
X0127840Y0046060D01*
X0154715Y0046060D01*
X0182340Y0046060D01*
X0209340Y0046060D01*
X0209339Y0046060D02*
X0209339Y0050441D01*
X0208995Y0050441D01*
X0208314Y0050333D01*
X0207658Y0050120D01*
X0207043Y0049807D01*
X0206485Y0049402D01*
X0205998Y0048914D01*
X0205593Y0048356D01*
X0205279Y0047742D01*
X0205066Y0047086D01*
X0204958Y0046405D01*
X0204958Y0046060D01*
X0209339Y0046060D01*
X0209339Y0046060D01*
X0209339Y0046572D02*
X0209340Y0046572D01*
X0209339Y0048970D02*
X0209340Y0048970D01*
X0212625Y0048970D02*
X0223295Y0048970D01*
X0223343Y0049271D02*
X0223225Y0048528D01*
X0223225Y0048153D01*
X0228000Y0048153D01*
X0228000Y0052927D01*
X0228000Y0048153D01*
X0228000Y0048153D01*
X0228000Y0048152D01*
X0228000Y0043378D01*
X0228376Y0043378D01*
X0229118Y0043495D01*
X0229833Y0043728D01*
X0230503Y0044069D01*
X0231111Y0044511D01*
X0231642Y0045042D01*
X0232084Y0045650D01*
X0232425Y0046320D01*
X0232657Y0047034D01*
X0232775Y0047777D01*
X0232775Y0048152D01*
X0228000Y0048152D01*
X0228000Y0048152D01*
X0228000Y0043378D01*
X0227624Y0043378D01*
X0226882Y0043495D01*
X0226167Y0043728D01*
X0225497Y0044069D01*
X0224889Y0044511D01*
X0224358Y0045042D01*
X0223916Y0045650D01*
X0223575Y0046320D01*
X0223343Y0047034D01*
X0223225Y0047777D01*
X0223225Y0048152D01*
X0228000Y0048152D01*
X0228000Y0048153D01*
X0232775Y0048153D01*
X0232775Y0048528D01*
X0232657Y0049271D01*
X0232425Y0049985D01*
X0232084Y0050655D01*
X0231642Y0051263D01*
X0231111Y0051795D01*
X0230503Y0052236D01*
X0229833Y0052578D01*
X0229118Y0052810D01*
X0228376Y0052927D01*
X0228000Y0052927D01*
X0227624Y0052927D01*
X0226882Y0052810D01*
X0226167Y0052578D01*
X0225497Y0052236D01*
X0224889Y0051795D01*
X0224358Y0051263D01*
X0223916Y0050655D01*
X0223575Y0049985D01*
X0223343Y0049271D01*
X0224464Y0051369D02*
X0006200Y0051369D01*
X0006200Y0053767D02*
X0268177Y0053767D01*
X0267053Y0052384D02*
X0266383Y0052725D01*
X0265668Y0052957D01*
X0264926Y0053075D01*
X0264550Y0053075D01*
X0264174Y0053075D01*
X0263432Y0052957D01*
X0262717Y0052725D01*
X0262047Y0052384D01*
X0261439Y0051942D01*
X0260908Y0051411D01*
X0260466Y0050803D01*
X0260125Y0050133D01*
X0259893Y0049418D01*
X0259775Y0048676D01*
X0259775Y0048300D01*
X0264550Y0048300D01*
X0264550Y0048300D01*
X0264550Y0053075D01*
X0264550Y0048300D01*
X0269325Y0048300D01*
X0269325Y0048676D01*
X0269207Y0049418D01*
X0268975Y0050133D01*
X0268634Y0050803D01*
X0268192Y0051411D01*
X0267661Y0051942D01*
X0267053Y0052384D01*
X0268222Y0051369D02*
X0270576Y0051369D01*
X0269278Y0048970D02*
X0272974Y0048970D01*
X0273675Y0046572D02*
X0269009Y0046572D01*
X0268975Y0046467D02*
X0269207Y0047182D01*
X0269325Y0047924D01*
X0269325Y0048300D01*
X0264550Y0048300D01*
X0264550Y0048300D01*
X0264550Y0048300D01*
X0264550Y0043525D01*
X0264926Y0043525D01*
X0265668Y0043643D01*
X0266383Y0043875D01*
X0267053Y0044216D01*
X0267661Y0044658D01*
X0268192Y0045189D01*
X0268634Y0045797D01*
X0268975Y0046467D01*
X0266968Y0044173D02*
X0273675Y0044173D01*
X0273675Y0041775D02*
X0211601Y0041775D01*
X0213295Y0044173D02*
X0225354Y0044173D01*
X0228000Y0044173D02*
X0228000Y0044173D01*
X0228000Y0046572D02*
X0228000Y0046572D01*
X0228000Y0048970D02*
X0228000Y0048970D01*
X0228000Y0051369D02*
X0228000Y0051369D01*
X0231536Y0051369D02*
X0236303Y0051369D01*
X0236091Y0051078D02*
X0235750Y0050408D01*
X0235518Y0049693D01*
X0235400Y0048951D01*
X0235400Y0048575D01*
X0240175Y0048575D01*
X0240175Y0048575D01*
X0240175Y0053350D01*
X0239799Y0053350D01*
X0239057Y0053232D01*
X0238342Y0053000D01*
X0237672Y0052659D01*
X0237064Y0052217D01*
X0236533Y0051686D01*
X0236091Y0051078D01*
X0235403Y0048970D02*
X0232705Y0048970D01*
X0232507Y0046572D02*
X0235837Y0046572D01*
X0235750Y0046742D02*
X0236091Y0046072D01*
X0236533Y0045464D01*
X0237064Y0044933D01*
X0237672Y0044491D01*
X0238342Y0044150D01*
X0239057Y0043918D01*
X0239799Y0043800D01*
X0240175Y0043800D01*
X0240551Y0043800D01*
X0241293Y0043918D01*
X0242008Y0044150D01*
X0242678Y0044491D01*
X0243286Y0044933D01*
X0243817Y0045464D01*
X0244259Y0046072D01*
X0244600Y0046742D01*
X0244832Y0047457D01*
X0244950Y0048199D01*
X0244950Y0048575D01*
X0244950Y0048951D01*
X0244832Y0049693D01*
X0244600Y0050408D01*
X0244259Y0051078D01*
X0243817Y0051686D01*
X0243286Y0052217D01*
X0242678Y0052659D01*
X0242008Y0053000D01*
X0241293Y0053232D01*
X0240551Y0053350D01*
X0240175Y0053350D01*
X0240175Y0048575D01*
X0244950Y0048575D01*
X0240175Y0048575D01*
X0240175Y0048575D01*
X0240175Y0048575D01*
X0240175Y0043800D01*
X0240175Y0048575D01*
X0240175Y0048575D01*
X0235400Y0048575D01*
X0235400Y0048199D01*
X0235518Y0047457D01*
X0235750Y0046742D01*
X0238297Y0044173D02*
X0230646Y0044173D01*
X0223493Y0046572D02*
X0213694Y0046572D01*
X0206054Y0048970D02*
X0185625Y0048970D01*
X0186694Y0046572D02*
X0204985Y0046572D01*
X0205384Y0044173D02*
X0186295Y0044173D01*
X0182339Y0046060D02*
X0182339Y0046060D01*
X0177958Y0046060D01*
X0177958Y0046405D01*
X0178066Y0047086D01*
X0178279Y0047742D01*
X0178593Y0048356D01*
X0178998Y0048914D01*
X0179485Y0049402D01*
X0180043Y0049807D01*
X0180658Y0050120D01*
X0181314Y0050333D01*
X0181995Y0050441D01*
X0182339Y0050441D01*
X0182339Y0046060D01*
X0182339Y0046572D02*
X0182340Y0046572D01*
X0182339Y0048970D02*
X0182340Y0048970D01*
X0179054Y0048970D02*
X0158000Y0048970D01*
X0159069Y0046572D02*
X0177985Y0046572D01*
X0178384Y0044173D02*
X0158670Y0044173D01*
X0154714Y0046060D02*
X0154714Y0046060D01*
X0150333Y0046060D01*
X0150333Y0046405D01*
X0150441Y0047086D01*
X0150654Y0047742D01*
X0150968Y0048356D01*
X0151373Y0048914D01*
X0151860Y0049402D01*
X0152418Y0049807D01*
X0153033Y0050120D01*
X0153689Y0050333D01*
X0154370Y0050441D01*
X0154714Y0050441D01*
X0154714Y0046060D01*
X0154714Y0046572D02*
X0154715Y0046572D01*
X0154714Y0048970D02*
X0154715Y0048970D01*
X0151429Y0048970D02*
X0131125Y0048970D01*
X0132194Y0046572D02*
X0150360Y0046572D01*
X0150759Y0044173D02*
X0131795Y0044173D01*
X0127839Y0046060D02*
X0127839Y0046060D01*
X0123458Y0046060D01*
X0123458Y0046405D01*
X0123566Y0047086D01*
X0123779Y0047742D01*
X0124093Y0048356D01*
X0124498Y0048914D01*
X0124985Y0049402D01*
X0125543Y0049807D01*
X0126158Y0050120D01*
X0126814Y0050333D01*
X0127495Y0050441D01*
X0127839Y0050441D01*
X0127839Y0046060D01*
X0127839Y0046572D02*
X0127840Y0046572D01*
X0127839Y0048970D02*
X0127840Y0048970D01*
X0124554Y0048970D02*
X0101375Y0048970D01*
X0102444Y0046572D02*
X0123485Y0046572D01*
X0123884Y0044173D02*
X0102045Y0044173D01*
X0098089Y0046060D02*
X0098089Y0046060D01*
X0093708Y0046060D01*
X0093708Y0046405D01*
X0093816Y0047086D01*
X0094029Y0047742D01*
X0094343Y0048356D01*
X0094748Y0048914D01*
X0095235Y0049402D01*
X0095793Y0049807D01*
X0096408Y0050120D01*
X0097064Y0050333D01*
X0097745Y0050441D01*
X0098089Y0050441D01*
X0098089Y0046060D01*
X0098089Y0046572D02*
X0098090Y0046572D01*
X0098089Y0048970D02*
X0098090Y0048970D01*
X0094804Y0048970D02*
X0073875Y0048970D01*
X0074944Y0046572D02*
X0093735Y0046572D01*
X0094134Y0044173D02*
X0074545Y0044173D01*
X0070589Y0046060D02*
X0070589Y0046060D01*
X0066208Y0046060D01*
X0066208Y0046405D01*
X0066316Y0047086D01*
X0066529Y0047742D01*
X0066843Y0048356D01*
X0067248Y0048914D01*
X0067735Y0049402D01*
X0068293Y0049807D01*
X0068908Y0050120D01*
X0069564Y0050333D01*
X0070245Y0050441D01*
X0070589Y0050441D01*
X0070589Y0046060D01*
X0070589Y0046572D02*
X0070590Y0046572D01*
X0070589Y0048970D02*
X0070590Y0048970D01*
X0067304Y0048970D02*
X0044750Y0048970D01*
X0045819Y0046572D02*
X0066235Y0046572D01*
X0066634Y0044173D02*
X0045420Y0044173D01*
X0041465Y0038186D02*
X0070590Y0038186D01*
X0098090Y0038186D01*
X0127840Y0038186D01*
X0154715Y0038186D01*
X0182340Y0038186D01*
X0209340Y0038186D01*
X0213365Y0036978D02*
X0273675Y0036978D01*
X0273675Y0039376D02*
X0213372Y0039376D01*
X0211558Y0034579D02*
X0273969Y0034579D01*
X0276014Y0032181D02*
X0244000Y0032181D01*
X0246398Y0029782D02*
X0278412Y0029782D01*
X0280932Y0027384D02*
X0248797Y0027384D01*
X0251195Y0024985D02*
X0287544Y0024985D01*
X0290706Y0024985D02*
X0294930Y0024985D01*
X0294004Y0027384D02*
X0297328Y0027384D01*
X0298800Y0029782D02*
X0294825Y0029782D01*
X0294598Y0032181D02*
X0298923Y0032181D01*
X0300268Y0034579D02*
X0293107Y0034579D01*
X0293664Y0036978D02*
X0300211Y0036978D01*
X0298899Y0039376D02*
X0294825Y0039376D01*
X0294767Y0041775D02*
X0298420Y0041775D01*
X0296021Y0044173D02*
X0293513Y0044173D01*
X0293623Y0046572D02*
X0280825Y0046572D01*
X0280825Y0048970D02*
X0291224Y0048970D01*
X0289925Y0051369D02*
X0280449Y0051369D01*
X0278288Y0053767D02*
X0289925Y0053767D01*
X0289925Y0056166D02*
X0275890Y0056166D01*
X0273491Y0058564D02*
X0289925Y0058564D01*
X0289925Y0060963D02*
X0271093Y0060963D01*
X0264550Y0051369D02*
X0264550Y0051369D01*
X0264550Y0048970D02*
X0264550Y0048970D01*
X0264550Y0048300D02*
X0259775Y0048300D01*
X0259775Y0047924D01*
X0259893Y0047182D01*
X0260125Y0046467D01*
X0260466Y0045797D01*
X0260908Y0045189D01*
X0261439Y0044658D01*
X0262047Y0044216D01*
X0262717Y0043875D01*
X0263432Y0043643D01*
X0264174Y0043525D01*
X0264550Y0043525D01*
X0264550Y0048300D01*
X0264550Y0048300D01*
X0264550Y0046572D02*
X0264550Y0046572D01*
X0264550Y0044173D02*
X0264550Y0044173D01*
X0262132Y0044173D02*
X0255146Y0044173D01*
X0255003Y0044069D02*
X0255611Y0044511D01*
X0256142Y0045042D01*
X0256584Y0045650D01*
X0256925Y0046320D01*
X0257157Y0047034D01*
X0257275Y0047777D01*
X0257275Y0048152D01*
X0252500Y0048152D01*
X0252500Y0043378D01*
X0252876Y0043378D01*
X0253618Y0043495D01*
X0254333Y0043728D01*
X0255003Y0044069D01*
X0252500Y0044173D02*
X0252500Y0044173D01*
X0252500Y0043378D02*
X0252500Y0048152D01*
X0252500Y0048152D01*
X0247725Y0048152D01*
X0247725Y0047777D01*
X0247843Y0047034D01*
X0248075Y0046320D01*
X0248416Y0045650D01*
X0248858Y0045042D01*
X0249389Y0044511D01*
X0249997Y0044069D01*
X0250667Y0043728D01*
X0251382Y0043495D01*
X0252124Y0043378D01*
X0252500Y0043378D01*
X0249854Y0044173D02*
X0242053Y0044173D01*
X0240175Y0044173D02*
X0240175Y0044173D01*
X0240175Y0046572D02*
X0240175Y0046572D01*
X0240175Y0048970D02*
X0240175Y0048970D01*
X0240175Y0051369D02*
X0240175Y0051369D01*
X0244047Y0051369D02*
X0248964Y0051369D01*
X0248858Y0051263D02*
X0248416Y0050655D01*
X0248075Y0049985D01*
X0247843Y0049271D01*
X0247725Y0048528D01*
X0247725Y0048153D01*
X0252500Y0048153D01*
X0252500Y0052927D01*
X0252500Y0048153D01*
X0252500Y0048153D01*
X0252500Y0048152D01*
X0252500Y0048153D01*
X0257275Y0048153D01*
X0257275Y0048528D01*
X0257157Y0049271D01*
X0256925Y0049985D01*
X0256584Y0050655D01*
X0256142Y0051263D01*
X0255611Y0051795D01*
X0255003Y0052236D01*
X0254333Y0052578D01*
X0253618Y0052810D01*
X0252876Y0052927D01*
X0252500Y0052927D01*
X0252124Y0052927D01*
X0251382Y0052810D01*
X0250667Y0052578D01*
X0249997Y0052236D01*
X0249389Y0051795D01*
X0248858Y0051263D01*
X0247795Y0048970D02*
X0244947Y0048970D01*
X0244513Y0046572D02*
X0247993Y0046572D01*
X0252500Y0046572D02*
X0252500Y0046572D01*
X0252500Y0048970D02*
X0252500Y0048970D01*
X0252500Y0051369D02*
X0252500Y0051369D01*
X0256036Y0051369D02*
X0260878Y0051369D01*
X0259822Y0048970D02*
X0257205Y0048970D01*
X0257007Y0046572D02*
X0260091Y0046572D01*
X0242029Y0056166D02*
X0006200Y0056166D01*
X0006200Y0058564D02*
X0239630Y0058564D01*
X0237232Y0060963D02*
X0006200Y0060963D01*
X0006200Y0063361D02*
X0234833Y0063361D01*
X0232435Y0065760D02*
X0006200Y0065760D01*
X0006200Y0068158D02*
X0230036Y0068158D01*
X0227638Y0070557D02*
X0006200Y0070557D01*
X0006200Y0072955D02*
X0225239Y0072955D01*
X0222841Y0075354D02*
X0006200Y0075354D01*
X0006200Y0077752D02*
X0091626Y0077752D01*
X0092918Y0077006D02*
X0097420Y0075800D01*
X0102080Y0075800D01*
X0106582Y0077006D01*
X0110618Y0079336D01*
X0113914Y0082632D01*
X0116244Y0086668D01*
X0117450Y0091170D01*
X0117450Y0095830D01*
X0116244Y0100332D01*
X0113914Y0104368D01*
X0110618Y0107664D01*
X0106582Y0109994D01*
X0102080Y0111200D01*
X0097420Y0111200D01*
X0092918Y0109994D01*
X0088882Y0107664D01*
X0085586Y0104368D01*
X0083256Y0100332D01*
X0082050Y0095830D01*
X0082050Y0091170D01*
X0083256Y0086668D01*
X0085586Y0082632D01*
X0088882Y0079336D01*
X0092918Y0077006D01*
X0088068Y0080151D02*
X0006200Y0080151D01*
X0006200Y0082549D02*
X0085669Y0082549D01*
X0084249Y0084948D02*
X0006200Y0084948D01*
X0006200Y0087346D02*
X0083074Y0087346D01*
X0082432Y0089745D02*
X0006200Y0089745D01*
X0006200Y0092143D02*
X0082050Y0092143D01*
X0082050Y0094542D02*
X0006200Y0094542D01*
X0006200Y0096940D02*
X0082347Y0096940D01*
X0082990Y0099339D02*
X0006200Y0099339D01*
X0006200Y0101737D02*
X0084068Y0101737D01*
X0085452Y0104136D02*
X0006200Y0104136D01*
X0006200Y0106534D02*
X0087753Y0106534D01*
X0091081Y0108933D02*
X0006200Y0108933D01*
X0006200Y0111332D02*
X0186863Y0111332D01*
X0186175Y0113730D02*
X0006200Y0113730D01*
X0006200Y0116129D02*
X0186175Y0116129D01*
X0186175Y0118527D02*
X0006200Y0118527D01*
X0006200Y0120926D02*
X0186175Y0120926D01*
X0186175Y0123324D02*
X0006200Y0123324D01*
X0006200Y0125723D02*
X0186175Y0125723D01*
X0186175Y0128121D02*
X0006200Y0128121D01*
X0006200Y0130520D02*
X0186175Y0130520D01*
X0186175Y0132918D02*
X0006200Y0132918D01*
X0006200Y0135317D02*
X0186175Y0135317D01*
X0183500Y0141000D02*
X0172250Y0141000D01*
X0168141Y0142512D02*
X0006200Y0142512D01*
X0006200Y0140114D02*
X0167882Y0140114D01*
X0169348Y0137715D02*
X0006200Y0137715D01*
X0006200Y0144911D02*
X0170259Y0144911D01*
X0185491Y0144911D02*
X0186175Y0144911D01*
X0186175Y0147309D02*
X0006200Y0147309D01*
X0006200Y0149708D02*
X0186175Y0149708D01*
X0186175Y0152106D02*
X0108500Y0152106D01*
X0112264Y0154505D02*
X0186175Y0154505D01*
X0186175Y0156903D02*
X0114535Y0156903D01*
X0116620Y0159302D02*
X0186175Y0159302D01*
X0186175Y0161700D02*
X0119256Y0161700D01*
X0121654Y0164099D02*
X0186175Y0164099D01*
X0186175Y0166497D02*
X0123308Y0166497D01*
X0123325Y0168896D02*
X0186175Y0168896D01*
X0186175Y0171294D02*
X0123325Y0171294D01*
X0123325Y0173693D02*
X0186175Y0173693D01*
X0186175Y0176091D02*
X0123325Y0176091D01*
X0123325Y0178490D02*
X0186175Y0178490D01*
X0186175Y0180888D02*
X0123325Y0180888D01*
X0123325Y0183287D02*
X0186175Y0183287D01*
X0185009Y0185685D02*
X0123325Y0185685D01*
X0123325Y0188084D02*
X0182611Y0188084D01*
X0180212Y0190482D02*
X0123325Y0190482D01*
X0123325Y0192881D02*
X0177814Y0192881D01*
X0175415Y0195279D02*
X0123325Y0195279D01*
X0123325Y0197678D02*
X0173017Y0197678D01*
X0170618Y0200076D02*
X0123325Y0200076D01*
X0123325Y0202475D02*
X0168220Y0202475D01*
X0165821Y0204873D02*
X0123325Y0204873D01*
X0123325Y0207272D02*
X0163422Y0207272D01*
X0161024Y0209670D02*
X0123325Y0209670D01*
X0123325Y0212069D02*
X0158625Y0212069D01*
X0156227Y0214468D02*
X0123325Y0214468D01*
X0123325Y0216866D02*
X0154925Y0216866D01*
X0154925Y0219265D02*
X0123325Y0219265D01*
X0123325Y0221663D02*
X0154925Y0221663D01*
X0154925Y0224062D02*
X0154623Y0224062D01*
X0154925Y0228581D02*
X0154709Y0229103D01*
X0153478Y0230334D01*
X0151870Y0231000D01*
X0151681Y0231000D01*
X0150200Y0232481D01*
X0150200Y0234930D01*
X0151341Y0233788D01*
X0153500Y0233788D01*
X0154925Y0233788D01*
X0154925Y0228581D01*
X0154925Y0228859D02*
X0154810Y0228859D01*
X0154925Y0231257D02*
X0151423Y0231257D01*
X0150200Y0233656D02*
X0154925Y0233656D01*
X0153500Y0233788D02*
X0153500Y0239000D01*
X0153500Y0239000D01*
X0153500Y0233788D01*
X0153500Y0236054D02*
X0153500Y0236054D01*
X0153500Y0238453D02*
X0153500Y0238453D01*
X0162075Y0233656D02*
X0175597Y0233656D01*
X0175375Y0233120D02*
X0175375Y0231380D01*
X0176041Y0229772D01*
X0176175Y0229638D01*
X0176175Y0216112D01*
X0176041Y0215978D01*
X0175375Y0214370D01*
X0175375Y0212630D01*
X0176041Y0211022D01*
X0177272Y0209791D01*
X0178880Y0209125D01*
X0180620Y0209125D01*
X0182228Y0209791D01*
X0183459Y0211022D01*
X0184125Y0212630D01*
X0184125Y0214370D01*
X0183459Y0215978D01*
X0183325Y0216112D01*
X0183325Y0229638D01*
X0183459Y0229772D01*
X0184125Y0231380D01*
X0184125Y0233120D01*
X0183459Y0234728D01*
X0182228Y0235959D01*
X0180620Y0236625D01*
X0178880Y0236625D01*
X0177272Y0235959D01*
X0176041Y0234728D01*
X0175375Y0233120D01*
X0175426Y0231257D02*
X0162075Y0231257D01*
X0162075Y0228859D02*
X0176175Y0228859D01*
X0176175Y0226460D02*
X0162075Y0226460D01*
X0162075Y0224062D02*
X0176175Y0224062D01*
X0176175Y0221663D02*
X0162075Y0221663D01*
X0162075Y0219265D02*
X0176175Y0219265D01*
X0176175Y0216866D02*
X0163939Y0216866D01*
X0166338Y0214468D02*
X0175416Y0214468D01*
X0175607Y0212069D02*
X0168737Y0212069D01*
X0171135Y0209670D02*
X0177563Y0209670D01*
X0181937Y0209670D02*
X0267425Y0209670D01*
X0267425Y0207272D02*
X0173534Y0207272D01*
X0175932Y0204873D02*
X0267425Y0204873D01*
X0267425Y0202475D02*
X0178331Y0202475D01*
X0180729Y0200076D02*
X0267425Y0200076D01*
X0267425Y0197678D02*
X0183128Y0197678D01*
X0185526Y0195279D02*
X0267425Y0195279D01*
X0267425Y0192881D02*
X0187925Y0192881D01*
X0190323Y0190482D02*
X0267425Y0190482D01*
X0267425Y0188084D02*
X0192722Y0188084D01*
X0193325Y0185685D02*
X0267425Y0185685D01*
X0267425Y0183287D02*
X0193325Y0183287D01*
X0193325Y0180888D02*
X0267425Y0180888D01*
X0267425Y0178490D02*
X0193325Y0178490D01*
X0193325Y0176091D02*
X0267425Y0176091D01*
X0267425Y0173693D02*
X0193325Y0173693D01*
X0193325Y0171294D02*
X0267425Y0171294D01*
X0267425Y0168896D02*
X0193325Y0168896D01*
X0193325Y0166497D02*
X0267425Y0166497D01*
X0267425Y0164099D02*
X0193325Y0164099D01*
X0193325Y0161700D02*
X0267425Y0161700D01*
X0267425Y0159302D02*
X0193325Y0159302D01*
X0193325Y0156903D02*
X0267425Y0156903D01*
X0267425Y0154505D02*
X0193325Y0154505D01*
X0193325Y0152106D02*
X0267425Y0152106D01*
X0267425Y0149708D02*
X0193325Y0149708D01*
X0193325Y0147309D02*
X0267425Y0147309D01*
X0267425Y0144911D02*
X0193325Y0144911D01*
X0193325Y0142512D02*
X0267425Y0142512D01*
X0267425Y0140114D02*
X0193325Y0140114D01*
X0193325Y0137715D02*
X0267979Y0137715D01*
X0271399Y0135317D02*
X0193325Y0135317D01*
X0193325Y0132918D02*
X0275324Y0132918D01*
X0279249Y0130520D02*
X0193325Y0130520D01*
X0193325Y0128121D02*
X0283174Y0128121D01*
X0287098Y0125723D02*
X0193325Y0125723D01*
X0193325Y0123324D02*
X0289925Y0123324D01*
X0289925Y0120926D02*
X0193325Y0120926D01*
X0193325Y0118527D02*
X0289925Y0118527D01*
X0289925Y0116129D02*
X0193325Y0116129D01*
X0194575Y0113730D02*
X0289925Y0113730D01*
X0289925Y0111332D02*
X0196974Y0111332D01*
X0199373Y0108933D02*
X0289925Y0108933D01*
X0289925Y0106534D02*
X0201771Y0106534D01*
X0204170Y0104136D02*
X0289925Y0104136D01*
X0289925Y0101737D02*
X0206568Y0101737D01*
X0208967Y0099339D02*
X0289925Y0099339D01*
X0289925Y0096940D02*
X0211365Y0096940D01*
X0213764Y0094542D02*
X0289925Y0094542D01*
X0289925Y0092143D02*
X0216162Y0092143D01*
X0218561Y0089745D02*
X0289925Y0089745D01*
X0289925Y0087346D02*
X0284717Y0087346D01*
X0285161Y0087163D02*
X0283139Y0088000D01*
X0280951Y0088000D01*
X0278930Y0087163D01*
X0277383Y0085615D01*
X0276545Y0083594D01*
X0276545Y0081406D01*
X0277383Y0079384D01*
X0278930Y0077837D01*
X0280951Y0077000D01*
X0283139Y0077000D01*
X0285161Y0077837D01*
X0286708Y0079384D01*
X0287545Y0081406D01*
X0287545Y0083594D01*
X0286708Y0085615D01*
X0285161Y0087163D01*
X0286984Y0084948D02*
X0289925Y0084948D01*
X0289925Y0082549D02*
X0287545Y0082549D01*
X0287025Y0080151D02*
X0289925Y0080151D01*
X0289925Y0077752D02*
X0284956Y0077752D01*
X0289925Y0075354D02*
X0232952Y0075354D01*
X0235350Y0072955D02*
X0289925Y0072955D01*
X0289925Y0070557D02*
X0237749Y0070557D01*
X0240147Y0068158D02*
X0289925Y0068158D01*
X0289925Y0065760D02*
X0242546Y0065760D01*
X0244944Y0063361D02*
X0289925Y0063361D01*
X0302075Y0063361D02*
X0419663Y0063361D01*
X0419663Y0063443D02*
X0419663Y0063033D01*
X0424875Y0063033D01*
X0424875Y0063032D01*
X0424875Y0057821D01*
X0425285Y0057821D01*
X0426095Y0057949D01*
X0426876Y0058203D01*
X0427607Y0058575D01*
X0428270Y0059057D01*
X0428850Y0059637D01*
X0429333Y0060301D01*
X0429705Y0061032D01*
X0429958Y0061812D01*
X0430087Y0062622D01*
X0430087Y0063032D01*
X0424875Y0063032D01*
X0424875Y0063032D01*
X0424875Y0057821D01*
X0424465Y0057821D01*
X0423655Y0057949D01*
X0422874Y0058203D01*
X0422143Y0058575D01*
X0421480Y0059057D01*
X0420900Y0059637D01*
X0420417Y0060301D01*
X0420045Y0061032D01*
X0419792Y0061812D01*
X0419663Y0062622D01*
X0419663Y0063032D01*
X0424875Y0063032D01*
X0424875Y0063033D01*
X0430087Y0063033D01*
X0430087Y0063443D01*
X0429958Y0064253D01*
X0429705Y0065033D01*
X0429333Y0065764D01*
X0428850Y0066428D01*
X0428270Y0067008D01*
X0427607Y0067490D01*
X0426876Y0067862D01*
X0426312Y0068046D01*
X0427714Y0068626D01*
X0429124Y0070036D01*
X0429887Y0071878D01*
X0429887Y0073872D01*
X0429124Y0075714D01*
X0427714Y0077124D01*
X0425872Y0077887D01*
X0423878Y0077887D01*
X0422036Y0077124D01*
X0420626Y0075714D01*
X0419863Y0073872D01*
X0419863Y0071878D01*
X0420626Y0070036D01*
X0422036Y0068626D01*
X0423438Y0068046D01*
X0422874Y0067862D01*
X0422143Y0067490D01*
X0421480Y0067008D01*
X0420900Y0066428D01*
X0420417Y0065764D01*
X0420045Y0065033D01*
X0419792Y0064253D01*
X0419663Y0063443D01*
X0420415Y0065760D02*
X0302075Y0065760D01*
X0302075Y0068158D02*
X0423166Y0068158D01*
X0426584Y0068158D02*
X0448500Y0068158D01*
X0448500Y0065760D02*
X0429335Y0065760D01*
X0430087Y0063361D02*
X0448500Y0063361D01*
X0448500Y0060963D02*
X0429670Y0060963D01*
X0427586Y0058564D02*
X0448500Y0058564D01*
X0448500Y0056166D02*
X0308890Y0056166D01*
X0311288Y0053767D02*
X0448500Y0053767D01*
X0448500Y0051369D02*
X0313687Y0051369D01*
X0316085Y0048970D02*
X0448500Y0048970D01*
X0448500Y0046572D02*
X0318484Y0046572D01*
X0323888Y0044173D02*
X0448500Y0044173D01*
X0448500Y0041775D02*
X0325142Y0041775D01*
X0325200Y0039376D02*
X0448500Y0039376D01*
X0448500Y0036978D02*
X0324039Y0036978D01*
X0323482Y0034579D02*
X0448500Y0034579D01*
X0448500Y0032181D02*
X0324973Y0032181D01*
X0325200Y0029782D02*
X0448500Y0029782D01*
X0448500Y0027384D02*
X0324379Y0027384D01*
X0321081Y0024985D02*
X0448500Y0024985D01*
X0448500Y0022587D02*
X0316642Y0022587D01*
X0314244Y0020188D02*
X0448500Y0020188D01*
X0438217Y0017790D02*
X0311845Y0017790D01*
X0309447Y0015391D02*
X0436121Y0015391D01*
X0435127Y0012993D02*
X0307048Y0012993D01*
X0304650Y0010594D02*
X0434973Y0010594D01*
X0435333Y0008196D02*
X0197576Y0008196D01*
X0198125Y0008745D02*
X0198731Y0010208D01*
X0198731Y0011792D01*
X0198125Y0013255D01*
X0197005Y0014375D01*
X0195542Y0014981D01*
X0193958Y0014981D01*
X0192495Y0014375D01*
X0191375Y0013255D01*
X0190769Y0011792D01*
X0190769Y0010208D01*
X0191375Y0008745D01*
X0192495Y0007625D01*
X0193958Y0007019D01*
X0195542Y0007019D01*
X0197005Y0007625D01*
X0198125Y0008745D01*
X0198731Y0010594D02*
X0243573Y0010594D01*
X0241174Y0012993D02*
X0198234Y0012993D01*
X0191924Y0008196D02*
X0141326Y0008196D01*
X0141875Y0008745D02*
X0140755Y0007625D01*
X0139292Y0007019D01*
X0137708Y0007019D01*
X0136245Y0007625D01*
X0135125Y0008745D01*
X0134519Y0010208D01*
X0134519Y0011792D01*
X0135125Y0013255D01*
X0136245Y0014375D01*
X0137708Y0014981D01*
X0139292Y0014981D01*
X0140755Y0014375D01*
X0141875Y0013255D01*
X0142481Y0011792D01*
X0142481Y0010208D01*
X0141875Y0008745D01*
X0142481Y0010594D02*
X0190769Y0010594D01*
X0191266Y0012993D02*
X0141984Y0012993D01*
X0135016Y0012993D02*
X0019629Y0012993D01*
X0019783Y0010594D02*
X0134519Y0010594D01*
X0135674Y0008196D02*
X0019423Y0008196D01*
X0018635Y0015391D02*
X0212515Y0015391D01*
X0209466Y0017790D02*
X0205528Y0017790D01*
X0200779Y0023152D02*
X0200600Y0023331D01*
X0200600Y0023928D01*
X0200170Y0024359D01*
X0200360Y0024549D01*
X0200650Y0025051D01*
X0200800Y0025610D01*
X0200800Y0026500D01*
X0200800Y0026708D01*
X0207063Y0026729D01*
X0207919Y0026375D01*
X0207070Y0026023D01*
X0205859Y0026029D01*
X0205851Y0026032D01*
X0205149Y0026032D01*
X0204446Y0026036D01*
X0204438Y0026032D01*
X0204429Y0026032D01*
X0203780Y0025764D01*
X0203129Y0025498D01*
X0203123Y0025492D01*
X0203115Y0025488D01*
X0202619Y0024992D01*
X0202119Y0024497D01*
X0202116Y0024489D01*
X0200779Y0023152D01*
X0200612Y0024985D02*
X0202612Y0024985D01*
X0200800Y0026500D02*
X0196400Y0026500D01*
X0200800Y0026500D01*
X0196400Y0026500D02*
X0196400Y0026500D01*
X0180919Y0026375D02*
X0180063Y0026730D01*
X0173175Y0026706D01*
X0173175Y0026500D01*
X0168775Y0026500D01*
X0168775Y0026500D01*
X0173175Y0026500D01*
X0173175Y0025610D01*
X0173025Y0025051D01*
X0172735Y0024549D01*
X0172545Y0024359D01*
X0172975Y0023928D01*
X0172975Y0023634D01*
X0174082Y0022700D01*
X0178158Y0022700D01*
X0178158Y0023270D01*
X0178795Y0024806D01*
X0179971Y0025983D01*
X0180919Y0026375D01*
X0178974Y0024985D02*
X0172987Y0024985D01*
X0153294Y0026375D02*
X0152438Y0026729D01*
X0144550Y0026702D01*
X0144550Y0026500D01*
X0140150Y0026500D01*
X0140150Y0026500D01*
X0144550Y0026500D01*
X0144550Y0025610D01*
X0144400Y0025051D01*
X0144110Y0024549D01*
X0143920Y0024359D01*
X0144010Y0024268D01*
X0146450Y0022700D01*
X0150533Y0022700D01*
X0150533Y0023270D01*
X0151170Y0024806D01*
X0152346Y0025983D01*
X0153294Y0026375D01*
X0151349Y0024985D02*
X0144362Y0024985D01*
X0126419Y0026375D02*
X0125562Y0026730D01*
X0117175Y0026702D01*
X0117175Y0026500D01*
X0112775Y0026500D01*
X0112775Y0026500D01*
X0117175Y0026500D01*
X0117175Y0025610D01*
X0117025Y0025051D01*
X0116735Y0024549D01*
X0116545Y0024359D01*
X0116975Y0023928D01*
X0116975Y0023634D01*
X0118082Y0022700D01*
X0123658Y0022700D01*
X0123658Y0023270D01*
X0124295Y0024806D01*
X0125471Y0025983D01*
X0126419Y0026375D01*
X0124474Y0024985D02*
X0116987Y0024985D01*
X0096669Y0026375D02*
X0095815Y0026729D01*
X0088675Y0026702D01*
X0088675Y0026500D01*
X0084275Y0026500D01*
X0084275Y0026500D01*
X0088675Y0026500D01*
X0088675Y0025610D01*
X0088525Y0025051D01*
X0088235Y0024549D01*
X0088183Y0024497D01*
X0089981Y0022700D01*
X0093908Y0022700D01*
X0093908Y0023270D01*
X0094545Y0024806D01*
X0095721Y0025983D01*
X0096669Y0026375D01*
X0094724Y0024985D02*
X0088487Y0024985D01*
X0069169Y0026375D02*
X0068313Y0026729D01*
X0060050Y0026701D01*
X0060050Y0026500D01*
X0055650Y0026500D01*
X0055650Y0026500D01*
X0060050Y0026500D01*
X0060050Y0025610D01*
X0059900Y0025051D01*
X0059610Y0024549D01*
X0059420Y0024359D01*
X0059850Y0023928D01*
X0059850Y0023356D01*
X0060506Y0022700D01*
X0066408Y0022700D01*
X0066408Y0023270D01*
X0067045Y0024806D01*
X0068221Y0025983D01*
X0069169Y0026375D01*
X0067224Y0024985D02*
X0059862Y0024985D01*
X0040044Y0026375D02*
X0039186Y0026730D01*
X0031050Y0026705D01*
X0031050Y0026000D01*
X0026650Y0026000D01*
X0026650Y0026000D01*
X0031050Y0026000D01*
X0031050Y0025110D01*
X0030900Y0024551D01*
X0030610Y0024049D01*
X0030420Y0023859D01*
X0030850Y0023428D01*
X0030850Y0022856D01*
X0031006Y0022700D01*
X0037283Y0022700D01*
X0037283Y0023270D01*
X0037920Y0024806D01*
X0039096Y0025983D01*
X0040044Y0026375D01*
X0038099Y0024985D02*
X0031016Y0024985D01*
X0025805Y0017790D02*
X0016539Y0017790D01*
X0107874Y0077752D02*
X0220442Y0077752D01*
X0218044Y0080151D02*
X0111432Y0080151D01*
X0113831Y0082549D02*
X0140177Y0082549D01*
X0139995Y0082625D02*
X0141458Y0082019D01*
X0143042Y0082019D01*
X0144505Y0082625D01*
X0145625Y0083745D01*
X0146231Y0085208D01*
X0146231Y0086792D01*
X0145625Y0088255D01*
X0144505Y0089375D01*
X0143042Y0089981D01*
X0141458Y0089981D01*
X0139995Y0089375D01*
X0138875Y0088255D01*
X0138269Y0086792D01*
X0138269Y0085208D01*
X0138875Y0083745D01*
X0139995Y0082625D01*
X0138377Y0084948D02*
X0115251Y0084948D01*
X0116426Y0087346D02*
X0138499Y0087346D01*
X0140888Y0089745D02*
X0117068Y0089745D01*
X0117450Y0092143D02*
X0206051Y0092143D01*
X0208450Y0089745D02*
X0143612Y0089745D01*
X0146001Y0087346D02*
X0210848Y0087346D01*
X0213247Y0084948D02*
X0146123Y0084948D01*
X0144323Y0082549D02*
X0215645Y0082549D01*
X0223358Y0084948D02*
X0251516Y0084948D01*
X0251792Y0085615D02*
X0250955Y0083594D01*
X0250955Y0081406D01*
X0251792Y0079384D01*
X0253339Y0077837D01*
X0255361Y0077000D01*
X0257549Y0077000D01*
X0259570Y0077837D01*
X0261117Y0079384D01*
X0261955Y0081406D01*
X0261955Y0083594D01*
X0261117Y0085615D01*
X0259570Y0087163D01*
X0257549Y0088000D01*
X0255361Y0088000D01*
X0253339Y0087163D01*
X0251792Y0085615D01*
X0253783Y0087346D02*
X0220959Y0087346D01*
X0225756Y0082549D02*
X0250955Y0082549D01*
X0251475Y0080151D02*
X0228155Y0080151D01*
X0230553Y0077752D02*
X0253544Y0077752D01*
X0259365Y0077752D02*
X0279135Y0077752D01*
X0277065Y0080151D02*
X0261435Y0080151D01*
X0261955Y0082549D02*
X0276545Y0082549D01*
X0277106Y0084948D02*
X0261394Y0084948D01*
X0259127Y0087346D02*
X0279373Y0087346D01*
X0302075Y0087346D02*
X0407025Y0087346D01*
X0407025Y0089745D02*
X0302075Y0089745D01*
X0302075Y0092143D02*
X0407025Y0092143D01*
X0407025Y0094542D02*
X0302075Y0094542D01*
X0302075Y0096940D02*
X0407025Y0096940D01*
X0407025Y0099339D02*
X0405183Y0099339D01*
X0404969Y0099125D02*
X0405625Y0099781D01*
X0406171Y0100533D01*
X0406593Y0101360D01*
X0406880Y0102243D01*
X0407025Y0103161D01*
X0407025Y0103625D01*
X0407025Y0104089D01*
X0406880Y0105007D01*
X0406593Y0105890D01*
X0406171Y0106717D01*
X0405625Y0107469D01*
X0404969Y0108125D01*
X0404217Y0108671D01*
X0403390Y0109093D01*
X0402507Y0109380D01*
X0401589Y0109525D01*
X0401125Y0109525D01*
X0401125Y0103625D01*
X0407025Y0103625D01*
X0401125Y0103625D01*
X0401125Y0103625D01*
X0401125Y0103625D01*
X0401125Y0097725D01*
X0401589Y0097725D01*
X0402507Y0097870D01*
X0403390Y0098157D01*
X0404217Y0098579D01*
X0404969Y0099125D01*
X0406715Y0101737D02*
X0407025Y0101737D01*
X0407018Y0104136D02*
X0407025Y0104136D01*
X0407025Y0106534D02*
X0406264Y0106534D01*
X0407025Y0108933D02*
X0403703Y0108933D01*
X0401125Y0108933D02*
X0401125Y0108933D01*
X0401125Y0109525D02*
X0400661Y0109525D01*
X0399743Y0109380D01*
X0398860Y0109093D01*
X0398033Y0108671D01*
X0397281Y0108125D01*
X0396625Y0107469D01*
X0396079Y0106717D01*
X0396043Y0106647D01*
X0395957Y0106854D01*
X0394354Y0108457D01*
X0392259Y0109325D01*
X0389991Y0109325D01*
X0387896Y0108457D01*
X0386293Y0106854D01*
X0386125Y0106449D01*
X0385957Y0106854D01*
X0384354Y0108457D01*
X0382259Y0109325D01*
X0379991Y0109325D01*
X0377896Y0108457D01*
X0376293Y0106854D01*
X0376125Y0106449D01*
X0375957Y0106854D01*
X0374354Y0108457D01*
X0372259Y0109325D01*
X0369991Y0109325D01*
X0367896Y0108457D01*
X0366293Y0106854D01*
X0366125Y0106449D01*
X0365957Y0106854D01*
X0364354Y0108457D01*
X0362259Y0109325D01*
X0359991Y0109325D01*
X0357896Y0108457D01*
X0356293Y0106854D01*
X0356125Y0106449D01*
X0355957Y0106854D01*
X0354354Y0108457D01*
X0352259Y0109325D01*
X0349991Y0109325D01*
X0347896Y0108457D01*
X0346293Y0106854D01*
X0345425Y0104759D01*
X0345425Y0102491D01*
X0346293Y0100396D01*
X0347896Y0098793D01*
X0349991Y0097925D01*
X0352259Y0097925D01*
X0354354Y0098793D01*
X0355957Y0100396D01*
X0356125Y0100801D01*
X0356293Y0100396D01*
X0357896Y0098793D01*
X0359991Y0097925D01*
X0362259Y0097925D01*
X0364354Y0098793D01*
X0365957Y0100396D01*
X0366125Y0100801D01*
X0366293Y0100396D01*
X0367896Y0098793D01*
X0369991Y0097925D01*
X0372259Y0097925D01*
X0374354Y0098793D01*
X0375957Y0100396D01*
X0376125Y0100801D01*
X0376293Y0100396D01*
X0377896Y0098793D01*
X0379991Y0097925D01*
X0382259Y0097925D01*
X0384354Y0098793D01*
X0385957Y0100396D01*
X0386125Y0100801D01*
X0386293Y0100396D01*
X0387896Y0098793D01*
X0389991Y0097925D01*
X0392259Y0097925D01*
X0394354Y0098793D01*
X0395957Y0100396D01*
X0396043Y0100603D01*
X0396079Y0100533D01*
X0396625Y0099781D01*
X0397281Y0099125D01*
X0398033Y0098579D01*
X0398860Y0098157D01*
X0399743Y0097870D01*
X0400661Y0097725D01*
X0401125Y0097725D01*
X0401125Y0103625D01*
X0401125Y0103625D01*
X0401125Y0109525D01*
X0398547Y0108933D02*
X0393205Y0108933D01*
X0389045Y0108933D02*
X0383205Y0108933D01*
X0386089Y0106534D02*
X0386161Y0106534D01*
X0387350Y0099339D02*
X0384900Y0099339D01*
X0377350Y0099339D02*
X0374900Y0099339D01*
X0376089Y0106534D02*
X0376161Y0106534D01*
X0379045Y0108933D02*
X0373205Y0108933D01*
X0369045Y0108933D02*
X0363205Y0108933D01*
X0366089Y0106534D02*
X0366161Y0106534D01*
X0367350Y0099339D02*
X0364900Y0099339D01*
X0357350Y0099339D02*
X0354900Y0099339D01*
X0356089Y0106534D02*
X0356161Y0106534D01*
X0359045Y0108933D02*
X0353205Y0108933D01*
X0349045Y0108933D02*
X0302075Y0108933D01*
X0302075Y0106534D02*
X0346161Y0106534D01*
X0345425Y0104136D02*
X0302075Y0104136D01*
X0302075Y0101737D02*
X0345737Y0101737D01*
X0347350Y0099339D02*
X0302075Y0099339D01*
X0302075Y0111332D02*
X0407025Y0111332D01*
X0407025Y0113730D02*
X0302075Y0113730D01*
X0302075Y0116129D02*
X0323061Y0116129D01*
X0322150Y0118527D02*
X0302075Y0118527D01*
X0302075Y0120926D02*
X0302551Y0120926D01*
X0304750Y0124750D02*
X0317250Y0124750D01*
X0362250Y0169750D01*
X0387495Y0169750D01*
X0397514Y0159731D01*
X0411000Y0146245D01*
X0411000Y0083500D01*
X0406864Y0084948D02*
X0302075Y0084948D01*
X0302075Y0082549D02*
X0406658Y0082549D01*
X0408162Y0080151D02*
X0302075Y0080151D01*
X0302075Y0077752D02*
X0423554Y0077752D01*
X0426196Y0077752D02*
X0448500Y0077752D01*
X0448500Y0075354D02*
X0429273Y0075354D01*
X0429887Y0072955D02*
X0448500Y0072955D01*
X0448500Y0070557D02*
X0429340Y0070557D01*
X0420410Y0070557D02*
X0302075Y0070557D01*
X0302075Y0072955D02*
X0419863Y0072955D01*
X0420477Y0075354D02*
X0302075Y0075354D01*
X0304093Y0060963D02*
X0420080Y0060963D01*
X0422164Y0058564D02*
X0306491Y0058564D01*
X0284737Y0044173D02*
X0280825Y0044173D01*
X0280825Y0041775D02*
X0283483Y0041775D01*
X0283425Y0039376D02*
X0280825Y0039376D01*
X0281328Y0036978D02*
X0284586Y0036978D01*
X0285143Y0034579D02*
X0283726Y0034579D01*
X0292531Y0022587D02*
X0267206Y0022587D01*
X0261894Y0022587D02*
X0254890Y0022587D01*
X0237362Y0015391D02*
X0231236Y0015391D01*
X0203653Y0094542D02*
X0117450Y0094542D01*
X0117153Y0096940D02*
X0201254Y0096940D01*
X0198855Y0099339D02*
X0116510Y0099339D01*
X0115432Y0101737D02*
X0196457Y0101737D01*
X0194058Y0104136D02*
X0114048Y0104136D01*
X0111747Y0106534D02*
X0191660Y0106534D01*
X0189261Y0108933D02*
X0108419Y0108933D01*
X0092250Y0152106D02*
X0006200Y0152106D01*
X0006200Y0154505D02*
X0087236Y0154505D01*
X0084965Y0156903D02*
X0077987Y0156903D01*
X0077134Y0156550D02*
X0079229Y0157418D01*
X0080832Y0159021D01*
X0081700Y0161116D01*
X0081700Y0163384D01*
X0080832Y0165479D01*
X0079229Y0167082D01*
X0077134Y0167950D01*
X0074866Y0167950D01*
X0072771Y0167082D01*
X0071168Y0165479D01*
X0071000Y0165074D01*
X0070832Y0165479D01*
X0069229Y0167082D01*
X0067134Y0167950D01*
X0064866Y0167950D01*
X0062771Y0167082D01*
X0061168Y0165479D01*
X0060300Y0163384D01*
X0060300Y0161116D01*
X0061168Y0159021D01*
X0062771Y0157418D01*
X0064866Y0156550D01*
X0067134Y0156550D01*
X0069229Y0157418D01*
X0070832Y0159021D01*
X0071000Y0159426D01*
X0071168Y0159021D01*
X0072771Y0157418D01*
X0074866Y0156550D01*
X0077134Y0156550D01*
X0074013Y0156903D02*
X0067987Y0156903D01*
X0070948Y0159302D02*
X0071052Y0159302D01*
X0072186Y0166497D02*
X0069814Y0166497D01*
X0062186Y0166497D02*
X0006200Y0166497D01*
X0006200Y0164099D02*
X0060596Y0164099D01*
X0060300Y0161700D02*
X0006200Y0161700D01*
X0006200Y0159302D02*
X0061052Y0159302D01*
X0064013Y0156903D02*
X0006200Y0156903D01*
X0079814Y0166497D02*
X0084450Y0166497D01*
X0084450Y0164099D02*
X0081404Y0164099D01*
X0081700Y0161700D02*
X0084450Y0161700D01*
X0084450Y0159302D02*
X0080948Y0159302D01*
X0108500Y0171294D02*
X0116175Y0171294D01*
X0116175Y0168896D02*
X0114150Y0168896D01*
X0116175Y0173693D02*
X0108500Y0173693D01*
X0108500Y0176091D02*
X0116175Y0176091D01*
X0116175Y0178490D02*
X0108500Y0178490D01*
X0108500Y0180888D02*
X0116175Y0180888D01*
X0116175Y0183287D02*
X0108500Y0183287D01*
X0108500Y0185685D02*
X0116175Y0185685D01*
X0116175Y0188084D02*
X0108500Y0188084D01*
X0108500Y0190482D02*
X0116175Y0190482D01*
X0116175Y0192881D02*
X0108500Y0192881D01*
X0108500Y0195279D02*
X0116175Y0195279D01*
X0116175Y0197678D02*
X0108500Y0197678D01*
X0108500Y0200076D02*
X0116175Y0200076D01*
X0116175Y0202475D02*
X0108500Y0202475D01*
X0108500Y0204873D02*
X0116175Y0204873D01*
X0116175Y0207272D02*
X0108500Y0207272D01*
X0108500Y0209670D02*
X0116175Y0209670D01*
X0116175Y0212069D02*
X0108500Y0212069D01*
X0108500Y0214468D02*
X0116175Y0214468D01*
X0116175Y0216866D02*
X0108500Y0216866D01*
X0108500Y0219265D02*
X0116175Y0219265D01*
X0116175Y0221663D02*
X0108500Y0221663D01*
X0108500Y0224062D02*
X0116175Y0224062D01*
X0116382Y0226460D02*
X0108500Y0226460D01*
X0108500Y0228859D02*
X0118303Y0228859D01*
X0120702Y0231257D02*
X0096818Y0231257D01*
X0098552Y0233656D02*
X0123100Y0233656D01*
X0125499Y0236054D02*
X0098950Y0236054D01*
X0098300Y0238453D02*
X0127897Y0238453D01*
X0130296Y0240851D02*
X0095830Y0240851D01*
X0097927Y0243250D02*
X0132694Y0243250D01*
X0135093Y0245648D02*
X0098700Y0245648D01*
X0098425Y0248047D02*
X0137491Y0248047D01*
X0139890Y0250445D02*
X0096866Y0250445D01*
X0097405Y0252844D02*
X0142288Y0252844D01*
X0144687Y0255242D02*
X0098795Y0255242D01*
X0098950Y0257641D02*
X0147085Y0257641D01*
X0148488Y0260039D02*
X0098022Y0260039D01*
X0096749Y0262438D02*
X0149850Y0262438D01*
X0150576Y0264836D02*
X0098597Y0264836D01*
X0099075Y0267235D02*
X0148488Y0267235D01*
X0147811Y0269633D02*
X0098506Y0269633D01*
X0096424Y0272032D02*
X0145413Y0272032D01*
X0143014Y0274430D02*
X0006200Y0274430D01*
X0006200Y0272032D02*
X0090326Y0272032D01*
X0088244Y0269633D02*
X0006200Y0269633D01*
X0006200Y0267235D02*
X0087675Y0267235D01*
X0088153Y0264836D02*
X0006200Y0264836D01*
X0006200Y0262438D02*
X0090001Y0262438D01*
X0088478Y0260039D02*
X0050999Y0260039D01*
X0052431Y0257641D02*
X0087550Y0257641D01*
X0087705Y0255242D02*
X0052813Y0255242D01*
X0052362Y0252844D02*
X0089095Y0252844D01*
X0089134Y0250445D02*
X0050832Y0250445D01*
X0045782Y0245648D02*
X0087300Y0245648D01*
X0087575Y0248047D02*
X0042920Y0248047D01*
X0038705Y0248047D02*
X0006200Y0248047D01*
X0006200Y0250445D02*
X0030794Y0250445D01*
X0029264Y0252844D02*
X0006200Y0252844D01*
X0006200Y0255242D02*
X0028813Y0255242D01*
X0029195Y0257641D02*
X0006200Y0257641D01*
X0006200Y0260039D02*
X0030627Y0260039D01*
X0035844Y0245648D02*
X0006200Y0245648D01*
X0006200Y0243250D02*
X0035113Y0243250D01*
X0046513Y0243250D02*
X0088073Y0243250D01*
X0090670Y0240851D02*
X0069750Y0240851D01*
X0069750Y0238453D02*
X0088200Y0238453D01*
X0087550Y0236054D02*
X0069750Y0236054D01*
X0069750Y0233656D02*
X0087948Y0233656D01*
X0089682Y0231257D02*
X0069750Y0231257D01*
X0123617Y0224062D02*
X0147377Y0224062D01*
X0146109Y0226460D02*
X0126016Y0226460D01*
X0128414Y0228859D02*
X0143711Y0228859D01*
X0143050Y0231257D02*
X0130813Y0231257D01*
X0133211Y0233656D02*
X0143050Y0233656D01*
X0143050Y0236054D02*
X0135610Y0236054D01*
X0138008Y0238453D02*
X0143050Y0238453D01*
X0143050Y0240851D02*
X0140407Y0240851D01*
X0142805Y0243250D02*
X0143050Y0243250D01*
X0166338Y0243250D02*
X0210673Y0243250D01*
X0208275Y0245648D02*
X0167236Y0245648D01*
X0168512Y0248047D02*
X0205876Y0248047D01*
X0203478Y0250445D02*
X0168512Y0250445D01*
X0166744Y0252844D02*
X0201079Y0252844D01*
X0198681Y0255242D02*
X0166830Y0255242D01*
X0168512Y0257641D02*
X0196282Y0257641D01*
X0193884Y0260039D02*
X0168512Y0260039D01*
X0167150Y0262438D02*
X0191485Y0262438D01*
X0189087Y0264836D02*
X0166424Y0264836D01*
X0168512Y0267235D02*
X0186688Y0267235D01*
X0184290Y0269633D02*
X0168512Y0269633D01*
X0167556Y0272032D02*
X0177413Y0272032D01*
X0175014Y0274430D02*
X0166018Y0274430D01*
X0168417Y0276829D02*
X0172616Y0276829D01*
X0170217Y0279227D02*
X0168512Y0279227D01*
X0180211Y0291220D02*
X0193124Y0291220D01*
X0192899Y0288821D02*
X0182609Y0288821D01*
X0185008Y0286423D02*
X0193675Y0286423D01*
X0193675Y0284024D02*
X0187406Y0284024D01*
X0192408Y0281626D02*
X0193675Y0281626D01*
X0200825Y0284024D02*
X0237425Y0284024D01*
X0237425Y0281626D02*
X0201680Y0281626D01*
X0200825Y0286423D02*
X0237425Y0286423D01*
X0237425Y0288821D02*
X0201601Y0288821D01*
X0201376Y0291220D02*
X0237425Y0291220D01*
X0237425Y0293618D02*
X0200825Y0293618D01*
X0200825Y0296017D02*
X0237425Y0296017D01*
X0237425Y0298415D02*
X0200825Y0298415D01*
X0201132Y0300814D02*
X0237425Y0300814D01*
X0237425Y0303212D02*
X0201625Y0303212D01*
X0200825Y0305611D02*
X0237425Y0305611D01*
X0237425Y0308009D02*
X0200825Y0308009D01*
X0200825Y0310408D02*
X0237425Y0310408D01*
X0237425Y0312806D02*
X0201180Y0312806D01*
X0201625Y0315205D02*
X0237425Y0315205D01*
X0237425Y0317603D02*
X0200825Y0317603D01*
X0200825Y0320002D02*
X0237425Y0320002D01*
X0237425Y0322401D02*
X0200825Y0322401D01*
X0200825Y0324799D02*
X0237425Y0324799D01*
X0237425Y0327198D02*
X0200884Y0327198D01*
X0201625Y0329596D02*
X0237425Y0329596D01*
X0237425Y0331995D02*
X0201056Y0331995D01*
X0193444Y0331995D02*
X0177075Y0331995D01*
X0177075Y0329596D02*
X0192875Y0329596D01*
X0193616Y0327198D02*
X0176623Y0327198D01*
X0174355Y0324799D02*
X0193675Y0324799D01*
X0193675Y0322401D02*
X0171956Y0322401D01*
X0169558Y0320002D02*
X0193675Y0320002D01*
X0193675Y0317603D02*
X0168512Y0317603D01*
X0166793Y0315205D02*
X0192875Y0315205D01*
X0193320Y0312806D02*
X0166781Y0312806D01*
X0168512Y0310408D02*
X0193675Y0310408D01*
X0193675Y0308009D02*
X0168512Y0308009D01*
X0167199Y0305611D02*
X0193675Y0305611D01*
X0192875Y0303212D02*
X0166375Y0303212D01*
X0168512Y0300814D02*
X0193368Y0300814D01*
X0193675Y0298415D02*
X0168512Y0298415D01*
X0175414Y0296017D02*
X0193675Y0296017D01*
X0193675Y0293618D02*
X0177812Y0293618D01*
X0142425Y0293618D02*
X0006200Y0293618D01*
X0006200Y0291220D02*
X0142425Y0291220D01*
X0142425Y0288821D02*
X0006200Y0288821D01*
X0006200Y0286423D02*
X0142425Y0286423D01*
X0142425Y0284024D02*
X0006200Y0284024D01*
X0006200Y0281626D02*
X0142425Y0281626D01*
X0142425Y0279227D02*
X0006200Y0279227D01*
X0006200Y0276829D02*
X0142425Y0276829D01*
X0142425Y0296017D02*
X0006200Y0296017D01*
X0006200Y0298415D02*
X0142425Y0298415D01*
X0142425Y0300814D02*
X0006200Y0300814D01*
X0006200Y0303212D02*
X0142425Y0303212D01*
X0142425Y0305611D02*
X0006200Y0305611D01*
X0006200Y0308009D02*
X0142425Y0308009D01*
X0142425Y0310408D02*
X0006200Y0310408D01*
X0006200Y0312806D02*
X0142425Y0312806D01*
X0142425Y0315205D02*
X0006200Y0315205D01*
X0006200Y0317603D02*
X0142425Y0317603D01*
X0142425Y0320002D02*
X0006200Y0320002D01*
X0006200Y0322401D02*
X0142425Y0322401D01*
X0142425Y0324799D02*
X0006200Y0324799D01*
X0006200Y0327198D02*
X0142425Y0327198D01*
X0142425Y0329596D02*
X0006200Y0329596D01*
X0006200Y0336000D02*
X0006200Y0377105D01*
X0009064Y0375918D01*
X0012621Y0375918D01*
X0015907Y0377279D01*
X0018378Y0379750D01*
X0041000Y0379750D01*
X0041000Y0363500D01*
X0056000Y0363500D01*
X0056000Y0336000D01*
X0006200Y0336000D01*
X0006200Y0336792D02*
X0056000Y0336792D01*
X0056000Y0339190D02*
X0006200Y0339190D01*
X0006200Y0341589D02*
X0056000Y0341589D01*
X0056000Y0343987D02*
X0006200Y0343987D01*
X0006200Y0346386D02*
X0056000Y0346386D01*
X0056000Y0348784D02*
X0006200Y0348784D01*
X0006200Y0351183D02*
X0056000Y0351183D01*
X0056000Y0353581D02*
X0006200Y0353581D01*
X0006200Y0355980D02*
X0056000Y0355980D01*
X0056000Y0358378D02*
X0006200Y0358378D01*
X0006200Y0360777D02*
X0056000Y0360777D01*
X0056000Y0363175D02*
X0006200Y0363175D01*
X0006200Y0365574D02*
X0041000Y0365574D01*
X0041000Y0367972D02*
X0006200Y0367972D01*
X0006200Y0370371D02*
X0041000Y0370371D01*
X0041000Y0372769D02*
X0006200Y0372769D01*
X0006200Y0375168D02*
X0041000Y0375168D01*
X0041000Y0377566D02*
X0016194Y0377566D01*
X0064750Y0377566D02*
X0105011Y0377566D01*
X0102612Y0375168D02*
X0064750Y0375168D01*
X0064750Y0372769D02*
X0099875Y0372769D01*
X0097040Y0370371D02*
X0064750Y0370371D01*
X0064750Y0367972D02*
X0096625Y0367972D01*
X0097739Y0365574D02*
X0064750Y0365574D01*
X0064750Y0363175D02*
X0352620Y0363175D01*
X0353067Y0363622D02*
X0323456Y0334012D01*
X0321424Y0334012D01*
X0318488Y0331076D01*
X0318488Y0326924D01*
X0321412Y0324000D01*
X0318488Y0321076D01*
X0318488Y0316924D01*
X0321412Y0314000D01*
X0318488Y0311076D01*
X0318488Y0306924D01*
X0321412Y0304000D01*
X0318488Y0301076D01*
X0318488Y0296924D01*
X0321412Y0294000D01*
X0318488Y0291076D01*
X0318488Y0286924D01*
X0321412Y0284000D01*
X0318488Y0281076D01*
X0318488Y0276924D01*
X0321412Y0274000D01*
X0318488Y0271076D01*
X0318488Y0266924D01*
X0321412Y0264000D01*
X0318488Y0261076D01*
X0318488Y0256924D01*
X0321271Y0254141D01*
X0318288Y0251159D01*
X0318288Y0249000D01*
X0323500Y0249000D01*
X0323500Y0249000D01*
X0318288Y0249000D01*
X0318288Y0246841D01*
X0321271Y0243859D01*
X0318488Y0241076D01*
X0318488Y0236924D01*
X0318675Y0236737D01*
X0318675Y0220289D01*
X0319219Y0218975D01*
X0320225Y0217969D01*
X0333975Y0204219D01*
X0335289Y0203675D01*
X0351514Y0203675D01*
X0352771Y0202418D01*
X0353176Y0202250D01*
X0352771Y0202082D01*
X0351168Y0200479D01*
X0350300Y0198384D01*
X0350300Y0196116D01*
X0351168Y0194021D01*
X0352771Y0192418D01*
X0354866Y0191550D01*
X0357134Y0191550D01*
X0359229Y0192418D01*
X0360832Y0194021D01*
X0361700Y0196116D01*
X0361700Y0197894D01*
X0375584Y0211778D01*
X0376128Y0213092D01*
X0376128Y0217239D01*
X0376393Y0217239D01*
X0377565Y0218411D01*
X0377565Y0226091D01*
X0376393Y0227263D01*
X0368713Y0227263D01*
X0367541Y0226091D01*
X0367541Y0218411D01*
X0368713Y0217239D01*
X0368978Y0217239D01*
X0368978Y0215284D01*
X0361700Y0208005D01*
X0361700Y0208384D01*
X0360832Y0210479D01*
X0359229Y0212082D01*
X0357134Y0212950D01*
X0354866Y0212950D01*
X0352771Y0212082D01*
X0351514Y0210825D01*
X0337481Y0210825D01*
X0325825Y0222481D01*
X0325825Y0234237D01*
X0328500Y0236912D01*
X0331424Y0233988D01*
X0335576Y0233988D01*
X0338512Y0236924D01*
X0338512Y0238933D01*
X0346975Y0230469D01*
X0348289Y0229925D01*
X0371711Y0229925D01*
X0373025Y0230469D01*
X0396622Y0254067D01*
X0439883Y0254067D01*
X0440020Y0253930D01*
X0441629Y0253264D01*
X0443371Y0253264D01*
X0444980Y0253930D01*
X0446211Y0255162D01*
X0446878Y0256771D01*
X0446878Y0258513D01*
X0446211Y0260122D01*
X0445739Y0260594D01*
X0446211Y0261067D01*
X0446878Y0262676D01*
X0446878Y0264418D01*
X0446211Y0266027D01*
X0445739Y0266500D01*
X0446211Y0266973D01*
X0446878Y0268582D01*
X0446878Y0270324D01*
X0446211Y0271933D01*
X0445739Y0272406D01*
X0446211Y0272878D01*
X0446878Y0274487D01*
X0446878Y0276229D01*
X0446211Y0277838D01*
X0444980Y0279070D01*
X0443371Y0279736D01*
X0441629Y0279736D01*
X0440020Y0279070D01*
X0439883Y0278933D01*
X0364372Y0278933D01*
X0356150Y0287156D01*
X0354836Y0287700D01*
X0338512Y0287700D01*
X0338512Y0290550D01*
X0432336Y0290550D01*
X0433650Y0291094D01*
X0435997Y0293442D01*
X0439633Y0293442D01*
X0439770Y0293305D01*
X0441379Y0292639D01*
X0443121Y0292639D01*
X0444730Y0293305D01*
X0445961Y0294537D01*
X0446628Y0296146D01*
X0446628Y0297888D01*
X0445961Y0299497D01*
X0445489Y0299969D01*
X0445961Y0300442D01*
X0446628Y0302051D01*
X0446628Y0303793D01*
X0445961Y0305402D01*
X0445489Y0305875D01*
X0445961Y0306348D01*
X0446628Y0307957D01*
X0446628Y0309699D01*
X0445961Y0311308D01*
X0445489Y0311781D01*
X0445961Y0312253D01*
X0446628Y0313862D01*
X0446628Y0315604D01*
X0445961Y0317213D01*
X0444730Y0318445D01*
X0443121Y0319111D01*
X0441694Y0319111D01*
X0433650Y0327156D01*
X0432336Y0327700D01*
X0338512Y0327700D01*
X0338512Y0328956D01*
X0358016Y0348461D01*
X0357875Y0348120D01*
X0357875Y0346380D01*
X0358541Y0344772D01*
X0359772Y0343541D01*
X0361380Y0342875D01*
X0363120Y0342875D01*
X0364728Y0343541D01*
X0365959Y0344772D01*
X0366625Y0346380D01*
X0366625Y0346569D01*
X0371483Y0351428D01*
X0372028Y0352742D01*
X0372028Y0376477D01*
X0373487Y0375872D01*
X0375229Y0375872D01*
X0376838Y0376539D01*
X0378070Y0377770D01*
X0378736Y0379379D01*
X0378736Y0381121D01*
X0378070Y0382730D01*
X0376838Y0383961D01*
X0375229Y0384628D01*
X0373487Y0384628D01*
X0371878Y0383961D01*
X0371405Y0383489D01*
X0370933Y0383961D01*
X0369324Y0384628D01*
X0367582Y0384628D01*
X0365973Y0383961D01*
X0365500Y0383489D01*
X0365027Y0383961D01*
X0363418Y0384628D01*
X0361676Y0384628D01*
X0360067Y0383961D01*
X0359594Y0383489D01*
X0359122Y0383961D01*
X0357513Y0384628D01*
X0355771Y0384628D01*
X0354162Y0383961D01*
X0352930Y0382730D01*
X0352264Y0381121D01*
X0352264Y0379379D01*
X0352930Y0377770D01*
X0353067Y0377633D01*
X0353067Y0363622D01*
X0353067Y0365574D02*
X0104261Y0365574D01*
X0105528Y0367972D02*
X0353067Y0367972D01*
X0353067Y0370371D02*
X0107926Y0370371D01*
X0112162Y0379289D02*
X0113771Y0378622D01*
X0115513Y0378622D01*
X0117122Y0379289D01*
X0117594Y0379761D01*
X0118067Y0379289D01*
X0119676Y0378622D01*
X0121418Y0378622D01*
X0123027Y0379289D01*
X0123500Y0379761D01*
X0123973Y0379289D01*
X0125582Y0378622D01*
X0127324Y0378622D01*
X0128933Y0379289D01*
X0129405Y0379761D01*
X0129878Y0379289D01*
X0131487Y0378622D01*
X0133229Y0378622D01*
X0134838Y0379289D01*
X0136070Y0380520D01*
X0136736Y0382129D01*
X0136736Y0383871D01*
X0136070Y0385480D01*
X0134838Y0386711D01*
X0133229Y0387378D01*
X0131487Y0387378D01*
X0129878Y0386711D01*
X0129405Y0386239D01*
X0128933Y0386711D01*
X0127324Y0387378D01*
X0125582Y0387378D01*
X0123973Y0386711D01*
X0123500Y0386239D01*
X0123027Y0386711D01*
X0121418Y0387378D01*
X0119676Y0387378D01*
X0118067Y0386711D01*
X0117594Y0386239D01*
X0117122Y0386711D01*
X0115513Y0387378D01*
X0113771Y0387378D01*
X0112162Y0386711D01*
X0110930Y0385480D01*
X0110264Y0383871D01*
X0110264Y0382129D01*
X0110930Y0380520D01*
X0112162Y0379289D01*
X0111486Y0379965D02*
X0098764Y0379965D01*
X0099070Y0380270D02*
X0099736Y0381879D01*
X0099736Y0383621D01*
X0099070Y0385230D01*
X0097838Y0386461D01*
X0096229Y0387128D01*
X0094487Y0387128D01*
X0092878Y0386461D01*
X0092405Y0385989D01*
X0091933Y0386461D01*
X0090324Y0387128D01*
X0088582Y0387128D01*
X0086973Y0386461D01*
X0086500Y0385989D01*
X0086027Y0386461D01*
X0084418Y0387128D01*
X0082676Y0387128D01*
X0081067Y0386461D01*
X0080736Y0386130D01*
X0080624Y0386242D01*
X0080041Y0386665D01*
X0079399Y0386993D01*
X0078714Y0387215D01*
X0078002Y0387328D01*
X0077642Y0387328D01*
X0077642Y0382750D01*
X0077642Y0382750D01*
X0077642Y0378172D01*
X0078002Y0378172D01*
X0078714Y0378285D01*
X0079399Y0378507D01*
X0080041Y0378835D01*
X0080624Y0379258D01*
X0080736Y0379370D01*
X0081067Y0379039D01*
X0082676Y0378372D01*
X0084418Y0378372D01*
X0086027Y0379039D01*
X0086500Y0379511D01*
X0086973Y0379039D01*
X0088582Y0378372D01*
X0090324Y0378372D01*
X0091933Y0379039D01*
X0092405Y0379511D01*
X0092878Y0379039D01*
X0094487Y0378372D01*
X0096229Y0378372D01*
X0097838Y0379039D01*
X0099070Y0380270D01*
X0099736Y0382363D02*
X0110264Y0382363D01*
X0110633Y0384762D02*
X0099264Y0384762D01*
X0113246Y0387160D02*
X0078883Y0387160D01*
X0077642Y0387160D02*
X0077642Y0387160D01*
X0077642Y0387328D02*
X0077281Y0387328D01*
X0076570Y0387215D01*
X0075884Y0386993D01*
X0075242Y0386665D01*
X0074659Y0386242D01*
X0074150Y0385732D01*
X0073726Y0385149D01*
X0073399Y0384507D01*
X0073177Y0383822D01*
X0073064Y0383110D01*
X0073064Y0382750D01*
X0073064Y0382390D01*
X0073177Y0381678D01*
X0073399Y0380993D01*
X0073726Y0380351D01*
X0074150Y0379768D01*
X0074659Y0379258D01*
X0075242Y0378835D01*
X0075884Y0378507D01*
X0076570Y0378285D01*
X0077281Y0378172D01*
X0077642Y0378172D01*
X0077642Y0382750D01*
X0077642Y0382750D01*
X0077642Y0387328D01*
X0076401Y0387160D02*
X0064750Y0387160D01*
X0064750Y0384762D02*
X0073529Y0384762D01*
X0073064Y0382750D02*
X0077642Y0382750D01*
X0073064Y0382750D01*
X0073068Y0382363D02*
X0064750Y0382363D01*
X0064750Y0379965D02*
X0074007Y0379965D01*
X0077642Y0379965D02*
X0077642Y0379965D01*
X0077642Y0382363D02*
X0077642Y0382363D01*
X0077642Y0382750D02*
X0077642Y0382750D01*
X0077642Y0384762D02*
X0077642Y0384762D01*
X0064750Y0360777D02*
X0350221Y0360777D01*
X0347823Y0358378D02*
X0064750Y0358378D01*
X0064750Y0355980D02*
X0217293Y0355980D01*
X0217291Y0355978D02*
X0216625Y0354370D01*
X0216625Y0352630D01*
X0217291Y0351022D01*
X0218522Y0349791D01*
X0220130Y0349125D01*
X0220319Y0349125D01*
X0237425Y0332019D01*
X0237425Y0279862D01*
X0237291Y0279728D01*
X0236625Y0278120D01*
X0236625Y0276380D01*
X0237291Y0274772D01*
X0238522Y0273541D01*
X0240130Y0272875D01*
X0241870Y0272875D01*
X0243478Y0273541D01*
X0244709Y0274772D01*
X0245375Y0276380D01*
X0245375Y0278120D01*
X0244709Y0279728D01*
X0244575Y0279862D01*
X0244575Y0334211D01*
X0244031Y0335525D01*
X0243025Y0336531D01*
X0225375Y0354181D01*
X0225375Y0354370D01*
X0224709Y0355978D01*
X0223478Y0357209D01*
X0221870Y0357875D01*
X0220130Y0357875D01*
X0218522Y0357209D01*
X0217291Y0355978D01*
X0216625Y0353581D02*
X0064750Y0353581D01*
X0064750Y0351183D02*
X0217225Y0351183D01*
X0220660Y0348784D02*
X0064750Y0348784D01*
X0064750Y0346386D02*
X0223059Y0346386D01*
X0225457Y0343987D02*
X0064750Y0343987D01*
X0064750Y0341589D02*
X0142902Y0341589D01*
X0141625Y0339190D02*
X0064750Y0339190D01*
X0064750Y0336792D02*
X0141972Y0336792D01*
X0142425Y0334393D02*
X0064750Y0334393D01*
X0064750Y0331995D02*
X0142425Y0331995D01*
X0149575Y0334393D02*
X0169125Y0334393D01*
X0169610Y0336792D02*
X0150028Y0336792D01*
X0150375Y0339190D02*
X0230254Y0339190D01*
X0227856Y0341589D02*
X0149098Y0341589D01*
X0157593Y0331995D02*
X0159407Y0331995D01*
X0167593Y0331995D02*
X0169925Y0331995D01*
X0169041Y0329596D02*
X0168512Y0329596D01*
X0177390Y0336792D02*
X0232653Y0336792D01*
X0235051Y0334393D02*
X0177875Y0334393D01*
X0177200Y0372769D02*
X0353067Y0372769D01*
X0353067Y0375168D02*
X0179598Y0375168D01*
X0181997Y0377566D02*
X0353067Y0377566D01*
X0352264Y0379965D02*
X0184395Y0379965D01*
X0186794Y0382363D02*
X0187357Y0382363D01*
X0189643Y0382363D02*
X0352778Y0382363D01*
X0372028Y0375168D02*
X0448500Y0375168D01*
X0448500Y0372769D02*
X0372028Y0372769D01*
X0372028Y0370371D02*
X0448500Y0370371D01*
X0448500Y0367972D02*
X0427518Y0367972D01*
X0427117Y0368374D02*
X0425274Y0369137D01*
X0423281Y0369137D01*
X0421439Y0368374D01*
X0420029Y0366964D01*
X0419356Y0365340D01*
X0418684Y0366964D01*
X0417274Y0368374D01*
X0415432Y0369137D01*
X0413438Y0369137D01*
X0411596Y0368374D01*
X0410186Y0366964D01*
X0409514Y0365340D01*
X0408841Y0366964D01*
X0407431Y0368374D01*
X0405589Y0369137D01*
X0403596Y0369137D01*
X0401754Y0368374D01*
X0400344Y0366964D01*
X0399763Y0365562D01*
X0399580Y0366126D01*
X0399208Y0366857D01*
X0398725Y0367520D01*
X0398145Y0368100D01*
X0397482Y0368583D01*
X0396751Y0368955D01*
X0395970Y0369208D01*
X0395160Y0369337D01*
X0394750Y0369337D01*
X0394750Y0364125D01*
X0394750Y0364125D01*
X0394750Y0358913D01*
X0395160Y0358913D01*
X0395970Y0359042D01*
X0396751Y0359295D01*
X0397482Y0359667D01*
X0398145Y0360150D01*
X0398725Y0360730D01*
X0399208Y0361393D01*
X0399580Y0362124D01*
X0399763Y0362688D01*
X0400344Y0361286D01*
X0401754Y0359876D01*
X0403596Y0359113D01*
X0405589Y0359113D01*
X0407431Y0359876D01*
X0408841Y0361286D01*
X0409514Y0362909D01*
X0410186Y0361286D01*
X0411596Y0359876D01*
X0413438Y0359113D01*
X0415432Y0359113D01*
X0417274Y0359876D01*
X0418684Y0361286D01*
X0419356Y0362909D01*
X0420029Y0361286D01*
X0421439Y0359876D01*
X0423281Y0359113D01*
X0425274Y0359113D01*
X0427117Y0359876D01*
X0428526Y0361286D01*
X0429289Y0363128D01*
X0429289Y0365122D01*
X0428526Y0366964D01*
X0427117Y0368374D01*
X0429102Y0365574D02*
X0448500Y0365574D01*
X0448500Y0363175D02*
X0429289Y0363175D01*
X0428017Y0360777D02*
X0448500Y0360777D01*
X0448500Y0358378D02*
X0372028Y0358378D01*
X0372028Y0355980D02*
X0448500Y0355980D01*
X0448500Y0353581D02*
X0372028Y0353581D01*
X0371238Y0351183D02*
X0448500Y0351183D01*
X0448500Y0348784D02*
X0368840Y0348784D01*
X0366625Y0346386D02*
X0448500Y0346386D01*
X0448500Y0343987D02*
X0365174Y0343987D01*
X0359326Y0343987D02*
X0353543Y0343987D01*
X0355941Y0346386D02*
X0357875Y0346386D01*
X0351144Y0341589D02*
X0448500Y0341589D01*
X0448500Y0339190D02*
X0348746Y0339190D01*
X0346347Y0336792D02*
X0448500Y0336792D01*
X0448500Y0334393D02*
X0343949Y0334393D01*
X0341550Y0331995D02*
X0448500Y0331995D01*
X0448500Y0329596D02*
X0339152Y0329596D01*
X0328635Y0339190D02*
X0240365Y0339190D01*
X0237967Y0341589D02*
X0331033Y0341589D01*
X0333432Y0343987D02*
X0235568Y0343987D01*
X0233170Y0346386D02*
X0335830Y0346386D01*
X0338229Y0348784D02*
X0230771Y0348784D01*
X0228373Y0351183D02*
X0340627Y0351183D01*
X0343026Y0353581D02*
X0225974Y0353581D01*
X0224707Y0355980D02*
X0345424Y0355980D01*
X0326236Y0336792D02*
X0242764Y0336792D01*
X0244499Y0334393D02*
X0323838Y0334393D01*
X0319407Y0331995D02*
X0244575Y0331995D01*
X0244575Y0329596D02*
X0318488Y0329596D01*
X0318488Y0327198D02*
X0244575Y0327198D01*
X0244575Y0324799D02*
X0320613Y0324799D01*
X0319813Y0322401D02*
X0244575Y0322401D01*
X0244575Y0320002D02*
X0318488Y0320002D01*
X0318488Y0317603D02*
X0244575Y0317603D01*
X0244575Y0315205D02*
X0320207Y0315205D01*
X0320219Y0312806D02*
X0244575Y0312806D01*
X0244575Y0310408D02*
X0318488Y0310408D01*
X0318488Y0308009D02*
X0244575Y0308009D01*
X0244575Y0305611D02*
X0319801Y0305611D01*
X0320625Y0303212D02*
X0244575Y0303212D01*
X0244575Y0300814D02*
X0318488Y0300814D01*
X0318488Y0298415D02*
X0244575Y0298415D01*
X0244575Y0296017D02*
X0319395Y0296017D01*
X0321031Y0293618D02*
X0244575Y0293618D01*
X0244575Y0291220D02*
X0318632Y0291220D01*
X0318488Y0288821D02*
X0244575Y0288821D01*
X0244575Y0286423D02*
X0318989Y0286423D01*
X0321388Y0284024D02*
X0244575Y0284024D01*
X0244575Y0281626D02*
X0319038Y0281626D01*
X0318488Y0279227D02*
X0244916Y0279227D01*
X0245375Y0276829D02*
X0318583Y0276829D01*
X0320982Y0274430D02*
X0244367Y0274430D01*
X0237633Y0274430D02*
X0235125Y0274430D01*
X0236625Y0276829D02*
X0232727Y0276829D01*
X0230328Y0279227D02*
X0237084Y0279227D01*
X0237524Y0272032D02*
X0319444Y0272032D01*
X0318488Y0269633D02*
X0239922Y0269633D01*
X0242321Y0267235D02*
X0318488Y0267235D01*
X0320576Y0264836D02*
X0244719Y0264836D01*
X0247118Y0262438D02*
X0319850Y0262438D01*
X0318488Y0260039D02*
X0292016Y0260039D01*
X0294415Y0257641D02*
X0318488Y0257641D01*
X0320170Y0255242D02*
X0296813Y0255242D01*
X0299106Y0252844D02*
X0319973Y0252844D01*
X0318288Y0250445D02*
X0299575Y0250445D01*
X0299575Y0248047D02*
X0318288Y0248047D01*
X0319481Y0245648D02*
X0299575Y0245648D01*
X0299575Y0243250D02*
X0320662Y0243250D01*
X0318488Y0240851D02*
X0299575Y0240851D01*
X0299575Y0238453D02*
X0318488Y0238453D01*
X0318675Y0236054D02*
X0299575Y0236054D01*
X0299575Y0233656D02*
X0318675Y0233656D01*
X0318675Y0231257D02*
X0299575Y0231257D01*
X0299575Y0228859D02*
X0318675Y0228859D01*
X0318675Y0226460D02*
X0299575Y0226460D01*
X0299575Y0224062D02*
X0318675Y0224062D01*
X0318675Y0221663D02*
X0299575Y0221663D01*
X0299575Y0219265D02*
X0319100Y0219265D01*
X0321328Y0216866D02*
X0299587Y0216866D01*
X0299538Y0214468D02*
X0323727Y0214468D01*
X0326125Y0212069D02*
X0299486Y0212069D01*
X0299056Y0209670D02*
X0328524Y0209670D01*
X0330922Y0207272D02*
X0295435Y0207272D01*
X0290576Y0204873D02*
X0333321Y0204873D01*
X0336237Y0212069D02*
X0352758Y0212069D01*
X0359242Y0212069D02*
X0365763Y0212069D01*
X0363365Y0209670D02*
X0361167Y0209670D01*
X0366280Y0202475D02*
X0448500Y0202475D01*
X0448500Y0204873D02*
X0368679Y0204873D01*
X0371077Y0207272D02*
X0448500Y0207272D01*
X0448500Y0209670D02*
X0373476Y0209670D01*
X0375704Y0212069D02*
X0448500Y0212069D01*
X0448500Y0214468D02*
X0376128Y0214468D01*
X0376128Y0216866D02*
X0448500Y0216866D01*
X0448500Y0219265D02*
X0415065Y0219265D01*
X0415065Y0218411D02*
X0415065Y0226091D01*
X0413893Y0227263D01*
X0406213Y0227263D01*
X0405041Y0226091D01*
X0405041Y0218411D01*
X0406213Y0217239D01*
X0413893Y0217239D01*
X0415065Y0218411D01*
X0415065Y0221663D02*
X0448500Y0221663D01*
X0448500Y0224062D02*
X0415065Y0224062D01*
X0414696Y0226460D02*
X0448500Y0226460D01*
X0448500Y0228859D02*
X0325825Y0228859D01*
X0325825Y0231257D02*
X0346187Y0231257D01*
X0343789Y0233656D02*
X0325825Y0233656D01*
X0327642Y0236054D02*
X0329358Y0236054D01*
X0337642Y0236054D02*
X0341390Y0236054D01*
X0338992Y0238453D02*
X0338512Y0238453D01*
X0344306Y0243250D02*
X0351189Y0243250D01*
X0350918Y0242979D02*
X0352521Y0244582D01*
X0353582Y0245021D01*
X0352021Y0245668D01*
X0350418Y0247271D01*
X0349550Y0249366D01*
X0349550Y0251634D01*
X0350418Y0253729D01*
X0352021Y0255332D01*
X0354116Y0256200D01*
X0356384Y0256200D01*
X0358479Y0255332D01*
X0360082Y0253729D01*
X0360950Y0251634D01*
X0360950Y0249366D01*
X0360082Y0247271D01*
X0358479Y0245668D01*
X0357418Y0245229D01*
X0358979Y0244582D01*
X0360582Y0242979D01*
X0361450Y0240884D01*
X0361450Y0238616D01*
X0360812Y0237075D01*
X0369519Y0237075D01*
X0392111Y0259667D01*
X0392111Y0259667D01*
X0392417Y0259972D01*
X0350242Y0259972D01*
X0348928Y0260517D01*
X0348894Y0260550D01*
X0338512Y0260550D01*
X0338512Y0256924D01*
X0335588Y0254000D01*
X0338512Y0251076D01*
X0338512Y0249044D01*
X0350481Y0237075D01*
X0350688Y0237075D01*
X0350050Y0238616D01*
X0350050Y0240884D01*
X0350918Y0242979D01*
X0350050Y0240851D02*
X0346704Y0240851D01*
X0349103Y0238453D02*
X0350118Y0238453D01*
X0352069Y0245648D02*
X0341907Y0245648D01*
X0339509Y0248047D02*
X0350097Y0248047D01*
X0349550Y0250445D02*
X0338512Y0250445D01*
X0336744Y0252844D02*
X0350051Y0252844D01*
X0351931Y0255242D02*
X0336830Y0255242D01*
X0338512Y0257641D02*
X0390085Y0257641D01*
X0387687Y0255242D02*
X0358569Y0255242D01*
X0360449Y0252844D02*
X0385288Y0252844D01*
X0382890Y0250445D02*
X0360950Y0250445D01*
X0360403Y0248047D02*
X0380491Y0248047D01*
X0378093Y0245648D02*
X0358431Y0245648D01*
X0360311Y0243250D02*
X0375694Y0243250D01*
X0373296Y0240851D02*
X0361450Y0240851D01*
X0361382Y0238453D02*
X0370897Y0238453D01*
X0376211Y0233656D02*
X0448500Y0233656D01*
X0448500Y0236054D02*
X0378610Y0236054D01*
X0381008Y0238453D02*
X0448500Y0238453D01*
X0448500Y0240851D02*
X0383407Y0240851D01*
X0385805Y0243250D02*
X0448500Y0243250D01*
X0448500Y0245648D02*
X0388204Y0245648D01*
X0390602Y0248047D02*
X0448500Y0248047D01*
X0448500Y0250445D02*
X0393001Y0250445D01*
X0395399Y0252844D02*
X0448500Y0252844D01*
X0448500Y0255242D02*
X0446245Y0255242D01*
X0446878Y0257641D02*
X0448500Y0257641D01*
X0448500Y0260039D02*
X0446246Y0260039D01*
X0446779Y0262438D02*
X0448500Y0262438D01*
X0448500Y0264836D02*
X0446705Y0264836D01*
X0446320Y0267235D02*
X0448500Y0267235D01*
X0448500Y0269633D02*
X0446878Y0269633D01*
X0446112Y0272032D02*
X0448500Y0272032D01*
X0448500Y0274430D02*
X0446854Y0274430D01*
X0446630Y0276829D02*
X0448500Y0276829D01*
X0448500Y0279227D02*
X0444599Y0279227D01*
X0440401Y0279227D02*
X0364078Y0279227D01*
X0361680Y0281626D02*
X0448500Y0281626D01*
X0448500Y0284024D02*
X0359281Y0284024D01*
X0356883Y0286423D02*
X0448500Y0286423D01*
X0448500Y0288821D02*
X0338512Y0288821D01*
X0338512Y0260039D02*
X0350080Y0260039D01*
X0331412Y0254000D02*
X0328641Y0251229D01*
X0325729Y0254141D01*
X0328500Y0256912D01*
X0331412Y0254000D01*
X0330256Y0252844D02*
X0327027Y0252844D01*
X0326830Y0255242D02*
X0330170Y0255242D01*
X0325825Y0226460D02*
X0367910Y0226460D01*
X0367541Y0224062D02*
X0325825Y0224062D01*
X0326642Y0221663D02*
X0367541Y0221663D01*
X0367541Y0219265D02*
X0329041Y0219265D01*
X0331439Y0216866D02*
X0368978Y0216866D01*
X0368162Y0214468D02*
X0333838Y0214468D01*
X0352714Y0202475D02*
X0286043Y0202475D01*
X0280825Y0200076D02*
X0351001Y0200076D01*
X0350300Y0197678D02*
X0280825Y0197678D01*
X0280825Y0195279D02*
X0350647Y0195279D01*
X0352308Y0192881D02*
X0280825Y0192881D01*
X0280825Y0190482D02*
X0448500Y0190482D01*
X0448500Y0188084D02*
X0427030Y0188084D01*
X0427839Y0187749D02*
X0425997Y0188512D01*
X0424003Y0188512D01*
X0422161Y0187749D01*
X0420751Y0186339D01*
X0420020Y0184575D01*
X0348612Y0184575D01*
X0348478Y0184709D01*
X0346870Y0185375D01*
X0345130Y0185375D01*
X0343522Y0184709D01*
X0342291Y0183478D01*
X0341625Y0181870D01*
X0341625Y0180130D01*
X0342291Y0178522D01*
X0343522Y0177291D01*
X0345130Y0176625D01*
X0346870Y0176625D01*
X0348478Y0177291D01*
X0348612Y0177425D01*
X0421397Y0177425D01*
X0421025Y0177053D01*
X0420542Y0176389D01*
X0420170Y0175658D01*
X0419917Y0174878D01*
X0419788Y0174068D01*
X0419788Y0173658D01*
X0425000Y0173658D01*
X0430212Y0173658D01*
X0430212Y0174068D01*
X0430083Y0174878D01*
X0429830Y0175658D01*
X0429458Y0176389D01*
X0428975Y0177053D01*
X0428395Y0177633D01*
X0427732Y0178115D01*
X0427001Y0178487D01*
X0426437Y0178671D01*
X0427839Y0179251D01*
X0429249Y0180661D01*
X0430012Y0182503D01*
X0430012Y0184497D01*
X0429249Y0186339D01*
X0427839Y0187749D01*
X0429520Y0185685D02*
X0448500Y0185685D01*
X0448500Y0183287D02*
X0430012Y0183287D01*
X0429343Y0180888D02*
X0448500Y0180888D01*
X0448500Y0178490D02*
X0426993Y0178490D01*
X0429609Y0176091D02*
X0448500Y0176091D01*
X0448500Y0173693D02*
X0430212Y0173693D01*
X0430212Y0173657D02*
X0425000Y0173657D01*
X0425000Y0168446D01*
X0425410Y0168446D01*
X0426220Y0168574D01*
X0427001Y0168828D01*
X0427732Y0169200D01*
X0428395Y0169682D01*
X0428975Y0170262D01*
X0429458Y0170926D01*
X0429830Y0171657D01*
X0430083Y0172437D01*
X0430212Y0173247D01*
X0430212Y0173657D01*
X0429645Y0171294D02*
X0448500Y0171294D01*
X0448500Y0168896D02*
X0427135Y0168896D01*
X0425000Y0168896D02*
X0425000Y0168896D01*
X0425000Y0168446D02*
X0425000Y0173657D01*
X0425000Y0173657D01*
X0425000Y0173658D01*
X0425000Y0173657D01*
X0419788Y0173657D01*
X0419788Y0173247D01*
X0419917Y0172437D01*
X0420170Y0171657D01*
X0420542Y0170926D01*
X0421025Y0170262D01*
X0421605Y0169682D01*
X0422268Y0169200D01*
X0422999Y0168828D01*
X0423780Y0168574D01*
X0424590Y0168446D01*
X0425000Y0168446D01*
X0422865Y0168896D02*
X0393970Y0168896D01*
X0391572Y0171294D02*
X0420355Y0171294D01*
X0419788Y0173693D02*
X0388363Y0173693D01*
X0387525Y0164099D02*
X0377321Y0164099D01*
X0377325Y0164094D02*
X0376916Y0164504D01*
X0376414Y0164793D01*
X0375855Y0164943D01*
X0372553Y0164943D01*
X0369252Y0164943D01*
X0368692Y0164793D01*
X0368191Y0164504D01*
X0367781Y0164094D01*
X0367491Y0163592D01*
X0367341Y0163033D01*
X0367341Y0159731D01*
X0367341Y0156430D01*
X0367491Y0155870D01*
X0367781Y0155369D01*
X0368191Y0154959D01*
X0368692Y0154669D01*
X0369252Y0154519D01*
X0372553Y0154519D01*
X0372553Y0159731D01*
X0372553Y0159731D01*
X0367341Y0159731D01*
X0372553Y0159731D01*
X0372553Y0159731D01*
X0372553Y0154519D01*
X0375855Y0154519D01*
X0376414Y0154669D01*
X0376916Y0154959D01*
X0377325Y0155369D01*
X0377615Y0155870D01*
X0377765Y0156430D01*
X0377765Y0159731D01*
X0372553Y0159731D01*
X0372553Y0159731D01*
X0372553Y0164943D01*
X0372553Y0159731D01*
X0372553Y0159731D01*
X0377765Y0159731D01*
X0377765Y0163033D01*
X0377615Y0163592D01*
X0377325Y0164094D01*
X0377765Y0161700D02*
X0389924Y0161700D01*
X0392322Y0159302D02*
X0377765Y0159302D01*
X0377765Y0156903D02*
X0392502Y0156903D01*
X0397119Y0154505D02*
X0352626Y0154505D01*
X0355024Y0156903D02*
X0367341Y0156903D01*
X0367341Y0159302D02*
X0357423Y0159302D01*
X0359821Y0161700D02*
X0367341Y0161700D01*
X0367786Y0164099D02*
X0362220Y0164099D01*
X0355775Y0168896D02*
X0314575Y0168896D01*
X0314575Y0168042D02*
X0314575Y0173388D01*
X0314709Y0173522D01*
X0315375Y0175130D01*
X0315375Y0176870D01*
X0314709Y0178478D01*
X0313478Y0179709D01*
X0311870Y0180375D01*
X0310130Y0180375D01*
X0308522Y0179709D01*
X0307291Y0178478D01*
X0306625Y0176870D01*
X0306625Y0175130D01*
X0307291Y0173522D01*
X0307425Y0173388D01*
X0307425Y0165850D01*
X0307969Y0164536D01*
X0322150Y0150356D01*
X0322150Y0149691D01*
X0322876Y0147937D01*
X0324218Y0146595D01*
X0325972Y0145868D01*
X0327870Y0145868D01*
X0329624Y0146595D01*
X0330966Y0147937D01*
X0331693Y0149691D01*
X0331693Y0151589D01*
X0330966Y0153343D01*
X0329624Y0154685D01*
X0327870Y0155411D01*
X0327205Y0155411D01*
X0314575Y0168042D01*
X0316119Y0166497D02*
X0353376Y0166497D01*
X0350978Y0164099D02*
X0318518Y0164099D01*
X0320916Y0161700D02*
X0348579Y0161700D01*
X0346181Y0159302D02*
X0323315Y0159302D01*
X0325713Y0156903D02*
X0343782Y0156903D01*
X0341384Y0154505D02*
X0329804Y0154505D01*
X0331479Y0152106D02*
X0338985Y0152106D01*
X0336586Y0149708D02*
X0331693Y0149708D01*
X0330339Y0147309D02*
X0334188Y0147309D01*
X0331789Y0144911D02*
X0283582Y0144911D01*
X0280825Y0147309D02*
X0323504Y0147309D01*
X0322150Y0149708D02*
X0280825Y0149708D01*
X0280825Y0152106D02*
X0320399Y0152106D01*
X0318001Y0154505D02*
X0309442Y0154505D01*
X0309709Y0154772D02*
X0308478Y0153541D01*
X0306870Y0152875D01*
X0305130Y0152875D01*
X0303522Y0153541D01*
X0302291Y0154772D01*
X0301625Y0156380D01*
X0301625Y0158006D01*
X0301291Y0158675D01*
X0291112Y0158675D01*
X0290978Y0158541D01*
X0289370Y0157875D01*
X0287630Y0157875D01*
X0286022Y0158541D01*
X0284791Y0159772D01*
X0284125Y0161380D01*
X0284125Y0163120D01*
X0284791Y0164728D01*
X0286022Y0165959D01*
X0287630Y0166625D01*
X0289370Y0166625D01*
X0290978Y0165959D01*
X0291112Y0165825D01*
X0303373Y0165825D01*
X0303956Y0165866D01*
X0304080Y0165825D01*
X0304211Y0165825D01*
X0304751Y0165601D01*
X0305305Y0165416D01*
X0305404Y0165331D01*
X0305525Y0165281D01*
X0305938Y0164868D01*
X0306379Y0164485D01*
X0306438Y0164368D01*
X0306531Y0164275D01*
X0306754Y0163735D01*
X0308055Y0161134D01*
X0308478Y0160959D01*
X0309709Y0159728D01*
X0310375Y0158120D01*
X0310375Y0156380D01*
X0309709Y0154772D01*
X0310375Y0156903D02*
X0315602Y0156903D01*
X0313204Y0159302D02*
X0309885Y0159302D01*
X0310805Y0161700D02*
X0307772Y0161700D01*
X0308407Y0164099D02*
X0306604Y0164099D01*
X0307425Y0166497D02*
X0289678Y0166497D01*
X0287322Y0166497D02*
X0280825Y0166497D01*
X0280825Y0164099D02*
X0284531Y0164099D01*
X0284125Y0161700D02*
X0280825Y0161700D01*
X0280825Y0159302D02*
X0285261Y0159302D01*
X0280825Y0156903D02*
X0301625Y0156903D01*
X0302558Y0154505D02*
X0280825Y0154505D01*
X0287289Y0142512D02*
X0329391Y0142512D01*
X0326992Y0140114D02*
X0290996Y0140114D01*
X0294702Y0137715D02*
X0324594Y0137715D01*
X0322195Y0135317D02*
X0298409Y0135317D01*
X0301575Y0132918D02*
X0319797Y0132918D01*
X0317398Y0130520D02*
X0302075Y0130520D01*
X0318404Y0120926D02*
X0322150Y0120926D01*
X0322150Y0123324D02*
X0321445Y0123324D01*
X0323844Y0125723D02*
X0407025Y0125723D01*
X0407025Y0128121D02*
X0326242Y0128121D01*
X0328641Y0130520D02*
X0407025Y0130520D01*
X0407025Y0132918D02*
X0331039Y0132918D01*
X0333438Y0135317D02*
X0407025Y0135317D01*
X0407025Y0137715D02*
X0335836Y0137715D01*
X0338235Y0140114D02*
X0407025Y0140114D01*
X0407025Y0142512D02*
X0340633Y0142512D01*
X0343032Y0144911D02*
X0406713Y0144911D01*
X0404315Y0147309D02*
X0345430Y0147309D01*
X0347829Y0149708D02*
X0401916Y0149708D01*
X0399518Y0152106D02*
X0350227Y0152106D01*
X0358173Y0171294D02*
X0314575Y0171294D01*
X0314780Y0173693D02*
X0361382Y0173693D01*
X0372553Y0164099D02*
X0372553Y0164099D01*
X0372553Y0161700D02*
X0372553Y0161700D01*
X0372553Y0159302D02*
X0372553Y0159302D01*
X0372553Y0156903D02*
X0372553Y0156903D01*
X0396369Y0166497D02*
X0448500Y0166497D01*
X0448500Y0164099D02*
X0414518Y0164099D01*
X0415045Y0161700D02*
X0448500Y0161700D01*
X0448500Y0159302D02*
X0426858Y0159302D01*
X0427589Y0158999D02*
X0425747Y0159762D01*
X0423753Y0159762D01*
X0421911Y0158999D01*
X0420501Y0157589D01*
X0419738Y0155747D01*
X0419738Y0153753D01*
X0420501Y0151911D01*
X0421911Y0150501D01*
X0423313Y0149921D01*
X0422749Y0149737D01*
X0422018Y0149365D01*
X0421355Y0148883D01*
X0420775Y0148303D01*
X0420292Y0147639D01*
X0419920Y0146908D01*
X0419667Y0146128D01*
X0419538Y0145318D01*
X0419538Y0144908D01*
X0424750Y0144908D01*
X0424750Y0144907D01*
X0424750Y0139696D01*
X0425160Y0139696D01*
X0425970Y0139824D01*
X0426751Y0140078D01*
X0427482Y0140450D01*
X0428145Y0140932D01*
X0428725Y0141512D01*
X0429208Y0142176D01*
X0429580Y0142907D01*
X0429833Y0143687D01*
X0429962Y0144497D01*
X0429962Y0144907D01*
X0424750Y0144907D01*
X0424750Y0144907D01*
X0424750Y0139696D01*
X0424340Y0139696D01*
X0423530Y0139824D01*
X0422749Y0140078D01*
X0422018Y0140450D01*
X0421355Y0140932D01*
X0420775Y0141512D01*
X0420292Y0142176D01*
X0419920Y0142907D01*
X0419667Y0143687D01*
X0419538Y0144497D01*
X0419538Y0144907D01*
X0424750Y0144907D01*
X0424750Y0144908D01*
X0429962Y0144908D01*
X0429962Y0145318D01*
X0429833Y0146128D01*
X0429580Y0146908D01*
X0429208Y0147639D01*
X0428725Y0148303D01*
X0428145Y0148883D01*
X0427482Y0149365D01*
X0426751Y0149737D01*
X0426187Y0149921D01*
X0427589Y0150501D01*
X0428999Y0151911D01*
X0429762Y0153753D01*
X0429762Y0155747D01*
X0428999Y0157589D01*
X0427589Y0158999D01*
X0429283Y0156903D02*
X0448500Y0156903D01*
X0448500Y0154505D02*
X0429762Y0154505D01*
X0429080Y0152106D02*
X0448500Y0152106D01*
X0448500Y0149708D02*
X0426809Y0149708D01*
X0429376Y0147309D02*
X0448500Y0147309D01*
X0448500Y0144911D02*
X0429962Y0144911D01*
X0429379Y0142512D02*
X0448500Y0142512D01*
X0448500Y0140114D02*
X0426822Y0140114D01*
X0424750Y0140114D02*
X0424750Y0140114D01*
X0422678Y0140114D02*
X0414975Y0140114D01*
X0414975Y0142512D02*
X0420121Y0142512D01*
X0419538Y0144911D02*
X0414975Y0144911D01*
X0414862Y0147309D02*
X0420124Y0147309D01*
X0422691Y0149708D02*
X0413159Y0149708D01*
X0410760Y0152106D02*
X0420420Y0152106D01*
X0419738Y0154505D02*
X0408362Y0154505D01*
X0405022Y0159302D02*
X0403565Y0159302D01*
X0402526Y0161700D02*
X0405022Y0161700D01*
X0405549Y0164099D02*
X0401998Y0164099D01*
X0415045Y0159302D02*
X0422642Y0159302D01*
X0420217Y0156903D02*
X0415045Y0156903D01*
X0424750Y0142512D02*
X0424750Y0142512D01*
X0423753Y0132262D02*
X0421911Y0131499D01*
X0420501Y0130089D01*
X0419738Y0128247D01*
X0419738Y0126253D01*
X0420501Y0124411D01*
X0421911Y0123001D01*
X0423313Y0122421D01*
X0422749Y0122237D01*
X0422018Y0121865D01*
X0421355Y0121383D01*
X0420775Y0120803D01*
X0420292Y0120139D01*
X0419920Y0119408D01*
X0419667Y0118628D01*
X0419538Y0117818D01*
X0419538Y0117408D01*
X0424750Y0117408D01*
X0424750Y0117407D01*
X0424750Y0112196D01*
X0425160Y0112196D01*
X0425970Y0112324D01*
X0426751Y0112578D01*
X0427482Y0112950D01*
X0428145Y0113432D01*
X0428725Y0114012D01*
X0429208Y0114676D01*
X0429580Y0115407D01*
X0429833Y0116187D01*
X0429962Y0116997D01*
X0429962Y0117407D01*
X0424750Y0117407D01*
X0424750Y0117407D01*
X0424750Y0112196D01*
X0424340Y0112196D01*
X0423530Y0112324D01*
X0422749Y0112578D01*
X0422018Y0112950D01*
X0421355Y0113432D01*
X0420775Y0114012D01*
X0420292Y0114676D01*
X0419920Y0115407D01*
X0419667Y0116187D01*
X0419538Y0116997D01*
X0419538Y0117407D01*
X0424750Y0117407D01*
X0424750Y0117408D01*
X0429962Y0117408D01*
X0429962Y0117818D01*
X0429833Y0118628D01*
X0429580Y0119408D01*
X0429208Y0120139D01*
X0428725Y0120803D01*
X0428145Y0121383D01*
X0427482Y0121865D01*
X0426751Y0122237D01*
X0426187Y0122421D01*
X0427589Y0123001D01*
X0428999Y0124411D01*
X0429762Y0126253D01*
X0429762Y0128247D01*
X0428999Y0130089D01*
X0427589Y0131499D01*
X0425747Y0132262D01*
X0423753Y0132262D01*
X0420932Y0130520D02*
X0414975Y0130520D01*
X0414975Y0132918D02*
X0448500Y0132918D01*
X0448500Y0130520D02*
X0428568Y0130520D01*
X0429762Y0128121D02*
X0448500Y0128121D01*
X0448500Y0125723D02*
X0429542Y0125723D01*
X0427912Y0123324D02*
X0448500Y0123324D01*
X0448500Y0120926D02*
X0428603Y0120926D01*
X0429849Y0118527D02*
X0448500Y0118527D01*
X0448500Y0116129D02*
X0429814Y0116129D01*
X0428443Y0113730D02*
X0448500Y0113730D01*
X0448500Y0111332D02*
X0414975Y0111332D01*
X0414975Y0113730D02*
X0421057Y0113730D01*
X0419686Y0116129D02*
X0414975Y0116129D01*
X0414975Y0118527D02*
X0419651Y0118527D01*
X0420897Y0120926D02*
X0414975Y0120926D01*
X0414975Y0123324D02*
X0421588Y0123324D01*
X0419958Y0125723D02*
X0414975Y0125723D01*
X0414975Y0128121D02*
X0419738Y0128121D01*
X0414975Y0135317D02*
X0448500Y0135317D01*
X0448500Y0137715D02*
X0414975Y0137715D01*
X0407025Y0123324D02*
X0331693Y0123324D01*
X0331693Y0120926D02*
X0407025Y0120926D01*
X0407025Y0118527D02*
X0331693Y0118527D01*
X0330782Y0116129D02*
X0407025Y0116129D01*
X0414975Y0108933D02*
X0448500Y0108933D01*
X0448500Y0106534D02*
X0414975Y0106534D01*
X0414975Y0104136D02*
X0421892Y0104136D01*
X0421963Y0104207D02*
X0420553Y0102798D01*
X0419790Y0100956D01*
X0419790Y0098962D01*
X0420553Y0097120D01*
X0421963Y0095710D01*
X0423365Y0095129D01*
X0422802Y0094946D01*
X0422071Y0094574D01*
X0421407Y0094091D01*
X0420827Y0093511D01*
X0420345Y0092848D01*
X0419972Y0092117D01*
X0419719Y0091337D01*
X0419590Y0090526D01*
X0419590Y0090116D01*
X0419590Y0089706D01*
X0419719Y0088896D01*
X0419972Y0088115D01*
X0420345Y0087385D01*
X0420827Y0086721D01*
X0421407Y0086141D01*
X0422071Y0085659D01*
X0422802Y0085286D01*
X0423582Y0085033D01*
X0424392Y0084904D01*
X0424802Y0084904D01*
X0424802Y0090116D01*
X0419590Y0090116D01*
X0424802Y0090116D01*
X0424802Y0090116D01*
X0424802Y0090116D01*
X0424802Y0084904D01*
X0425212Y0084904D01*
X0426023Y0085033D01*
X0426803Y0085286D01*
X0427534Y0085659D01*
X0428197Y0086141D01*
X0428777Y0086721D01*
X0429260Y0087385D01*
X0429632Y0088115D01*
X0429886Y0088896D01*
X0430014Y0089706D01*
X0430014Y0090116D01*
X0424802Y0090116D01*
X0424802Y0090116D01*
X0430014Y0090116D01*
X0430014Y0090526D01*
X0429886Y0091337D01*
X0429632Y0092117D01*
X0429260Y0092848D01*
X0428777Y0093511D01*
X0428197Y0094091D01*
X0427534Y0094574D01*
X0426803Y0094946D01*
X0426239Y0095129D01*
X0427641Y0095710D01*
X0429051Y0097120D01*
X0429814Y0098962D01*
X0429814Y0100956D01*
X0429051Y0102798D01*
X0427641Y0104207D01*
X0425799Y0104970D01*
X0423805Y0104970D01*
X0421963Y0104207D01*
X0420114Y0101737D02*
X0414975Y0101737D01*
X0414975Y0099339D02*
X0419790Y0099339D01*
X0420733Y0096940D02*
X0414975Y0096940D01*
X0414975Y0094542D02*
X0422027Y0094542D01*
X0419986Y0092143D02*
X0414975Y0092143D01*
X0414975Y0089745D02*
X0419590Y0089745D01*
X0420372Y0087346D02*
X0414975Y0087346D01*
X0415136Y0084948D02*
X0424117Y0084948D01*
X0424802Y0084948D02*
X0424802Y0084948D01*
X0425487Y0084948D02*
X0448500Y0084948D01*
X0448500Y0087346D02*
X0429232Y0087346D01*
X0430014Y0089745D02*
X0448500Y0089745D01*
X0448500Y0092143D02*
X0429619Y0092143D01*
X0427577Y0094542D02*
X0448500Y0094542D01*
X0448500Y0096940D02*
X0428872Y0096940D01*
X0429814Y0099339D02*
X0448500Y0099339D01*
X0448500Y0101737D02*
X0429490Y0101737D01*
X0427713Y0104136D02*
X0448500Y0104136D01*
X0424750Y0113730D02*
X0424750Y0113730D01*
X0424750Y0116129D02*
X0424750Y0116129D01*
X0401125Y0106534D02*
X0401125Y0106534D01*
X0401125Y0104136D02*
X0401125Y0104136D01*
X0401125Y0101737D02*
X0401125Y0101737D01*
X0401125Y0099339D02*
X0401125Y0099339D01*
X0397067Y0099339D02*
X0394900Y0099339D01*
X0415341Y0082549D02*
X0448500Y0082549D01*
X0448500Y0080151D02*
X0413838Y0080151D01*
X0424802Y0087346D02*
X0424802Y0087346D01*
X0424802Y0089745D02*
X0424802Y0089745D01*
X0424875Y0060963D02*
X0424875Y0060963D01*
X0424875Y0058564D02*
X0424875Y0058564D01*
X0307425Y0168896D02*
X0280825Y0168896D01*
X0280825Y0171294D02*
X0307425Y0171294D01*
X0307220Y0173693D02*
X0280825Y0173693D01*
X0280825Y0176091D02*
X0306625Y0176091D01*
X0307303Y0178490D02*
X0280825Y0178490D01*
X0280825Y0180888D02*
X0341625Y0180888D01*
X0342212Y0183287D02*
X0280825Y0183287D01*
X0280825Y0185685D02*
X0420480Y0185685D01*
X0422970Y0188084D02*
X0280825Y0188084D01*
X0267425Y0212069D02*
X0183892Y0212069D01*
X0184084Y0214468D02*
X0267425Y0214468D01*
X0267425Y0216866D02*
X0183325Y0216866D01*
X0183325Y0219265D02*
X0267425Y0219265D01*
X0267425Y0221663D02*
X0265353Y0221663D01*
X0259403Y0221663D02*
X0255620Y0221663D01*
X0252378Y0221663D02*
X0252378Y0221663D01*
X0252378Y0220700D02*
X0252378Y0226600D01*
X0252378Y0226600D01*
X0252378Y0220700D01*
X0252378Y0224062D02*
X0252378Y0224062D01*
X0252378Y0226460D02*
X0252378Y0226460D01*
X0252378Y0226601D02*
X0252378Y0232500D01*
X0252378Y0226601D01*
X0252378Y0226601D01*
X0252378Y0228859D02*
X0252378Y0228859D01*
X0252378Y0231257D02*
X0252378Y0231257D01*
X0252378Y0232500D02*
X0251914Y0232500D01*
X0250996Y0232355D01*
X0250113Y0232068D01*
X0249286Y0231647D01*
X0248534Y0231101D01*
X0247878Y0230444D01*
X0247332Y0229693D01*
X0247296Y0229622D01*
X0247210Y0229829D01*
X0245607Y0231433D01*
X0243512Y0232300D01*
X0241733Y0232300D01*
X0234909Y0239125D01*
X0235620Y0239125D01*
X0237228Y0239791D01*
X0237362Y0239925D01*
X0259713Y0239925D01*
X0264191Y0232019D01*
X0263512Y0232300D01*
X0261244Y0232300D01*
X0259149Y0231433D01*
X0257546Y0229829D01*
X0257460Y0229622D01*
X0257424Y0229693D01*
X0256878Y0230444D01*
X0256222Y0231101D01*
X0255470Y0231647D01*
X0254643Y0232068D01*
X0253760Y0232355D01*
X0252842Y0232500D01*
X0252378Y0232500D01*
X0256006Y0231257D02*
X0258974Y0231257D01*
X0263264Y0233656D02*
X0240378Y0233656D01*
X0237980Y0236054D02*
X0261906Y0236054D01*
X0260547Y0238453D02*
X0235581Y0238453D01*
X0245782Y0231257D02*
X0248750Y0231257D01*
X0249136Y0221663D02*
X0245353Y0221663D01*
X0239403Y0221663D02*
X0235353Y0221663D01*
X0229403Y0221663D02*
X0225353Y0221663D01*
X0219403Y0221663D02*
X0215353Y0221663D01*
X0209403Y0221663D02*
X0205353Y0221663D01*
X0199403Y0221663D02*
X0197669Y0221663D01*
X0187087Y0221663D02*
X0183325Y0221663D01*
X0183325Y0224062D02*
X0186678Y0224062D01*
X0186678Y0226460D02*
X0183325Y0226460D01*
X0183325Y0228859D02*
X0186678Y0228859D01*
X0186806Y0231257D02*
X0184074Y0231257D01*
X0183903Y0233656D02*
X0220267Y0233656D01*
X0218974Y0231257D02*
X0215782Y0231257D01*
X0217869Y0236054D02*
X0181998Y0236054D01*
X0177502Y0236054D02*
X0167642Y0236054D01*
X0168512Y0238453D02*
X0215470Y0238453D01*
X0213072Y0240851D02*
X0168512Y0240851D01*
X0197950Y0231257D02*
X0198974Y0231257D01*
X0205782Y0231257D02*
X0208974Y0231257D01*
X0314697Y0178490D02*
X0342323Y0178490D01*
X0359692Y0192881D02*
X0448500Y0192881D01*
X0448500Y0195279D02*
X0361353Y0195279D01*
X0361700Y0197678D02*
X0448500Y0197678D01*
X0448500Y0200076D02*
X0363882Y0200076D01*
X0377565Y0219265D02*
X0405041Y0219265D01*
X0405041Y0221663D02*
X0377565Y0221663D01*
X0377565Y0224062D02*
X0405041Y0224062D01*
X0405410Y0226460D02*
X0377196Y0226460D01*
X0373813Y0231257D02*
X0448500Y0231257D01*
X0420391Y0176091D02*
X0315375Y0176091D01*
X0425000Y0171294D02*
X0425000Y0171294D01*
X0433775Y0291220D02*
X0448500Y0291220D01*
X0448500Y0293618D02*
X0445043Y0293618D01*
X0446574Y0296017D02*
X0448500Y0296017D01*
X0448500Y0298415D02*
X0446409Y0298415D01*
X0446115Y0300814D02*
X0448500Y0300814D01*
X0448500Y0303212D02*
X0446628Y0303212D01*
X0445753Y0305611D02*
X0448500Y0305611D01*
X0448500Y0308009D02*
X0446628Y0308009D01*
X0446334Y0310408D02*
X0448500Y0310408D01*
X0448500Y0312806D02*
X0446191Y0312806D01*
X0446628Y0315205D02*
X0448500Y0315205D01*
X0448500Y0317603D02*
X0445571Y0317603D01*
X0448500Y0320002D02*
X0440804Y0320002D01*
X0438405Y0322401D02*
X0448500Y0322401D01*
X0448500Y0324799D02*
X0436006Y0324799D01*
X0433549Y0327198D02*
X0448500Y0327198D01*
X0420538Y0360777D02*
X0418174Y0360777D01*
X0410696Y0360777D02*
X0408332Y0360777D01*
X0409417Y0365574D02*
X0409610Y0365574D01*
X0411195Y0367972D02*
X0407833Y0367972D01*
X0401352Y0367972D02*
X0398273Y0367972D01*
X0399759Y0365574D02*
X0399768Y0365574D01*
X0394750Y0365574D02*
X0394750Y0365574D01*
X0394750Y0364125D02*
X0394750Y0369337D01*
X0394340Y0369337D01*
X0393530Y0369208D01*
X0392749Y0368955D01*
X0392018Y0368583D01*
X0391355Y0368100D01*
X0390775Y0367520D01*
X0390292Y0366857D01*
X0389920Y0366126D01*
X0389667Y0365345D01*
X0389538Y0364535D01*
X0389538Y0364125D01*
X0394750Y0364125D01*
X0394750Y0364125D01*
X0394750Y0364125D01*
X0394750Y0358913D01*
X0394340Y0358913D01*
X0393530Y0359042D01*
X0392749Y0359295D01*
X0392018Y0359667D01*
X0391355Y0360150D01*
X0390775Y0360730D01*
X0390292Y0361393D01*
X0389920Y0362124D01*
X0389667Y0362905D01*
X0389538Y0363715D01*
X0389538Y0364125D01*
X0394750Y0364125D01*
X0394750Y0363175D02*
X0394750Y0363175D01*
X0394750Y0360777D02*
X0394750Y0360777D01*
X0398759Y0360777D02*
X0400853Y0360777D01*
X0394750Y0367972D02*
X0394750Y0367972D01*
X0391227Y0367972D02*
X0372028Y0367972D01*
X0372028Y0365574D02*
X0389741Y0365574D01*
X0389624Y0363175D02*
X0372028Y0363175D01*
X0372028Y0360777D02*
X0390741Y0360777D01*
X0377866Y0377566D02*
X0438562Y0377566D01*
X0436264Y0379965D02*
X0378736Y0379965D01*
X0378222Y0382363D02*
X0435270Y0382363D01*
X0434973Y0384762D02*
X0192463Y0384762D01*
X0192875Y0387160D02*
X0435190Y0387160D01*
X0421037Y0367972D02*
X0417676Y0367972D01*
X0419260Y0365574D02*
X0419453Y0365574D01*
X0181480Y0387160D02*
X0133754Y0387160D01*
X0130962Y0387160D02*
X0127849Y0387160D01*
X0125057Y0387160D02*
X0121943Y0387160D01*
X0119151Y0387160D02*
X0116038Y0387160D01*
X0136367Y0384762D02*
X0179081Y0384762D01*
X0176683Y0382363D02*
X0136736Y0382363D01*
X0135514Y0379965D02*
X0174284Y0379965D01*
D29*
X0174125Y0374750D02*
X0186000Y0386625D01*
X0188500Y0386625D01*
X0174125Y0374750D02*
X0107250Y0374750D01*
X0101000Y0368500D01*
X0077642Y0379358D02*
X0119750Y0337250D01*
X0119750Y0327250D01*
X0119750Y0309750D01*
X0108500Y0298500D01*
X0108500Y0288500D01*
X0101625Y0288500D01*
X0083500Y0270375D01*
X0077250Y0270375D01*
X0108500Y0288500D02*
X0108500Y0201000D01*
X0107250Y0202250D01*
X0072250Y0202250D01*
X0068543Y0200814D02*
X0006000Y0200814D01*
X0006000Y0202412D02*
X0068275Y0202412D01*
X0068275Y0203041D02*
X0068275Y0201459D01*
X0068880Y0199998D01*
X0069998Y0198880D01*
X0071459Y0198275D01*
X0073041Y0198275D01*
X0074502Y0198880D01*
X0074696Y0199075D01*
X0103500Y0199075D01*
X0103500Y0154750D01*
X0096000Y0154750D01*
X0096000Y0173500D01*
X0059411Y0173500D01*
X0059411Y0174456D01*
X0058745Y0176063D01*
X0057516Y0177293D01*
X0055909Y0177958D01*
X0054170Y0177958D01*
X0052563Y0177293D01*
X0051333Y0176063D01*
X0050668Y0174456D01*
X0050668Y0173500D01*
X0006000Y0173500D01*
X0006000Y0236000D01*
X0059750Y0236000D01*
X0059750Y0221000D01*
X0089755Y0221000D01*
X0090248Y0220507D01*
X0092196Y0219700D01*
X0094304Y0219700D01*
X0096252Y0220507D01*
X0096745Y0221000D01*
X0103500Y0221000D01*
X0103500Y0205425D01*
X0074696Y0205425D01*
X0074502Y0205620D01*
X0073041Y0206225D01*
X0071459Y0206225D01*
X0069998Y0205620D01*
X0068880Y0204502D01*
X0068275Y0203041D01*
X0068677Y0204011D02*
X0006000Y0204011D01*
X0006000Y0205609D02*
X0069988Y0205609D01*
X0074512Y0205609D02*
X0103500Y0205609D01*
X0103500Y0207208D02*
X0006000Y0207208D01*
X0006000Y0208806D02*
X0103500Y0208806D01*
X0103500Y0210405D02*
X0006000Y0210405D01*
X0006000Y0212003D02*
X0103500Y0212003D01*
X0103500Y0213602D02*
X0006000Y0213602D01*
X0006000Y0215201D02*
X0103500Y0215201D01*
X0103500Y0216799D02*
X0006000Y0216799D01*
X0006000Y0218398D02*
X0103500Y0218398D01*
X0103500Y0219996D02*
X0095019Y0219996D01*
X0091481Y0219996D02*
X0006000Y0219996D01*
X0006000Y0221595D02*
X0059750Y0221595D01*
X0059750Y0223193D02*
X0006000Y0223193D01*
X0006000Y0224792D02*
X0059750Y0224792D01*
X0059750Y0226390D02*
X0006000Y0226390D01*
X0006000Y0227989D02*
X0059750Y0227989D01*
X0059750Y0229587D02*
X0006000Y0229587D01*
X0006000Y0231186D02*
X0059750Y0231186D01*
X0059750Y0232784D02*
X0006000Y0232784D01*
X0006000Y0234383D02*
X0059750Y0234383D01*
X0059750Y0235981D02*
X0006000Y0235981D01*
X0006000Y0199215D02*
X0069663Y0199215D01*
X0057972Y0176836D02*
X0103500Y0176836D01*
X0103500Y0175238D02*
X0059087Y0175238D01*
X0059411Y0173639D02*
X0103500Y0173639D01*
X0103500Y0172041D02*
X0096000Y0172041D01*
X0096000Y0170442D02*
X0103500Y0170442D01*
X0103500Y0168844D02*
X0096000Y0168844D01*
X0096000Y0167245D02*
X0103500Y0167245D01*
X0103500Y0165647D02*
X0096000Y0165647D01*
X0096000Y0164048D02*
X0103500Y0164048D01*
X0103500Y0162450D02*
X0096000Y0162450D01*
X0096000Y0160851D02*
X0103500Y0160851D01*
X0103500Y0159253D02*
X0096000Y0159253D01*
X0096000Y0157654D02*
X0103500Y0157654D01*
X0103500Y0156056D02*
X0096000Y0156056D01*
X0099750Y0156000D02*
X0099750Y0162500D01*
X0109750Y0162500D02*
X0115000Y0162500D01*
X0119750Y0167250D01*
X0119750Y0225250D01*
X0153500Y0259000D01*
X0153500Y0269000D02*
X0146000Y0276500D01*
X0146000Y0338500D01*
X0163500Y0319000D02*
X0173500Y0329000D01*
X0173500Y0334750D01*
X0197250Y0329750D02*
X0197250Y0314750D01*
X0197250Y0302875D01*
X0197250Y0289750D01*
X0197250Y0281000D01*
X0201000Y0277250D01*
X0227250Y0277250D01*
X0246000Y0258500D01*
X0288500Y0258500D01*
X0296000Y0251000D01*
X0296000Y0216225D01*
X0295898Y0211487D01*
X0282250Y0204750D01*
X0271000Y0227250D02*
X0261797Y0243500D01*
X0234750Y0243500D01*
X0239750Y0249750D02*
X0265547Y0249396D01*
X0277250Y0229750D01*
X0277250Y0144750D01*
X0298500Y0131000D01*
X0298500Y0061500D01*
X0319500Y0040500D01*
X0319500Y0030500D02*
X0302500Y0013500D01*
X0245722Y0013500D01*
X0240175Y0019047D01*
X0228422Y0019047D01*
X0228000Y0018625D01*
X0214186Y0018625D01*
X0209340Y0022438D01*
X0205140Y0022458D01*
X0201689Y0019007D01*
X0199750Y0019125D01*
X0196400Y0022475D01*
X0196400Y0022500D01*
X0196400Y0026500D02*
X0200963Y0026539D01*
X0201782Y0026000D01*
X0209340Y0030312D02*
X0240872Y0030253D01*
X0252500Y0018625D01*
X0264403Y0018625D01*
X0264550Y0018772D01*
X0293772Y0018772D01*
X0304500Y0029500D01*
X0304500Y0030750D01*
X0304500Y0040750D02*
X0293500Y0051750D01*
X0293500Y0126000D01*
X0271000Y0139750D01*
X0271000Y0227250D01*
X0242378Y0226600D02*
X0188603Y0280375D01*
X0186000Y0280375D01*
X0172250Y0294125D01*
X0158375Y0294125D01*
X0153500Y0299000D01*
X0153500Y0289000D02*
X0158375Y0284125D01*
X0170375Y0284125D01*
X0181000Y0273500D01*
X0185478Y0273500D01*
X0232378Y0226600D01*
X0239750Y0249750D02*
X0223500Y0266000D01*
X0241000Y0277250D02*
X0241000Y0333500D01*
X0221000Y0353500D01*
X0296000Y0353500D02*
X0296000Y0336000D01*
X0296000Y0318500D01*
X0323500Y0319000D02*
X0328625Y0324125D01*
X0431625Y0324125D01*
X0441017Y0314733D01*
X0442250Y0314733D01*
X0442250Y0308828D02*
X0436922Y0308828D01*
X0431625Y0314125D01*
X0328625Y0314125D01*
X0323500Y0309000D01*
X0328625Y0304125D02*
X0323500Y0299000D01*
X0328625Y0294125D02*
X0431625Y0294125D01*
X0434517Y0297017D01*
X0442250Y0297017D01*
X0442250Y0302922D02*
X0432828Y0302922D01*
X0431625Y0304125D01*
X0328625Y0304125D01*
X0328625Y0294125D02*
X0323500Y0289000D01*
X0328625Y0284125D02*
X0323500Y0279000D01*
X0328625Y0274125D02*
X0354125Y0274125D01*
X0358797Y0269453D01*
X0442500Y0269453D01*
X0442500Y0263547D02*
X0350953Y0263547D01*
X0350375Y0264125D01*
X0328625Y0264125D01*
X0323500Y0259000D01*
X0328625Y0254125D02*
X0341625Y0254125D01*
X0344750Y0257250D01*
X0367250Y0257250D01*
X0362892Y0275358D02*
X0442500Y0275358D01*
X0442500Y0257642D02*
X0395142Y0257642D01*
X0371000Y0233500D01*
X0349000Y0233500D01*
X0333500Y0249000D01*
X0328625Y0254125D02*
X0323500Y0249000D01*
X0323500Y0239000D02*
X0322250Y0237750D01*
X0322250Y0221000D01*
X0336000Y0207250D01*
X0356000Y0207250D01*
X0356000Y0197250D02*
X0372553Y0213803D01*
X0372553Y0222251D01*
X0346000Y0181000D02*
X0422500Y0181000D01*
X0425000Y0183500D01*
X0326921Y0150640D02*
X0311000Y0166561D01*
X0311000Y0176000D01*
X0303500Y0162250D02*
X0306000Y0157250D01*
X0303500Y0162250D02*
X0288500Y0162250D01*
X0189750Y0186000D02*
X0189750Y0113500D01*
X0244750Y0058500D01*
X0268500Y0058500D01*
X0277250Y0049750D01*
X0277250Y0036000D01*
X0282750Y0030500D01*
X0289125Y0030500D01*
X0264550Y0048300D02*
X0252647Y0048300D01*
X0252500Y0048153D01*
X0240597Y0048153D01*
X0240175Y0048575D01*
X0228422Y0048575D01*
X0228000Y0048153D01*
X0226045Y0046198D01*
X0209340Y0046060D01*
X0209340Y0030312D02*
X0192250Y0030253D01*
X0190600Y0028603D01*
X0190600Y0026500D01*
X0192250Y0030253D02*
X0182340Y0030312D01*
X0164853Y0030253D01*
X0154715Y0030312D01*
X0137478Y0030253D01*
X0127840Y0030312D01*
X0110103Y0030253D01*
X0098090Y0030312D01*
X0082250Y0030253D01*
X0079937Y0027181D01*
X0082250Y0030253D02*
X0070590Y0030312D01*
X0053603Y0030253D01*
X0041465Y0030312D01*
X0022603Y0030253D01*
X0020850Y0026000D01*
X0026650Y0026000D02*
X0031000Y0026000D01*
X0033500Y0024750D01*
X0029525Y0019125D02*
X0026650Y0022000D01*
X0029525Y0019125D02*
X0044561Y0019125D01*
X0059025Y0019125D01*
X0071811Y0019125D01*
X0088500Y0019125D01*
X0085125Y0022500D01*
X0084275Y0022500D01*
X0084275Y0026500D02*
X0089250Y0026500D01*
X0089750Y0026000D01*
X0088500Y0019125D02*
X0101811Y0019125D01*
X0116775Y0019125D01*
X0129686Y0019125D01*
X0145400Y0019125D01*
X0157811Y0019125D01*
X0172775Y0019125D01*
X0185436Y0019125D01*
X0199750Y0019125D01*
X0185436Y0019125D02*
X0182340Y0022438D01*
X0174750Y0026000D02*
X0174250Y0026500D01*
X0168775Y0026500D01*
X0168775Y0022500D02*
X0172775Y0019125D01*
X0162975Y0026500D02*
X0164853Y0030253D01*
X0154715Y0022438D02*
X0157811Y0019125D01*
X0146000Y0026000D02*
X0145500Y0026500D01*
X0140150Y0026500D01*
X0140150Y0022500D02*
X0145400Y0019125D01*
X0134350Y0026500D02*
X0137478Y0030253D01*
X0127840Y0022438D02*
X0129686Y0019125D01*
X0116775Y0019125D02*
X0112775Y0022500D01*
X0112775Y0026500D02*
X0118000Y0026500D01*
X0118500Y0026000D01*
X0110103Y0030253D02*
X0106975Y0026500D01*
X0101811Y0019125D02*
X0098090Y0022438D01*
X0071811Y0019125D02*
X0070590Y0022438D01*
X0070681Y0022103D01*
X0062250Y0026000D02*
X0061750Y0026500D01*
X0055650Y0026500D01*
X0055650Y0022500D02*
X0059025Y0019125D01*
X0049850Y0026500D02*
X0053603Y0030253D01*
X0044561Y0019125D02*
X0041465Y0022438D01*
X0056000Y0156000D02*
X0056000Y0172626D01*
X0055039Y0173587D01*
X0050991Y0175238D02*
X0006000Y0175238D01*
X0006000Y0176836D02*
X0052107Y0176836D01*
X0050668Y0173639D02*
X0006000Y0173639D01*
X0006000Y0178435D02*
X0103500Y0178435D01*
X0103500Y0180033D02*
X0006000Y0180033D01*
X0006000Y0181632D02*
X0103500Y0181632D01*
X0103500Y0183230D02*
X0006000Y0183230D01*
X0006000Y0184829D02*
X0103500Y0184829D01*
X0103500Y0186427D02*
X0006000Y0186427D01*
X0006000Y0188026D02*
X0103500Y0188026D01*
X0103500Y0189624D02*
X0006000Y0189624D01*
X0006000Y0191223D02*
X0103500Y0191223D01*
X0103500Y0192821D02*
X0006000Y0192821D01*
X0006000Y0194420D02*
X0103500Y0194420D01*
X0103500Y0196018D02*
X0006000Y0196018D01*
X0006000Y0197617D02*
X0103500Y0197617D01*
X0108500Y0198500D02*
X0108500Y0201000D01*
X0146625Y0231000D02*
X0146625Y0246625D01*
X0149000Y0249000D01*
X0153500Y0249000D01*
X0146625Y0231000D02*
X0151000Y0226625D01*
X0158500Y0217250D02*
X0189750Y0186000D01*
X0179750Y0213500D02*
X0179750Y0232250D01*
X0158500Y0217250D02*
X0158500Y0274000D01*
X0153500Y0279000D01*
X0119750Y0332250D02*
X0119750Y0337250D01*
X0077642Y0379358D02*
X0077642Y0382750D01*
X0252250Y0278500D02*
X0252250Y0263500D01*
X0323500Y0269000D02*
X0328625Y0274125D01*
X0328625Y0284125D02*
X0354125Y0284125D01*
X0362892Y0275358D01*
X0333500Y0329000D02*
X0362547Y0358047D01*
X0362547Y0380250D01*
X0356642Y0380250D02*
X0356642Y0362142D01*
X0323500Y0329000D01*
X0296000Y0353500D02*
X0296000Y0371000D01*
X0296000Y0382250D01*
X0362250Y0347250D02*
X0368453Y0353453D01*
X0368453Y0380250D01*
D30*
X0079937Y0027181D02*
X0079256Y0026500D01*
X0078475Y0026500D01*
D31*
X0138500Y0011000D03*
X0194750Y0011000D03*
X0142250Y0086000D03*
M02*
