G75*
%MOIN*%
%OFA0B0*%
%FSLAX25Y25*%
%IPPOS*%
%LPD*%
%AMOC8*
5,1,8,0,0,1.08239X$1,22.5*
%
%ADD10C,0.00000*%
D10*
X0001000Y0001000D02*
X0001000Y0394701D01*
X0453756Y0394701D01*
X0453756Y0001000D01*
X0001000Y0001000D01*
X0007103Y0010843D02*
X0007105Y0010965D01*
X0007111Y0011086D01*
X0007121Y0011208D01*
X0007135Y0011329D01*
X0007152Y0011449D01*
X0007174Y0011569D01*
X0007200Y0011688D01*
X0007229Y0011806D01*
X0007262Y0011923D01*
X0007299Y0012039D01*
X0007340Y0012154D01*
X0007385Y0012267D01*
X0007433Y0012379D01*
X0007485Y0012489D01*
X0007540Y0012598D01*
X0007599Y0012704D01*
X0007661Y0012809D01*
X0007727Y0012911D01*
X0007796Y0013012D01*
X0007868Y0013110D01*
X0007944Y0013205D01*
X0008022Y0013298D01*
X0008103Y0013389D01*
X0008188Y0013477D01*
X0008275Y0013562D01*
X0008365Y0013644D01*
X0008457Y0013723D01*
X0008552Y0013799D01*
X0008650Y0013872D01*
X0008749Y0013942D01*
X0008851Y0014009D01*
X0008955Y0014072D01*
X0009062Y0014131D01*
X0009170Y0014188D01*
X0009279Y0014240D01*
X0009391Y0014290D01*
X0009504Y0014335D01*
X0009618Y0014377D01*
X0009734Y0014415D01*
X0009851Y0014449D01*
X0009968Y0014479D01*
X0010087Y0014506D01*
X0010207Y0014529D01*
X0010327Y0014547D01*
X0010448Y0014562D01*
X0010569Y0014573D01*
X0010691Y0014580D01*
X0010813Y0014583D01*
X0010934Y0014582D01*
X0011056Y0014577D01*
X0011177Y0014568D01*
X0011298Y0014555D01*
X0011419Y0014538D01*
X0011539Y0014518D01*
X0011658Y0014493D01*
X0011777Y0014465D01*
X0011894Y0014432D01*
X0012010Y0014396D01*
X0012125Y0014356D01*
X0012239Y0014313D01*
X0012351Y0014265D01*
X0012462Y0014215D01*
X0012571Y0014160D01*
X0012678Y0014102D01*
X0012783Y0014041D01*
X0012886Y0013976D01*
X0012987Y0013908D01*
X0013085Y0013836D01*
X0013182Y0013762D01*
X0013275Y0013684D01*
X0013367Y0013603D01*
X0013455Y0013520D01*
X0013541Y0013433D01*
X0013624Y0013344D01*
X0013704Y0013252D01*
X0013781Y0013158D01*
X0013854Y0013061D01*
X0013925Y0012962D01*
X0013992Y0012860D01*
X0014056Y0012757D01*
X0014117Y0012651D01*
X0014174Y0012544D01*
X0014228Y0012434D01*
X0014278Y0012323D01*
X0014324Y0012211D01*
X0014367Y0012097D01*
X0014406Y0011981D01*
X0014441Y0011865D01*
X0014472Y0011747D01*
X0014500Y0011629D01*
X0014523Y0011509D01*
X0014543Y0011389D01*
X0014559Y0011268D01*
X0014571Y0011147D01*
X0014579Y0011026D01*
X0014583Y0010904D01*
X0014583Y0010782D01*
X0014579Y0010660D01*
X0014571Y0010539D01*
X0014559Y0010418D01*
X0014543Y0010297D01*
X0014523Y0010177D01*
X0014500Y0010057D01*
X0014472Y0009939D01*
X0014441Y0009821D01*
X0014406Y0009705D01*
X0014367Y0009589D01*
X0014324Y0009475D01*
X0014278Y0009363D01*
X0014228Y0009252D01*
X0014174Y0009142D01*
X0014117Y0009035D01*
X0014056Y0008929D01*
X0013992Y0008826D01*
X0013925Y0008724D01*
X0013854Y0008625D01*
X0013781Y0008528D01*
X0013704Y0008434D01*
X0013624Y0008342D01*
X0013541Y0008253D01*
X0013455Y0008166D01*
X0013367Y0008083D01*
X0013275Y0008002D01*
X0013182Y0007924D01*
X0013085Y0007850D01*
X0012987Y0007778D01*
X0012886Y0007710D01*
X0012783Y0007645D01*
X0012678Y0007584D01*
X0012571Y0007526D01*
X0012462Y0007471D01*
X0012351Y0007421D01*
X0012239Y0007373D01*
X0012125Y0007330D01*
X0012010Y0007290D01*
X0011894Y0007254D01*
X0011777Y0007221D01*
X0011658Y0007193D01*
X0011539Y0007168D01*
X0011419Y0007148D01*
X0011298Y0007131D01*
X0011177Y0007118D01*
X0011056Y0007109D01*
X0010934Y0007104D01*
X0010813Y0007103D01*
X0010691Y0007106D01*
X0010569Y0007113D01*
X0010448Y0007124D01*
X0010327Y0007139D01*
X0010207Y0007157D01*
X0010087Y0007180D01*
X0009968Y0007207D01*
X0009851Y0007237D01*
X0009734Y0007271D01*
X0009618Y0007309D01*
X0009504Y0007351D01*
X0009391Y0007396D01*
X0009279Y0007446D01*
X0009170Y0007498D01*
X0009062Y0007555D01*
X0008955Y0007614D01*
X0008851Y0007677D01*
X0008749Y0007744D01*
X0008650Y0007814D01*
X0008552Y0007887D01*
X0008457Y0007963D01*
X0008365Y0008042D01*
X0008275Y0008124D01*
X0008188Y0008209D01*
X0008103Y0008297D01*
X0008022Y0008388D01*
X0007944Y0008481D01*
X0007868Y0008576D01*
X0007796Y0008674D01*
X0007727Y0008775D01*
X0007661Y0008877D01*
X0007599Y0008982D01*
X0007540Y0009088D01*
X0007485Y0009197D01*
X0007433Y0009307D01*
X0007385Y0009419D01*
X0007340Y0009532D01*
X0007299Y0009647D01*
X0007262Y0009763D01*
X0007229Y0009880D01*
X0007200Y0009998D01*
X0007174Y0010117D01*
X0007152Y0010237D01*
X0007135Y0010357D01*
X0007121Y0010478D01*
X0007111Y0010600D01*
X0007105Y0010721D01*
X0007103Y0010843D01*
X0097650Y0095189D02*
X0097652Y0095350D01*
X0097658Y0095510D01*
X0097668Y0095671D01*
X0097682Y0095831D01*
X0097700Y0095991D01*
X0097721Y0096150D01*
X0097747Y0096309D01*
X0097777Y0096467D01*
X0097810Y0096624D01*
X0097848Y0096781D01*
X0097889Y0096936D01*
X0097934Y0097090D01*
X0097983Y0097243D01*
X0098036Y0097395D01*
X0098092Y0097546D01*
X0098153Y0097695D01*
X0098216Y0097843D01*
X0098284Y0097989D01*
X0098355Y0098133D01*
X0098429Y0098275D01*
X0098507Y0098416D01*
X0098589Y0098554D01*
X0098674Y0098691D01*
X0098762Y0098825D01*
X0098854Y0098957D01*
X0098949Y0099087D01*
X0099047Y0099215D01*
X0099148Y0099340D01*
X0099252Y0099462D01*
X0099359Y0099582D01*
X0099469Y0099699D01*
X0099582Y0099814D01*
X0099698Y0099925D01*
X0099817Y0100034D01*
X0099938Y0100139D01*
X0100062Y0100242D01*
X0100188Y0100342D01*
X0100316Y0100438D01*
X0100447Y0100531D01*
X0100581Y0100621D01*
X0100716Y0100708D01*
X0100854Y0100791D01*
X0100993Y0100871D01*
X0101135Y0100947D01*
X0101278Y0101020D01*
X0101423Y0101089D01*
X0101570Y0101155D01*
X0101718Y0101217D01*
X0101868Y0101275D01*
X0102019Y0101330D01*
X0102172Y0101381D01*
X0102326Y0101428D01*
X0102481Y0101471D01*
X0102637Y0101510D01*
X0102793Y0101546D01*
X0102951Y0101577D01*
X0103109Y0101605D01*
X0103268Y0101629D01*
X0103428Y0101649D01*
X0103588Y0101665D01*
X0103748Y0101677D01*
X0103909Y0101685D01*
X0104070Y0101689D01*
X0104230Y0101689D01*
X0104391Y0101685D01*
X0104552Y0101677D01*
X0104712Y0101665D01*
X0104872Y0101649D01*
X0105032Y0101629D01*
X0105191Y0101605D01*
X0105349Y0101577D01*
X0105507Y0101546D01*
X0105663Y0101510D01*
X0105819Y0101471D01*
X0105974Y0101428D01*
X0106128Y0101381D01*
X0106281Y0101330D01*
X0106432Y0101275D01*
X0106582Y0101217D01*
X0106730Y0101155D01*
X0106877Y0101089D01*
X0107022Y0101020D01*
X0107165Y0100947D01*
X0107307Y0100871D01*
X0107446Y0100791D01*
X0107584Y0100708D01*
X0107719Y0100621D01*
X0107853Y0100531D01*
X0107984Y0100438D01*
X0108112Y0100342D01*
X0108238Y0100242D01*
X0108362Y0100139D01*
X0108483Y0100034D01*
X0108602Y0099925D01*
X0108718Y0099814D01*
X0108831Y0099699D01*
X0108941Y0099582D01*
X0109048Y0099462D01*
X0109152Y0099340D01*
X0109253Y0099215D01*
X0109351Y0099087D01*
X0109446Y0098957D01*
X0109538Y0098825D01*
X0109626Y0098691D01*
X0109711Y0098554D01*
X0109793Y0098416D01*
X0109871Y0098275D01*
X0109945Y0098133D01*
X0110016Y0097989D01*
X0110084Y0097843D01*
X0110147Y0097695D01*
X0110208Y0097546D01*
X0110264Y0097395D01*
X0110317Y0097243D01*
X0110366Y0097090D01*
X0110411Y0096936D01*
X0110452Y0096781D01*
X0110490Y0096624D01*
X0110523Y0096467D01*
X0110553Y0096309D01*
X0110579Y0096150D01*
X0110600Y0095991D01*
X0110618Y0095831D01*
X0110632Y0095671D01*
X0110642Y0095510D01*
X0110648Y0095350D01*
X0110650Y0095189D01*
X0110648Y0095028D01*
X0110642Y0094868D01*
X0110632Y0094707D01*
X0110618Y0094547D01*
X0110600Y0094387D01*
X0110579Y0094228D01*
X0110553Y0094069D01*
X0110523Y0093911D01*
X0110490Y0093754D01*
X0110452Y0093597D01*
X0110411Y0093442D01*
X0110366Y0093288D01*
X0110317Y0093135D01*
X0110264Y0092983D01*
X0110208Y0092832D01*
X0110147Y0092683D01*
X0110084Y0092535D01*
X0110016Y0092389D01*
X0109945Y0092245D01*
X0109871Y0092103D01*
X0109793Y0091962D01*
X0109711Y0091824D01*
X0109626Y0091687D01*
X0109538Y0091553D01*
X0109446Y0091421D01*
X0109351Y0091291D01*
X0109253Y0091163D01*
X0109152Y0091038D01*
X0109048Y0090916D01*
X0108941Y0090796D01*
X0108831Y0090679D01*
X0108718Y0090564D01*
X0108602Y0090453D01*
X0108483Y0090344D01*
X0108362Y0090239D01*
X0108238Y0090136D01*
X0108112Y0090036D01*
X0107984Y0089940D01*
X0107853Y0089847D01*
X0107719Y0089757D01*
X0107584Y0089670D01*
X0107446Y0089587D01*
X0107307Y0089507D01*
X0107165Y0089431D01*
X0107022Y0089358D01*
X0106877Y0089289D01*
X0106730Y0089223D01*
X0106582Y0089161D01*
X0106432Y0089103D01*
X0106281Y0089048D01*
X0106128Y0088997D01*
X0105974Y0088950D01*
X0105819Y0088907D01*
X0105663Y0088868D01*
X0105507Y0088832D01*
X0105349Y0088801D01*
X0105191Y0088773D01*
X0105032Y0088749D01*
X0104872Y0088729D01*
X0104712Y0088713D01*
X0104552Y0088701D01*
X0104391Y0088693D01*
X0104230Y0088689D01*
X0104070Y0088689D01*
X0103909Y0088693D01*
X0103748Y0088701D01*
X0103588Y0088713D01*
X0103428Y0088729D01*
X0103268Y0088749D01*
X0103109Y0088773D01*
X0102951Y0088801D01*
X0102793Y0088832D01*
X0102637Y0088868D01*
X0102481Y0088907D01*
X0102326Y0088950D01*
X0102172Y0088997D01*
X0102019Y0089048D01*
X0101868Y0089103D01*
X0101718Y0089161D01*
X0101570Y0089223D01*
X0101423Y0089289D01*
X0101278Y0089358D01*
X0101135Y0089431D01*
X0100993Y0089507D01*
X0100854Y0089587D01*
X0100716Y0089670D01*
X0100581Y0089757D01*
X0100447Y0089847D01*
X0100316Y0089940D01*
X0100188Y0090036D01*
X0100062Y0090136D01*
X0099938Y0090239D01*
X0099817Y0090344D01*
X0099698Y0090453D01*
X0099582Y0090564D01*
X0099469Y0090679D01*
X0099359Y0090796D01*
X0099252Y0090916D01*
X0099148Y0091038D01*
X0099047Y0091163D01*
X0098949Y0091291D01*
X0098854Y0091421D01*
X0098762Y0091553D01*
X0098674Y0091687D01*
X0098589Y0091824D01*
X0098507Y0091962D01*
X0098429Y0092103D01*
X0098355Y0092245D01*
X0098284Y0092389D01*
X0098216Y0092535D01*
X0098153Y0092683D01*
X0098092Y0092832D01*
X0098036Y0092983D01*
X0097983Y0093135D01*
X0097934Y0093288D01*
X0097889Y0093442D01*
X0097848Y0093597D01*
X0097810Y0093754D01*
X0097777Y0093911D01*
X0097747Y0094069D01*
X0097721Y0094228D01*
X0097700Y0094387D01*
X0097682Y0094547D01*
X0097668Y0094707D01*
X0097658Y0094868D01*
X0097652Y0095028D01*
X0097650Y0095189D01*
X0071272Y0282591D02*
X0071274Y0282752D01*
X0071280Y0282912D01*
X0071290Y0283073D01*
X0071304Y0283233D01*
X0071322Y0283393D01*
X0071343Y0283552D01*
X0071369Y0283711D01*
X0071399Y0283869D01*
X0071432Y0284026D01*
X0071470Y0284183D01*
X0071511Y0284338D01*
X0071556Y0284492D01*
X0071605Y0284645D01*
X0071658Y0284797D01*
X0071714Y0284948D01*
X0071775Y0285097D01*
X0071838Y0285245D01*
X0071906Y0285391D01*
X0071977Y0285535D01*
X0072051Y0285677D01*
X0072129Y0285818D01*
X0072211Y0285956D01*
X0072296Y0286093D01*
X0072384Y0286227D01*
X0072476Y0286359D01*
X0072571Y0286489D01*
X0072669Y0286617D01*
X0072770Y0286742D01*
X0072874Y0286864D01*
X0072981Y0286984D01*
X0073091Y0287101D01*
X0073204Y0287216D01*
X0073320Y0287327D01*
X0073439Y0287436D01*
X0073560Y0287541D01*
X0073684Y0287644D01*
X0073810Y0287744D01*
X0073938Y0287840D01*
X0074069Y0287933D01*
X0074203Y0288023D01*
X0074338Y0288110D01*
X0074476Y0288193D01*
X0074615Y0288273D01*
X0074757Y0288349D01*
X0074900Y0288422D01*
X0075045Y0288491D01*
X0075192Y0288557D01*
X0075340Y0288619D01*
X0075490Y0288677D01*
X0075641Y0288732D01*
X0075794Y0288783D01*
X0075948Y0288830D01*
X0076103Y0288873D01*
X0076259Y0288912D01*
X0076415Y0288948D01*
X0076573Y0288979D01*
X0076731Y0289007D01*
X0076890Y0289031D01*
X0077050Y0289051D01*
X0077210Y0289067D01*
X0077370Y0289079D01*
X0077531Y0289087D01*
X0077692Y0289091D01*
X0077852Y0289091D01*
X0078013Y0289087D01*
X0078174Y0289079D01*
X0078334Y0289067D01*
X0078494Y0289051D01*
X0078654Y0289031D01*
X0078813Y0289007D01*
X0078971Y0288979D01*
X0079129Y0288948D01*
X0079285Y0288912D01*
X0079441Y0288873D01*
X0079596Y0288830D01*
X0079750Y0288783D01*
X0079903Y0288732D01*
X0080054Y0288677D01*
X0080204Y0288619D01*
X0080352Y0288557D01*
X0080499Y0288491D01*
X0080644Y0288422D01*
X0080787Y0288349D01*
X0080929Y0288273D01*
X0081068Y0288193D01*
X0081206Y0288110D01*
X0081341Y0288023D01*
X0081475Y0287933D01*
X0081606Y0287840D01*
X0081734Y0287744D01*
X0081860Y0287644D01*
X0081984Y0287541D01*
X0082105Y0287436D01*
X0082224Y0287327D01*
X0082340Y0287216D01*
X0082453Y0287101D01*
X0082563Y0286984D01*
X0082670Y0286864D01*
X0082774Y0286742D01*
X0082875Y0286617D01*
X0082973Y0286489D01*
X0083068Y0286359D01*
X0083160Y0286227D01*
X0083248Y0286093D01*
X0083333Y0285956D01*
X0083415Y0285818D01*
X0083493Y0285677D01*
X0083567Y0285535D01*
X0083638Y0285391D01*
X0083706Y0285245D01*
X0083769Y0285097D01*
X0083830Y0284948D01*
X0083886Y0284797D01*
X0083939Y0284645D01*
X0083988Y0284492D01*
X0084033Y0284338D01*
X0084074Y0284183D01*
X0084112Y0284026D01*
X0084145Y0283869D01*
X0084175Y0283711D01*
X0084201Y0283552D01*
X0084222Y0283393D01*
X0084240Y0283233D01*
X0084254Y0283073D01*
X0084264Y0282912D01*
X0084270Y0282752D01*
X0084272Y0282591D01*
X0084270Y0282430D01*
X0084264Y0282270D01*
X0084254Y0282109D01*
X0084240Y0281949D01*
X0084222Y0281789D01*
X0084201Y0281630D01*
X0084175Y0281471D01*
X0084145Y0281313D01*
X0084112Y0281156D01*
X0084074Y0280999D01*
X0084033Y0280844D01*
X0083988Y0280690D01*
X0083939Y0280537D01*
X0083886Y0280385D01*
X0083830Y0280234D01*
X0083769Y0280085D01*
X0083706Y0279937D01*
X0083638Y0279791D01*
X0083567Y0279647D01*
X0083493Y0279505D01*
X0083415Y0279364D01*
X0083333Y0279226D01*
X0083248Y0279089D01*
X0083160Y0278955D01*
X0083068Y0278823D01*
X0082973Y0278693D01*
X0082875Y0278565D01*
X0082774Y0278440D01*
X0082670Y0278318D01*
X0082563Y0278198D01*
X0082453Y0278081D01*
X0082340Y0277966D01*
X0082224Y0277855D01*
X0082105Y0277746D01*
X0081984Y0277641D01*
X0081860Y0277538D01*
X0081734Y0277438D01*
X0081606Y0277342D01*
X0081475Y0277249D01*
X0081341Y0277159D01*
X0081206Y0277072D01*
X0081068Y0276989D01*
X0080929Y0276909D01*
X0080787Y0276833D01*
X0080644Y0276760D01*
X0080499Y0276691D01*
X0080352Y0276625D01*
X0080204Y0276563D01*
X0080054Y0276505D01*
X0079903Y0276450D01*
X0079750Y0276399D01*
X0079596Y0276352D01*
X0079441Y0276309D01*
X0079285Y0276270D01*
X0079129Y0276234D01*
X0078971Y0276203D01*
X0078813Y0276175D01*
X0078654Y0276151D01*
X0078494Y0276131D01*
X0078334Y0276115D01*
X0078174Y0276103D01*
X0078013Y0276095D01*
X0077852Y0276091D01*
X0077692Y0276091D01*
X0077531Y0276095D01*
X0077370Y0276103D01*
X0077210Y0276115D01*
X0077050Y0276131D01*
X0076890Y0276151D01*
X0076731Y0276175D01*
X0076573Y0276203D01*
X0076415Y0276234D01*
X0076259Y0276270D01*
X0076103Y0276309D01*
X0075948Y0276352D01*
X0075794Y0276399D01*
X0075641Y0276450D01*
X0075490Y0276505D01*
X0075340Y0276563D01*
X0075192Y0276625D01*
X0075045Y0276691D01*
X0074900Y0276760D01*
X0074757Y0276833D01*
X0074615Y0276909D01*
X0074476Y0276989D01*
X0074338Y0277072D01*
X0074203Y0277159D01*
X0074069Y0277249D01*
X0073938Y0277342D01*
X0073810Y0277438D01*
X0073684Y0277538D01*
X0073560Y0277641D01*
X0073439Y0277746D01*
X0073320Y0277855D01*
X0073204Y0277966D01*
X0073091Y0278081D01*
X0072981Y0278198D01*
X0072874Y0278318D01*
X0072770Y0278440D01*
X0072669Y0278565D01*
X0072571Y0278693D01*
X0072476Y0278823D01*
X0072384Y0278955D01*
X0072296Y0279089D01*
X0072211Y0279226D01*
X0072129Y0279364D01*
X0072051Y0279505D01*
X0071977Y0279647D01*
X0071906Y0279791D01*
X0071838Y0279937D01*
X0071775Y0280085D01*
X0071714Y0280234D01*
X0071658Y0280385D01*
X0071605Y0280537D01*
X0071556Y0280690D01*
X0071511Y0280844D01*
X0071470Y0280999D01*
X0071432Y0281156D01*
X0071399Y0281313D01*
X0071369Y0281471D01*
X0071343Y0281630D01*
X0071322Y0281789D01*
X0071304Y0281949D01*
X0071290Y0282109D01*
X0071280Y0282270D01*
X0071274Y0282430D01*
X0071272Y0282591D01*
X0007103Y0384858D02*
X0007105Y0384980D01*
X0007111Y0385101D01*
X0007121Y0385223D01*
X0007135Y0385344D01*
X0007152Y0385464D01*
X0007174Y0385584D01*
X0007200Y0385703D01*
X0007229Y0385821D01*
X0007262Y0385938D01*
X0007299Y0386054D01*
X0007340Y0386169D01*
X0007385Y0386282D01*
X0007433Y0386394D01*
X0007485Y0386504D01*
X0007540Y0386613D01*
X0007599Y0386719D01*
X0007661Y0386824D01*
X0007727Y0386926D01*
X0007796Y0387027D01*
X0007868Y0387125D01*
X0007944Y0387220D01*
X0008022Y0387313D01*
X0008103Y0387404D01*
X0008188Y0387492D01*
X0008275Y0387577D01*
X0008365Y0387659D01*
X0008457Y0387738D01*
X0008552Y0387814D01*
X0008650Y0387887D01*
X0008749Y0387957D01*
X0008851Y0388024D01*
X0008955Y0388087D01*
X0009062Y0388146D01*
X0009170Y0388203D01*
X0009279Y0388255D01*
X0009391Y0388305D01*
X0009504Y0388350D01*
X0009618Y0388392D01*
X0009734Y0388430D01*
X0009851Y0388464D01*
X0009968Y0388494D01*
X0010087Y0388521D01*
X0010207Y0388544D01*
X0010327Y0388562D01*
X0010448Y0388577D01*
X0010569Y0388588D01*
X0010691Y0388595D01*
X0010813Y0388598D01*
X0010934Y0388597D01*
X0011056Y0388592D01*
X0011177Y0388583D01*
X0011298Y0388570D01*
X0011419Y0388553D01*
X0011539Y0388533D01*
X0011658Y0388508D01*
X0011777Y0388480D01*
X0011894Y0388447D01*
X0012010Y0388411D01*
X0012125Y0388371D01*
X0012239Y0388328D01*
X0012351Y0388280D01*
X0012462Y0388230D01*
X0012571Y0388175D01*
X0012678Y0388117D01*
X0012783Y0388056D01*
X0012886Y0387991D01*
X0012987Y0387923D01*
X0013085Y0387851D01*
X0013182Y0387777D01*
X0013275Y0387699D01*
X0013367Y0387618D01*
X0013455Y0387535D01*
X0013541Y0387448D01*
X0013624Y0387359D01*
X0013704Y0387267D01*
X0013781Y0387173D01*
X0013854Y0387076D01*
X0013925Y0386977D01*
X0013992Y0386875D01*
X0014056Y0386772D01*
X0014117Y0386666D01*
X0014174Y0386559D01*
X0014228Y0386449D01*
X0014278Y0386338D01*
X0014324Y0386226D01*
X0014367Y0386112D01*
X0014406Y0385996D01*
X0014441Y0385880D01*
X0014472Y0385762D01*
X0014500Y0385644D01*
X0014523Y0385524D01*
X0014543Y0385404D01*
X0014559Y0385283D01*
X0014571Y0385162D01*
X0014579Y0385041D01*
X0014583Y0384919D01*
X0014583Y0384797D01*
X0014579Y0384675D01*
X0014571Y0384554D01*
X0014559Y0384433D01*
X0014543Y0384312D01*
X0014523Y0384192D01*
X0014500Y0384072D01*
X0014472Y0383954D01*
X0014441Y0383836D01*
X0014406Y0383720D01*
X0014367Y0383604D01*
X0014324Y0383490D01*
X0014278Y0383378D01*
X0014228Y0383267D01*
X0014174Y0383157D01*
X0014117Y0383050D01*
X0014056Y0382944D01*
X0013992Y0382841D01*
X0013925Y0382739D01*
X0013854Y0382640D01*
X0013781Y0382543D01*
X0013704Y0382449D01*
X0013624Y0382357D01*
X0013541Y0382268D01*
X0013455Y0382181D01*
X0013367Y0382098D01*
X0013275Y0382017D01*
X0013182Y0381939D01*
X0013085Y0381865D01*
X0012987Y0381793D01*
X0012886Y0381725D01*
X0012783Y0381660D01*
X0012678Y0381599D01*
X0012571Y0381541D01*
X0012462Y0381486D01*
X0012351Y0381436D01*
X0012239Y0381388D01*
X0012125Y0381345D01*
X0012010Y0381305D01*
X0011894Y0381269D01*
X0011777Y0381236D01*
X0011658Y0381208D01*
X0011539Y0381183D01*
X0011419Y0381163D01*
X0011298Y0381146D01*
X0011177Y0381133D01*
X0011056Y0381124D01*
X0010934Y0381119D01*
X0010813Y0381118D01*
X0010691Y0381121D01*
X0010569Y0381128D01*
X0010448Y0381139D01*
X0010327Y0381154D01*
X0010207Y0381172D01*
X0010087Y0381195D01*
X0009968Y0381222D01*
X0009851Y0381252D01*
X0009734Y0381286D01*
X0009618Y0381324D01*
X0009504Y0381366D01*
X0009391Y0381411D01*
X0009279Y0381461D01*
X0009170Y0381513D01*
X0009062Y0381570D01*
X0008955Y0381629D01*
X0008851Y0381692D01*
X0008749Y0381759D01*
X0008650Y0381829D01*
X0008552Y0381902D01*
X0008457Y0381978D01*
X0008365Y0382057D01*
X0008275Y0382139D01*
X0008188Y0382224D01*
X0008103Y0382312D01*
X0008022Y0382403D01*
X0007944Y0382496D01*
X0007868Y0382591D01*
X0007796Y0382689D01*
X0007727Y0382790D01*
X0007661Y0382892D01*
X0007599Y0382997D01*
X0007540Y0383103D01*
X0007485Y0383212D01*
X0007433Y0383322D01*
X0007385Y0383434D01*
X0007340Y0383547D01*
X0007299Y0383662D01*
X0007262Y0383778D01*
X0007229Y0383895D01*
X0007200Y0384013D01*
X0007174Y0384132D01*
X0007152Y0384252D01*
X0007135Y0384372D01*
X0007121Y0384493D01*
X0007111Y0384615D01*
X0007105Y0384736D01*
X0007103Y0384858D01*
X0440173Y0384858D02*
X0440175Y0384980D01*
X0440181Y0385101D01*
X0440191Y0385223D01*
X0440205Y0385344D01*
X0440222Y0385464D01*
X0440244Y0385584D01*
X0440270Y0385703D01*
X0440299Y0385821D01*
X0440332Y0385938D01*
X0440369Y0386054D01*
X0440410Y0386169D01*
X0440455Y0386282D01*
X0440503Y0386394D01*
X0440555Y0386504D01*
X0440610Y0386613D01*
X0440669Y0386719D01*
X0440731Y0386824D01*
X0440797Y0386926D01*
X0440866Y0387027D01*
X0440938Y0387125D01*
X0441014Y0387220D01*
X0441092Y0387313D01*
X0441173Y0387404D01*
X0441258Y0387492D01*
X0441345Y0387577D01*
X0441435Y0387659D01*
X0441527Y0387738D01*
X0441622Y0387814D01*
X0441720Y0387887D01*
X0441819Y0387957D01*
X0441921Y0388024D01*
X0442025Y0388087D01*
X0442132Y0388146D01*
X0442240Y0388203D01*
X0442349Y0388255D01*
X0442461Y0388305D01*
X0442574Y0388350D01*
X0442688Y0388392D01*
X0442804Y0388430D01*
X0442921Y0388464D01*
X0443038Y0388494D01*
X0443157Y0388521D01*
X0443277Y0388544D01*
X0443397Y0388562D01*
X0443518Y0388577D01*
X0443639Y0388588D01*
X0443761Y0388595D01*
X0443883Y0388598D01*
X0444004Y0388597D01*
X0444126Y0388592D01*
X0444247Y0388583D01*
X0444368Y0388570D01*
X0444489Y0388553D01*
X0444609Y0388533D01*
X0444728Y0388508D01*
X0444847Y0388480D01*
X0444964Y0388447D01*
X0445080Y0388411D01*
X0445195Y0388371D01*
X0445309Y0388328D01*
X0445421Y0388280D01*
X0445532Y0388230D01*
X0445641Y0388175D01*
X0445748Y0388117D01*
X0445853Y0388056D01*
X0445956Y0387991D01*
X0446057Y0387923D01*
X0446155Y0387851D01*
X0446252Y0387777D01*
X0446345Y0387699D01*
X0446437Y0387618D01*
X0446525Y0387535D01*
X0446611Y0387448D01*
X0446694Y0387359D01*
X0446774Y0387267D01*
X0446851Y0387173D01*
X0446924Y0387076D01*
X0446995Y0386977D01*
X0447062Y0386875D01*
X0447126Y0386772D01*
X0447187Y0386666D01*
X0447244Y0386559D01*
X0447298Y0386449D01*
X0447348Y0386338D01*
X0447394Y0386226D01*
X0447437Y0386112D01*
X0447476Y0385996D01*
X0447511Y0385880D01*
X0447542Y0385762D01*
X0447570Y0385644D01*
X0447593Y0385524D01*
X0447613Y0385404D01*
X0447629Y0385283D01*
X0447641Y0385162D01*
X0447649Y0385041D01*
X0447653Y0384919D01*
X0447653Y0384797D01*
X0447649Y0384675D01*
X0447641Y0384554D01*
X0447629Y0384433D01*
X0447613Y0384312D01*
X0447593Y0384192D01*
X0447570Y0384072D01*
X0447542Y0383954D01*
X0447511Y0383836D01*
X0447476Y0383720D01*
X0447437Y0383604D01*
X0447394Y0383490D01*
X0447348Y0383378D01*
X0447298Y0383267D01*
X0447244Y0383157D01*
X0447187Y0383050D01*
X0447126Y0382944D01*
X0447062Y0382841D01*
X0446995Y0382739D01*
X0446924Y0382640D01*
X0446851Y0382543D01*
X0446774Y0382449D01*
X0446694Y0382357D01*
X0446611Y0382268D01*
X0446525Y0382181D01*
X0446437Y0382098D01*
X0446345Y0382017D01*
X0446252Y0381939D01*
X0446155Y0381865D01*
X0446057Y0381793D01*
X0445956Y0381725D01*
X0445853Y0381660D01*
X0445748Y0381599D01*
X0445641Y0381541D01*
X0445532Y0381486D01*
X0445421Y0381436D01*
X0445309Y0381388D01*
X0445195Y0381345D01*
X0445080Y0381305D01*
X0444964Y0381269D01*
X0444847Y0381236D01*
X0444728Y0381208D01*
X0444609Y0381183D01*
X0444489Y0381163D01*
X0444368Y0381146D01*
X0444247Y0381133D01*
X0444126Y0381124D01*
X0444004Y0381119D01*
X0443883Y0381118D01*
X0443761Y0381121D01*
X0443639Y0381128D01*
X0443518Y0381139D01*
X0443397Y0381154D01*
X0443277Y0381172D01*
X0443157Y0381195D01*
X0443038Y0381222D01*
X0442921Y0381252D01*
X0442804Y0381286D01*
X0442688Y0381324D01*
X0442574Y0381366D01*
X0442461Y0381411D01*
X0442349Y0381461D01*
X0442240Y0381513D01*
X0442132Y0381570D01*
X0442025Y0381629D01*
X0441921Y0381692D01*
X0441819Y0381759D01*
X0441720Y0381829D01*
X0441622Y0381902D01*
X0441527Y0381978D01*
X0441435Y0382057D01*
X0441345Y0382139D01*
X0441258Y0382224D01*
X0441173Y0382312D01*
X0441092Y0382403D01*
X0441014Y0382496D01*
X0440938Y0382591D01*
X0440866Y0382689D01*
X0440797Y0382790D01*
X0440731Y0382892D01*
X0440669Y0382997D01*
X0440610Y0383103D01*
X0440555Y0383212D01*
X0440503Y0383322D01*
X0440455Y0383434D01*
X0440410Y0383547D01*
X0440369Y0383662D01*
X0440332Y0383778D01*
X0440299Y0383895D01*
X0440270Y0384013D01*
X0440244Y0384132D01*
X0440222Y0384252D01*
X0440205Y0384372D01*
X0440191Y0384493D01*
X0440181Y0384615D01*
X0440175Y0384736D01*
X0440173Y0384858D01*
X0440173Y0010843D02*
X0440175Y0010965D01*
X0440181Y0011086D01*
X0440191Y0011208D01*
X0440205Y0011329D01*
X0440222Y0011449D01*
X0440244Y0011569D01*
X0440270Y0011688D01*
X0440299Y0011806D01*
X0440332Y0011923D01*
X0440369Y0012039D01*
X0440410Y0012154D01*
X0440455Y0012267D01*
X0440503Y0012379D01*
X0440555Y0012489D01*
X0440610Y0012598D01*
X0440669Y0012704D01*
X0440731Y0012809D01*
X0440797Y0012911D01*
X0440866Y0013012D01*
X0440938Y0013110D01*
X0441014Y0013205D01*
X0441092Y0013298D01*
X0441173Y0013389D01*
X0441258Y0013477D01*
X0441345Y0013562D01*
X0441435Y0013644D01*
X0441527Y0013723D01*
X0441622Y0013799D01*
X0441720Y0013872D01*
X0441819Y0013942D01*
X0441921Y0014009D01*
X0442025Y0014072D01*
X0442132Y0014131D01*
X0442240Y0014188D01*
X0442349Y0014240D01*
X0442461Y0014290D01*
X0442574Y0014335D01*
X0442688Y0014377D01*
X0442804Y0014415D01*
X0442921Y0014449D01*
X0443038Y0014479D01*
X0443157Y0014506D01*
X0443277Y0014529D01*
X0443397Y0014547D01*
X0443518Y0014562D01*
X0443639Y0014573D01*
X0443761Y0014580D01*
X0443883Y0014583D01*
X0444004Y0014582D01*
X0444126Y0014577D01*
X0444247Y0014568D01*
X0444368Y0014555D01*
X0444489Y0014538D01*
X0444609Y0014518D01*
X0444728Y0014493D01*
X0444847Y0014465D01*
X0444964Y0014432D01*
X0445080Y0014396D01*
X0445195Y0014356D01*
X0445309Y0014313D01*
X0445421Y0014265D01*
X0445532Y0014215D01*
X0445641Y0014160D01*
X0445748Y0014102D01*
X0445853Y0014041D01*
X0445956Y0013976D01*
X0446057Y0013908D01*
X0446155Y0013836D01*
X0446252Y0013762D01*
X0446345Y0013684D01*
X0446437Y0013603D01*
X0446525Y0013520D01*
X0446611Y0013433D01*
X0446694Y0013344D01*
X0446774Y0013252D01*
X0446851Y0013158D01*
X0446924Y0013061D01*
X0446995Y0012962D01*
X0447062Y0012860D01*
X0447126Y0012757D01*
X0447187Y0012651D01*
X0447244Y0012544D01*
X0447298Y0012434D01*
X0447348Y0012323D01*
X0447394Y0012211D01*
X0447437Y0012097D01*
X0447476Y0011981D01*
X0447511Y0011865D01*
X0447542Y0011747D01*
X0447570Y0011629D01*
X0447593Y0011509D01*
X0447613Y0011389D01*
X0447629Y0011268D01*
X0447641Y0011147D01*
X0447649Y0011026D01*
X0447653Y0010904D01*
X0447653Y0010782D01*
X0447649Y0010660D01*
X0447641Y0010539D01*
X0447629Y0010418D01*
X0447613Y0010297D01*
X0447593Y0010177D01*
X0447570Y0010057D01*
X0447542Y0009939D01*
X0447511Y0009821D01*
X0447476Y0009705D01*
X0447437Y0009589D01*
X0447394Y0009475D01*
X0447348Y0009363D01*
X0447298Y0009252D01*
X0447244Y0009142D01*
X0447187Y0009035D01*
X0447126Y0008929D01*
X0447062Y0008826D01*
X0446995Y0008724D01*
X0446924Y0008625D01*
X0446851Y0008528D01*
X0446774Y0008434D01*
X0446694Y0008342D01*
X0446611Y0008253D01*
X0446525Y0008166D01*
X0446437Y0008083D01*
X0446345Y0008002D01*
X0446252Y0007924D01*
X0446155Y0007850D01*
X0446057Y0007778D01*
X0445956Y0007710D01*
X0445853Y0007645D01*
X0445748Y0007584D01*
X0445641Y0007526D01*
X0445532Y0007471D01*
X0445421Y0007421D01*
X0445309Y0007373D01*
X0445195Y0007330D01*
X0445080Y0007290D01*
X0444964Y0007254D01*
X0444847Y0007221D01*
X0444728Y0007193D01*
X0444609Y0007168D01*
X0444489Y0007148D01*
X0444368Y0007131D01*
X0444247Y0007118D01*
X0444126Y0007109D01*
X0444004Y0007104D01*
X0443883Y0007103D01*
X0443761Y0007106D01*
X0443639Y0007113D01*
X0443518Y0007124D01*
X0443397Y0007139D01*
X0443277Y0007157D01*
X0443157Y0007180D01*
X0443038Y0007207D01*
X0442921Y0007237D01*
X0442804Y0007271D01*
X0442688Y0007309D01*
X0442574Y0007351D01*
X0442461Y0007396D01*
X0442349Y0007446D01*
X0442240Y0007498D01*
X0442132Y0007555D01*
X0442025Y0007614D01*
X0441921Y0007677D01*
X0441819Y0007744D01*
X0441720Y0007814D01*
X0441622Y0007887D01*
X0441527Y0007963D01*
X0441435Y0008042D01*
X0441345Y0008124D01*
X0441258Y0008209D01*
X0441173Y0008297D01*
X0441092Y0008388D01*
X0441014Y0008481D01*
X0440938Y0008576D01*
X0440866Y0008674D01*
X0440797Y0008775D01*
X0440731Y0008877D01*
X0440669Y0008982D01*
X0440610Y0009088D01*
X0440555Y0009197D01*
X0440503Y0009307D01*
X0440455Y0009419D01*
X0440410Y0009532D01*
X0440369Y0009647D01*
X0440332Y0009763D01*
X0440299Y0009880D01*
X0440270Y0009998D01*
X0440244Y0010117D01*
X0440222Y0010237D01*
X0440205Y0010357D01*
X0440191Y0010478D01*
X0440181Y0010600D01*
X0440175Y0010721D01*
X0440173Y0010843D01*
M02*
