G75*
%MOIN*%
%OFA0B0*%
%FSLAX25Y25*%
%IPPOS*%
%LPD*%
%AMOC8*
5,1,8,0,0,1.08239X$1,22.5*
%
%ADD10R,0.05543X0.05543*%
%ADD11C,0.05543*%
%ADD12C,0.06024*%
%ADD13R,0.08000X0.08000*%
%ADD14C,0.08000*%
%ADD15C,0.07400*%
%ADD16OC8,0.06024*%
%ADD17C,0.05150*%
%ADD18R,0.06024X0.06024*%
%ADD19C,0.10000*%
%ADD20C,0.04362*%
%ADD21C,0.07000*%
%ADD22R,0.04400X0.01000*%
%ADD23R,0.04400X0.01200*%
%ADD24R,0.07400X0.07400*%
%ADD25C,0.06600*%
%ADD26C,0.02400*%
%ADD27C,0.04750*%
%ADD28C,0.01600*%
%ADD29C,0.03962*%
D10*
X0025039Y0173587D03*
X0350543Y0120640D03*
D11*
X0350543Y0150640D03*
X0055039Y0173587D03*
D12*
X0421850Y0146197D03*
X0421850Y0136354D03*
X0421797Y0117053D03*
X0421797Y0107211D03*
X0422624Y0089553D03*
X0422624Y0079711D03*
X0422676Y0062459D03*
X0422676Y0052616D03*
X0421725Y0034548D03*
X0421725Y0024706D03*
X0423180Y0337565D03*
X0423180Y0347407D03*
X0423180Y0357250D03*
X0423180Y0367093D03*
D13*
X0054406Y0374356D03*
D14*
X0034720Y0374356D03*
D15*
X0135895Y0280905D03*
X0135770Y0270530D03*
X0135520Y0260030D03*
X0135770Y0249530D03*
X0135770Y0238780D03*
X0202378Y0226600D03*
X0212378Y0226600D03*
X0222378Y0226600D03*
X0232378Y0226600D03*
X0242378Y0226600D03*
X0252378Y0226600D03*
X0262378Y0226600D03*
X0375435Y0239750D03*
X0374935Y0250500D03*
X0387496Y0207250D03*
X0387496Y0197250D03*
X0391125Y0103625D03*
X0401125Y0103625D03*
X0381125Y0103625D03*
X0371125Y0103625D03*
X0361125Y0103625D03*
X0351125Y0103625D03*
X0319500Y0040500D03*
X0319500Y0030500D03*
X0304500Y0030750D03*
X0304500Y0040750D03*
X0289125Y0040500D03*
X0289125Y0030500D03*
X0078756Y0162250D03*
X0068756Y0162250D03*
X0032939Y0232750D03*
X0032939Y0242750D03*
D16*
X0177122Y0239000D03*
X0177122Y0249000D03*
X0177122Y0259000D03*
X0177122Y0269000D03*
X0177122Y0279000D03*
X0177122Y0289000D03*
X0177122Y0299000D03*
X0177122Y0309000D03*
X0177122Y0319000D03*
X0177122Y0329000D03*
X0187122Y0329000D03*
X0187122Y0319000D03*
X0187122Y0309000D03*
X0187122Y0299000D03*
X0187122Y0289000D03*
X0187122Y0279000D03*
X0187122Y0269000D03*
X0187122Y0259000D03*
X0187122Y0249000D03*
X0187122Y0239000D03*
X0347122Y0239000D03*
X0347122Y0249000D03*
X0357122Y0249000D03*
X0357122Y0239000D03*
X0357122Y0259000D03*
X0347122Y0259000D03*
X0347122Y0269000D03*
X0357122Y0269000D03*
X0357122Y0279000D03*
X0347122Y0279000D03*
X0347122Y0289000D03*
X0347122Y0299000D03*
X0357122Y0299000D03*
X0357122Y0289000D03*
X0357122Y0309000D03*
X0347122Y0309000D03*
X0347122Y0319000D03*
X0357122Y0319000D03*
X0357122Y0329000D03*
X0347122Y0329000D03*
D17*
X0264550Y0048300D03*
X0252500Y0048153D03*
X0240175Y0048575D03*
X0228000Y0048153D03*
X0228000Y0018625D03*
X0240175Y0019047D03*
X0252500Y0018625D03*
X0264550Y0018772D03*
D18*
X0398803Y0163481D03*
X0423764Y0163481D03*
X0436283Y0163481D03*
X0436303Y0226001D03*
X0398803Y0226001D03*
D19*
X0037939Y0255326D02*
X0027939Y0255326D01*
X0027939Y0343926D02*
X0037939Y0343926D01*
D20*
X0088323Y0378480D03*
X0096197Y0378480D03*
X0104071Y0378480D03*
X0111945Y0378480D03*
X0131630Y0378087D03*
X0139504Y0378087D03*
X0147378Y0378087D03*
X0155252Y0378087D03*
X0381236Y0376512D03*
X0389110Y0376512D03*
X0396984Y0376512D03*
X0404858Y0376512D03*
X0437693Y0321394D03*
X0437693Y0313520D03*
X0437693Y0305646D03*
X0437693Y0297772D03*
X0437693Y0280449D03*
X0437693Y0272575D03*
X0437693Y0264701D03*
X0437693Y0256827D03*
X0209340Y0046060D03*
X0209340Y0038186D03*
X0209340Y0030312D03*
X0209340Y0022438D03*
X0182340Y0022438D03*
X0182340Y0030312D03*
X0182340Y0038186D03*
X0182340Y0046060D03*
X0154715Y0046060D03*
X0154715Y0038186D03*
X0154715Y0030312D03*
X0154715Y0022438D03*
X0127840Y0022438D03*
X0127840Y0030312D03*
X0127840Y0038186D03*
X0127840Y0046060D03*
X0098090Y0046060D03*
X0098090Y0038186D03*
X0098090Y0030312D03*
X0098090Y0022438D03*
X0070590Y0022438D03*
X0070590Y0030312D03*
X0070590Y0038186D03*
X0070590Y0046060D03*
X0041465Y0046060D03*
X0041465Y0038186D03*
X0041465Y0030312D03*
X0041465Y0022438D03*
D21*
X0256455Y0082500D03*
X0282045Y0082500D03*
D22*
X0190600Y0026500D03*
X0190600Y0024500D03*
X0190600Y0022500D03*
X0162975Y0022500D03*
X0162975Y0024500D03*
X0162975Y0026500D03*
X0134350Y0026500D03*
X0134350Y0024500D03*
X0134350Y0022500D03*
X0106975Y0022500D03*
X0106975Y0024500D03*
X0106975Y0026500D03*
X0078475Y0026500D03*
X0078475Y0024500D03*
X0078475Y0022500D03*
X0049850Y0022500D03*
X0049850Y0024500D03*
X0049850Y0026500D03*
X0020850Y0026000D03*
X0020850Y0024000D03*
X0020850Y0022000D03*
D23*
X0026650Y0022000D03*
X0026650Y0026000D03*
X0055650Y0026500D03*
X0055650Y0022500D03*
X0084275Y0022500D03*
X0084275Y0026500D03*
X0112775Y0026500D03*
X0112775Y0022500D03*
X0140150Y0022500D03*
X0140150Y0026500D03*
X0168775Y0026500D03*
X0168775Y0022500D03*
X0196400Y0022500D03*
X0196400Y0026500D03*
D24*
X0192378Y0226600D03*
D25*
X0114150Y0167489D02*
X0114150Y0160889D01*
X0104150Y0160889D02*
X0104150Y0167489D01*
X0094150Y0167489D02*
X0094150Y0160889D01*
X0087772Y0348291D02*
X0087772Y0354891D01*
X0077772Y0354891D02*
X0077772Y0348291D01*
X0067772Y0348291D02*
X0067772Y0354891D01*
D26*
X0082890Y0173835D02*
X0098638Y0173835D01*
X0104150Y0167142D01*
X0104150Y0164189D01*
X0101787Y0164099D02*
X0108480Y0164099D01*
X0108480Y0166497D02*
X0101787Y0166497D01*
X0101787Y0168896D02*
X0108480Y0168896D01*
X0108480Y0170291D02*
X0101787Y0170291D01*
X0101787Y0151787D01*
X0084465Y0151787D01*
X0084465Y0167929D01*
X0075803Y0167929D01*
X0075803Y0141945D01*
X0108480Y0141945D01*
X0108480Y0170291D01*
X0108480Y0161700D02*
X0101787Y0161700D01*
X0101787Y0159302D02*
X0108480Y0159302D01*
X0108480Y0156903D02*
X0101787Y0156903D01*
X0101787Y0154505D02*
X0108480Y0154505D01*
X0108480Y0152106D02*
X0101787Y0152106D01*
X0108480Y0149708D02*
X0075803Y0149708D01*
X0075803Y0152106D02*
X0084465Y0152106D01*
X0084465Y0154505D02*
X0075803Y0154505D01*
X0075803Y0156903D02*
X0084465Y0156903D01*
X0084465Y0159302D02*
X0075803Y0159302D01*
X0075803Y0161700D02*
X0084465Y0161700D01*
X0084465Y0164099D02*
X0075803Y0164099D01*
X0075803Y0166497D02*
X0084465Y0166497D01*
X0078756Y0168520D02*
X0078756Y0162250D01*
X0078756Y0168520D02*
X0082890Y0173835D01*
X0075803Y0147309D02*
X0108480Y0147309D01*
X0108480Y0144911D02*
X0075803Y0144911D01*
X0075803Y0142512D02*
X0108480Y0142512D01*
X0054937Y0155331D02*
X0054937Y0173484D01*
X0055039Y0173587D01*
X0041465Y0046060D02*
X0070590Y0046060D01*
X0098090Y0046060D01*
X0127840Y0046060D01*
X0154715Y0046060D01*
X0182340Y0046060D01*
X0209340Y0046060D01*
X0209340Y0038186D02*
X0182340Y0038186D01*
X0154715Y0038186D01*
X0127840Y0038186D01*
X0098090Y0038186D01*
X0070590Y0038186D01*
X0041465Y0038186D01*
X0262024Y0162024D02*
X0295882Y0162024D01*
X0305331Y0162024D02*
X0309268Y0162024D01*
X0314386Y0167535D01*
X0350543Y0150640D02*
X0387496Y0187593D01*
X0387496Y0195094D01*
X0398803Y0206402D01*
X0398803Y0226001D01*
X0387496Y0207250D02*
X0378872Y0207250D01*
X0347122Y0239000D01*
X0387496Y0197250D02*
X0387496Y0195094D01*
X0398803Y0163481D02*
X0398803Y0159402D01*
X0421850Y0136354D01*
X0434465Y0147850D02*
X0423764Y0158551D01*
X0423764Y0163481D01*
X0434465Y0147850D02*
X0434465Y0047287D01*
X0421725Y0034548D01*
X0381125Y0103625D02*
X0350543Y0134207D01*
X0350543Y0150640D01*
D27*
X0320685Y0160055D03*
X0314386Y0167535D03*
X0305331Y0162024D03*
X0295882Y0162024D03*
X0286433Y0174622D03*
X0300213Y0177772D03*
X0299031Y0198638D03*
X0293520Y0235252D03*
X0325331Y0234976D03*
X0281315Y0273441D03*
X0249031Y0273835D03*
X0243126Y0266354D03*
X0224622Y0270291D03*
X0219504Y0264386D03*
X0219504Y0278165D03*
X0219504Y0303362D03*
X0219504Y0315173D03*
X0218717Y0329740D03*
X0192732Y0344307D03*
X0182102Y0335252D03*
X0146669Y0335646D03*
X0146669Y0318717D03*
X0146669Y0306512D03*
X0119110Y0283283D03*
X0076591Y0253756D03*
X0069898Y0202969D03*
X0054937Y0191551D03*
X0054937Y0155331D03*
X0140764Y0228953D03*
X0153362Y0195882D03*
X0173047Y0212811D03*
X0148244Y0156118D03*
X0146669Y0108087D03*
X0149031Y0025409D03*
X0175016Y0025803D03*
X0202575Y0025803D03*
X0120685Y0025803D03*
X0092339Y0025803D03*
X0064386Y0025409D03*
X0032496Y0025803D03*
X0262024Y0162024D03*
X0276984Y0143520D03*
X0373835Y0124622D03*
X0370685Y0057299D03*
X0405724Y0244701D03*
X0339583Y0295488D03*
X0313992Y0288402D03*
X0313992Y0307693D03*
X0313992Y0324228D03*
X0313992Y0339189D03*
X0346669Y0341551D03*
X0268717Y0369898D03*
X0254543Y0368717D03*
X0238795Y0367535D03*
X0215567Y0376984D03*
D28*
X0019383Y0009144D02*
X0018129Y0006118D01*
X0436627Y0006118D01*
X0435373Y0009144D01*
X0435373Y0012541D01*
X0436673Y0015680D01*
X0439076Y0018083D01*
X0442215Y0019383D01*
X0445612Y0019383D01*
X0448751Y0018083D01*
X0448956Y0017878D01*
X0448956Y0377823D01*
X0448751Y0377618D01*
X0445612Y0376318D01*
X0442215Y0376318D01*
X0439076Y0377618D01*
X0436673Y0380021D01*
X0435373Y0383160D01*
X0435373Y0386557D01*
X0436673Y0389696D01*
X0436878Y0389901D01*
X0087612Y0389901D01*
X0087573Y0382390D01*
X0087931Y0382461D01*
X0088323Y0382461D01*
X0088715Y0382461D01*
X0089484Y0382308D01*
X0090209Y0382008D01*
X0090861Y0381573D01*
X0091415Y0381018D01*
X0091851Y0380366D01*
X0092151Y0379642D01*
X0092304Y0378872D01*
X0092304Y0378480D01*
X0088323Y0378480D01*
X0088323Y0374499D01*
X0088715Y0374499D01*
X0089484Y0374652D01*
X0090209Y0374952D01*
X0090861Y0375388D01*
X0091415Y0375943D01*
X0091851Y0376595D01*
X0092151Y0377319D01*
X0092304Y0378088D01*
X0092304Y0378480D01*
X0088323Y0378480D01*
X0088323Y0378480D01*
X0088323Y0378480D01*
X0088323Y0374499D01*
X0087931Y0374499D01*
X0087532Y0374579D01*
X0087456Y0359991D01*
X0087472Y0359991D01*
X0087472Y0351891D01*
X0088072Y0351891D01*
X0088072Y0359991D01*
X0088173Y0359991D01*
X0088966Y0359865D01*
X0089729Y0359617D01*
X0090445Y0359252D01*
X0091094Y0358781D01*
X0091662Y0358213D01*
X0092134Y0357564D01*
X0092498Y0356848D01*
X0092746Y0356085D01*
X0092872Y0355292D01*
X0092872Y0351891D01*
X0088072Y0351891D01*
X0088072Y0351291D01*
X0092872Y0351291D01*
X0092872Y0347889D01*
X0092746Y0347096D01*
X0092498Y0346333D01*
X0092134Y0345618D01*
X0091662Y0344968D01*
X0091094Y0344400D01*
X0090445Y0343929D01*
X0089729Y0343564D01*
X0088966Y0343316D01*
X0088173Y0343191D01*
X0088072Y0343191D01*
X0088072Y0351290D01*
X0087472Y0351290D01*
X0087472Y0343191D01*
X0087370Y0343191D01*
X0087368Y0343191D01*
X0087220Y0314780D01*
X0007693Y0314780D01*
X0008087Y0175803D01*
X0020668Y0175803D01*
X0020668Y0177021D01*
X0021605Y0177958D01*
X0028474Y0177958D01*
X0029411Y0177021D01*
X0029411Y0175803D01*
X0051038Y0175803D01*
X0051129Y0175983D01*
X0051552Y0176565D01*
X0052061Y0177074D01*
X0052643Y0177497D01*
X0053284Y0177823D01*
X0053969Y0178046D01*
X0054680Y0178158D01*
X0054954Y0178158D01*
X0054954Y0175803D01*
X0055125Y0175803D01*
X0055125Y0178158D01*
X0055399Y0178158D01*
X0056110Y0178046D01*
X0056794Y0177823D01*
X0057435Y0177497D01*
X0058018Y0177074D01*
X0058526Y0176565D01*
X0058949Y0175983D01*
X0059041Y0175803D01*
X0079836Y0175803D01*
X0079859Y0175860D01*
X0080205Y0176205D01*
X0080505Y0176591D01*
X0080703Y0176704D01*
X0080865Y0176865D01*
X0081316Y0177052D01*
X0081741Y0177294D01*
X0081968Y0177322D01*
X0082179Y0177409D01*
X0082667Y0177409D01*
X0083152Y0177470D01*
X0083372Y0177409D01*
X0098104Y0177409D01*
X0098274Y0177461D01*
X0098810Y0177409D01*
X0099349Y0177409D01*
X0099513Y0177341D01*
X0099690Y0177324D01*
X0100165Y0177071D01*
X0100663Y0176865D01*
X0100788Y0176740D01*
X0100945Y0176656D01*
X0101288Y0176240D01*
X0101668Y0175860D01*
X0101692Y0175803D01*
X0113205Y0175803D01*
X0113205Y0172389D01*
X0115124Y0172389D01*
X0116925Y0171643D01*
X0118304Y0170265D01*
X0119050Y0168464D01*
X0119050Y0159914D01*
X0118304Y0158113D01*
X0116925Y0156735D01*
X0115124Y0155989D01*
X0113205Y0155989D01*
X0113205Y0135646D01*
X0112811Y0135646D01*
X0112811Y0134071D01*
X0071079Y0133677D01*
X0071079Y0157475D01*
X0069810Y0156950D01*
X0067702Y0156950D01*
X0065754Y0157757D01*
X0064263Y0159248D01*
X0063456Y0161196D01*
X0063456Y0163304D01*
X0064263Y0165252D01*
X0065754Y0166743D01*
X0067702Y0167550D01*
X0069810Y0167550D01*
X0071079Y0167025D01*
X0071079Y0167929D01*
X0008087Y0167929D01*
X0008087Y0018945D01*
X0009144Y0019383D01*
X0012541Y0019383D01*
X0015680Y0018083D01*
X0018083Y0015680D01*
X0019383Y0012541D01*
X0019383Y0009144D01*
X0019320Y0008993D02*
X0135455Y0008993D01*
X0135464Y0008971D02*
X0136471Y0007964D01*
X0137788Y0007419D01*
X0139212Y0007419D01*
X0140529Y0007964D01*
X0141536Y0008971D01*
X0142081Y0010288D01*
X0142081Y0011712D01*
X0141536Y0013029D01*
X0140529Y0014036D01*
X0139212Y0014581D01*
X0137788Y0014581D01*
X0136471Y0014036D01*
X0135464Y0013029D01*
X0134919Y0011712D01*
X0134919Y0010288D01*
X0135464Y0008971D01*
X0134919Y0010591D02*
X0019383Y0010591D01*
X0019383Y0012190D02*
X0135117Y0012190D01*
X0136224Y0013788D02*
X0018866Y0013788D01*
X0018204Y0015387D02*
X0225334Y0015387D01*
X0225635Y0015086D02*
X0227170Y0014450D01*
X0228830Y0014450D01*
X0230365Y0015086D01*
X0230729Y0015450D01*
X0237950Y0015450D01*
X0239345Y0014873D01*
X0241005Y0014873D01*
X0242540Y0015508D01*
X0243714Y0016683D01*
X0244350Y0018217D01*
X0244350Y0019878D01*
X0243714Y0021412D01*
X0242540Y0022587D01*
X0241005Y0023222D01*
X0239345Y0023222D01*
X0237810Y0022587D01*
X0237023Y0021800D01*
X0230729Y0021800D01*
X0230365Y0022164D01*
X0228830Y0022800D01*
X0228315Y0022800D01*
X0227273Y0023842D01*
X0226106Y0024325D01*
X0212650Y0024325D01*
X0212545Y0024580D01*
X0211481Y0025643D01*
X0210092Y0026219D01*
X0208587Y0026219D01*
X0207198Y0025643D01*
X0206134Y0024580D01*
X0205558Y0023190D01*
X0205558Y0022285D01*
X0201105Y0022285D01*
X0200200Y0023190D01*
X0200200Y0023763D01*
X0199577Y0024386D01*
X0199705Y0024460D01*
X0200040Y0024795D01*
X0200277Y0025205D01*
X0200400Y0025663D01*
X0200400Y0026500D01*
X0200400Y0027137D01*
X0207167Y0027137D01*
X0207198Y0027107D01*
X0208587Y0026531D01*
X0210092Y0026531D01*
X0211481Y0027107D01*
X0211512Y0027137D01*
X0239498Y0027137D01*
X0248325Y0018310D01*
X0248325Y0017795D01*
X0248961Y0016260D01*
X0250135Y0015086D01*
X0251670Y0014450D01*
X0253330Y0014450D01*
X0254865Y0015086D01*
X0255229Y0015450D01*
X0261968Y0015450D01*
X0262185Y0015233D01*
X0263720Y0014598D01*
X0265380Y0014598D01*
X0266915Y0015233D01*
X0268089Y0016408D01*
X0268725Y0017942D01*
X0268725Y0019603D01*
X0268089Y0021137D01*
X0266915Y0022312D01*
X0265380Y0022947D01*
X0263720Y0022947D01*
X0262185Y0022312D01*
X0261673Y0021800D01*
X0255229Y0021800D01*
X0254865Y0022164D01*
X0253330Y0022800D01*
X0252815Y0022800D01*
X0243504Y0032110D01*
X0243504Y0032110D01*
X0242611Y0033003D01*
X0241445Y0033487D01*
X0211512Y0033487D01*
X0211481Y0033517D01*
X0210092Y0034093D01*
X0208587Y0034093D01*
X0207198Y0033517D01*
X0207167Y0033487D01*
X0184512Y0033487D01*
X0184481Y0033517D01*
X0183092Y0034093D01*
X0181587Y0034093D01*
X0180198Y0033517D01*
X0180167Y0033487D01*
X0156887Y0033487D01*
X0156856Y0033517D01*
X0155467Y0034093D01*
X0153962Y0034093D01*
X0152573Y0033517D01*
X0152542Y0033487D01*
X0130012Y0033487D01*
X0129981Y0033517D01*
X0128592Y0034093D01*
X0127087Y0034093D01*
X0125698Y0033517D01*
X0125667Y0033487D01*
X0100262Y0033487D01*
X0100231Y0033517D01*
X0098842Y0034093D01*
X0097337Y0034093D01*
X0095948Y0033517D01*
X0095917Y0033487D01*
X0072762Y0033487D01*
X0072731Y0033517D01*
X0071342Y0034093D01*
X0069837Y0034093D01*
X0068448Y0033517D01*
X0068417Y0033487D01*
X0043637Y0033487D01*
X0043606Y0033517D01*
X0042217Y0034093D01*
X0040712Y0034093D01*
X0039323Y0033517D01*
X0039292Y0033487D01*
X0024530Y0033487D01*
X0023364Y0033003D01*
X0018460Y0028100D01*
X0017987Y0028100D01*
X0017050Y0027163D01*
X0017050Y0020837D01*
X0017987Y0019900D01*
X0023687Y0019900D01*
X0023787Y0019800D01*
X0024355Y0019800D01*
X0026409Y0017422D01*
X0026455Y0017312D01*
X0026819Y0016947D01*
X0027156Y0016557D01*
X0027263Y0016503D01*
X0027348Y0016419D01*
X0027824Y0016221D01*
X0028285Y0015990D01*
X0028404Y0015981D01*
X0028515Y0015935D01*
X0029030Y0015935D01*
X0029544Y0015898D01*
X0029658Y0015935D01*
X0152419Y0015935D01*
X0153586Y0016419D01*
X0154915Y0017748D01*
X0155351Y0017312D01*
X0156244Y0016419D01*
X0157411Y0015935D01*
X0174305Y0015935D01*
X0174710Y0015878D01*
X0174930Y0015935D01*
X0207931Y0015935D01*
X0209098Y0016419D01*
X0210655Y0017976D01*
X0223825Y0017976D01*
X0223825Y0017795D01*
X0224461Y0016260D01*
X0225635Y0015086D01*
X0224160Y0016985D02*
X0209664Y0016985D01*
X0207299Y0019110D02*
X0209340Y0021151D01*
X0225474Y0021151D01*
X0228000Y0018625D01*
X0239753Y0018625D01*
X0240175Y0019047D01*
X0243346Y0021781D02*
X0244855Y0021781D01*
X0244224Y0020182D02*
X0246453Y0020182D01*
X0248052Y0018584D02*
X0244350Y0018584D01*
X0243840Y0016985D02*
X0248660Y0016985D01*
X0249834Y0015387D02*
X0242246Y0015387D01*
X0238104Y0015387D02*
X0230666Y0015387D01*
X0227736Y0023379D02*
X0243256Y0023379D01*
X0241657Y0024978D02*
X0212147Y0024978D01*
X0210201Y0026576D02*
X0240059Y0026576D01*
X0240813Y0030312D02*
X0252500Y0018625D01*
X0264403Y0018625D01*
X0264550Y0018772D01*
X0267446Y0021781D02*
X0417903Y0021781D01*
X0418055Y0021571D02*
X0418591Y0021035D01*
X0419203Y0020590D01*
X0419878Y0020246D01*
X0420599Y0020012D01*
X0421347Y0019894D01*
X0421521Y0019894D01*
X0421521Y0024502D01*
X0416914Y0024502D01*
X0416914Y0024327D01*
X0417032Y0023579D01*
X0417266Y0022859D01*
X0417610Y0022184D01*
X0418055Y0021571D01*
X0417097Y0023379D02*
X0252236Y0023379D01*
X0250637Y0024978D02*
X0416914Y0024978D01*
X0416914Y0024910D02*
X0421521Y0024910D01*
X0421521Y0024502D01*
X0421929Y0024502D01*
X0421929Y0019894D01*
X0422104Y0019894D01*
X0422852Y0020012D01*
X0423572Y0020246D01*
X0424247Y0020590D01*
X0424860Y0021035D01*
X0425396Y0021571D01*
X0425841Y0022184D01*
X0426185Y0022859D01*
X0426419Y0023579D01*
X0426537Y0024327D01*
X0426537Y0024502D01*
X0421929Y0024502D01*
X0421929Y0024910D01*
X0421521Y0024910D01*
X0421521Y0029518D01*
X0421347Y0029518D01*
X0420599Y0029399D01*
X0419878Y0029165D01*
X0419203Y0028821D01*
X0418591Y0028376D01*
X0418055Y0027840D01*
X0417610Y0027228D01*
X0417266Y0026553D01*
X0417032Y0025832D01*
X0416914Y0025084D01*
X0416914Y0024910D01*
X0417278Y0026576D02*
X0323072Y0026576D01*
X0322502Y0026007D02*
X0323993Y0027498D01*
X0324800Y0029446D01*
X0324800Y0031554D01*
X0323993Y0033502D01*
X0322502Y0034993D01*
X0321278Y0035500D01*
X0322502Y0036007D01*
X0323993Y0037498D01*
X0324800Y0039446D01*
X0324800Y0041554D01*
X0323993Y0043502D01*
X0322675Y0044821D01*
X0322675Y0094943D01*
X0322191Y0096109D01*
X0303387Y0114913D01*
X0303387Y0158526D01*
X0304540Y0158049D01*
X0306121Y0158049D01*
X0307087Y0158449D01*
X0308625Y0158449D01*
X0308689Y0158425D01*
X0309334Y0158449D01*
X0309979Y0158449D01*
X0310042Y0158475D01*
X0310111Y0158478D01*
X0310697Y0158746D01*
X0311293Y0158993D01*
X0311341Y0159041D01*
X0311403Y0159070D01*
X0311842Y0159543D01*
X0312298Y0159999D01*
X0312324Y0160062D01*
X0315821Y0163828D01*
X0316637Y0164166D01*
X0317510Y0165039D01*
X0317510Y0162502D01*
X0317315Y0162307D01*
X0316710Y0160846D01*
X0316710Y0159264D01*
X0317315Y0157804D01*
X0318433Y0156685D01*
X0319894Y0156080D01*
X0321476Y0156080D01*
X0322937Y0156685D01*
X0324055Y0157804D01*
X0324660Y0159264D01*
X0324660Y0160846D01*
X0324055Y0162307D01*
X0323860Y0162502D01*
X0323860Y0168061D01*
X0323862Y0168066D01*
X0323860Y0168692D01*
X0323860Y0169319D01*
X0323858Y0169324D01*
X0323858Y0169329D01*
X0323616Y0169907D01*
X0323377Y0170485D01*
X0323373Y0170489D01*
X0323370Y0170494D01*
X0322928Y0170934D01*
X0322483Y0171378D01*
X0322478Y0171381D01*
X0299038Y0194663D01*
X0299822Y0194663D01*
X0301283Y0195268D01*
X0302401Y0196386D01*
X0303006Y0197847D01*
X0303006Y0199428D01*
X0302401Y0200889D01*
X0301283Y0202007D01*
X0299822Y0202613D01*
X0299626Y0202613D01*
X0252206Y0252272D01*
X0252206Y0271388D01*
X0252401Y0271583D01*
X0253006Y0273044D01*
X0253006Y0274625D01*
X0252401Y0276086D01*
X0251283Y0277204D01*
X0249822Y0277809D01*
X0248241Y0277809D01*
X0246780Y0277204D01*
X0245662Y0276086D01*
X0245057Y0274625D01*
X0245057Y0273044D01*
X0245662Y0271583D01*
X0245857Y0271388D01*
X0245857Y0269245D01*
X0245378Y0269724D01*
X0243917Y0270329D01*
X0243641Y0270329D01*
X0240987Y0272983D01*
X0239820Y0273466D01*
X0227068Y0273466D01*
X0226874Y0273661D01*
X0225413Y0274266D01*
X0223831Y0274266D01*
X0222679Y0273789D01*
X0222679Y0275719D01*
X0222874Y0275914D01*
X0223479Y0277375D01*
X0223479Y0278956D01*
X0222874Y0280417D01*
X0222679Y0280612D01*
X0222679Y0300916D01*
X0222874Y0301111D01*
X0223479Y0302572D01*
X0223479Y0304153D01*
X0222874Y0305614D01*
X0222679Y0305809D01*
X0222679Y0312727D01*
X0222874Y0312922D01*
X0223479Y0314383D01*
X0223479Y0315964D01*
X0222874Y0317425D01*
X0222544Y0317755D01*
X0222021Y0327424D01*
X0222086Y0327489D01*
X0222691Y0328950D01*
X0222691Y0330531D01*
X0222086Y0331992D01*
X0220968Y0333110D01*
X0219507Y0333715D01*
X0217926Y0333715D01*
X0216465Y0333110D01*
X0215347Y0331992D01*
X0214742Y0330531D01*
X0214742Y0328950D01*
X0215347Y0327489D01*
X0215677Y0327159D01*
X0216199Y0317490D01*
X0216134Y0317425D01*
X0215529Y0315964D01*
X0215529Y0314383D01*
X0216134Y0312922D01*
X0216329Y0312727D01*
X0216329Y0305809D01*
X0216134Y0305614D01*
X0215529Y0304153D01*
X0215529Y0302572D01*
X0216134Y0301111D01*
X0216329Y0300916D01*
X0216329Y0280612D01*
X0216134Y0280417D01*
X0215529Y0278956D01*
X0215529Y0277375D01*
X0216134Y0275914D01*
X0216329Y0275719D01*
X0216329Y0266832D01*
X0216134Y0266637D01*
X0215529Y0265176D01*
X0215529Y0263595D01*
X0216134Y0262134D01*
X0216329Y0261939D01*
X0216329Y0257509D01*
X0206931Y0267243D01*
X0206931Y0283521D01*
X0206447Y0284688D01*
X0205554Y0285581D01*
X0195424Y0295712D01*
X0194531Y0296605D01*
X0193364Y0297088D01*
X0191732Y0297088D01*
X0191734Y0297090D01*
X0191734Y0300910D01*
X0189032Y0303612D01*
X0185212Y0303612D01*
X0182510Y0300910D01*
X0182510Y0298389D01*
X0181734Y0299165D01*
X0181734Y0300910D01*
X0179032Y0303612D01*
X0175212Y0303612D01*
X0172510Y0300910D01*
X0172510Y0297090D01*
X0175212Y0294388D01*
X0177531Y0294388D01*
X0178308Y0293612D01*
X0175212Y0293612D01*
X0172510Y0290910D01*
X0172510Y0287090D01*
X0175212Y0284388D01*
X0177295Y0284388D01*
X0178072Y0283612D01*
X0175212Y0283612D01*
X0172510Y0280910D01*
X0172510Y0277287D01*
X0171891Y0277906D01*
X0171891Y0335883D01*
X0171408Y0337050D01*
X0134805Y0373654D01*
X0134805Y0375914D01*
X0134835Y0375945D01*
X0135411Y0377334D01*
X0135411Y0378839D01*
X0134835Y0380228D01*
X0133772Y0381292D01*
X0132382Y0381868D01*
X0130878Y0381868D01*
X0129488Y0381292D01*
X0128424Y0380228D01*
X0127849Y0378839D01*
X0127849Y0377334D01*
X0128424Y0375945D01*
X0128455Y0375914D01*
X0128455Y0371707D01*
X0128938Y0370540D01*
X0165542Y0333937D01*
X0165542Y0275959D01*
X0166025Y0274792D01*
X0172510Y0268307D01*
X0172510Y0267090D01*
X0175212Y0264388D01*
X0178928Y0264388D01*
X0178928Y0263612D01*
X0175212Y0263612D01*
X0173775Y0262175D01*
X0173329Y0262175D01*
X0172162Y0261691D01*
X0150671Y0240200D01*
X0150187Y0239033D01*
X0150187Y0198328D01*
X0149993Y0198133D01*
X0149387Y0196673D01*
X0149387Y0195091D01*
X0149993Y0193630D01*
X0151111Y0192512D01*
X0152572Y0191907D01*
X0154153Y0191907D01*
X0155614Y0192512D01*
X0156732Y0193630D01*
X0157337Y0195091D01*
X0157337Y0196673D01*
X0156732Y0198133D01*
X0156537Y0198328D01*
X0156537Y0237087D01*
X0174525Y0255075D01*
X0175212Y0254388D01*
X0178928Y0254388D01*
X0178928Y0253612D01*
X0175212Y0253612D01*
X0172510Y0250910D01*
X0172510Y0248878D01*
X0164556Y0240924D01*
X0163663Y0240031D01*
X0163180Y0238864D01*
X0163180Y0218344D01*
X0163124Y0218136D01*
X0163180Y0217718D01*
X0163180Y0217298D01*
X0163262Y0217098D01*
X0163291Y0216884D01*
X0163502Y0216520D01*
X0163663Y0216131D01*
X0163816Y0215978D01*
X0163924Y0215791D01*
X0164258Y0215535D01*
X0164556Y0215238D01*
X0164756Y0215155D01*
X0169173Y0211777D01*
X0169678Y0210559D01*
X0170796Y0209441D01*
X0172257Y0208836D01*
X0173838Y0208836D01*
X0175299Y0209441D01*
X0176417Y0210559D01*
X0177022Y0212020D01*
X0177022Y0213602D01*
X0178928Y0213602D01*
X0178928Y0212003D02*
X0177015Y0212003D01*
X0177022Y0213602D02*
X0176417Y0215063D01*
X0175299Y0216181D01*
X0173838Y0216786D01*
X0173076Y0216786D01*
X0169529Y0219498D01*
X0169529Y0236917D01*
X0172310Y0239698D01*
X0172310Y0239204D01*
X0176918Y0239204D01*
X0176918Y0238796D01*
X0172310Y0238796D01*
X0172310Y0237007D01*
X0175129Y0234188D01*
X0176918Y0234188D01*
X0176918Y0238796D01*
X0177326Y0238796D01*
X0177326Y0234188D01*
X0178928Y0234188D01*
X0178928Y0199187D01*
X0179411Y0198021D01*
X0267904Y0109527D01*
X0267904Y0051127D01*
X0267887Y0051150D01*
X0267400Y0051637D01*
X0266843Y0052042D01*
X0266229Y0052354D01*
X0265574Y0052567D01*
X0264894Y0052675D01*
X0264550Y0052675D01*
X0264206Y0052675D01*
X0263526Y0052567D01*
X0262871Y0052354D01*
X0262257Y0052042D01*
X0261700Y0051637D01*
X0261213Y0051150D01*
X0260808Y0050593D01*
X0260496Y0049979D01*
X0260283Y0049324D01*
X0260175Y0048644D01*
X0260175Y0048300D01*
X0264550Y0048300D01*
X0264403Y0048153D01*
X0252500Y0048153D01*
X0252500Y0052527D01*
X0252500Y0048153D01*
X0252500Y0048153D01*
X0252500Y0048152D01*
X0252500Y0043778D01*
X0252844Y0043778D01*
X0253524Y0043885D01*
X0254179Y0044098D01*
X0254793Y0044411D01*
X0255350Y0044816D01*
X0255837Y0045303D01*
X0256242Y0045860D01*
X0256554Y0046473D01*
X0256767Y0047128D01*
X0256875Y0047808D01*
X0256875Y0048152D01*
X0252500Y0048152D01*
X0252500Y0048152D01*
X0252500Y0043778D01*
X0252156Y0043778D01*
X0251476Y0043885D01*
X0250821Y0044098D01*
X0250207Y0044411D01*
X0249650Y0044816D01*
X0249163Y0045303D01*
X0248758Y0045860D01*
X0248446Y0046473D01*
X0248233Y0047128D01*
X0248125Y0047808D01*
X0248125Y0048152D01*
X0252500Y0048152D01*
X0252500Y0048153D01*
X0248125Y0048153D01*
X0248125Y0048497D01*
X0248233Y0049177D01*
X0248446Y0049832D01*
X0248758Y0050445D01*
X0249163Y0051003D01*
X0249650Y0051489D01*
X0250207Y0051894D01*
X0250821Y0052207D01*
X0251476Y0052420D01*
X0252156Y0052527D01*
X0252500Y0052527D01*
X0252844Y0052527D01*
X0253524Y0052420D01*
X0254179Y0052207D01*
X0254793Y0051894D01*
X0255350Y0051489D01*
X0255837Y0051003D01*
X0256242Y0050445D01*
X0256554Y0049832D01*
X0256767Y0049177D01*
X0256875Y0048497D01*
X0256875Y0048153D01*
X0252500Y0048153D01*
X0252078Y0048575D01*
X0240175Y0048575D01*
X0239753Y0048153D01*
X0228000Y0048153D01*
X0228000Y0052527D01*
X0228000Y0048153D01*
X0228000Y0048153D01*
X0228000Y0048152D01*
X0228000Y0043778D01*
X0228344Y0043778D01*
X0229024Y0043885D01*
X0229679Y0044098D01*
X0230293Y0044411D01*
X0230850Y0044816D01*
X0231337Y0045303D01*
X0231742Y0045860D01*
X0232054Y0046473D01*
X0232267Y0047128D01*
X0232375Y0047808D01*
X0232375Y0048152D01*
X0228000Y0048152D01*
X0228000Y0048152D01*
X0228000Y0043778D01*
X0227656Y0043778D01*
X0226976Y0043885D01*
X0226321Y0044098D01*
X0225707Y0044411D01*
X0225150Y0044816D01*
X0224663Y0045303D01*
X0224258Y0045860D01*
X0223946Y0046473D01*
X0223733Y0047128D01*
X0223625Y0047808D01*
X0223625Y0048152D01*
X0228000Y0048152D01*
X0228000Y0048153D01*
X0223625Y0048153D01*
X0223625Y0048497D01*
X0223733Y0049177D01*
X0223946Y0049832D01*
X0224258Y0050445D01*
X0224663Y0051003D01*
X0225150Y0051489D01*
X0225707Y0051894D01*
X0226321Y0052207D01*
X0226976Y0052420D01*
X0227656Y0052527D01*
X0228000Y0052527D01*
X0228344Y0052527D01*
X0229024Y0052420D01*
X0229679Y0052207D01*
X0230293Y0051894D01*
X0230850Y0051489D01*
X0231337Y0051003D01*
X0231742Y0050445D01*
X0232054Y0049832D01*
X0232267Y0049177D01*
X0232375Y0048497D01*
X0232375Y0048153D01*
X0228000Y0048153D01*
X0225907Y0046060D01*
X0209340Y0046060D01*
X0213321Y0046060D01*
X0213321Y0046452D01*
X0213168Y0047221D01*
X0212868Y0047946D01*
X0212432Y0048598D01*
X0211877Y0049152D01*
X0211225Y0049588D01*
X0210501Y0049888D01*
X0209732Y0050041D01*
X0209340Y0050041D01*
X0209340Y0046060D01*
X0209340Y0046060D01*
X0213321Y0046060D01*
X0213321Y0045668D01*
X0213168Y0044899D01*
X0212868Y0044174D01*
X0212432Y0043522D01*
X0211877Y0042968D01*
X0211225Y0042532D01*
X0210501Y0042232D01*
X0209732Y0042079D01*
X0209340Y0042079D01*
X0209340Y0046060D01*
X0209339Y0046060D01*
X0205358Y0046060D01*
X0205358Y0045668D01*
X0205511Y0044899D01*
X0205812Y0044174D01*
X0206247Y0043522D01*
X0206802Y0042968D01*
X0207454Y0042532D01*
X0208178Y0042232D01*
X0208947Y0042079D01*
X0209339Y0042079D01*
X0209339Y0046060D01*
X0209339Y0046060D01*
X0205358Y0046060D01*
X0205358Y0046452D01*
X0205511Y0047221D01*
X0205812Y0047946D01*
X0206247Y0048598D01*
X0206802Y0049152D01*
X0207454Y0049588D01*
X0208178Y0049888D01*
X0208947Y0050041D01*
X0209339Y0050041D01*
X0209339Y0046060D01*
X0209340Y0046060D01*
X0209339Y0045758D02*
X0209340Y0045758D01*
X0209339Y0044160D02*
X0209340Y0044160D01*
X0209339Y0042561D02*
X0209340Y0042561D01*
X0210092Y0041967D02*
X0208587Y0041967D01*
X0208089Y0041761D01*
X0183590Y0041761D01*
X0183092Y0041967D01*
X0181587Y0041967D01*
X0181089Y0041761D01*
X0155965Y0041761D01*
X0155467Y0041967D01*
X0153962Y0041967D01*
X0153464Y0041761D01*
X0129090Y0041761D01*
X0128592Y0041967D01*
X0127087Y0041967D01*
X0126589Y0041761D01*
X0099340Y0041761D01*
X0098842Y0041967D01*
X0097337Y0041967D01*
X0096839Y0041761D01*
X0071840Y0041761D01*
X0071342Y0041967D01*
X0069837Y0041967D01*
X0069339Y0041761D01*
X0042715Y0041761D01*
X0042217Y0041967D01*
X0040712Y0041967D01*
X0039323Y0041391D01*
X0038259Y0040328D01*
X0037683Y0038938D01*
X0037683Y0037434D01*
X0038259Y0036044D01*
X0039323Y0034981D01*
X0040712Y0034405D01*
X0042217Y0034405D01*
X0042715Y0034611D01*
X0069339Y0034611D01*
X0069837Y0034405D01*
X0071342Y0034405D01*
X0071840Y0034611D01*
X0096839Y0034611D01*
X0097337Y0034405D01*
X0098842Y0034405D01*
X0099340Y0034611D01*
X0126589Y0034611D01*
X0127087Y0034405D01*
X0128592Y0034405D01*
X0129090Y0034611D01*
X0153464Y0034611D01*
X0153962Y0034405D01*
X0155467Y0034405D01*
X0155965Y0034611D01*
X0181089Y0034611D01*
X0181587Y0034405D01*
X0183092Y0034405D01*
X0183590Y0034611D01*
X0208089Y0034611D01*
X0208587Y0034405D01*
X0210092Y0034405D01*
X0211481Y0034981D01*
X0212545Y0036044D01*
X0213121Y0037434D01*
X0213121Y0038938D01*
X0212545Y0040328D01*
X0211481Y0041391D01*
X0210092Y0041967D01*
X0211269Y0042561D02*
X0268728Y0042561D01*
X0268387Y0042902D02*
X0283481Y0027809D01*
X0284648Y0027325D01*
X0284804Y0027325D01*
X0286123Y0026007D01*
X0288071Y0025200D01*
X0290179Y0025200D01*
X0292127Y0026007D01*
X0293618Y0027498D01*
X0294425Y0029446D01*
X0294425Y0031554D01*
X0293618Y0033502D01*
X0292127Y0034993D01*
X0290903Y0035500D01*
X0292127Y0036007D01*
X0293618Y0037498D01*
X0294425Y0039446D01*
X0294425Y0041554D01*
X0293618Y0043502D01*
X0292127Y0044993D01*
X0290179Y0045800D01*
X0288071Y0045800D01*
X0286123Y0044993D01*
X0284632Y0043502D01*
X0283825Y0041554D01*
X0283825Y0039446D01*
X0284632Y0037498D01*
X0286123Y0036007D01*
X0287347Y0035500D01*
X0286123Y0034993D01*
X0285700Y0034570D01*
X0274254Y0046016D01*
X0274254Y0111474D01*
X0273770Y0112641D01*
X0272877Y0113534D01*
X0185277Y0201134D01*
X0185277Y0234388D01*
X0189032Y0234388D01*
X0191734Y0237090D01*
X0191734Y0240910D01*
X0189032Y0243612D01*
X0185277Y0243612D01*
X0185277Y0244388D01*
X0189032Y0244388D01*
X0191734Y0247090D01*
X0191734Y0250910D01*
X0189032Y0253612D01*
X0185277Y0253612D01*
X0185277Y0254388D01*
X0189032Y0254388D01*
X0191734Y0257090D01*
X0191734Y0260910D01*
X0189032Y0263612D01*
X0185277Y0263612D01*
X0185277Y0264388D01*
X0189032Y0264388D01*
X0191734Y0267090D01*
X0191734Y0270910D01*
X0189032Y0273612D01*
X0185277Y0273612D01*
X0185277Y0274388D01*
X0189032Y0274388D01*
X0191734Y0277090D01*
X0191734Y0280896D01*
X0192205Y0280896D01*
X0194282Y0278819D01*
X0194282Y0260605D01*
X0194765Y0259438D01*
X0208938Y0245265D01*
X0209832Y0244372D01*
X0210319Y0244170D01*
X0222588Y0231900D01*
X0221324Y0231900D01*
X0219376Y0231094D01*
X0217885Y0229603D01*
X0217378Y0228379D01*
X0216871Y0229603D01*
X0215380Y0231094D01*
X0213432Y0231900D01*
X0211324Y0231900D01*
X0209376Y0231094D01*
X0207885Y0229603D01*
X0207378Y0228379D01*
X0206871Y0229603D01*
X0205380Y0231094D01*
X0203432Y0231900D01*
X0201324Y0231900D01*
X0199376Y0231094D01*
X0197885Y0229603D01*
X0197678Y0229103D01*
X0197678Y0230963D01*
X0196741Y0231900D01*
X0188015Y0231900D01*
X0187078Y0230963D01*
X0187078Y0222238D01*
X0188015Y0221300D01*
X0196741Y0221300D01*
X0197678Y0222238D01*
X0197678Y0224098D01*
X0197885Y0223598D01*
X0199376Y0222107D01*
X0201324Y0221300D01*
X0203432Y0221300D01*
X0205380Y0222107D01*
X0206871Y0223598D01*
X0207378Y0224822D01*
X0207885Y0223598D01*
X0209376Y0222107D01*
X0211324Y0221300D01*
X0213432Y0221300D01*
X0215380Y0222107D01*
X0216871Y0223598D01*
X0217378Y0224822D01*
X0217885Y0223598D01*
X0219376Y0222107D01*
X0221324Y0221300D01*
X0223432Y0221300D01*
X0225380Y0222107D01*
X0226871Y0223598D01*
X0227378Y0224822D01*
X0227885Y0223598D01*
X0229376Y0222107D01*
X0231324Y0221300D01*
X0233432Y0221300D01*
X0235380Y0222107D01*
X0236871Y0223598D01*
X0237378Y0224822D01*
X0237885Y0223598D01*
X0239376Y0222107D01*
X0241324Y0221300D01*
X0243432Y0221300D01*
X0245380Y0222107D01*
X0246871Y0223598D01*
X0247263Y0224544D01*
X0247281Y0224489D01*
X0247674Y0223718D01*
X0248183Y0223017D01*
X0248795Y0222405D01*
X0249495Y0221896D01*
X0250267Y0221503D01*
X0251090Y0221236D01*
X0251945Y0221100D01*
X0252178Y0221100D01*
X0252178Y0226400D01*
X0252578Y0226400D01*
X0252578Y0221100D01*
X0252811Y0221100D01*
X0253666Y0221236D01*
X0254489Y0221503D01*
X0255261Y0221896D01*
X0255961Y0222405D01*
X0256573Y0223017D01*
X0257082Y0223718D01*
X0257475Y0224489D01*
X0257493Y0224544D01*
X0257885Y0223598D01*
X0259376Y0222107D01*
X0261324Y0221300D01*
X0263209Y0221300D01*
X0313413Y0171435D01*
X0312134Y0170905D01*
X0311016Y0169787D01*
X0310547Y0168655D01*
X0307709Y0165598D01*
X0307087Y0165598D01*
X0306121Y0165998D01*
X0304540Y0165998D01*
X0303387Y0165521D01*
X0303387Y0175325D01*
X0303582Y0175520D01*
X0304187Y0176981D01*
X0304187Y0178562D01*
X0303582Y0180023D01*
X0302464Y0181141D01*
X0301003Y0181746D01*
X0299422Y0181746D01*
X0297961Y0181141D01*
X0296843Y0180023D01*
X0296238Y0178562D01*
X0296238Y0176981D01*
X0296843Y0175520D01*
X0297038Y0175325D01*
X0297038Y0165847D01*
X0296673Y0165998D01*
X0295091Y0165998D01*
X0294126Y0165598D01*
X0263780Y0165598D01*
X0262814Y0165998D01*
X0261233Y0165998D01*
X0259772Y0165393D01*
X0258654Y0164275D01*
X0258049Y0162814D01*
X0258049Y0161233D01*
X0258654Y0159772D01*
X0259772Y0158654D01*
X0261233Y0158049D01*
X0262814Y0158049D01*
X0263780Y0158449D01*
X0294126Y0158449D01*
X0295091Y0158049D01*
X0296673Y0158049D01*
X0297038Y0158200D01*
X0297038Y0112967D01*
X0297521Y0111800D01*
X0316325Y0092996D01*
X0316325Y0044821D01*
X0315007Y0043502D01*
X0314200Y0041554D01*
X0314200Y0039446D01*
X0315007Y0037498D01*
X0316498Y0036007D01*
X0317722Y0035500D01*
X0316498Y0034993D01*
X0315007Y0033502D01*
X0314200Y0031554D01*
X0314200Y0029446D01*
X0315007Y0027498D01*
X0316498Y0026007D01*
X0318446Y0025200D01*
X0320554Y0025200D01*
X0322502Y0026007D01*
X0324273Y0028175D02*
X0418389Y0028175D01*
X0419113Y0030639D02*
X0420808Y0029936D01*
X0422643Y0029936D01*
X0424338Y0030639D01*
X0425635Y0031936D01*
X0426337Y0033631D01*
X0426337Y0034105D01*
X0436490Y0044257D01*
X0437495Y0045262D01*
X0438039Y0046576D01*
X0438039Y0148561D01*
X0437495Y0149875D01*
X0427970Y0159401D01*
X0428376Y0159807D01*
X0428376Y0167156D01*
X0427438Y0168093D01*
X0420089Y0168093D01*
X0419152Y0167156D01*
X0419152Y0159807D01*
X0420089Y0158869D01*
X0420189Y0158869D01*
X0420189Y0157840D01*
X0420733Y0156526D01*
X0421739Y0155521D01*
X0430890Y0146370D01*
X0430890Y0048768D01*
X0421282Y0039160D01*
X0420808Y0039160D01*
X0419113Y0038458D01*
X0417816Y0037161D01*
X0417114Y0035466D01*
X0417114Y0033631D01*
X0417816Y0031936D01*
X0419113Y0030639D01*
X0418380Y0031372D02*
X0324800Y0031372D01*
X0324800Y0029773D02*
X0448956Y0029773D01*
X0448956Y0028175D02*
X0425061Y0028175D01*
X0424860Y0028376D02*
X0424247Y0028821D01*
X0423572Y0029165D01*
X0422852Y0029399D01*
X0422104Y0029518D01*
X0421929Y0029518D01*
X0421929Y0024910D01*
X0426537Y0024910D01*
X0426537Y0025084D01*
X0426419Y0025832D01*
X0426185Y0026553D01*
X0425841Y0027228D01*
X0425396Y0027840D01*
X0424860Y0028376D01*
X0426173Y0026576D02*
X0448956Y0026576D01*
X0448956Y0024978D02*
X0426537Y0024978D01*
X0426354Y0023379D02*
X0448956Y0023379D01*
X0448956Y0021781D02*
X0425548Y0021781D01*
X0423375Y0020182D02*
X0448956Y0020182D01*
X0448956Y0018584D02*
X0447541Y0018584D01*
X0440286Y0018584D02*
X0268725Y0018584D01*
X0268485Y0020182D02*
X0420076Y0020182D01*
X0421521Y0020182D02*
X0421929Y0020182D01*
X0421929Y0021781D02*
X0421521Y0021781D01*
X0421521Y0023379D02*
X0421929Y0023379D01*
X0421929Y0024978D02*
X0421521Y0024978D01*
X0421521Y0026576D02*
X0421929Y0026576D01*
X0421929Y0028175D02*
X0421521Y0028175D01*
X0425071Y0031372D02*
X0448956Y0031372D01*
X0448956Y0032970D02*
X0426064Y0032970D01*
X0426801Y0034569D02*
X0448956Y0034569D01*
X0448956Y0036167D02*
X0428400Y0036167D01*
X0429998Y0037766D02*
X0448956Y0037766D01*
X0448956Y0039364D02*
X0431597Y0039364D01*
X0433195Y0040963D02*
X0448956Y0040963D01*
X0448956Y0042561D02*
X0434794Y0042561D01*
X0436392Y0044160D02*
X0448956Y0044160D01*
X0448956Y0045758D02*
X0437701Y0045758D01*
X0438039Y0047357D02*
X0448956Y0047357D01*
X0448956Y0048955D02*
X0438039Y0048955D01*
X0438039Y0050554D02*
X0448956Y0050554D01*
X0448956Y0052152D02*
X0438039Y0052152D01*
X0438039Y0053751D02*
X0448956Y0053751D01*
X0448956Y0055349D02*
X0438039Y0055349D01*
X0438039Y0056948D02*
X0448956Y0056948D01*
X0448956Y0058546D02*
X0438039Y0058546D01*
X0438039Y0060145D02*
X0448956Y0060145D01*
X0448956Y0061743D02*
X0438039Y0061743D01*
X0438039Y0063342D02*
X0448956Y0063342D01*
X0448956Y0064940D02*
X0438039Y0064940D01*
X0438039Y0066539D02*
X0448956Y0066539D01*
X0448956Y0068137D02*
X0438039Y0068137D01*
X0438039Y0069736D02*
X0448956Y0069736D01*
X0448956Y0071334D02*
X0438039Y0071334D01*
X0438039Y0072933D02*
X0448956Y0072933D01*
X0448956Y0074532D02*
X0438039Y0074532D01*
X0438039Y0076130D02*
X0448956Y0076130D01*
X0448956Y0077729D02*
X0438039Y0077729D01*
X0438039Y0079327D02*
X0448956Y0079327D01*
X0448956Y0080926D02*
X0438039Y0080926D01*
X0438039Y0082524D02*
X0448956Y0082524D01*
X0448956Y0084123D02*
X0438039Y0084123D01*
X0438039Y0085721D02*
X0448956Y0085721D01*
X0448956Y0087320D02*
X0438039Y0087320D01*
X0438039Y0088918D02*
X0448956Y0088918D01*
X0448956Y0090517D02*
X0438039Y0090517D01*
X0438039Y0092115D02*
X0448956Y0092115D01*
X0448956Y0093714D02*
X0438039Y0093714D01*
X0438039Y0095312D02*
X0448956Y0095312D01*
X0448956Y0096911D02*
X0438039Y0096911D01*
X0438039Y0098509D02*
X0448956Y0098509D01*
X0448956Y0100108D02*
X0438039Y0100108D01*
X0438039Y0101706D02*
X0448956Y0101706D01*
X0448956Y0103305D02*
X0438039Y0103305D01*
X0438039Y0104903D02*
X0448956Y0104903D01*
X0448956Y0106502D02*
X0438039Y0106502D01*
X0438039Y0108100D02*
X0448956Y0108100D01*
X0448956Y0109699D02*
X0438039Y0109699D01*
X0438039Y0111297D02*
X0448956Y0111297D01*
X0448956Y0112896D02*
X0438039Y0112896D01*
X0438039Y0114494D02*
X0448956Y0114494D01*
X0448956Y0116093D02*
X0438039Y0116093D01*
X0438039Y0117691D02*
X0448956Y0117691D01*
X0448956Y0119290D02*
X0438039Y0119290D01*
X0438039Y0120888D02*
X0448956Y0120888D01*
X0448956Y0122487D02*
X0438039Y0122487D01*
X0438039Y0124085D02*
X0448956Y0124085D01*
X0448956Y0125684D02*
X0438039Y0125684D01*
X0438039Y0127282D02*
X0448956Y0127282D01*
X0448956Y0128881D02*
X0438039Y0128881D01*
X0438039Y0130479D02*
X0448956Y0130479D01*
X0448956Y0132078D02*
X0438039Y0132078D01*
X0438039Y0133676D02*
X0448956Y0133676D01*
X0448956Y0135275D02*
X0438039Y0135275D01*
X0438039Y0136873D02*
X0448956Y0136873D01*
X0448956Y0138472D02*
X0438039Y0138472D01*
X0438039Y0140070D02*
X0448956Y0140070D01*
X0448956Y0141669D02*
X0438039Y0141669D01*
X0438039Y0143268D02*
X0448956Y0143268D01*
X0448956Y0144866D02*
X0438039Y0144866D01*
X0438039Y0146465D02*
X0448956Y0146465D01*
X0448956Y0148063D02*
X0438039Y0148063D01*
X0437584Y0149662D02*
X0448956Y0149662D01*
X0448956Y0151260D02*
X0436110Y0151260D01*
X0434512Y0152859D02*
X0448956Y0152859D01*
X0448956Y0154457D02*
X0432913Y0154457D01*
X0431315Y0156056D02*
X0448956Y0156056D01*
X0448956Y0157654D02*
X0429716Y0157654D01*
X0428118Y0159253D02*
X0432226Y0159253D01*
X0432609Y0158869D02*
X0439958Y0158869D01*
X0440895Y0159807D01*
X0440895Y0167156D01*
X0439958Y0168093D01*
X0432609Y0168093D01*
X0431672Y0167156D01*
X0431672Y0159807D01*
X0432609Y0158869D01*
X0431672Y0160851D02*
X0428376Y0160851D01*
X0428376Y0162450D02*
X0431672Y0162450D01*
X0431672Y0164048D02*
X0428376Y0164048D01*
X0428376Y0165647D02*
X0431672Y0165647D01*
X0431761Y0167245D02*
X0428286Y0167245D01*
X0419241Y0167245D02*
X0403459Y0167245D01*
X0403492Y0167188D02*
X0403255Y0167598D01*
X0402920Y0167933D01*
X0402510Y0168170D01*
X0402052Y0168293D01*
X0399007Y0168293D01*
X0399007Y0163685D01*
X0403615Y0163685D01*
X0403615Y0166730D01*
X0403492Y0167188D01*
X0403615Y0165647D02*
X0419152Y0165647D01*
X0419152Y0164048D02*
X0403615Y0164048D01*
X0403615Y0163277D02*
X0399007Y0163277D01*
X0399007Y0158669D01*
X0402052Y0158669D01*
X0402510Y0158792D01*
X0402920Y0159029D01*
X0403255Y0159364D01*
X0403492Y0159775D01*
X0403615Y0160233D01*
X0403615Y0163277D01*
X0403615Y0162450D02*
X0419152Y0162450D01*
X0419152Y0160851D02*
X0403615Y0160851D01*
X0403144Y0159253D02*
X0419706Y0159253D01*
X0420266Y0157654D02*
X0362613Y0157654D01*
X0361015Y0156056D02*
X0421204Y0156056D01*
X0422802Y0154457D02*
X0359416Y0154457D01*
X0357818Y0152859D02*
X0424401Y0152859D01*
X0425999Y0151260D02*
X0356219Y0151260D01*
X0354915Y0149956D02*
X0390527Y0185568D01*
X0391071Y0186881D01*
X0391071Y0193329D01*
X0391989Y0194248D01*
X0392190Y0194733D01*
X0401834Y0204377D01*
X0402378Y0205690D01*
X0402378Y0221389D01*
X0402478Y0221389D01*
X0403415Y0222326D01*
X0403415Y0229676D01*
X0402478Y0230613D01*
X0395129Y0230613D01*
X0394191Y0229676D01*
X0394191Y0222326D01*
X0395129Y0221389D01*
X0395228Y0221389D01*
X0395228Y0207882D01*
X0392269Y0204923D01*
X0392796Y0206196D01*
X0392796Y0208304D01*
X0391989Y0210252D01*
X0390498Y0211743D01*
X0388550Y0212550D01*
X0386442Y0212550D01*
X0384494Y0211743D01*
X0383576Y0210825D01*
X0380353Y0210825D01*
X0356789Y0234388D01*
X0359032Y0234388D01*
X0361734Y0237090D01*
X0361734Y0240910D01*
X0359032Y0243612D01*
X0355212Y0243612D01*
X0352510Y0240910D01*
X0352510Y0238667D01*
X0351734Y0239444D01*
X0351734Y0240910D01*
X0349032Y0243612D01*
X0345212Y0243612D01*
X0342510Y0240910D01*
X0342510Y0237090D01*
X0345212Y0234388D01*
X0346678Y0234388D01*
X0376847Y0204219D01*
X0378161Y0203675D01*
X0383576Y0203675D01*
X0384494Y0202757D01*
X0385718Y0202250D01*
X0384494Y0201743D01*
X0383003Y0200252D01*
X0382196Y0198304D01*
X0382196Y0196196D01*
X0383003Y0194248D01*
X0383921Y0193329D01*
X0383921Y0189073D01*
X0349859Y0155011D01*
X0349674Y0155011D01*
X0348067Y0154346D01*
X0346837Y0153116D01*
X0346172Y0151509D01*
X0346172Y0149770D01*
X0346837Y0148163D01*
X0346969Y0148032D01*
X0346969Y0133496D01*
X0347513Y0132182D01*
X0370769Y0108925D01*
X0370071Y0108925D01*
X0368123Y0108118D01*
X0366632Y0106627D01*
X0366125Y0105403D01*
X0365618Y0106627D01*
X0364127Y0108118D01*
X0362179Y0108925D01*
X0360071Y0108925D01*
X0358123Y0108118D01*
X0356632Y0106627D01*
X0356125Y0105403D01*
X0355618Y0106627D01*
X0354127Y0108118D01*
X0352179Y0108925D01*
X0350071Y0108925D01*
X0348123Y0108118D01*
X0346632Y0106627D01*
X0345825Y0104679D01*
X0345825Y0102571D01*
X0346632Y0100623D01*
X0348123Y0099132D01*
X0350071Y0098325D01*
X0352179Y0098325D01*
X0354127Y0099132D01*
X0355618Y0100623D01*
X0356125Y0101847D01*
X0356632Y0100623D01*
X0358123Y0099132D01*
X0360071Y0098325D01*
X0362179Y0098325D01*
X0364127Y0099132D01*
X0365618Y0100623D01*
X0366125Y0101847D01*
X0366632Y0100623D01*
X0368123Y0099132D01*
X0370071Y0098325D01*
X0372179Y0098325D01*
X0374127Y0099132D01*
X0375618Y0100623D01*
X0376125Y0101847D01*
X0376632Y0100623D01*
X0378123Y0099132D01*
X0380071Y0098325D01*
X0382179Y0098325D01*
X0384127Y0099132D01*
X0385618Y0100623D01*
X0386125Y0101847D01*
X0386632Y0100623D01*
X0388123Y0099132D01*
X0390071Y0098325D01*
X0392179Y0098325D01*
X0394127Y0099132D01*
X0395618Y0100623D01*
X0396010Y0101569D01*
X0396028Y0101514D01*
X0396421Y0100742D01*
X0396930Y0100042D01*
X0397542Y0099430D01*
X0398242Y0098921D01*
X0399014Y0098528D01*
X0399837Y0098260D01*
X0400692Y0098125D01*
X0400925Y0098125D01*
X0400925Y0103425D01*
X0401325Y0103425D01*
X0401325Y0103825D01*
X0400925Y0103825D01*
X0400925Y0109125D01*
X0400692Y0109125D01*
X0399837Y0108990D01*
X0399014Y0108722D01*
X0398242Y0108329D01*
X0397542Y0107820D01*
X0396930Y0107208D01*
X0396421Y0106508D01*
X0396028Y0105736D01*
X0396010Y0105681D01*
X0395618Y0106627D01*
X0394127Y0108118D01*
X0392179Y0108925D01*
X0390071Y0108925D01*
X0388123Y0108118D01*
X0386632Y0106627D01*
X0386125Y0105403D01*
X0385618Y0106627D01*
X0384127Y0108118D01*
X0382179Y0108925D01*
X0380881Y0108925D01*
X0354118Y0135687D01*
X0354118Y0148032D01*
X0354249Y0148163D01*
X0354915Y0149770D01*
X0354915Y0149956D01*
X0354870Y0149662D02*
X0418793Y0149662D01*
X0419238Y0150107D02*
X0417941Y0148809D01*
X0417239Y0147114D01*
X0417239Y0145279D01*
X0417941Y0143584D01*
X0419238Y0142287D01*
X0420933Y0141585D01*
X0422768Y0141585D01*
X0424463Y0142287D01*
X0425760Y0143584D01*
X0426462Y0145279D01*
X0426462Y0147114D01*
X0425760Y0148809D01*
X0424463Y0150107D01*
X0422768Y0150809D01*
X0420933Y0150809D01*
X0419238Y0150107D01*
X0417632Y0148063D02*
X0354149Y0148063D01*
X0354118Y0146465D02*
X0417239Y0146465D01*
X0417410Y0144866D02*
X0354118Y0144866D01*
X0354118Y0143268D02*
X0418258Y0143268D01*
X0420730Y0141669D02*
X0354118Y0141669D01*
X0354118Y0140070D02*
X0418779Y0140070D01*
X0418716Y0140025D02*
X0418180Y0139489D01*
X0417735Y0138876D01*
X0417391Y0138201D01*
X0417157Y0137481D01*
X0417039Y0136733D01*
X0417039Y0136558D01*
X0421646Y0136558D01*
X0421646Y0136150D01*
X0417039Y0136150D01*
X0417039Y0135976D01*
X0417157Y0135228D01*
X0417391Y0134507D01*
X0417735Y0133832D01*
X0418180Y0133220D01*
X0418716Y0132684D01*
X0419328Y0132239D01*
X0420003Y0131895D01*
X0420724Y0131661D01*
X0421472Y0131543D01*
X0421646Y0131543D01*
X0421646Y0136150D01*
X0422054Y0136150D01*
X0422054Y0131543D01*
X0422229Y0131543D01*
X0422977Y0131661D01*
X0423697Y0131895D01*
X0424372Y0132239D01*
X0424985Y0132684D01*
X0425521Y0133220D01*
X0425966Y0133832D01*
X0426310Y0134507D01*
X0426544Y0135228D01*
X0426662Y0135976D01*
X0426662Y0136150D01*
X0422054Y0136150D01*
X0422054Y0136558D01*
X0421646Y0136558D01*
X0421646Y0141166D01*
X0421472Y0141166D01*
X0420724Y0141048D01*
X0420003Y0140814D01*
X0419328Y0140470D01*
X0418716Y0140025D01*
X0417529Y0138472D02*
X0354118Y0138472D01*
X0354118Y0136873D02*
X0417061Y0136873D01*
X0417150Y0135275D02*
X0354531Y0135275D01*
X0356129Y0133676D02*
X0417848Y0133676D01*
X0419644Y0132078D02*
X0357728Y0132078D01*
X0359326Y0130479D02*
X0430890Y0130479D01*
X0430890Y0128881D02*
X0360925Y0128881D01*
X0362523Y0127282D02*
X0430890Y0127282D01*
X0430890Y0125684D02*
X0364122Y0125684D01*
X0365720Y0124085D02*
X0430890Y0124085D01*
X0430890Y0122487D02*
X0367319Y0122487D01*
X0368917Y0120888D02*
X0419110Y0120888D01*
X0419185Y0120963D02*
X0417888Y0119666D01*
X0417185Y0117970D01*
X0417185Y0116136D01*
X0417888Y0114441D01*
X0419185Y0113143D01*
X0420880Y0112441D01*
X0422715Y0112441D01*
X0424410Y0113143D01*
X0425707Y0114441D01*
X0426409Y0116136D01*
X0426409Y0117970D01*
X0425707Y0119666D01*
X0424410Y0120963D01*
X0422715Y0121665D01*
X0420880Y0121665D01*
X0419185Y0120963D01*
X0417732Y0119290D02*
X0370516Y0119290D01*
X0372114Y0117691D02*
X0417185Y0117691D01*
X0417203Y0116093D02*
X0373713Y0116093D01*
X0375311Y0114494D02*
X0417865Y0114494D01*
X0419783Y0112896D02*
X0376910Y0112896D01*
X0378508Y0111297D02*
X0419236Y0111297D01*
X0419275Y0111326D02*
X0418663Y0110881D01*
X0418127Y0110345D01*
X0417682Y0109733D01*
X0417338Y0109058D01*
X0417104Y0108337D01*
X0416985Y0107589D01*
X0416985Y0107415D01*
X0421593Y0107415D01*
X0421593Y0112022D01*
X0421419Y0112022D01*
X0420670Y0111904D01*
X0419950Y0111670D01*
X0419275Y0111326D01*
X0417665Y0109699D02*
X0380107Y0109699D01*
X0384145Y0108100D02*
X0388105Y0108100D01*
X0386580Y0106502D02*
X0385670Y0106502D01*
X0386067Y0101706D02*
X0386183Y0101706D01*
X0387147Y0100108D02*
X0385103Y0100108D01*
X0382624Y0098509D02*
X0389626Y0098509D01*
X0392624Y0098509D02*
X0399071Y0098509D01*
X0400925Y0098509D02*
X0401325Y0098509D01*
X0401325Y0098125D02*
X0401558Y0098125D01*
X0402413Y0098260D01*
X0403236Y0098528D01*
X0404008Y0098921D01*
X0404708Y0099430D01*
X0405320Y0100042D01*
X0405829Y0100742D01*
X0406222Y0101514D01*
X0406490Y0102337D01*
X0406625Y0103192D01*
X0406625Y0103425D01*
X0401325Y0103425D01*
X0401325Y0098125D01*
X0403179Y0098509D02*
X0430890Y0098509D01*
X0430890Y0096911D02*
X0321390Y0096911D01*
X0322522Y0095312D02*
X0430890Y0095312D01*
X0430890Y0093714D02*
X0424631Y0093714D01*
X0425236Y0093463D02*
X0423541Y0094165D01*
X0421707Y0094165D01*
X0420012Y0093463D01*
X0418714Y0092166D01*
X0418012Y0090470D01*
X0418012Y0088636D01*
X0418714Y0086941D01*
X0420012Y0085643D01*
X0421707Y0084941D01*
X0423541Y0084941D01*
X0425236Y0085643D01*
X0426534Y0086941D01*
X0427236Y0088636D01*
X0427236Y0090470D01*
X0426534Y0092166D01*
X0425236Y0093463D01*
X0426555Y0092115D02*
X0430890Y0092115D01*
X0430890Y0090517D02*
X0427217Y0090517D01*
X0427236Y0088918D02*
X0430890Y0088918D01*
X0430890Y0087320D02*
X0426691Y0087320D01*
X0425314Y0085721D02*
X0430890Y0085721D01*
X0430890Y0084123D02*
X0424564Y0084123D01*
X0424471Y0084170D02*
X0423751Y0084404D01*
X0423003Y0084522D01*
X0422828Y0084522D01*
X0422828Y0079915D01*
X0422420Y0079915D01*
X0422420Y0084522D01*
X0422245Y0084522D01*
X0421497Y0084404D01*
X0420777Y0084170D01*
X0420102Y0083826D01*
X0419489Y0083381D01*
X0418954Y0082845D01*
X0418509Y0082233D01*
X0418165Y0081558D01*
X0417931Y0080837D01*
X0417812Y0080089D01*
X0417812Y0079915D01*
X0422420Y0079915D01*
X0422420Y0079507D01*
X0417812Y0079507D01*
X0417812Y0079332D01*
X0417931Y0078584D01*
X0418165Y0077864D01*
X0418509Y0077189D01*
X0418954Y0076576D01*
X0419489Y0076040D01*
X0420102Y0075595D01*
X0420777Y0075251D01*
X0421497Y0075017D01*
X0422245Y0074899D01*
X0422420Y0074899D01*
X0422420Y0079507D01*
X0422828Y0079507D01*
X0422828Y0079915D01*
X0427436Y0079915D01*
X0427436Y0080089D01*
X0427317Y0080837D01*
X0427083Y0081558D01*
X0426739Y0082233D01*
X0426294Y0082845D01*
X0425759Y0083381D01*
X0425146Y0083826D01*
X0424471Y0084170D01*
X0422828Y0084123D02*
X0422420Y0084123D01*
X0422420Y0082524D02*
X0422828Y0082524D01*
X0422828Y0080926D02*
X0422420Y0080926D01*
X0422828Y0079507D02*
X0427436Y0079507D01*
X0427436Y0079332D01*
X0427317Y0078584D01*
X0427083Y0077864D01*
X0426739Y0077189D01*
X0426294Y0076576D01*
X0425759Y0076040D01*
X0425146Y0075595D01*
X0424471Y0075251D01*
X0423751Y0075017D01*
X0423003Y0074899D01*
X0422828Y0074899D01*
X0422828Y0079507D01*
X0422828Y0079327D02*
X0422420Y0079327D01*
X0422420Y0077729D02*
X0422828Y0077729D01*
X0422828Y0076130D02*
X0422420Y0076130D01*
X0419400Y0076130D02*
X0322675Y0076130D01*
X0322675Y0074532D02*
X0430890Y0074532D01*
X0430890Y0076130D02*
X0425848Y0076130D01*
X0427014Y0077729D02*
X0430890Y0077729D01*
X0430890Y0079327D02*
X0427435Y0079327D01*
X0427289Y0080926D02*
X0430890Y0080926D01*
X0430890Y0082524D02*
X0426528Y0082524D01*
X0420684Y0084123D02*
X0322675Y0084123D01*
X0322675Y0085721D02*
X0419934Y0085721D01*
X0418557Y0087320D02*
X0322675Y0087320D01*
X0322675Y0088918D02*
X0418012Y0088918D01*
X0418031Y0090517D02*
X0322675Y0090517D01*
X0322675Y0092115D02*
X0418693Y0092115D01*
X0420617Y0093714D02*
X0322675Y0093714D01*
X0319500Y0094311D02*
X0300213Y0113598D01*
X0300213Y0177772D01*
X0301280Y0181632D02*
X0303147Y0181632D01*
X0303572Y0180033D02*
X0304756Y0180033D01*
X0304187Y0178435D02*
X0306366Y0178435D01*
X0307975Y0176836D02*
X0304127Y0176836D01*
X0303387Y0175238D02*
X0309585Y0175238D01*
X0311194Y0173639D02*
X0303387Y0173639D01*
X0303387Y0172041D02*
X0312803Y0172041D01*
X0311671Y0170442D02*
X0303387Y0170442D01*
X0303387Y0168844D02*
X0310625Y0168844D01*
X0309238Y0167245D02*
X0303387Y0167245D01*
X0303387Y0165647D02*
X0303691Y0165647D01*
X0306971Y0165647D02*
X0307754Y0165647D01*
X0313057Y0160851D02*
X0316712Y0160851D01*
X0316715Y0159253D02*
X0311573Y0159253D01*
X0314542Y0162450D02*
X0317458Y0162450D01*
X0317510Y0164048D02*
X0316353Y0164048D01*
X0320685Y0160055D02*
X0320685Y0168687D01*
X0262378Y0226600D01*
X0247033Y0241945D01*
X0236433Y0241945D01*
X0219504Y0256906D01*
X0219504Y0264386D01*
X0219504Y0278165D01*
X0219504Y0303362D01*
X0219504Y0315173D01*
X0218717Y0329740D01*
X0220049Y0333490D02*
X0254571Y0333490D01*
X0256169Y0331892D02*
X0222128Y0331892D01*
X0222691Y0330293D02*
X0257768Y0330293D01*
X0259366Y0328695D02*
X0222586Y0328695D01*
X0222039Y0327096D02*
X0260965Y0327096D01*
X0262564Y0325498D02*
X0222125Y0325498D01*
X0222212Y0323899D02*
X0264162Y0323899D01*
X0265761Y0322301D02*
X0222298Y0322301D01*
X0222384Y0320702D02*
X0267359Y0320702D01*
X0268958Y0319104D02*
X0222471Y0319104D01*
X0222793Y0317505D02*
X0270556Y0317505D01*
X0272155Y0315907D02*
X0223479Y0315907D01*
X0223448Y0314308D02*
X0273753Y0314308D01*
X0275352Y0312710D02*
X0222679Y0312710D01*
X0222679Y0311111D02*
X0276950Y0311111D01*
X0278534Y0309527D02*
X0278534Y0276281D01*
X0277945Y0275692D01*
X0277340Y0274232D01*
X0277340Y0272650D01*
X0277945Y0271189D01*
X0279063Y0270071D01*
X0280524Y0269466D01*
X0281569Y0269466D01*
X0321817Y0236881D01*
X0321356Y0235767D01*
X0321356Y0234186D01*
X0321961Y0232725D01*
X0323079Y0231607D01*
X0324540Y0231002D01*
X0326121Y0231002D01*
X0327582Y0231607D01*
X0328700Y0232725D01*
X0329305Y0234186D01*
X0329305Y0235767D01*
X0328700Y0237228D01*
X0328505Y0237423D01*
X0328505Y0237661D01*
X0328554Y0237826D01*
X0328505Y0238288D01*
X0328505Y0238753D01*
X0328440Y0238911D01*
X0328422Y0239082D01*
X0328200Y0239490D01*
X0328022Y0239920D01*
X0327901Y0240041D01*
X0327819Y0240192D01*
X0327458Y0240484D01*
X0327129Y0240813D01*
X0326971Y0240878D01*
X0285046Y0274821D01*
X0284883Y0275212D01*
X0284883Y0311474D01*
X0284400Y0312641D01*
X0219542Y0377499D01*
X0219542Y0377775D01*
X0218937Y0379236D01*
X0217818Y0380354D01*
X0216358Y0380959D01*
X0214776Y0380959D01*
X0213315Y0380354D01*
X0212197Y0379236D01*
X0211592Y0377775D01*
X0211592Y0376194D01*
X0212197Y0374733D01*
X0213315Y0373615D01*
X0214776Y0373009D01*
X0215052Y0373009D01*
X0278534Y0309527D01*
X0278534Y0309513D02*
X0222679Y0309513D01*
X0222679Y0307914D02*
X0278534Y0307914D01*
X0278534Y0306316D02*
X0222679Y0306316D01*
X0223245Y0304717D02*
X0278534Y0304717D01*
X0278534Y0303119D02*
X0223479Y0303119D01*
X0223043Y0301520D02*
X0278534Y0301520D01*
X0278534Y0299922D02*
X0222679Y0299922D01*
X0222679Y0298323D02*
X0278534Y0298323D01*
X0278534Y0296725D02*
X0222679Y0296725D01*
X0222679Y0295126D02*
X0278534Y0295126D01*
X0278534Y0293528D02*
X0222679Y0293528D01*
X0222679Y0291929D02*
X0278534Y0291929D01*
X0278534Y0290331D02*
X0222679Y0290331D01*
X0222679Y0288732D02*
X0278534Y0288732D01*
X0278534Y0287134D02*
X0222679Y0287134D01*
X0222679Y0285535D02*
X0278534Y0285535D01*
X0278534Y0283937D02*
X0222679Y0283937D01*
X0222679Y0282338D02*
X0278534Y0282338D01*
X0278534Y0280739D02*
X0222679Y0280739D01*
X0223402Y0279141D02*
X0278534Y0279141D01*
X0278534Y0277542D02*
X0250467Y0277542D01*
X0252460Y0275944D02*
X0278197Y0275944D01*
X0277387Y0274345D02*
X0253006Y0274345D01*
X0252883Y0272747D02*
X0277340Y0272747D01*
X0277986Y0271148D02*
X0252206Y0271148D01*
X0252206Y0269550D02*
X0280322Y0269550D01*
X0283440Y0267951D02*
X0252206Y0267951D01*
X0252206Y0266353D02*
X0285414Y0266353D01*
X0287389Y0264754D02*
X0252206Y0264754D01*
X0252206Y0263156D02*
X0289363Y0263156D01*
X0291338Y0261557D02*
X0252206Y0261557D01*
X0252206Y0259959D02*
X0293312Y0259959D01*
X0295287Y0258360D02*
X0252206Y0258360D01*
X0252206Y0256762D02*
X0297261Y0256762D01*
X0299235Y0255163D02*
X0252206Y0255163D01*
X0252206Y0253565D02*
X0301210Y0253565D01*
X0303184Y0251966D02*
X0252499Y0251966D01*
X0254025Y0250368D02*
X0305159Y0250368D01*
X0307133Y0248769D02*
X0255551Y0248769D01*
X0257078Y0247171D02*
X0309108Y0247171D01*
X0311082Y0245572D02*
X0258604Y0245572D01*
X0260131Y0243974D02*
X0313057Y0243974D01*
X0315031Y0242375D02*
X0261657Y0242375D01*
X0263183Y0240777D02*
X0317005Y0240777D01*
X0318980Y0239178D02*
X0294428Y0239178D01*
X0294310Y0239227D02*
X0292729Y0239227D01*
X0291268Y0238622D01*
X0290150Y0237504D01*
X0289545Y0236043D01*
X0289545Y0234461D01*
X0290150Y0233000D01*
X0291268Y0231882D01*
X0292729Y0231277D01*
X0294310Y0231277D01*
X0295771Y0231882D01*
X0296889Y0233000D01*
X0297494Y0234461D01*
X0297494Y0236043D01*
X0296889Y0237504D01*
X0295771Y0238622D01*
X0294310Y0239227D01*
X0292612Y0239178D02*
X0264710Y0239178D01*
X0266236Y0237580D02*
X0290226Y0237580D01*
X0289545Y0235981D02*
X0267763Y0235981D01*
X0269289Y0234383D02*
X0289577Y0234383D01*
X0290366Y0232784D02*
X0270815Y0232784D01*
X0272342Y0231186D02*
X0324096Y0231186D01*
X0326566Y0231186D02*
X0349881Y0231186D01*
X0348282Y0232784D02*
X0328725Y0232784D01*
X0329305Y0234383D02*
X0346684Y0234383D01*
X0343619Y0235981D02*
X0329217Y0235981D01*
X0328505Y0237580D02*
X0342510Y0237580D01*
X0342510Y0239178D02*
X0328370Y0239178D01*
X0327165Y0240777D02*
X0342510Y0240777D01*
X0343975Y0242375D02*
X0325122Y0242375D01*
X0323148Y0243974D02*
X0372163Y0243974D01*
X0372433Y0244243D02*
X0370942Y0242752D01*
X0370135Y0240804D01*
X0370135Y0238696D01*
X0370942Y0236748D01*
X0372433Y0235257D01*
X0374381Y0234450D01*
X0376489Y0234450D01*
X0378437Y0235257D01*
X0379928Y0236748D01*
X0380735Y0238696D01*
X0380735Y0240804D01*
X0379928Y0242752D01*
X0378437Y0244243D01*
X0376489Y0245050D01*
X0374381Y0245050D01*
X0372433Y0244243D01*
X0372982Y0245572D02*
X0360216Y0245572D01*
X0359032Y0244388D02*
X0361734Y0247090D01*
X0361734Y0249122D01*
X0366264Y0253652D01*
X0370592Y0253652D01*
X0370442Y0253502D01*
X0369635Y0251554D01*
X0369635Y0249446D01*
X0370442Y0247498D01*
X0371933Y0246007D01*
X0373881Y0245200D01*
X0375989Y0245200D01*
X0377937Y0246007D01*
X0379428Y0247498D01*
X0380235Y0249446D01*
X0380235Y0251554D01*
X0379428Y0253502D01*
X0379278Y0253652D01*
X0435520Y0253652D01*
X0435551Y0253621D01*
X0436941Y0253046D01*
X0438445Y0253046D01*
X0439835Y0253621D01*
X0440898Y0254685D01*
X0441474Y0256075D01*
X0441474Y0257579D01*
X0440898Y0258969D01*
X0439835Y0260032D01*
X0438445Y0260608D01*
X0436941Y0260608D01*
X0435551Y0260032D01*
X0435520Y0260002D01*
X0364317Y0260002D01*
X0363150Y0259518D01*
X0362257Y0258625D01*
X0361734Y0258102D01*
X0361734Y0260817D01*
X0364045Y0260817D01*
X0364328Y0260756D01*
X0364670Y0260817D01*
X0365017Y0260817D01*
X0365286Y0260928D01*
X0365571Y0260980D01*
X0365863Y0261168D01*
X0366184Y0261301D01*
X0366390Y0261506D01*
X0366421Y0261526D01*
X0435520Y0261526D01*
X0435551Y0261495D01*
X0436941Y0260920D01*
X0438445Y0260920D01*
X0439835Y0261495D01*
X0440898Y0262559D01*
X0441474Y0263949D01*
X0441474Y0265453D01*
X0440898Y0266843D01*
X0439835Y0267906D01*
X0438445Y0268482D01*
X0436941Y0268482D01*
X0435551Y0267906D01*
X0435520Y0267876D01*
X0365829Y0267876D01*
X0365546Y0267937D01*
X0365204Y0267876D01*
X0364857Y0267876D01*
X0364588Y0267764D01*
X0364303Y0267713D01*
X0364011Y0267525D01*
X0363690Y0267392D01*
X0363484Y0267187D01*
X0363453Y0267167D01*
X0361734Y0267167D01*
X0361734Y0270660D01*
X0365827Y0270660D01*
X0366603Y0269883D01*
X0367770Y0269400D01*
X0435520Y0269400D01*
X0435551Y0269369D01*
X0436941Y0268794D01*
X0438445Y0268794D01*
X0439835Y0269369D01*
X0440898Y0270433D01*
X0441474Y0271823D01*
X0441474Y0273327D01*
X0440898Y0274717D01*
X0439835Y0275780D01*
X0438445Y0276356D01*
X0436941Y0276356D01*
X0435551Y0275780D01*
X0435520Y0275750D01*
X0369717Y0275750D01*
X0368940Y0276526D01*
X0367773Y0277009D01*
X0361654Y0277009D01*
X0361734Y0277090D01*
X0361734Y0280896D01*
X0413464Y0280896D01*
X0415710Y0278650D01*
X0416603Y0277757D01*
X0417770Y0277274D01*
X0435520Y0277274D01*
X0435551Y0277243D01*
X0436941Y0276668D01*
X0438445Y0276668D01*
X0439835Y0277243D01*
X0440898Y0278307D01*
X0441474Y0279697D01*
X0441474Y0281201D01*
X0440898Y0282591D01*
X0439835Y0283654D01*
X0438445Y0284230D01*
X0436941Y0284230D01*
X0435551Y0283654D01*
X0435520Y0283624D01*
X0419717Y0283624D01*
X0416578Y0286762D01*
X0415411Y0287246D01*
X0361734Y0287246D01*
X0361734Y0290739D01*
X0383128Y0290739D01*
X0384294Y0291222D01*
X0387669Y0294597D01*
X0435520Y0294597D01*
X0435551Y0294566D01*
X0436941Y0293991D01*
X0438445Y0293991D01*
X0439835Y0294566D01*
X0440898Y0295630D01*
X0441474Y0297020D01*
X0441474Y0298524D01*
X0440898Y0299913D01*
X0439835Y0300977D01*
X0438445Y0301553D01*
X0436941Y0301553D01*
X0435551Y0300977D01*
X0435520Y0300946D01*
X0385723Y0300946D01*
X0384556Y0300463D01*
X0383663Y0299570D01*
X0381181Y0297088D01*
X0361732Y0297088D01*
X0361734Y0297090D01*
X0361734Y0300910D01*
X0361669Y0300975D01*
X0383128Y0300975D01*
X0384294Y0301458D01*
X0385307Y0302471D01*
X0435520Y0302471D01*
X0435551Y0302440D01*
X0436941Y0301865D01*
X0438445Y0301865D01*
X0439835Y0302440D01*
X0440898Y0303504D01*
X0441474Y0304894D01*
X0441474Y0306398D01*
X0440898Y0307787D01*
X0439835Y0308851D01*
X0438445Y0309427D01*
X0436941Y0309427D01*
X0435551Y0308851D01*
X0435520Y0308820D01*
X0383361Y0308820D01*
X0382194Y0308337D01*
X0381301Y0307444D01*
X0381181Y0307324D01*
X0361734Y0307324D01*
X0361734Y0310562D01*
X0362258Y0310345D01*
X0435520Y0310345D01*
X0435551Y0310314D01*
X0436941Y0309739D01*
X0438445Y0309739D01*
X0439835Y0310314D01*
X0440898Y0311378D01*
X0441474Y0312768D01*
X0441474Y0314272D01*
X0440898Y0315662D01*
X0439835Y0316725D01*
X0438445Y0317301D01*
X0436941Y0317301D01*
X0435551Y0316725D01*
X0435520Y0316694D01*
X0364189Y0316694D01*
X0363049Y0317167D01*
X0361734Y0317167D01*
X0361734Y0320660D01*
X0391417Y0320660D01*
X0392482Y0319595D01*
X0393375Y0318702D01*
X0394542Y0318219D01*
X0435520Y0318219D01*
X0435551Y0318188D01*
X0436941Y0317613D01*
X0438445Y0317613D01*
X0439835Y0318188D01*
X0440898Y0319252D01*
X0441474Y0320642D01*
X0441474Y0322146D01*
X0440898Y0323536D01*
X0439835Y0324599D01*
X0438445Y0325175D01*
X0436941Y0325175D01*
X0435551Y0324599D01*
X0435520Y0324568D01*
X0396488Y0324568D01*
X0394531Y0326526D01*
X0393364Y0327009D01*
X0361654Y0327009D01*
X0361734Y0327090D01*
X0361734Y0330910D01*
X0359032Y0333612D01*
X0355212Y0333612D01*
X0352510Y0330910D01*
X0352510Y0327090D01*
X0352591Y0327009D01*
X0351654Y0327009D01*
X0351734Y0327090D01*
X0351734Y0330910D01*
X0349032Y0333612D01*
X0345212Y0333612D01*
X0342757Y0331157D01*
X0342757Y0336046D01*
X0345846Y0337590D01*
X0345879Y0337576D01*
X0347460Y0337576D01*
X0348921Y0338182D01*
X0350039Y0339300D01*
X0350644Y0340761D01*
X0350644Y0342342D01*
X0350039Y0343803D01*
X0348921Y0344921D01*
X0347460Y0345526D01*
X0345879Y0345526D01*
X0344418Y0344921D01*
X0343300Y0343803D01*
X0343098Y0343315D01*
X0338264Y0340898D01*
X0337784Y0340699D01*
X0337702Y0340617D01*
X0337598Y0340565D01*
X0337258Y0340173D01*
X0336891Y0339806D01*
X0336847Y0339699D01*
X0336770Y0339611D01*
X0336606Y0339119D01*
X0336408Y0338639D01*
X0336408Y0338523D01*
X0336371Y0338413D01*
X0336408Y0337895D01*
X0336408Y0297935D01*
X0336213Y0297740D01*
X0335608Y0296279D01*
X0335608Y0294698D01*
X0336213Y0293237D01*
X0337331Y0292119D01*
X0338792Y0291513D01*
X0340373Y0291513D01*
X0341834Y0292119D01*
X0342952Y0293237D01*
X0343557Y0294698D01*
X0343557Y0296043D01*
X0345212Y0294388D01*
X0348020Y0294388D01*
X0347244Y0293612D01*
X0345212Y0293612D01*
X0342510Y0290910D01*
X0342510Y0287090D01*
X0345212Y0284388D01*
X0348020Y0284388D01*
X0347244Y0283612D01*
X0345212Y0283612D01*
X0342510Y0280910D01*
X0342510Y0277090D01*
X0345212Y0274388D01*
X0348020Y0274388D01*
X0347244Y0273612D01*
X0345212Y0273612D01*
X0342510Y0270910D01*
X0342510Y0267090D01*
X0345212Y0264388D01*
X0347241Y0264388D01*
X0346649Y0263612D01*
X0345212Y0263612D01*
X0342510Y0260910D01*
X0342510Y0257090D01*
X0345212Y0254388D01*
X0349032Y0254388D01*
X0351734Y0257090D01*
X0351734Y0259809D01*
X0352504Y0260817D01*
X0352510Y0260817D01*
X0352510Y0257090D01*
X0355212Y0254388D01*
X0358020Y0254388D01*
X0357244Y0253612D01*
X0355212Y0253612D01*
X0352510Y0250910D01*
X0352510Y0247090D01*
X0355212Y0244388D01*
X0359032Y0244388D01*
X0360269Y0242375D02*
X0370786Y0242375D01*
X0370135Y0240777D02*
X0361734Y0240777D01*
X0361734Y0239178D02*
X0370135Y0239178D01*
X0370597Y0237580D02*
X0361734Y0237580D01*
X0360625Y0235981D02*
X0371709Y0235981D01*
X0379162Y0235981D02*
X0448956Y0235981D01*
X0448956Y0234383D02*
X0356795Y0234383D01*
X0358393Y0232784D02*
X0448956Y0232784D01*
X0448956Y0231186D02*
X0359992Y0231186D01*
X0361590Y0229587D02*
X0394191Y0229587D01*
X0394191Y0227989D02*
X0363189Y0227989D01*
X0364787Y0226390D02*
X0394191Y0226390D01*
X0394191Y0224792D02*
X0366386Y0224792D01*
X0367984Y0223193D02*
X0394191Y0223193D01*
X0394923Y0221595D02*
X0369583Y0221595D01*
X0371182Y0219996D02*
X0395228Y0219996D01*
X0395228Y0218398D02*
X0372780Y0218398D01*
X0374379Y0216799D02*
X0395228Y0216799D01*
X0395228Y0215201D02*
X0375977Y0215201D01*
X0377576Y0213602D02*
X0395228Y0213602D01*
X0395228Y0212003D02*
X0389870Y0212003D01*
X0391836Y0210405D02*
X0395228Y0210405D01*
X0395228Y0208806D02*
X0392588Y0208806D01*
X0392796Y0207208D02*
X0394554Y0207208D01*
X0392956Y0205609D02*
X0392553Y0205609D01*
X0398271Y0200814D02*
X0448956Y0200814D01*
X0448956Y0202412D02*
X0399870Y0202412D01*
X0401468Y0204011D02*
X0448956Y0204011D01*
X0448956Y0205609D02*
X0402344Y0205609D01*
X0402378Y0207208D02*
X0448956Y0207208D01*
X0448956Y0208806D02*
X0402378Y0208806D01*
X0402378Y0210405D02*
X0448956Y0210405D01*
X0448956Y0212003D02*
X0402378Y0212003D01*
X0402378Y0213602D02*
X0448956Y0213602D01*
X0448956Y0215201D02*
X0402378Y0215201D01*
X0402378Y0216799D02*
X0448956Y0216799D01*
X0448956Y0218398D02*
X0402378Y0218398D01*
X0402378Y0219996D02*
X0448956Y0219996D01*
X0448956Y0221595D02*
X0440183Y0221595D01*
X0439978Y0221389D02*
X0440915Y0222326D01*
X0440915Y0229676D01*
X0439978Y0230613D01*
X0432629Y0230613D01*
X0431691Y0229676D01*
X0431691Y0222326D01*
X0432629Y0221389D01*
X0439978Y0221389D01*
X0440915Y0223193D02*
X0448956Y0223193D01*
X0448956Y0224792D02*
X0440915Y0224792D01*
X0440915Y0226390D02*
X0448956Y0226390D01*
X0448956Y0227989D02*
X0440915Y0227989D01*
X0440915Y0229587D02*
X0448956Y0229587D01*
X0448956Y0237580D02*
X0380273Y0237580D01*
X0380735Y0239178D02*
X0448956Y0239178D01*
X0448956Y0240777D02*
X0406637Y0240777D01*
X0406515Y0240726D02*
X0407976Y0241331D01*
X0409094Y0242449D01*
X0409699Y0243910D01*
X0409699Y0245491D01*
X0409094Y0246952D01*
X0407976Y0248070D01*
X0406515Y0248676D01*
X0404934Y0248676D01*
X0403473Y0248070D01*
X0402355Y0246952D01*
X0401750Y0245491D01*
X0401750Y0243910D01*
X0402355Y0242449D01*
X0403473Y0241331D01*
X0404934Y0240726D01*
X0406515Y0240726D01*
X0404811Y0240777D02*
X0380735Y0240777D01*
X0380084Y0242375D02*
X0402429Y0242375D01*
X0401750Y0243974D02*
X0378707Y0243974D01*
X0376888Y0245572D02*
X0401783Y0245572D01*
X0402573Y0247171D02*
X0379101Y0247171D01*
X0379955Y0248769D02*
X0448956Y0248769D01*
X0448956Y0247171D02*
X0408876Y0247171D01*
X0409666Y0245572D02*
X0448956Y0245572D01*
X0448956Y0243974D02*
X0409699Y0243974D01*
X0409020Y0242375D02*
X0448956Y0242375D01*
X0448956Y0250368D02*
X0380235Y0250368D01*
X0380064Y0251966D02*
X0448956Y0251966D01*
X0448956Y0253565D02*
X0439698Y0253565D01*
X0441097Y0255163D02*
X0448956Y0255163D01*
X0448956Y0256762D02*
X0441474Y0256762D01*
X0441150Y0258360D02*
X0448956Y0258360D01*
X0448956Y0259959D02*
X0439908Y0259959D01*
X0439897Y0261557D02*
X0448956Y0261557D01*
X0448956Y0263156D02*
X0441146Y0263156D01*
X0441474Y0264754D02*
X0448956Y0264754D01*
X0448956Y0266353D02*
X0441101Y0266353D01*
X0439726Y0267951D02*
X0448956Y0267951D01*
X0448956Y0269550D02*
X0440015Y0269550D01*
X0441195Y0271148D02*
X0448956Y0271148D01*
X0448956Y0272747D02*
X0441474Y0272747D01*
X0441052Y0274345D02*
X0448956Y0274345D01*
X0448956Y0275944D02*
X0439440Y0275944D01*
X0440134Y0277542D02*
X0448956Y0277542D01*
X0448956Y0279141D02*
X0441244Y0279141D01*
X0441474Y0280739D02*
X0448956Y0280739D01*
X0448956Y0282338D02*
X0441003Y0282338D01*
X0439153Y0283937D02*
X0448956Y0283937D01*
X0448956Y0285535D02*
X0417805Y0285535D01*
X0419404Y0283937D02*
X0436232Y0283937D01*
X0437693Y0280449D02*
X0418402Y0280449D01*
X0414780Y0284071D01*
X0352193Y0284071D01*
X0347122Y0279000D01*
X0343938Y0282338D02*
X0284883Y0282338D01*
X0284883Y0283937D02*
X0347569Y0283937D01*
X0344065Y0285535D02*
X0284883Y0285535D01*
X0284883Y0287134D02*
X0342510Y0287134D01*
X0342510Y0288732D02*
X0284883Y0288732D01*
X0284883Y0290331D02*
X0342510Y0290331D01*
X0343529Y0291929D02*
X0341377Y0291929D01*
X0343073Y0293528D02*
X0345128Y0293528D01*
X0344474Y0295126D02*
X0343557Y0295126D01*
X0339583Y0295488D02*
X0339583Y0338008D01*
X0346669Y0341551D01*
X0350338Y0343081D02*
X0421573Y0343081D01*
X0422263Y0342796D02*
X0424097Y0342796D01*
X0425792Y0343498D01*
X0427090Y0344795D01*
X0427792Y0346490D01*
X0427792Y0348325D01*
X0427090Y0350020D01*
X0425792Y0351317D01*
X0424097Y0352019D01*
X0422263Y0352019D01*
X0420568Y0351317D01*
X0419270Y0350020D01*
X0418568Y0348325D01*
X0418568Y0346490D01*
X0419270Y0344795D01*
X0420568Y0343498D01*
X0422263Y0342796D01*
X0422263Y0342177D02*
X0420568Y0341475D01*
X0419270Y0340177D01*
X0418568Y0338482D01*
X0418568Y0336648D01*
X0419270Y0334953D01*
X0420568Y0333655D01*
X0422263Y0332953D01*
X0424097Y0332953D01*
X0425792Y0333655D01*
X0427090Y0334953D01*
X0427792Y0336648D01*
X0427792Y0338482D01*
X0427090Y0340177D01*
X0425792Y0341475D01*
X0424097Y0342177D01*
X0422263Y0342177D01*
X0420588Y0341483D02*
X0350644Y0341483D01*
X0350281Y0339884D02*
X0419149Y0339884D01*
X0418568Y0338286D02*
X0349025Y0338286D01*
X0349154Y0333490D02*
X0355090Y0333490D01*
X0353492Y0331892D02*
X0350752Y0331892D01*
X0351734Y0330293D02*
X0352510Y0330293D01*
X0352510Y0328695D02*
X0351734Y0328695D01*
X0351734Y0327096D02*
X0352510Y0327096D01*
X0351957Y0323835D02*
X0392732Y0323835D01*
X0395173Y0321394D01*
X0437693Y0321394D01*
X0440535Y0323899D02*
X0448956Y0323899D01*
X0448956Y0322301D02*
X0441410Y0322301D01*
X0441474Y0320702D02*
X0448956Y0320702D01*
X0448956Y0319104D02*
X0440750Y0319104D01*
X0440653Y0315907D02*
X0448956Y0315907D01*
X0448956Y0317505D02*
X0361734Y0317505D01*
X0361734Y0319104D02*
X0392973Y0319104D01*
X0395559Y0325498D02*
X0448956Y0325498D01*
X0448956Y0327096D02*
X0361734Y0327096D01*
X0361734Y0328695D02*
X0448956Y0328695D01*
X0448956Y0330293D02*
X0361734Y0330293D01*
X0360752Y0331892D02*
X0448956Y0331892D01*
X0448956Y0333490D02*
X0425394Y0333490D01*
X0427146Y0335089D02*
X0448956Y0335089D01*
X0448956Y0336687D02*
X0427792Y0336687D01*
X0427792Y0338286D02*
X0448956Y0338286D01*
X0448956Y0339884D02*
X0427211Y0339884D01*
X0425773Y0341483D02*
X0448956Y0341483D01*
X0448956Y0343081D02*
X0424787Y0343081D01*
X0426975Y0344680D02*
X0448956Y0344680D01*
X0448956Y0346278D02*
X0427704Y0346278D01*
X0427792Y0347877D02*
X0448956Y0347877D01*
X0448956Y0349475D02*
X0427315Y0349475D01*
X0426036Y0351074D02*
X0448956Y0351074D01*
X0448956Y0352672D02*
X0424180Y0352672D01*
X0424097Y0352638D02*
X0425792Y0353340D01*
X0427090Y0354638D01*
X0427792Y0356333D01*
X0427792Y0358167D01*
X0427090Y0359862D01*
X0425792Y0361160D01*
X0424097Y0361862D01*
X0422263Y0361862D01*
X0420568Y0361160D01*
X0419270Y0359862D01*
X0418568Y0358167D01*
X0418568Y0356333D01*
X0419270Y0354638D01*
X0420568Y0353340D01*
X0422263Y0352638D01*
X0424097Y0352638D01*
X0422180Y0352672D02*
X0244369Y0352672D01*
X0245967Y0351074D02*
X0420325Y0351074D01*
X0419045Y0349475D02*
X0247566Y0349475D01*
X0249164Y0347877D02*
X0418568Y0347877D01*
X0418656Y0346278D02*
X0250763Y0346278D01*
X0252361Y0344680D02*
X0344177Y0344680D01*
X0342631Y0343081D02*
X0253960Y0343081D01*
X0255558Y0341483D02*
X0339434Y0341483D01*
X0336969Y0339884D02*
X0257157Y0339884D01*
X0258755Y0338286D02*
X0336380Y0338286D01*
X0336408Y0336687D02*
X0260354Y0336687D01*
X0261952Y0335089D02*
X0336408Y0335089D01*
X0336408Y0333490D02*
X0263551Y0333490D01*
X0265149Y0331892D02*
X0336408Y0331892D01*
X0336408Y0330293D02*
X0266748Y0330293D01*
X0268346Y0328695D02*
X0336408Y0328695D01*
X0336408Y0327096D02*
X0269945Y0327096D01*
X0271543Y0325498D02*
X0336408Y0325498D01*
X0336408Y0323899D02*
X0273142Y0323899D01*
X0274740Y0322301D02*
X0336408Y0322301D01*
X0336408Y0320702D02*
X0276339Y0320702D01*
X0277937Y0319104D02*
X0336408Y0319104D01*
X0336408Y0317505D02*
X0279536Y0317505D01*
X0281134Y0315907D02*
X0336408Y0315907D01*
X0336408Y0314308D02*
X0282733Y0314308D01*
X0284331Y0312710D02*
X0336408Y0312710D01*
X0336408Y0311111D02*
X0284883Y0311111D01*
X0284883Y0309513D02*
X0336408Y0309513D01*
X0336408Y0307914D02*
X0284883Y0307914D01*
X0284883Y0306316D02*
X0336408Y0306316D01*
X0336408Y0304717D02*
X0284883Y0304717D01*
X0284883Y0303119D02*
X0336408Y0303119D01*
X0336408Y0301520D02*
X0284883Y0301520D01*
X0284883Y0299922D02*
X0336408Y0299922D01*
X0336408Y0298323D02*
X0284883Y0298323D01*
X0284883Y0296725D02*
X0335793Y0296725D01*
X0335608Y0295126D02*
X0284883Y0295126D01*
X0284883Y0293528D02*
X0336092Y0293528D01*
X0337789Y0291929D02*
X0284883Y0291929D01*
X0284883Y0280739D02*
X0342510Y0280739D01*
X0342510Y0279141D02*
X0284883Y0279141D01*
X0284883Y0277542D02*
X0342510Y0277542D01*
X0343656Y0275944D02*
X0284883Y0275944D01*
X0285633Y0274345D02*
X0347978Y0274345D01*
X0344347Y0272747D02*
X0287608Y0272747D01*
X0289582Y0271148D02*
X0342748Y0271148D01*
X0342510Y0269550D02*
X0291556Y0269550D01*
X0293531Y0267951D02*
X0342510Y0267951D01*
X0343247Y0266353D02*
X0295505Y0266353D01*
X0297480Y0264754D02*
X0344846Y0264754D01*
X0344756Y0263156D02*
X0299454Y0263156D01*
X0301429Y0261557D02*
X0343157Y0261557D01*
X0342510Y0259959D02*
X0303403Y0259959D01*
X0305378Y0258360D02*
X0342510Y0258360D01*
X0342838Y0256762D02*
X0307352Y0256762D01*
X0309326Y0255163D02*
X0344437Y0255163D01*
X0345129Y0253812D02*
X0342310Y0250993D01*
X0342310Y0249204D01*
X0346918Y0249204D01*
X0346918Y0248796D01*
X0342310Y0248796D01*
X0342310Y0247007D01*
X0345129Y0244188D01*
X0346918Y0244188D01*
X0346918Y0248796D01*
X0347326Y0248796D01*
X0347326Y0244188D01*
X0349115Y0244188D01*
X0351934Y0247007D01*
X0351934Y0248796D01*
X0347326Y0248796D01*
X0347326Y0249204D01*
X0346918Y0249204D01*
X0346918Y0253812D01*
X0345129Y0253812D01*
X0344882Y0253565D02*
X0311301Y0253565D01*
X0313275Y0251966D02*
X0343283Y0251966D01*
X0342310Y0250368D02*
X0315250Y0250368D01*
X0317224Y0248769D02*
X0342310Y0248769D01*
X0342310Y0247171D02*
X0319199Y0247171D01*
X0321173Y0245572D02*
X0343745Y0245572D01*
X0346918Y0245572D02*
X0347326Y0245572D01*
X0347326Y0247171D02*
X0346918Y0247171D01*
X0346918Y0248769D02*
X0347326Y0248769D01*
X0347122Y0249000D02*
X0313992Y0282130D01*
X0313992Y0288402D01*
X0313992Y0307693D01*
X0313992Y0324228D01*
X0314386Y0323835D01*
X0313992Y0324228D02*
X0313992Y0339189D01*
X0342757Y0335089D02*
X0419214Y0335089D01*
X0418568Y0336687D02*
X0344041Y0336687D01*
X0345090Y0333490D02*
X0342757Y0333490D01*
X0342757Y0331892D02*
X0343492Y0331892D01*
X0351957Y0323835D02*
X0347122Y0319000D01*
X0352114Y0313992D02*
X0362417Y0313992D01*
X0362890Y0313520D01*
X0437693Y0313520D01*
X0440632Y0311111D02*
X0448956Y0311111D01*
X0448956Y0309513D02*
X0361734Y0309513D01*
X0361734Y0307914D02*
X0381771Y0307914D01*
X0383992Y0305646D02*
X0382496Y0304150D01*
X0352272Y0304150D01*
X0347122Y0299000D01*
X0352035Y0293913D02*
X0382496Y0293913D01*
X0386354Y0297772D01*
X0437693Y0297772D01*
X0440395Y0295126D02*
X0448956Y0295126D01*
X0448956Y0293528D02*
X0386600Y0293528D01*
X0385002Y0291929D02*
X0448956Y0291929D01*
X0448956Y0290331D02*
X0361734Y0290331D01*
X0361734Y0288732D02*
X0448956Y0288732D01*
X0448956Y0287134D02*
X0415682Y0287134D01*
X0413621Y0280739D02*
X0361734Y0280739D01*
X0361734Y0279141D02*
X0415220Y0279141D01*
X0417122Y0277542D02*
X0361734Y0277542D01*
X0367142Y0273835D02*
X0368402Y0272575D01*
X0437693Y0272575D01*
X0435946Y0275944D02*
X0369522Y0275944D01*
X0367142Y0273835D02*
X0351957Y0273835D01*
X0347122Y0269000D01*
X0350933Y0263992D02*
X0364386Y0263992D01*
X0365488Y0264701D01*
X0437693Y0264701D01*
X0435660Y0267951D02*
X0361734Y0267951D01*
X0361734Y0269550D02*
X0367408Y0269550D01*
X0364214Y0259959D02*
X0361734Y0259959D01*
X0361734Y0258360D02*
X0361993Y0258360D01*
X0364949Y0256827D02*
X0437693Y0256827D01*
X0435688Y0253565D02*
X0379366Y0253565D01*
X0370505Y0253565D02*
X0366177Y0253565D01*
X0364578Y0251966D02*
X0369806Y0251966D01*
X0369635Y0250368D02*
X0362980Y0250368D01*
X0361734Y0248769D02*
X0369915Y0248769D01*
X0370769Y0247171D02*
X0361734Y0247171D01*
X0357122Y0249000D02*
X0364949Y0256827D01*
X0355165Y0253565D02*
X0349362Y0253565D01*
X0349115Y0253812D02*
X0347326Y0253812D01*
X0347326Y0249204D01*
X0351934Y0249204D01*
X0351934Y0250993D01*
X0349115Y0253812D01*
X0349807Y0255163D02*
X0354437Y0255163D01*
X0352838Y0256762D02*
X0351406Y0256762D01*
X0351734Y0258360D02*
X0352510Y0258360D01*
X0352510Y0259959D02*
X0351848Y0259959D01*
X0350933Y0263992D02*
X0347122Y0259000D01*
X0346918Y0253565D02*
X0347326Y0253565D01*
X0347326Y0251966D02*
X0346918Y0251966D01*
X0346918Y0250368D02*
X0347326Y0250368D01*
X0350961Y0251966D02*
X0353566Y0251966D01*
X0352510Y0250368D02*
X0351934Y0250368D01*
X0351934Y0248769D02*
X0352510Y0248769D01*
X0352510Y0247171D02*
X0351934Y0247171D01*
X0350499Y0245572D02*
X0354028Y0245572D01*
X0353975Y0242375D02*
X0350269Y0242375D01*
X0351734Y0240777D02*
X0352510Y0240777D01*
X0352510Y0239178D02*
X0351999Y0239178D01*
X0351479Y0229587D02*
X0273868Y0229587D01*
X0275395Y0227989D02*
X0353078Y0227989D01*
X0354676Y0226390D02*
X0276921Y0226390D01*
X0278447Y0224792D02*
X0356275Y0224792D01*
X0357873Y0223193D02*
X0279974Y0223193D01*
X0281500Y0221595D02*
X0359472Y0221595D01*
X0361070Y0219996D02*
X0283027Y0219996D01*
X0284553Y0218398D02*
X0362669Y0218398D01*
X0364267Y0216799D02*
X0286079Y0216799D01*
X0287606Y0215201D02*
X0365866Y0215201D01*
X0367465Y0213602D02*
X0289132Y0213602D01*
X0290658Y0212003D02*
X0369063Y0212003D01*
X0370662Y0210405D02*
X0292185Y0210405D01*
X0293711Y0208806D02*
X0372260Y0208806D01*
X0373859Y0207208D02*
X0295238Y0207208D01*
X0296764Y0205609D02*
X0375457Y0205609D01*
X0377350Y0204011D02*
X0298290Y0204011D01*
X0300305Y0202412D02*
X0385325Y0202412D01*
X0383565Y0200814D02*
X0302432Y0200814D01*
X0303006Y0199215D02*
X0382573Y0199215D01*
X0382196Y0197617D02*
X0302911Y0197617D01*
X0302033Y0196018D02*
X0382270Y0196018D01*
X0382932Y0194420D02*
X0299282Y0194420D01*
X0300892Y0192821D02*
X0383921Y0192821D01*
X0383921Y0191223D02*
X0302501Y0191223D01*
X0304110Y0189624D02*
X0383921Y0189624D01*
X0382874Y0188026D02*
X0305720Y0188026D01*
X0307329Y0186427D02*
X0381275Y0186427D01*
X0379677Y0184829D02*
X0308939Y0184829D01*
X0310548Y0183230D02*
X0378078Y0183230D01*
X0376480Y0181632D02*
X0312157Y0181632D01*
X0313767Y0180033D02*
X0374881Y0180033D01*
X0373283Y0178435D02*
X0315376Y0178435D01*
X0316986Y0176836D02*
X0371684Y0176836D01*
X0370086Y0175238D02*
X0318595Y0175238D01*
X0320204Y0173639D02*
X0368487Y0173639D01*
X0366889Y0172041D02*
X0321814Y0172041D01*
X0323394Y0170442D02*
X0365290Y0170442D01*
X0363692Y0168844D02*
X0323860Y0168844D01*
X0323860Y0167245D02*
X0362093Y0167245D01*
X0360495Y0165647D02*
X0323860Y0165647D01*
X0323860Y0164048D02*
X0358896Y0164048D01*
X0357298Y0162450D02*
X0323912Y0162450D01*
X0324658Y0160851D02*
X0355699Y0160851D01*
X0354101Y0159253D02*
X0324655Y0159253D01*
X0323905Y0157654D02*
X0352502Y0157654D01*
X0350904Y0156056D02*
X0303387Y0156056D01*
X0303387Y0157654D02*
X0317465Y0157654D01*
X0303387Y0154457D02*
X0348335Y0154457D01*
X0346731Y0152859D02*
X0303387Y0152859D01*
X0303387Y0151260D02*
X0346172Y0151260D01*
X0346217Y0149662D02*
X0303387Y0149662D01*
X0303387Y0148063D02*
X0346938Y0148063D01*
X0346969Y0146465D02*
X0303387Y0146465D01*
X0303387Y0144866D02*
X0346969Y0144866D01*
X0346969Y0143268D02*
X0303387Y0143268D01*
X0303387Y0141669D02*
X0346969Y0141669D01*
X0346969Y0140070D02*
X0303387Y0140070D01*
X0303387Y0138472D02*
X0346969Y0138472D01*
X0346969Y0136873D02*
X0303387Y0136873D01*
X0303387Y0135275D02*
X0346969Y0135275D01*
X0346969Y0133676D02*
X0303387Y0133676D01*
X0303387Y0132078D02*
X0347617Y0132078D01*
X0349215Y0130479D02*
X0303387Y0130479D01*
X0303387Y0128881D02*
X0350814Y0128881D01*
X0352412Y0127282D02*
X0303387Y0127282D01*
X0303387Y0125684D02*
X0354011Y0125684D01*
X0353978Y0125011D02*
X0354915Y0124074D01*
X0354915Y0117205D01*
X0353978Y0116268D01*
X0347109Y0116268D01*
X0346172Y0117205D01*
X0346172Y0124074D01*
X0347109Y0125011D01*
X0353978Y0125011D01*
X0354904Y0124085D02*
X0355609Y0124085D01*
X0354915Y0122487D02*
X0357208Y0122487D01*
X0358806Y0120888D02*
X0354915Y0120888D01*
X0354915Y0119290D02*
X0360405Y0119290D01*
X0362003Y0117691D02*
X0354915Y0117691D01*
X0363602Y0116093D02*
X0303387Y0116093D01*
X0303387Y0117691D02*
X0346172Y0117691D01*
X0346172Y0119290D02*
X0303387Y0119290D01*
X0303387Y0120888D02*
X0346172Y0120888D01*
X0346172Y0122487D02*
X0303387Y0122487D01*
X0303387Y0124085D02*
X0346183Y0124085D01*
X0348105Y0108100D02*
X0310201Y0108100D01*
X0311799Y0106502D02*
X0346580Y0106502D01*
X0345918Y0104903D02*
X0313398Y0104903D01*
X0314996Y0103305D02*
X0345825Y0103305D01*
X0346183Y0101706D02*
X0316595Y0101706D01*
X0318193Y0100108D02*
X0347147Y0100108D01*
X0349626Y0098509D02*
X0319792Y0098509D01*
X0319500Y0094311D02*
X0319500Y0040500D01*
X0314617Y0042561D02*
X0309486Y0042561D01*
X0309800Y0041804D02*
X0308993Y0043752D01*
X0307718Y0045027D01*
X0307718Y0092576D01*
X0307235Y0093743D01*
X0306342Y0094636D01*
X0280159Y0120819D01*
X0280159Y0141073D01*
X0280354Y0141268D01*
X0280959Y0142729D01*
X0280959Y0144310D01*
X0280354Y0145771D01*
X0279236Y0146889D01*
X0277775Y0147494D01*
X0276194Y0147494D01*
X0274733Y0146889D01*
X0273615Y0145771D01*
X0273009Y0144310D01*
X0273009Y0142729D01*
X0273615Y0141268D01*
X0273809Y0141073D01*
X0273809Y0118872D01*
X0274293Y0117706D01*
X0301369Y0090630D01*
X0301369Y0045114D01*
X0300007Y0043752D01*
X0299200Y0041804D01*
X0299200Y0039696D01*
X0300007Y0037748D01*
X0301498Y0036257D01*
X0302722Y0035750D01*
X0301498Y0035243D01*
X0300007Y0033752D01*
X0299200Y0031804D01*
X0299200Y0029696D01*
X0300007Y0027748D01*
X0301498Y0026257D01*
X0303446Y0025450D01*
X0305554Y0025450D01*
X0307502Y0026257D01*
X0308993Y0027748D01*
X0309800Y0029696D01*
X0309800Y0031804D01*
X0308993Y0033752D01*
X0307502Y0035243D01*
X0306278Y0035750D01*
X0307502Y0036257D01*
X0308993Y0037748D01*
X0309800Y0039696D01*
X0309800Y0041804D01*
X0309800Y0040963D02*
X0314200Y0040963D01*
X0314234Y0039364D02*
X0309663Y0039364D01*
X0309001Y0037766D02*
X0314896Y0037766D01*
X0316337Y0036167D02*
X0307286Y0036167D01*
X0308177Y0034569D02*
X0316073Y0034569D01*
X0314787Y0032970D02*
X0309317Y0032970D01*
X0309800Y0031372D02*
X0314200Y0031372D01*
X0314200Y0029773D02*
X0309800Y0029773D01*
X0309170Y0028175D02*
X0314726Y0028175D01*
X0315928Y0026576D02*
X0307822Y0026576D01*
X0301178Y0026576D02*
X0292697Y0026576D01*
X0293898Y0028175D02*
X0299830Y0028175D01*
X0299200Y0029773D02*
X0294425Y0029773D01*
X0294425Y0031372D02*
X0299200Y0031372D01*
X0299683Y0032970D02*
X0293838Y0032970D01*
X0292552Y0034569D02*
X0300823Y0034569D01*
X0301714Y0036167D02*
X0292288Y0036167D01*
X0293729Y0037766D02*
X0299999Y0037766D01*
X0299337Y0039364D02*
X0294391Y0039364D01*
X0294425Y0040963D02*
X0299200Y0040963D01*
X0299514Y0042561D02*
X0294008Y0042561D01*
X0292961Y0044160D02*
X0300414Y0044160D01*
X0301369Y0045758D02*
X0290280Y0045758D01*
X0287970Y0045758D02*
X0274511Y0045758D01*
X0274254Y0047357D02*
X0301369Y0047357D01*
X0301369Y0048955D02*
X0274254Y0048955D01*
X0274254Y0050554D02*
X0301369Y0050554D01*
X0301369Y0052152D02*
X0274254Y0052152D01*
X0274254Y0053751D02*
X0301369Y0053751D01*
X0301369Y0055349D02*
X0274254Y0055349D01*
X0274254Y0056948D02*
X0301369Y0056948D01*
X0301369Y0058546D02*
X0274254Y0058546D01*
X0274254Y0060145D02*
X0301369Y0060145D01*
X0301369Y0061743D02*
X0274254Y0061743D01*
X0274254Y0063342D02*
X0301369Y0063342D01*
X0301369Y0064940D02*
X0274254Y0064940D01*
X0274254Y0066539D02*
X0301369Y0066539D01*
X0301369Y0068137D02*
X0274254Y0068137D01*
X0274254Y0069736D02*
X0301369Y0069736D01*
X0301369Y0071334D02*
X0274254Y0071334D01*
X0274254Y0072933D02*
X0301369Y0072933D01*
X0301369Y0074532D02*
X0274254Y0074532D01*
X0274254Y0076130D02*
X0301369Y0076130D01*
X0301369Y0077729D02*
X0283853Y0077729D01*
X0283060Y0077400D02*
X0284934Y0078176D01*
X0286369Y0079611D01*
X0287145Y0081486D01*
X0287145Y0083514D01*
X0286369Y0085389D01*
X0284934Y0086824D01*
X0283060Y0087600D01*
X0281031Y0087600D01*
X0279156Y0086824D01*
X0277722Y0085389D01*
X0276945Y0083514D01*
X0276945Y0081486D01*
X0277722Y0079611D01*
X0279156Y0078176D01*
X0281031Y0077400D01*
X0283060Y0077400D01*
X0280238Y0077729D02*
X0274254Y0077729D01*
X0274254Y0079327D02*
X0278006Y0079327D01*
X0277177Y0080926D02*
X0274254Y0080926D01*
X0274254Y0082524D02*
X0276945Y0082524D01*
X0277197Y0084123D02*
X0274254Y0084123D01*
X0274254Y0085721D02*
X0278054Y0085721D01*
X0280354Y0087320D02*
X0274254Y0087320D01*
X0274254Y0088918D02*
X0301369Y0088918D01*
X0301369Y0087320D02*
X0283737Y0087320D01*
X0286037Y0085721D02*
X0301369Y0085721D01*
X0301369Y0084123D02*
X0286893Y0084123D01*
X0287145Y0082524D02*
X0301369Y0082524D01*
X0301369Y0080926D02*
X0286913Y0080926D01*
X0286085Y0079327D02*
X0301369Y0079327D01*
X0307718Y0079327D02*
X0316325Y0079327D01*
X0316325Y0077729D02*
X0307718Y0077729D01*
X0307718Y0076130D02*
X0316325Y0076130D01*
X0316325Y0074532D02*
X0307718Y0074532D01*
X0307718Y0072933D02*
X0316325Y0072933D01*
X0316325Y0071334D02*
X0307718Y0071334D01*
X0307718Y0069736D02*
X0316325Y0069736D01*
X0316325Y0068137D02*
X0307718Y0068137D01*
X0307718Y0066539D02*
X0316325Y0066539D01*
X0316325Y0064940D02*
X0307718Y0064940D01*
X0307718Y0063342D02*
X0316325Y0063342D01*
X0316325Y0061743D02*
X0307718Y0061743D01*
X0307718Y0060145D02*
X0316325Y0060145D01*
X0316325Y0058546D02*
X0307718Y0058546D01*
X0307718Y0056948D02*
X0316325Y0056948D01*
X0316325Y0055349D02*
X0307718Y0055349D01*
X0307718Y0053751D02*
X0316325Y0053751D01*
X0316325Y0052152D02*
X0307718Y0052152D01*
X0307718Y0050554D02*
X0316325Y0050554D01*
X0316325Y0048955D02*
X0307718Y0048955D01*
X0307718Y0047357D02*
X0316325Y0047357D01*
X0316325Y0045758D02*
X0307718Y0045758D01*
X0308586Y0044160D02*
X0315664Y0044160D01*
X0322675Y0045758D02*
X0427880Y0045758D01*
X0426281Y0044160D02*
X0323336Y0044160D01*
X0324383Y0042561D02*
X0424683Y0042561D01*
X0423084Y0040963D02*
X0324800Y0040963D01*
X0324766Y0039364D02*
X0421486Y0039364D01*
X0418421Y0037766D02*
X0324104Y0037766D01*
X0322663Y0036167D02*
X0417404Y0036167D01*
X0417114Y0034569D02*
X0322927Y0034569D01*
X0324213Y0032970D02*
X0417387Y0032970D01*
X0429478Y0047357D02*
X0322675Y0047357D01*
X0322675Y0048955D02*
X0419532Y0048955D01*
X0419541Y0048946D02*
X0420154Y0048501D01*
X0420829Y0048157D01*
X0421549Y0047923D01*
X0422297Y0047804D01*
X0422472Y0047804D01*
X0422472Y0052412D01*
X0417864Y0052412D01*
X0417864Y0052237D01*
X0417983Y0051489D01*
X0418217Y0050769D01*
X0418561Y0050094D01*
X0419006Y0049481D01*
X0419541Y0048946D01*
X0418327Y0050554D02*
X0322675Y0050554D01*
X0322675Y0052152D02*
X0417878Y0052152D01*
X0417864Y0052820D02*
X0422472Y0052820D01*
X0422472Y0052412D01*
X0422880Y0052412D01*
X0422880Y0047804D01*
X0423055Y0047804D01*
X0423803Y0047923D01*
X0424523Y0048157D01*
X0425198Y0048501D01*
X0425811Y0048946D01*
X0426346Y0049481D01*
X0426792Y0050094D01*
X0427135Y0050769D01*
X0427370Y0051489D01*
X0427488Y0052237D01*
X0427488Y0052412D01*
X0422880Y0052412D01*
X0422880Y0052820D01*
X0422472Y0052820D01*
X0422472Y0057428D01*
X0422297Y0057428D01*
X0421549Y0057309D01*
X0420829Y0057075D01*
X0420154Y0056732D01*
X0419541Y0056286D01*
X0419006Y0055751D01*
X0418561Y0055138D01*
X0418217Y0054463D01*
X0417983Y0053743D01*
X0417864Y0052995D01*
X0417864Y0052820D01*
X0417985Y0053751D02*
X0372505Y0053751D01*
X0372937Y0053930D02*
X0371476Y0053324D01*
X0369894Y0053324D01*
X0368433Y0053930D01*
X0367315Y0055048D01*
X0366710Y0056509D01*
X0366710Y0058090D01*
X0367315Y0059551D01*
X0368433Y0060669D01*
X0369894Y0061274D01*
X0371476Y0061274D01*
X0372937Y0060669D01*
X0374055Y0059551D01*
X0374660Y0058090D01*
X0374660Y0056509D01*
X0374055Y0055048D01*
X0372937Y0053930D01*
X0374180Y0055349D02*
X0418714Y0055349D01*
X0420579Y0056948D02*
X0374660Y0056948D01*
X0374471Y0058546D02*
X0420070Y0058546D01*
X0420064Y0058549D02*
X0421759Y0057847D01*
X0423594Y0057847D01*
X0425289Y0058549D01*
X0426586Y0059846D01*
X0427288Y0061541D01*
X0427288Y0063376D01*
X0426586Y0065071D01*
X0425289Y0066368D01*
X0423594Y0067070D01*
X0421759Y0067070D01*
X0420064Y0066368D01*
X0418766Y0065071D01*
X0418064Y0063376D01*
X0418064Y0061541D01*
X0418766Y0059846D01*
X0420064Y0058549D01*
X0418643Y0060145D02*
X0373461Y0060145D01*
X0367910Y0060145D02*
X0322675Y0060145D01*
X0322675Y0061743D02*
X0418064Y0061743D01*
X0418064Y0063342D02*
X0322675Y0063342D01*
X0322675Y0064940D02*
X0418712Y0064940D01*
X0420476Y0066539D02*
X0322675Y0066539D01*
X0322675Y0068137D02*
X0430890Y0068137D01*
X0430890Y0066539D02*
X0424877Y0066539D01*
X0426640Y0064940D02*
X0430890Y0064940D01*
X0430890Y0063342D02*
X0427288Y0063342D01*
X0427288Y0061743D02*
X0430890Y0061743D01*
X0430890Y0060145D02*
X0426710Y0060145D01*
X0425282Y0058546D02*
X0430890Y0058546D01*
X0430890Y0056948D02*
X0424774Y0056948D01*
X0424523Y0057075D02*
X0423803Y0057309D01*
X0423055Y0057428D01*
X0422880Y0057428D01*
X0422880Y0052820D01*
X0427488Y0052820D01*
X0427488Y0052995D01*
X0427370Y0053743D01*
X0427135Y0054463D01*
X0426792Y0055138D01*
X0426346Y0055751D01*
X0425811Y0056286D01*
X0425198Y0056732D01*
X0424523Y0057075D01*
X0422880Y0056948D02*
X0422472Y0056948D01*
X0422472Y0055349D02*
X0422880Y0055349D01*
X0422880Y0053751D02*
X0422472Y0053751D01*
X0422472Y0052152D02*
X0422880Y0052152D01*
X0422880Y0050554D02*
X0422472Y0050554D01*
X0422472Y0048955D02*
X0422880Y0048955D01*
X0425820Y0048955D02*
X0430890Y0048955D01*
X0430890Y0050554D02*
X0427026Y0050554D01*
X0427474Y0052152D02*
X0430890Y0052152D01*
X0430890Y0053751D02*
X0427367Y0053751D01*
X0426638Y0055349D02*
X0430890Y0055349D01*
X0430890Y0069736D02*
X0322675Y0069736D01*
X0322675Y0071334D02*
X0430890Y0071334D01*
X0430890Y0072933D02*
X0322675Y0072933D01*
X0322675Y0077729D02*
X0418234Y0077729D01*
X0417813Y0079327D02*
X0322675Y0079327D01*
X0322675Y0080926D02*
X0417959Y0080926D01*
X0418720Y0082524D02*
X0322675Y0082524D01*
X0316325Y0082524D02*
X0307718Y0082524D01*
X0307718Y0080926D02*
X0316325Y0080926D01*
X0316325Y0084123D02*
X0307718Y0084123D01*
X0307718Y0085721D02*
X0316325Y0085721D01*
X0316325Y0087320D02*
X0307718Y0087320D01*
X0307718Y0088918D02*
X0316325Y0088918D01*
X0316325Y0090517D02*
X0307718Y0090517D01*
X0307718Y0092115D02*
X0316325Y0092115D01*
X0315608Y0093714D02*
X0307247Y0093714D01*
X0305666Y0095312D02*
X0314009Y0095312D01*
X0312410Y0096911D02*
X0304067Y0096911D01*
X0302469Y0098509D02*
X0310812Y0098509D01*
X0309213Y0100108D02*
X0300870Y0100108D01*
X0299272Y0101706D02*
X0307615Y0101706D01*
X0306016Y0103305D02*
X0297673Y0103305D01*
X0296075Y0104903D02*
X0304418Y0104903D01*
X0302819Y0106502D02*
X0294476Y0106502D01*
X0292878Y0108100D02*
X0301221Y0108100D01*
X0299622Y0109699D02*
X0291279Y0109699D01*
X0289681Y0111297D02*
X0298024Y0111297D01*
X0297067Y0112896D02*
X0288082Y0112896D01*
X0286484Y0114494D02*
X0297038Y0114494D01*
X0297038Y0116093D02*
X0284885Y0116093D01*
X0283287Y0117691D02*
X0297038Y0117691D01*
X0297038Y0119290D02*
X0281688Y0119290D01*
X0280159Y0120888D02*
X0297038Y0120888D01*
X0297038Y0122487D02*
X0280159Y0122487D01*
X0280159Y0124085D02*
X0297038Y0124085D01*
X0297038Y0125684D02*
X0280159Y0125684D01*
X0280159Y0127282D02*
X0297038Y0127282D01*
X0297038Y0128881D02*
X0280159Y0128881D01*
X0280159Y0130479D02*
X0297038Y0130479D01*
X0297038Y0132078D02*
X0280159Y0132078D01*
X0280159Y0133676D02*
X0297038Y0133676D01*
X0297038Y0135275D02*
X0280159Y0135275D01*
X0280159Y0136873D02*
X0297038Y0136873D01*
X0297038Y0138472D02*
X0280159Y0138472D01*
X0280159Y0140070D02*
X0297038Y0140070D01*
X0297038Y0141669D02*
X0280520Y0141669D01*
X0280959Y0143268D02*
X0297038Y0143268D01*
X0297038Y0144866D02*
X0280729Y0144866D01*
X0279661Y0146465D02*
X0297038Y0146465D01*
X0297038Y0148063D02*
X0238348Y0148063D01*
X0236750Y0149662D02*
X0297038Y0149662D01*
X0297038Y0151260D02*
X0235151Y0151260D01*
X0233553Y0152859D02*
X0297038Y0152859D01*
X0297038Y0154457D02*
X0231954Y0154457D01*
X0230355Y0156056D02*
X0297038Y0156056D01*
X0297038Y0157654D02*
X0228757Y0157654D01*
X0227158Y0159253D02*
X0259173Y0159253D01*
X0258207Y0160851D02*
X0225560Y0160851D01*
X0223961Y0162450D02*
X0258049Y0162450D01*
X0258560Y0164048D02*
X0222363Y0164048D01*
X0220764Y0165647D02*
X0260384Y0165647D01*
X0263663Y0165647D02*
X0294242Y0165647D01*
X0297038Y0167245D02*
X0219166Y0167245D01*
X0217567Y0168844D02*
X0297038Y0168844D01*
X0297038Y0170442D02*
X0215969Y0170442D01*
X0214370Y0172041D02*
X0297038Y0172041D01*
X0297038Y0173639D02*
X0212772Y0173639D01*
X0211173Y0175238D02*
X0297038Y0175238D01*
X0296298Y0176836D02*
X0209575Y0176836D01*
X0207976Y0178435D02*
X0296238Y0178435D01*
X0296853Y0180033D02*
X0206378Y0180033D01*
X0204779Y0181632D02*
X0299145Y0181632D01*
X0301538Y0183230D02*
X0203181Y0183230D01*
X0201582Y0184829D02*
X0299928Y0184829D01*
X0298319Y0186427D02*
X0199984Y0186427D01*
X0198385Y0188026D02*
X0296710Y0188026D01*
X0295100Y0189624D02*
X0196787Y0189624D01*
X0195188Y0191223D02*
X0293491Y0191223D01*
X0291881Y0192821D02*
X0193590Y0192821D01*
X0191991Y0194420D02*
X0290272Y0194420D01*
X0288663Y0196018D02*
X0190393Y0196018D01*
X0188794Y0197617D02*
X0287053Y0197617D01*
X0285444Y0199215D02*
X0187196Y0199215D01*
X0185597Y0200814D02*
X0283835Y0200814D01*
X0282225Y0202412D02*
X0185277Y0202412D01*
X0185277Y0204011D02*
X0280616Y0204011D01*
X0279006Y0205609D02*
X0185277Y0205609D01*
X0185277Y0207208D02*
X0277397Y0207208D01*
X0275788Y0208806D02*
X0185277Y0208806D01*
X0185277Y0210405D02*
X0274178Y0210405D01*
X0272569Y0212003D02*
X0185277Y0212003D01*
X0185277Y0213602D02*
X0270960Y0213602D01*
X0269350Y0215201D02*
X0185277Y0215201D01*
X0185277Y0216799D02*
X0267741Y0216799D01*
X0266131Y0218398D02*
X0185277Y0218398D01*
X0185277Y0219996D02*
X0264522Y0219996D01*
X0260614Y0221595D02*
X0254668Y0221595D01*
X0252578Y0221595D02*
X0252178Y0221595D01*
X0252178Y0223193D02*
X0252578Y0223193D01*
X0252578Y0224792D02*
X0252178Y0224792D01*
X0252178Y0226390D02*
X0252578Y0226390D01*
X0252378Y0226600D02*
X0252378Y0207683D01*
X0285439Y0174622D01*
X0286433Y0174622D01*
X0299031Y0198638D02*
X0249031Y0251000D01*
X0249031Y0273835D01*
X0247596Y0277542D02*
X0223479Y0277542D01*
X0222886Y0275944D02*
X0245603Y0275944D01*
X0245057Y0274345D02*
X0222679Y0274345D01*
X0224622Y0270291D02*
X0239189Y0270291D01*
X0243126Y0266354D01*
X0245552Y0269550D02*
X0245857Y0269550D01*
X0245857Y0271148D02*
X0242822Y0271148D01*
X0241223Y0272747D02*
X0245180Y0272747D01*
X0216329Y0272747D02*
X0206931Y0272747D01*
X0206931Y0274345D02*
X0216329Y0274345D01*
X0216122Y0275944D02*
X0206931Y0275944D01*
X0206931Y0277542D02*
X0215529Y0277542D01*
X0215606Y0279141D02*
X0206931Y0279141D01*
X0206931Y0280739D02*
X0216329Y0280739D01*
X0216329Y0282338D02*
X0206931Y0282338D01*
X0206759Y0283937D02*
X0216329Y0283937D01*
X0216329Y0285535D02*
X0205600Y0285535D01*
X0205554Y0285581D02*
X0205554Y0285581D01*
X0204002Y0287134D02*
X0216329Y0287134D01*
X0216329Y0288732D02*
X0202403Y0288732D01*
X0200805Y0290331D02*
X0216329Y0290331D01*
X0216329Y0291929D02*
X0199206Y0291929D01*
X0197608Y0293528D02*
X0216329Y0293528D01*
X0216329Y0295126D02*
X0196009Y0295126D01*
X0195424Y0295712D02*
X0195424Y0295712D01*
X0194242Y0296725D02*
X0216329Y0296725D01*
X0216329Y0298323D02*
X0191734Y0298323D01*
X0191734Y0299922D02*
X0216329Y0299922D01*
X0215965Y0301520D02*
X0191124Y0301520D01*
X0189525Y0303119D02*
X0215529Y0303119D01*
X0215763Y0304717D02*
X0189361Y0304717D01*
X0189032Y0304388D02*
X0185212Y0304388D01*
X0182510Y0307090D01*
X0182510Y0310910D01*
X0185212Y0313612D01*
X0189032Y0313612D01*
X0191734Y0310910D01*
X0191734Y0307090D01*
X0189032Y0304388D01*
X0190960Y0306316D02*
X0216329Y0306316D01*
X0216329Y0307914D02*
X0191734Y0307914D01*
X0191734Y0309513D02*
X0216329Y0309513D01*
X0216329Y0311111D02*
X0191533Y0311111D01*
X0189934Y0312710D02*
X0216329Y0312710D01*
X0215560Y0314308D02*
X0171891Y0314308D01*
X0171891Y0312710D02*
X0174310Y0312710D01*
X0175212Y0313612D02*
X0172510Y0310910D01*
X0172510Y0307090D01*
X0175212Y0304388D01*
X0179032Y0304388D01*
X0181734Y0307090D01*
X0181734Y0310910D01*
X0179032Y0313612D01*
X0175212Y0313612D01*
X0175212Y0314388D02*
X0179032Y0314388D01*
X0181734Y0317090D01*
X0181734Y0320910D01*
X0179032Y0323612D01*
X0175212Y0323612D01*
X0172510Y0320910D01*
X0172510Y0317090D01*
X0175212Y0314388D01*
X0173693Y0315907D02*
X0171891Y0315907D01*
X0171891Y0317505D02*
X0172510Y0317505D01*
X0172510Y0319104D02*
X0171891Y0319104D01*
X0171891Y0320702D02*
X0172510Y0320702D01*
X0171891Y0322301D02*
X0173901Y0322301D01*
X0175212Y0324388D02*
X0179032Y0324388D01*
X0181734Y0327090D01*
X0181734Y0330910D01*
X0181367Y0331277D01*
X0182877Y0331277D01*
X0182510Y0330910D01*
X0182510Y0327090D01*
X0185212Y0324388D01*
X0188020Y0324388D01*
X0187244Y0323612D01*
X0185212Y0323612D01*
X0182510Y0320910D01*
X0182510Y0317090D01*
X0185212Y0314388D01*
X0189032Y0314388D01*
X0191734Y0317090D01*
X0191734Y0319122D01*
X0196105Y0323494D01*
X0196999Y0324387D01*
X0197482Y0325554D01*
X0197482Y0333915D01*
X0196999Y0335082D01*
X0191611Y0340469D01*
X0191942Y0340332D01*
X0193523Y0340332D01*
X0194984Y0340937D01*
X0196102Y0342056D01*
X0196707Y0343516D01*
X0196707Y0345098D01*
X0196102Y0346559D01*
X0194984Y0347677D01*
X0193523Y0348282D01*
X0193247Y0348282D01*
X0160751Y0380778D01*
X0159584Y0381261D01*
X0157424Y0381261D01*
X0157394Y0381292D01*
X0156004Y0381868D01*
X0154500Y0381868D01*
X0153110Y0381292D01*
X0152047Y0380228D01*
X0151990Y0380091D01*
X0151302Y0380778D01*
X0150135Y0381261D01*
X0149550Y0381261D01*
X0149520Y0381292D01*
X0148130Y0381868D01*
X0146626Y0381868D01*
X0145236Y0381292D01*
X0144172Y0380228D01*
X0143597Y0378839D01*
X0143597Y0377871D01*
X0143285Y0378180D01*
X0143285Y0378839D01*
X0142709Y0380228D01*
X0141646Y0381292D01*
X0140256Y0381868D01*
X0138752Y0381868D01*
X0137362Y0381292D01*
X0136298Y0380228D01*
X0135723Y0378839D01*
X0135723Y0377334D01*
X0136298Y0375945D01*
X0137362Y0374881D01*
X0137758Y0374717D01*
X0178128Y0334721D01*
X0178128Y0334461D01*
X0178479Y0333612D01*
X0175212Y0333612D01*
X0172510Y0330910D01*
X0172510Y0327090D01*
X0175212Y0324388D01*
X0174102Y0325498D02*
X0171891Y0325498D01*
X0171891Y0327096D02*
X0172510Y0327096D01*
X0172510Y0328695D02*
X0171891Y0328695D01*
X0171891Y0330293D02*
X0172510Y0330293D01*
X0171891Y0331892D02*
X0173492Y0331892D01*
X0175090Y0333490D02*
X0171891Y0333490D01*
X0171891Y0335089D02*
X0177756Y0335089D01*
X0176143Y0336687D02*
X0171558Y0336687D01*
X0170172Y0338286D02*
X0174529Y0338286D01*
X0172916Y0339884D02*
X0168574Y0339884D01*
X0166975Y0341483D02*
X0171302Y0341483D01*
X0169689Y0343081D02*
X0165377Y0343081D01*
X0163778Y0344680D02*
X0168076Y0344680D01*
X0166462Y0346278D02*
X0162180Y0346278D01*
X0160581Y0347877D02*
X0164849Y0347877D01*
X0163235Y0349475D02*
X0158983Y0349475D01*
X0157384Y0351074D02*
X0161622Y0351074D01*
X0160008Y0352672D02*
X0155786Y0352672D01*
X0154187Y0354271D02*
X0158395Y0354271D01*
X0156782Y0355870D02*
X0152589Y0355870D01*
X0150990Y0357468D02*
X0155168Y0357468D01*
X0153555Y0359067D02*
X0149392Y0359067D01*
X0147793Y0360665D02*
X0151941Y0360665D01*
X0150328Y0362264D02*
X0146195Y0362264D01*
X0144596Y0363862D02*
X0148715Y0363862D01*
X0147101Y0365461D02*
X0142998Y0365461D01*
X0141399Y0367059D02*
X0145488Y0367059D01*
X0143874Y0368658D02*
X0139801Y0368658D01*
X0138202Y0370256D02*
X0142261Y0370256D01*
X0140647Y0371855D02*
X0136604Y0371855D01*
X0135005Y0373453D02*
X0139034Y0373453D01*
X0137192Y0375052D02*
X0134805Y0375052D01*
X0135128Y0376650D02*
X0136006Y0376650D01*
X0135723Y0378249D02*
X0135411Y0378249D01*
X0134993Y0379847D02*
X0136141Y0379847D01*
X0137733Y0381446D02*
X0133401Y0381446D01*
X0129859Y0381446D02*
X0114327Y0381446D01*
X0114087Y0381686D02*
X0112697Y0382261D01*
X0111193Y0382261D01*
X0109803Y0381686D01*
X0108739Y0380622D01*
X0108164Y0379232D01*
X0108164Y0377728D01*
X0108739Y0376338D01*
X0109803Y0375275D01*
X0111193Y0374699D01*
X0112697Y0374699D01*
X0114087Y0375275D01*
X0115150Y0376338D01*
X0115726Y0377728D01*
X0115726Y0379232D01*
X0115150Y0380622D01*
X0114087Y0381686D01*
X0115471Y0379847D02*
X0128267Y0379847D01*
X0127849Y0378249D02*
X0115726Y0378249D01*
X0115279Y0376650D02*
X0128132Y0376650D01*
X0128455Y0375052D02*
X0113548Y0375052D01*
X0110342Y0375052D02*
X0105674Y0375052D01*
X0106213Y0375275D02*
X0107276Y0376338D01*
X0107852Y0377728D01*
X0107852Y0379232D01*
X0107276Y0380622D01*
X0106213Y0381686D01*
X0104823Y0382261D01*
X0103319Y0382261D01*
X0101929Y0381686D01*
X0100865Y0380622D01*
X0100290Y0379232D01*
X0100290Y0377728D01*
X0100865Y0376338D01*
X0101929Y0375275D01*
X0103319Y0374699D01*
X0104823Y0374699D01*
X0106213Y0375275D01*
X0107405Y0376650D02*
X0108610Y0376650D01*
X0108164Y0378249D02*
X0107852Y0378249D01*
X0107597Y0379847D02*
X0108418Y0379847D01*
X0109563Y0381446D02*
X0106453Y0381446D01*
X0101689Y0381446D02*
X0098579Y0381446D01*
X0098339Y0381686D02*
X0096949Y0382261D01*
X0095445Y0382261D01*
X0094055Y0381686D01*
X0092991Y0380622D01*
X0092416Y0379232D01*
X0092416Y0377728D01*
X0092991Y0376338D01*
X0094055Y0375275D01*
X0095445Y0374699D01*
X0096949Y0374699D01*
X0098339Y0375275D01*
X0099402Y0376338D01*
X0099978Y0377728D01*
X0099978Y0379232D01*
X0099402Y0380622D01*
X0098339Y0381686D01*
X0099723Y0379847D02*
X0100544Y0379847D01*
X0100290Y0378249D02*
X0099978Y0378249D01*
X0099531Y0376650D02*
X0100736Y0376650D01*
X0102468Y0375052D02*
X0097800Y0375052D01*
X0094594Y0375052D02*
X0090357Y0375052D01*
X0088323Y0375052D02*
X0088323Y0375052D01*
X0088323Y0376650D02*
X0088323Y0376650D01*
X0088323Y0378249D02*
X0088323Y0378249D01*
X0088323Y0378480D02*
X0121758Y0345045D01*
X0137270Y0345045D01*
X0146669Y0335646D01*
X0146669Y0318717D01*
X0146669Y0306512D01*
X0146669Y0300606D01*
X0129346Y0283283D01*
X0119110Y0283283D01*
X0130595Y0281959D02*
X0130595Y0279850D01*
X0131402Y0277902D01*
X0132892Y0276411D01*
X0134506Y0275743D01*
X0132767Y0275023D01*
X0131277Y0273532D01*
X0130470Y0271584D01*
X0130470Y0269475D01*
X0131277Y0267527D01*
X0132767Y0266036D01*
X0134474Y0265330D01*
X0134465Y0265330D01*
X0132517Y0264523D01*
X0131027Y0263032D01*
X0130220Y0261084D01*
X0130220Y0258975D01*
X0131027Y0257027D01*
X0132517Y0255536D01*
X0134465Y0254730D01*
X0134474Y0254730D01*
X0132767Y0254023D01*
X0131277Y0252532D01*
X0130470Y0250584D01*
X0130470Y0248475D01*
X0131277Y0246527D01*
X0132767Y0245036D01*
X0134715Y0244230D01*
X0136824Y0244230D01*
X0138772Y0245036D01*
X0140263Y0246527D01*
X0141070Y0248475D01*
X0141070Y0250584D01*
X0140263Y0252532D01*
X0138772Y0254023D01*
X0136824Y0254830D01*
X0136815Y0254830D01*
X0138522Y0255536D01*
X0140013Y0257027D01*
X0140820Y0258975D01*
X0140820Y0261084D01*
X0140013Y0263032D01*
X0138522Y0264523D01*
X0136815Y0265230D01*
X0136824Y0265230D01*
X0138772Y0266036D01*
X0140263Y0267527D01*
X0141070Y0269475D01*
X0141070Y0271584D01*
X0140263Y0273532D01*
X0138772Y0275023D01*
X0137158Y0275691D01*
X0138897Y0276411D01*
X0140388Y0277902D01*
X0141195Y0279850D01*
X0141195Y0281959D01*
X0140388Y0283907D01*
X0138897Y0285398D01*
X0136949Y0286205D01*
X0134840Y0286205D01*
X0132892Y0285398D01*
X0131402Y0283907D01*
X0130595Y0281959D01*
X0130752Y0282338D02*
X0095072Y0282338D01*
X0095072Y0283937D02*
X0131431Y0283937D01*
X0133224Y0285535D02*
X0094893Y0285535D01*
X0095072Y0284868D02*
X0093893Y0289268D01*
X0091615Y0293213D01*
X0088394Y0296434D01*
X0084449Y0298712D01*
X0080049Y0299891D01*
X0075494Y0299891D01*
X0071094Y0298712D01*
X0067149Y0296434D01*
X0063928Y0293213D01*
X0061651Y0289268D01*
X0060472Y0284868D01*
X0060472Y0280313D01*
X0061651Y0275913D01*
X0063928Y0271968D01*
X0067149Y0268747D01*
X0071094Y0266470D01*
X0075494Y0265291D01*
X0080049Y0265291D01*
X0084449Y0266470D01*
X0088394Y0268747D01*
X0091615Y0271968D01*
X0093893Y0275913D01*
X0095072Y0280313D01*
X0095072Y0284868D01*
X0094465Y0287134D02*
X0165542Y0287134D01*
X0165542Y0288732D02*
X0094036Y0288732D01*
X0093279Y0290331D02*
X0165542Y0290331D01*
X0165542Y0291929D02*
X0092356Y0291929D01*
X0091301Y0293528D02*
X0165542Y0293528D01*
X0165542Y0295126D02*
X0089702Y0295126D01*
X0087891Y0296725D02*
X0165542Y0296725D01*
X0165542Y0298323D02*
X0085122Y0298323D01*
X0070421Y0298323D02*
X0007740Y0298323D01*
X0007744Y0296725D02*
X0067653Y0296725D01*
X0065841Y0295126D02*
X0007749Y0295126D01*
X0007753Y0293528D02*
X0064243Y0293528D01*
X0063187Y0291929D02*
X0007758Y0291929D01*
X0007762Y0290331D02*
X0062264Y0290331D01*
X0061507Y0288732D02*
X0007767Y0288732D01*
X0007771Y0287134D02*
X0061079Y0287134D01*
X0060650Y0285535D02*
X0007776Y0285535D01*
X0007780Y0283937D02*
X0060472Y0283937D01*
X0060472Y0282338D02*
X0007785Y0282338D01*
X0007789Y0280739D02*
X0060472Y0280739D01*
X0060786Y0279141D02*
X0007794Y0279141D01*
X0007798Y0277542D02*
X0061214Y0277542D01*
X0061642Y0275944D02*
X0007803Y0275944D01*
X0007807Y0274345D02*
X0062556Y0274345D01*
X0063479Y0272747D02*
X0007812Y0272747D01*
X0007817Y0271148D02*
X0064748Y0271148D01*
X0066346Y0269550D02*
X0007821Y0269550D01*
X0007826Y0267951D02*
X0068527Y0267951D01*
X0071529Y0266353D02*
X0007830Y0266353D01*
X0007835Y0264754D02*
X0133077Y0264754D01*
X0132451Y0266353D02*
X0084014Y0266353D01*
X0087016Y0267951D02*
X0131101Y0267951D01*
X0130470Y0269550D02*
X0089197Y0269550D01*
X0090795Y0271148D02*
X0130470Y0271148D01*
X0130951Y0272747D02*
X0092065Y0272747D01*
X0092988Y0274345D02*
X0132090Y0274345D01*
X0134021Y0275944D02*
X0093901Y0275944D01*
X0094329Y0277542D02*
X0131761Y0277542D01*
X0130888Y0279141D02*
X0094758Y0279141D01*
X0095072Y0280739D02*
X0130595Y0280739D01*
X0137768Y0275944D02*
X0165548Y0275944D01*
X0165542Y0277542D02*
X0140028Y0277542D01*
X0140901Y0279141D02*
X0165542Y0279141D01*
X0165542Y0280739D02*
X0141195Y0280739D01*
X0141038Y0282338D02*
X0165542Y0282338D01*
X0165542Y0283937D02*
X0140358Y0283937D01*
X0138565Y0285535D02*
X0165542Y0285535D01*
X0171891Y0285535D02*
X0174065Y0285535D01*
X0172510Y0287134D02*
X0171891Y0287134D01*
X0171891Y0288732D02*
X0172510Y0288732D01*
X0172510Y0290331D02*
X0171891Y0290331D01*
X0171891Y0291929D02*
X0173529Y0291929D01*
X0175128Y0293528D02*
X0171891Y0293528D01*
X0171891Y0295126D02*
X0174474Y0295126D01*
X0172875Y0296725D02*
X0171891Y0296725D01*
X0171891Y0298323D02*
X0172510Y0298323D01*
X0172510Y0299922D02*
X0171891Y0299922D01*
X0171891Y0301520D02*
X0173120Y0301520D01*
X0171891Y0303119D02*
X0174719Y0303119D01*
X0174883Y0304717D02*
X0171891Y0304717D01*
X0171891Y0306316D02*
X0173284Y0306316D01*
X0172510Y0307914D02*
X0171891Y0307914D01*
X0171891Y0309513D02*
X0172510Y0309513D01*
X0172711Y0311111D02*
X0171891Y0311111D01*
X0165542Y0311111D02*
X0007703Y0311111D01*
X0007708Y0309513D02*
X0165542Y0309513D01*
X0165542Y0307914D02*
X0007712Y0307914D01*
X0007717Y0306316D02*
X0165542Y0306316D01*
X0165542Y0304717D02*
X0007721Y0304717D01*
X0007726Y0303119D02*
X0165542Y0303119D01*
X0165542Y0301520D02*
X0007730Y0301520D01*
X0007735Y0299922D02*
X0165542Y0299922D01*
X0177122Y0299000D02*
X0177409Y0299000D01*
X0182496Y0293913D01*
X0192732Y0293913D01*
X0203756Y0282890D01*
X0203756Y0265961D01*
X0214780Y0254543D01*
X0215961Y0253018D01*
X0242378Y0226600D01*
X0247263Y0228656D02*
X0246871Y0229603D01*
X0245380Y0231094D01*
X0243432Y0231900D01*
X0241568Y0231900D01*
X0230646Y0242822D01*
X0234257Y0239631D01*
X0234635Y0239253D01*
X0234728Y0239215D01*
X0234804Y0239148D01*
X0235309Y0238974D01*
X0235802Y0238770D01*
X0235903Y0238770D01*
X0235998Y0238737D01*
X0236531Y0238770D01*
X0245718Y0238770D01*
X0252578Y0231911D01*
X0252578Y0226800D01*
X0252178Y0226800D01*
X0252178Y0232100D01*
X0251945Y0232100D01*
X0251090Y0231965D01*
X0250267Y0231697D01*
X0249495Y0231304D01*
X0248795Y0230796D01*
X0248183Y0230183D01*
X0247674Y0229483D01*
X0247281Y0228712D01*
X0247263Y0228656D01*
X0246877Y0229587D02*
X0247750Y0229587D01*
X0249332Y0231186D02*
X0245158Y0231186D01*
X0240684Y0232784D02*
X0251704Y0232784D01*
X0252178Y0231186D02*
X0252578Y0231186D01*
X0252578Y0229587D02*
X0252178Y0229587D01*
X0252178Y0227989D02*
X0252578Y0227989D01*
X0256701Y0223193D02*
X0258290Y0223193D01*
X0250088Y0221595D02*
X0244142Y0221595D01*
X0246466Y0223193D02*
X0248055Y0223193D01*
X0240614Y0221595D02*
X0234142Y0221595D01*
X0236466Y0223193D02*
X0238290Y0223193D01*
X0237391Y0224792D02*
X0237365Y0224792D01*
X0232378Y0226600D02*
X0211915Y0247063D01*
X0211630Y0247063D01*
X0197457Y0261236D01*
X0197457Y0280134D01*
X0193520Y0284071D01*
X0182102Y0284071D01*
X0177961Y0288213D01*
X0177961Y0289000D01*
X0177747Y0283937D02*
X0171891Y0283937D01*
X0171891Y0282338D02*
X0173938Y0282338D01*
X0172510Y0280739D02*
X0171891Y0280739D01*
X0171891Y0279141D02*
X0172510Y0279141D01*
X0172510Y0277542D02*
X0172254Y0277542D01*
X0168717Y0276591D02*
X0176307Y0269000D01*
X0177122Y0269000D01*
X0173247Y0266353D02*
X0139088Y0266353D01*
X0137962Y0264754D02*
X0174846Y0264754D01*
X0174756Y0263156D02*
X0139889Y0263156D01*
X0140624Y0261557D02*
X0172028Y0261557D01*
X0170430Y0259959D02*
X0140820Y0259959D01*
X0140565Y0258360D02*
X0168831Y0258360D01*
X0167233Y0256762D02*
X0139747Y0256762D01*
X0137621Y0255163D02*
X0165634Y0255163D01*
X0164036Y0253565D02*
X0139230Y0253565D01*
X0140497Y0251966D02*
X0162437Y0251966D01*
X0160839Y0250368D02*
X0141070Y0250368D01*
X0141070Y0248769D02*
X0159240Y0248769D01*
X0157642Y0247171D02*
X0140529Y0247171D01*
X0139308Y0245572D02*
X0156043Y0245572D01*
X0154445Y0243974D02*
X0137079Y0243974D01*
X0136824Y0244080D02*
X0134715Y0244080D01*
X0132767Y0243273D01*
X0131277Y0241782D01*
X0130470Y0239834D01*
X0130470Y0237725D01*
X0131277Y0235777D01*
X0132767Y0234286D01*
X0134715Y0233480D01*
X0136824Y0233480D01*
X0138772Y0234286D01*
X0140263Y0235777D01*
X0141070Y0237725D01*
X0141070Y0239834D01*
X0140263Y0241782D01*
X0138772Y0243273D01*
X0136824Y0244080D01*
X0134460Y0243974D02*
X0038169Y0243974D01*
X0038239Y0243804D02*
X0037432Y0245752D01*
X0035941Y0247243D01*
X0033993Y0248050D01*
X0031885Y0248050D01*
X0029937Y0247243D01*
X0028446Y0245752D01*
X0027639Y0243804D01*
X0027639Y0241696D01*
X0028446Y0239748D01*
X0029937Y0238257D01*
X0031160Y0237750D01*
X0029937Y0237243D01*
X0028446Y0235752D01*
X0027639Y0233804D01*
X0027639Y0231696D01*
X0028446Y0229748D01*
X0029937Y0228257D01*
X0031885Y0227450D01*
X0033993Y0227450D01*
X0035941Y0228257D01*
X0037432Y0229748D01*
X0038239Y0231696D01*
X0038239Y0233804D01*
X0037432Y0235752D01*
X0035941Y0237243D01*
X0034717Y0237750D01*
X0035941Y0238257D01*
X0037432Y0239748D01*
X0038239Y0241696D01*
X0038239Y0243804D01*
X0038239Y0242375D02*
X0131870Y0242375D01*
X0130860Y0240777D02*
X0037858Y0240777D01*
X0036862Y0239178D02*
X0130470Y0239178D01*
X0130530Y0237580D02*
X0035129Y0237580D01*
X0037203Y0235981D02*
X0131192Y0235981D01*
X0132671Y0234383D02*
X0037999Y0234383D01*
X0038239Y0232784D02*
X0150187Y0232784D01*
X0150187Y0231186D02*
X0038028Y0231186D01*
X0037271Y0229587D02*
X0150187Y0229587D01*
X0150187Y0227989D02*
X0035294Y0227989D01*
X0030584Y0227989D02*
X0007939Y0227989D01*
X0007934Y0229587D02*
X0028607Y0229587D01*
X0027850Y0231186D02*
X0007930Y0231186D01*
X0007925Y0232784D02*
X0027639Y0232784D01*
X0027879Y0234383D02*
X0007921Y0234383D01*
X0007916Y0235981D02*
X0028675Y0235981D01*
X0030749Y0237580D02*
X0007912Y0237580D01*
X0007907Y0239178D02*
X0029015Y0239178D01*
X0028020Y0240777D02*
X0007903Y0240777D01*
X0007898Y0242375D02*
X0027639Y0242375D01*
X0027709Y0243974D02*
X0007894Y0243974D01*
X0007889Y0245572D02*
X0028371Y0245572D01*
X0029864Y0247171D02*
X0007884Y0247171D01*
X0007880Y0248769D02*
X0026522Y0248769D01*
X0026626Y0248726D02*
X0039252Y0248726D01*
X0041678Y0249731D01*
X0043534Y0251587D01*
X0044539Y0254013D01*
X0044539Y0256639D01*
X0043534Y0259065D01*
X0041678Y0260921D01*
X0039252Y0261926D01*
X0026626Y0261926D01*
X0024200Y0260921D01*
X0022344Y0259065D01*
X0021339Y0256639D01*
X0021339Y0254013D01*
X0022344Y0251587D01*
X0024200Y0249731D01*
X0026626Y0248726D01*
X0023563Y0250368D02*
X0007875Y0250368D01*
X0007871Y0251966D02*
X0022187Y0251966D01*
X0021525Y0253565D02*
X0007866Y0253565D01*
X0007862Y0255163D02*
X0021339Y0255163D01*
X0021390Y0256762D02*
X0007857Y0256762D01*
X0007853Y0258360D02*
X0022052Y0258360D01*
X0023238Y0259959D02*
X0007848Y0259959D01*
X0007844Y0261557D02*
X0025736Y0261557D01*
X0040142Y0261557D02*
X0130416Y0261557D01*
X0130220Y0259959D02*
X0042640Y0259959D01*
X0043826Y0258360D02*
X0130474Y0258360D01*
X0131292Y0256762D02*
X0079206Y0256762D01*
X0078842Y0257126D02*
X0077381Y0257731D01*
X0075800Y0257731D01*
X0074339Y0257126D01*
X0073221Y0256007D01*
X0072616Y0254547D01*
X0072616Y0252965D01*
X0073221Y0251504D01*
X0074339Y0250386D01*
X0075800Y0249781D01*
X0077381Y0249781D01*
X0078842Y0250386D01*
X0079960Y0251504D01*
X0080565Y0252965D01*
X0080565Y0254547D01*
X0079960Y0256007D01*
X0078842Y0257126D01*
X0080310Y0255163D02*
X0133418Y0255163D01*
X0132310Y0253565D02*
X0080565Y0253565D01*
X0080152Y0251966D02*
X0131042Y0251966D01*
X0130470Y0250368D02*
X0078798Y0250368D01*
X0074384Y0250368D02*
X0042315Y0250368D01*
X0043691Y0251966D02*
X0073030Y0251966D01*
X0072616Y0253565D02*
X0044353Y0253565D01*
X0044539Y0255163D02*
X0072871Y0255163D01*
X0073975Y0256762D02*
X0044488Y0256762D01*
X0039356Y0248769D02*
X0130470Y0248769D01*
X0131010Y0247171D02*
X0036014Y0247171D01*
X0037507Y0245572D02*
X0132232Y0245572D01*
X0139669Y0242375D02*
X0152846Y0242375D01*
X0151247Y0240777D02*
X0140679Y0240777D01*
X0141070Y0239178D02*
X0150248Y0239178D01*
X0150187Y0237580D02*
X0141009Y0237580D01*
X0140347Y0235981D02*
X0150187Y0235981D01*
X0150187Y0234383D02*
X0138868Y0234383D01*
X0140764Y0228953D02*
X0095882Y0228953D01*
X0069898Y0202969D01*
X0054937Y0191551D02*
X0054937Y0173689D01*
X0055039Y0173587D01*
X0054954Y0176836D02*
X0055125Y0176836D01*
X0058255Y0176836D02*
X0080836Y0176836D01*
X0088402Y0170260D02*
X0096951Y0170260D01*
X0097063Y0170124D01*
X0097063Y0158874D01*
X0088402Y0158874D01*
X0088402Y0170260D01*
X0088402Y0168844D02*
X0097063Y0168844D01*
X0097063Y0167245D02*
X0088402Y0167245D01*
X0088402Y0165647D02*
X0097063Y0165647D01*
X0097063Y0164048D02*
X0088402Y0164048D01*
X0088402Y0162450D02*
X0097063Y0162450D01*
X0097063Y0160851D02*
X0088402Y0160851D01*
X0088402Y0159253D02*
X0097063Y0159253D01*
X0113205Y0154457D02*
X0144630Y0154457D01*
X0144874Y0153867D02*
X0144269Y0155327D01*
X0144269Y0156909D01*
X0144874Y0158370D01*
X0145993Y0159488D01*
X0147453Y0160093D01*
X0149035Y0160093D01*
X0150496Y0159488D01*
X0151614Y0158370D01*
X0152219Y0156909D01*
X0152219Y0155327D01*
X0151614Y0153867D01*
X0150496Y0152748D01*
X0149035Y0152143D01*
X0147453Y0152143D01*
X0145993Y0152748D01*
X0144874Y0153867D01*
X0145882Y0152859D02*
X0113205Y0152859D01*
X0113205Y0151260D02*
X0226171Y0151260D01*
X0224573Y0152859D02*
X0150606Y0152859D01*
X0151858Y0154457D02*
X0222974Y0154457D01*
X0221376Y0156056D02*
X0152219Y0156056D01*
X0151910Y0157654D02*
X0219777Y0157654D01*
X0218179Y0159253D02*
X0150731Y0159253D01*
X0145757Y0159253D02*
X0118776Y0159253D01*
X0119050Y0160851D02*
X0216580Y0160851D01*
X0214982Y0162450D02*
X0119050Y0162450D01*
X0119050Y0164048D02*
X0213383Y0164048D01*
X0211785Y0165647D02*
X0119050Y0165647D01*
X0119050Y0167245D02*
X0210186Y0167245D01*
X0208588Y0168844D02*
X0118892Y0168844D01*
X0118126Y0170442D02*
X0206989Y0170442D01*
X0205391Y0172041D02*
X0115965Y0172041D01*
X0113205Y0173639D02*
X0203792Y0173639D01*
X0202194Y0175238D02*
X0113205Y0175238D01*
X0100692Y0176836D02*
X0200595Y0176836D01*
X0198997Y0178435D02*
X0008079Y0178435D01*
X0008075Y0180033D02*
X0197398Y0180033D01*
X0195800Y0181632D02*
X0008070Y0181632D01*
X0008066Y0183230D02*
X0194201Y0183230D01*
X0192603Y0184829D02*
X0008061Y0184829D01*
X0008057Y0186427D02*
X0191004Y0186427D01*
X0189406Y0188026D02*
X0008052Y0188026D01*
X0008047Y0189624D02*
X0187807Y0189624D01*
X0186209Y0191223D02*
X0008043Y0191223D01*
X0008038Y0192821D02*
X0150802Y0192821D01*
X0149665Y0194420D02*
X0008034Y0194420D01*
X0008029Y0196018D02*
X0149387Y0196018D01*
X0149779Y0197617D02*
X0008025Y0197617D01*
X0008020Y0199215D02*
X0150187Y0199215D01*
X0150187Y0200814D02*
X0008016Y0200814D01*
X0008011Y0202412D02*
X0150187Y0202412D01*
X0150187Y0204011D02*
X0008007Y0204011D01*
X0008002Y0205609D02*
X0150187Y0205609D01*
X0150187Y0207208D02*
X0007998Y0207208D01*
X0007993Y0208806D02*
X0150187Y0208806D01*
X0150187Y0210405D02*
X0007989Y0210405D01*
X0007984Y0212003D02*
X0150187Y0212003D01*
X0150187Y0213602D02*
X0007980Y0213602D01*
X0007975Y0215201D02*
X0150187Y0215201D01*
X0150187Y0216799D02*
X0007970Y0216799D01*
X0007966Y0218398D02*
X0150187Y0218398D01*
X0150187Y0219996D02*
X0007961Y0219996D01*
X0007957Y0221595D02*
X0150187Y0221595D01*
X0150187Y0223193D02*
X0007952Y0223193D01*
X0007948Y0224792D02*
X0150187Y0224792D01*
X0150187Y0226390D02*
X0007943Y0226390D01*
X0007839Y0263156D02*
X0131151Y0263156D01*
X0140438Y0267951D02*
X0172510Y0267951D01*
X0171267Y0269550D02*
X0141070Y0269550D01*
X0141070Y0271148D02*
X0169669Y0271148D01*
X0168070Y0272747D02*
X0140588Y0272747D01*
X0139449Y0274345D02*
X0166472Y0274345D01*
X0168717Y0276591D02*
X0168717Y0335252D01*
X0131630Y0372339D01*
X0131630Y0378087D01*
X0128455Y0373453D02*
X0087526Y0373453D01*
X0087518Y0371855D02*
X0128455Y0371855D01*
X0129223Y0370256D02*
X0087509Y0370256D01*
X0087501Y0368658D02*
X0130821Y0368658D01*
X0132420Y0367059D02*
X0087493Y0367059D01*
X0087484Y0365461D02*
X0134018Y0365461D01*
X0135617Y0363862D02*
X0087476Y0363862D01*
X0087468Y0362264D02*
X0137215Y0362264D01*
X0138814Y0360665D02*
X0087459Y0360665D01*
X0087472Y0359067D02*
X0088072Y0359067D01*
X0088072Y0357468D02*
X0087472Y0357468D01*
X0087472Y0355870D02*
X0088072Y0355870D01*
X0088072Y0354271D02*
X0087472Y0354271D01*
X0087472Y0352672D02*
X0088072Y0352672D01*
X0088072Y0351074D02*
X0087472Y0351074D01*
X0087472Y0349475D02*
X0088072Y0349475D01*
X0088072Y0347877D02*
X0087472Y0347877D01*
X0087472Y0346278D02*
X0088072Y0346278D01*
X0088072Y0344680D02*
X0087472Y0344680D01*
X0087368Y0343081D02*
X0156397Y0343081D01*
X0157996Y0341483D02*
X0087360Y0341483D01*
X0087351Y0339884D02*
X0159594Y0339884D01*
X0161193Y0338286D02*
X0087343Y0338286D01*
X0087335Y0336687D02*
X0162791Y0336687D01*
X0164390Y0335089D02*
X0087326Y0335089D01*
X0087318Y0333490D02*
X0165542Y0333490D01*
X0165542Y0331892D02*
X0087310Y0331892D01*
X0087301Y0330293D02*
X0165542Y0330293D01*
X0165542Y0328695D02*
X0087293Y0328695D01*
X0087285Y0327096D02*
X0165542Y0327096D01*
X0165542Y0325498D02*
X0087276Y0325498D01*
X0087268Y0323899D02*
X0165542Y0323899D01*
X0165542Y0322301D02*
X0087260Y0322301D01*
X0087251Y0320702D02*
X0165542Y0320702D01*
X0165542Y0319104D02*
X0087243Y0319104D01*
X0087235Y0317505D02*
X0165542Y0317505D01*
X0165542Y0315907D02*
X0087226Y0315907D01*
X0081315Y0321079D02*
X0007299Y0321079D01*
X0007299Y0349819D01*
X0047850Y0349819D01*
X0047850Y0334071D01*
X0074622Y0334071D01*
X0074622Y0357693D01*
X0081315Y0357693D01*
X0081315Y0321079D01*
X0081315Y0322301D02*
X0007299Y0322301D01*
X0007299Y0323899D02*
X0081315Y0323899D01*
X0081315Y0325498D02*
X0007299Y0325498D01*
X0007299Y0327096D02*
X0081315Y0327096D01*
X0081315Y0328695D02*
X0007299Y0328695D01*
X0007299Y0330293D02*
X0081315Y0330293D01*
X0081315Y0331892D02*
X0007299Y0331892D01*
X0007299Y0333490D02*
X0081315Y0333490D01*
X0081315Y0335089D02*
X0074622Y0335089D01*
X0074622Y0336687D02*
X0081315Y0336687D01*
X0081315Y0338286D02*
X0074622Y0338286D01*
X0074622Y0339884D02*
X0081315Y0339884D01*
X0081315Y0341483D02*
X0074622Y0341483D01*
X0074622Y0343081D02*
X0081315Y0343081D01*
X0081315Y0344680D02*
X0074622Y0344680D01*
X0074622Y0346278D02*
X0081315Y0346278D01*
X0081315Y0347877D02*
X0074622Y0347877D01*
X0074622Y0349475D02*
X0081315Y0349475D01*
X0081315Y0351074D02*
X0074622Y0351074D01*
X0074622Y0352672D02*
X0081315Y0352672D01*
X0081315Y0354271D02*
X0074622Y0354271D01*
X0074622Y0355870D02*
X0081315Y0355870D01*
X0081315Y0357468D02*
X0074622Y0357468D01*
X0071079Y0357468D02*
X0051787Y0357468D01*
X0051787Y0357693D02*
X0008087Y0357693D01*
X0008087Y0376756D01*
X0009144Y0376318D01*
X0012541Y0376318D01*
X0015680Y0377618D01*
X0018083Y0380021D01*
X0019383Y0383160D01*
X0019383Y0386557D01*
X0018456Y0388795D01*
X0071079Y0388795D01*
X0071079Y0346669D01*
X0051787Y0346669D01*
X0051787Y0357693D01*
X0051787Y0355870D02*
X0071079Y0355870D01*
X0071079Y0354271D02*
X0051787Y0354271D01*
X0051787Y0352672D02*
X0071079Y0352672D01*
X0071079Y0351074D02*
X0051787Y0351074D01*
X0051787Y0349475D02*
X0071079Y0349475D01*
X0071079Y0347877D02*
X0051787Y0347877D01*
X0047850Y0347877D02*
X0007299Y0347877D01*
X0007299Y0349475D02*
X0047850Y0349475D01*
X0047850Y0346278D02*
X0007299Y0346278D01*
X0007299Y0344680D02*
X0047850Y0344680D01*
X0047850Y0343081D02*
X0007299Y0343081D01*
X0007299Y0341483D02*
X0047850Y0341483D01*
X0047850Y0339884D02*
X0007299Y0339884D01*
X0007299Y0338286D02*
X0047850Y0338286D01*
X0047850Y0336687D02*
X0007299Y0336687D01*
X0007299Y0335089D02*
X0047850Y0335089D01*
X0071079Y0359067D02*
X0008087Y0359067D01*
X0008087Y0360665D02*
X0071079Y0360665D01*
X0071079Y0362264D02*
X0008087Y0362264D01*
X0008087Y0363862D02*
X0071079Y0363862D01*
X0071079Y0365461D02*
X0008087Y0365461D01*
X0008087Y0367059D02*
X0071079Y0367059D01*
X0071079Y0368658D02*
X0008087Y0368658D01*
X0008087Y0370256D02*
X0048806Y0370256D01*
X0048806Y0369694D02*
X0049743Y0368756D01*
X0059068Y0368756D01*
X0060005Y0369694D01*
X0060005Y0379019D01*
X0059068Y0379956D01*
X0049743Y0379956D01*
X0048806Y0379019D01*
X0048806Y0369694D01*
X0048806Y0371855D02*
X0008087Y0371855D01*
X0008087Y0373453D02*
X0048806Y0373453D01*
X0048806Y0375052D02*
X0008087Y0375052D01*
X0008087Y0376650D02*
X0008342Y0376650D01*
X0013343Y0376650D02*
X0048806Y0376650D01*
X0048806Y0378249D02*
X0016311Y0378249D01*
X0017909Y0379847D02*
X0049634Y0379847D01*
X0059177Y0379847D02*
X0071079Y0379847D01*
X0071079Y0378249D02*
X0060005Y0378249D01*
X0060005Y0376650D02*
X0071079Y0376650D01*
X0071079Y0375052D02*
X0060005Y0375052D01*
X0060005Y0373453D02*
X0071079Y0373453D01*
X0071079Y0371855D02*
X0060005Y0371855D01*
X0060005Y0370256D02*
X0071079Y0370256D01*
X0071079Y0381446D02*
X0018673Y0381446D01*
X0019335Y0383044D02*
X0071079Y0383044D01*
X0071079Y0384643D02*
X0019383Y0384643D01*
X0019383Y0386241D02*
X0071079Y0386241D01*
X0071079Y0387840D02*
X0018851Y0387840D01*
X0087601Y0387840D02*
X0435905Y0387840D01*
X0435373Y0386241D02*
X0087593Y0386241D01*
X0087584Y0384643D02*
X0435373Y0384643D01*
X0435421Y0383044D02*
X0087576Y0383044D01*
X0088323Y0382461D02*
X0088323Y0378480D01*
X0088323Y0378480D01*
X0088323Y0382461D01*
X0088323Y0381446D02*
X0088323Y0381446D01*
X0088323Y0379847D02*
X0088323Y0379847D01*
X0090988Y0381446D02*
X0093815Y0381446D01*
X0092670Y0379847D02*
X0092066Y0379847D01*
X0092304Y0378249D02*
X0092416Y0378249D01*
X0092862Y0376650D02*
X0091874Y0376650D01*
X0087609Y0389438D02*
X0436567Y0389438D01*
X0436083Y0381446D02*
X0157023Y0381446D01*
X0153481Y0381446D02*
X0149149Y0381446D01*
X0149504Y0378087D02*
X0194307Y0333283D01*
X0194307Y0326185D01*
X0187122Y0319000D01*
X0183901Y0322301D02*
X0180343Y0322301D01*
X0181734Y0320702D02*
X0182510Y0320702D01*
X0182510Y0319104D02*
X0181734Y0319104D01*
X0181734Y0317505D02*
X0182510Y0317505D01*
X0183693Y0315907D02*
X0180551Y0315907D01*
X0179934Y0312710D02*
X0184310Y0312710D01*
X0182711Y0311111D02*
X0181533Y0311111D01*
X0181734Y0309513D02*
X0182510Y0309513D01*
X0182510Y0307914D02*
X0181734Y0307914D01*
X0180960Y0306316D02*
X0183284Y0306316D01*
X0184883Y0304717D02*
X0179361Y0304717D01*
X0179525Y0303119D02*
X0184719Y0303119D01*
X0183120Y0301520D02*
X0181124Y0301520D01*
X0181734Y0299922D02*
X0182510Y0299922D01*
X0190551Y0315907D02*
X0215529Y0315907D01*
X0216198Y0317505D02*
X0191734Y0317505D01*
X0191734Y0319104D02*
X0216112Y0319104D01*
X0216026Y0320702D02*
X0193314Y0320702D01*
X0194913Y0322301D02*
X0215939Y0322301D01*
X0215853Y0323899D02*
X0196511Y0323899D01*
X0197459Y0325498D02*
X0215766Y0325498D01*
X0215680Y0327096D02*
X0197482Y0327096D01*
X0197482Y0328695D02*
X0214847Y0328695D01*
X0214742Y0330293D02*
X0197482Y0330293D01*
X0197482Y0331892D02*
X0215306Y0331892D01*
X0217384Y0333490D02*
X0197482Y0333490D01*
X0196992Y0335089D02*
X0252972Y0335089D01*
X0251374Y0336687D02*
X0195393Y0336687D01*
X0193795Y0338286D02*
X0249775Y0338286D01*
X0248177Y0339884D02*
X0192196Y0339884D01*
X0195529Y0341483D02*
X0246578Y0341483D01*
X0244980Y0343081D02*
X0196527Y0343081D01*
X0196707Y0344680D02*
X0243381Y0344680D01*
X0241783Y0346278D02*
X0196218Y0346278D01*
X0194500Y0347877D02*
X0240184Y0347877D01*
X0238586Y0349475D02*
X0192054Y0349475D01*
X0190455Y0351074D02*
X0236987Y0351074D01*
X0235389Y0352672D02*
X0188857Y0352672D01*
X0187258Y0354271D02*
X0233790Y0354271D01*
X0232192Y0355870D02*
X0185660Y0355870D01*
X0184061Y0357468D02*
X0230593Y0357468D01*
X0228995Y0359067D02*
X0182463Y0359067D01*
X0180864Y0360665D02*
X0227396Y0360665D01*
X0225798Y0362264D02*
X0179266Y0362264D01*
X0177667Y0363862D02*
X0224199Y0363862D01*
X0222601Y0365461D02*
X0176069Y0365461D01*
X0174470Y0367059D02*
X0221002Y0367059D01*
X0219404Y0368658D02*
X0172872Y0368658D01*
X0171273Y0370256D02*
X0217805Y0370256D01*
X0216207Y0371855D02*
X0169675Y0371855D01*
X0168076Y0373453D02*
X0213705Y0373453D01*
X0212065Y0375052D02*
X0166478Y0375052D01*
X0164879Y0376650D02*
X0211592Y0376650D01*
X0211788Y0378249D02*
X0163281Y0378249D01*
X0161682Y0379847D02*
X0212809Y0379847D01*
X0215567Y0376984D02*
X0281709Y0310843D01*
X0281709Y0273835D01*
X0281315Y0273441D01*
X0281701Y0273444D01*
X0325331Y0238121D01*
X0325331Y0234976D01*
X0321445Y0235981D02*
X0297494Y0235981D01*
X0297462Y0234383D02*
X0321356Y0234383D01*
X0321936Y0232784D02*
X0296673Y0232784D01*
X0296813Y0237580D02*
X0320954Y0237580D01*
X0347122Y0289000D02*
X0352035Y0293913D01*
X0361734Y0298323D02*
X0382416Y0298323D01*
X0384014Y0299922D02*
X0361734Y0299922D01*
X0352114Y0313992D02*
X0347122Y0309000D01*
X0359154Y0333490D02*
X0420966Y0333490D01*
X0419386Y0344680D02*
X0349162Y0344680D01*
X0378031Y0374370D02*
X0379094Y0373306D01*
X0379659Y0373072D01*
X0271163Y0373072D01*
X0270968Y0373267D01*
X0269507Y0373872D01*
X0267926Y0373872D01*
X0266465Y0373267D01*
X0265347Y0372149D01*
X0264742Y0370688D01*
X0264742Y0369107D01*
X0265347Y0367646D01*
X0266220Y0366773D01*
X0259008Y0366773D01*
X0258324Y0367457D01*
X0258518Y0367926D01*
X0258518Y0369507D01*
X0257913Y0370968D01*
X0256795Y0372086D01*
X0255334Y0372691D01*
X0253753Y0372691D01*
X0252292Y0372086D01*
X0251174Y0370968D01*
X0250569Y0369507D01*
X0250569Y0367926D01*
X0251174Y0366465D01*
X0251369Y0366270D01*
X0251369Y0366117D01*
X0251852Y0364950D01*
X0255001Y0361800D01*
X0255146Y0361655D01*
X0248378Y0361655D01*
X0242770Y0367263D01*
X0242770Y0368326D01*
X0242165Y0369787D01*
X0241047Y0370905D01*
X0239586Y0371510D01*
X0238005Y0371510D01*
X0236544Y0370905D01*
X0235426Y0369787D01*
X0234820Y0368326D01*
X0234820Y0366745D01*
X0235426Y0365284D01*
X0236544Y0364166D01*
X0237131Y0363923D01*
X0244372Y0356682D01*
X0245265Y0355789D01*
X0246431Y0355306D01*
X0387458Y0355306D01*
X0388625Y0355789D01*
X0405567Y0372731D01*
X0405610Y0372731D01*
X0407000Y0373306D01*
X0408064Y0374370D01*
X0408639Y0375760D01*
X0408639Y0377264D01*
X0408064Y0378654D01*
X0407000Y0379717D01*
X0405610Y0380293D01*
X0404106Y0380293D01*
X0402716Y0379717D01*
X0401653Y0378654D01*
X0401077Y0377264D01*
X0401077Y0377221D01*
X0400765Y0376909D01*
X0400765Y0377264D01*
X0400190Y0378654D01*
X0399126Y0379717D01*
X0397736Y0380293D01*
X0396232Y0380293D01*
X0394842Y0379717D01*
X0393779Y0378654D01*
X0393203Y0377264D01*
X0393203Y0377221D01*
X0392891Y0376909D01*
X0392891Y0377264D01*
X0392316Y0378654D01*
X0391252Y0379717D01*
X0389862Y0380293D01*
X0388358Y0380293D01*
X0386968Y0379717D01*
X0385905Y0378654D01*
X0385329Y0377264D01*
X0385329Y0377221D01*
X0385017Y0376909D01*
X0385017Y0377264D01*
X0384442Y0378654D01*
X0383378Y0379717D01*
X0381988Y0380293D01*
X0380484Y0380293D01*
X0379094Y0379717D01*
X0378031Y0378654D01*
X0377455Y0377264D01*
X0377455Y0375760D01*
X0378031Y0374370D01*
X0377748Y0375052D02*
X0221989Y0375052D01*
X0220391Y0376650D02*
X0377455Y0376650D01*
X0377863Y0378249D02*
X0219345Y0378249D01*
X0218325Y0379847D02*
X0379408Y0379847D01*
X0383064Y0379847D02*
X0387282Y0379847D01*
X0385737Y0378249D02*
X0384609Y0378249D01*
X0389110Y0376512D02*
X0382496Y0369898D01*
X0268717Y0369898D01*
X0265934Y0367059D02*
X0258722Y0367059D01*
X0258518Y0368658D02*
X0264928Y0368658D01*
X0264742Y0370256D02*
X0258208Y0370256D01*
X0257026Y0371855D02*
X0265225Y0371855D01*
X0266914Y0373453D02*
X0223588Y0373453D01*
X0225186Y0371855D02*
X0252060Y0371855D01*
X0250879Y0370256D02*
X0241696Y0370256D01*
X0242633Y0368658D02*
X0250569Y0368658D01*
X0250928Y0367059D02*
X0242974Y0367059D01*
X0244573Y0365461D02*
X0251640Y0365461D01*
X0252939Y0363862D02*
X0246171Y0363862D01*
X0247770Y0362264D02*
X0254538Y0362264D01*
X0257693Y0363598D02*
X0254543Y0366748D01*
X0254543Y0368717D01*
X0257693Y0363598D02*
X0384071Y0363598D01*
X0396984Y0376512D01*
X0393611Y0378249D02*
X0392483Y0378249D01*
X0390938Y0379847D02*
X0395156Y0379847D01*
X0398812Y0379847D02*
X0403030Y0379847D01*
X0401485Y0378249D02*
X0400357Y0378249D01*
X0404858Y0376512D02*
X0386827Y0358480D01*
X0247063Y0358480D01*
X0238795Y0366748D01*
X0238795Y0367535D01*
X0235895Y0370256D02*
X0226785Y0370256D01*
X0228383Y0368658D02*
X0234958Y0368658D01*
X0234820Y0367059D02*
X0229982Y0367059D01*
X0231580Y0365461D02*
X0235352Y0365461D01*
X0237191Y0363862D02*
X0233179Y0363862D01*
X0234777Y0362264D02*
X0238790Y0362264D01*
X0240388Y0360665D02*
X0236376Y0360665D01*
X0237974Y0359067D02*
X0241987Y0359067D01*
X0243585Y0357468D02*
X0239573Y0357468D01*
X0241172Y0355870D02*
X0245184Y0355870D01*
X0242770Y0354271D02*
X0419637Y0354271D01*
X0418760Y0355870D02*
X0388706Y0355870D01*
X0390304Y0357468D02*
X0418568Y0357468D01*
X0418941Y0359067D02*
X0391903Y0359067D01*
X0393501Y0360665D02*
X0420073Y0360665D01*
X0421333Y0362633D02*
X0422053Y0362399D01*
X0422801Y0362281D01*
X0422976Y0362281D01*
X0422976Y0366888D01*
X0423384Y0366888D01*
X0423384Y0362281D01*
X0423559Y0362281D01*
X0424307Y0362399D01*
X0425027Y0362633D01*
X0425702Y0362977D01*
X0426315Y0363422D01*
X0426850Y0363958D01*
X0427296Y0364571D01*
X0427639Y0365245D01*
X0427873Y0365966D01*
X0427992Y0366714D01*
X0427992Y0366889D01*
X0423384Y0366889D01*
X0423384Y0367296D01*
X0427992Y0367296D01*
X0427992Y0367471D01*
X0427873Y0368219D01*
X0427639Y0368940D01*
X0427296Y0369614D01*
X0426850Y0370227D01*
X0426315Y0370763D01*
X0425702Y0371208D01*
X0425027Y0371552D01*
X0424307Y0371786D01*
X0423559Y0371904D01*
X0423384Y0371904D01*
X0423384Y0367297D01*
X0422976Y0367297D01*
X0422976Y0371904D01*
X0422801Y0371904D01*
X0422053Y0371786D01*
X0421333Y0371552D01*
X0420658Y0371208D01*
X0420045Y0370763D01*
X0419510Y0370227D01*
X0419065Y0369614D01*
X0418721Y0368940D01*
X0418487Y0368219D01*
X0418368Y0367471D01*
X0418368Y0367296D01*
X0422976Y0367296D01*
X0422976Y0366889D01*
X0418368Y0366889D01*
X0418368Y0366714D01*
X0418487Y0365966D01*
X0418721Y0365245D01*
X0419065Y0364571D01*
X0419510Y0363958D01*
X0420045Y0363422D01*
X0420658Y0362977D01*
X0421333Y0362633D01*
X0422976Y0363862D02*
X0423384Y0363862D01*
X0423384Y0365461D02*
X0422976Y0365461D01*
X0422976Y0367059D02*
X0399895Y0367059D01*
X0398297Y0365461D02*
X0418651Y0365461D01*
X0419606Y0363862D02*
X0396698Y0363862D01*
X0395100Y0362264D02*
X0448956Y0362264D01*
X0448956Y0363862D02*
X0426755Y0363862D01*
X0427709Y0365461D02*
X0448956Y0365461D01*
X0448956Y0367059D02*
X0423384Y0367059D01*
X0423384Y0368658D02*
X0422976Y0368658D01*
X0422976Y0370256D02*
X0423384Y0370256D01*
X0423384Y0371855D02*
X0422976Y0371855D01*
X0422488Y0371855D02*
X0404691Y0371855D01*
X0403092Y0370256D02*
X0419539Y0370256D01*
X0418629Y0368658D02*
X0401494Y0368658D01*
X0407147Y0373453D02*
X0448956Y0373453D01*
X0448956Y0371855D02*
X0423873Y0371855D01*
X0426821Y0370256D02*
X0448956Y0370256D01*
X0448956Y0368658D02*
X0427731Y0368658D01*
X0426287Y0360665D02*
X0448956Y0360665D01*
X0448956Y0359067D02*
X0427419Y0359067D01*
X0427792Y0357468D02*
X0448956Y0357468D01*
X0448956Y0355870D02*
X0427600Y0355870D01*
X0426723Y0354271D02*
X0448956Y0354271D01*
X0448956Y0375052D02*
X0408346Y0375052D01*
X0408639Y0376650D02*
X0441413Y0376650D01*
X0438445Y0378249D02*
X0408231Y0378249D01*
X0406686Y0379847D02*
X0436847Y0379847D01*
X0446414Y0376650D02*
X0448956Y0376650D01*
X0378948Y0373453D02*
X0270519Y0373453D01*
X0192732Y0344307D02*
X0158953Y0378087D01*
X0155252Y0378087D01*
X0149504Y0378087D02*
X0147378Y0378087D01*
X0143597Y0378249D02*
X0143285Y0378249D01*
X0142867Y0379847D02*
X0144015Y0379847D01*
X0145607Y0381446D02*
X0141275Y0381446D01*
X0139504Y0378087D02*
X0139504Y0377457D01*
X0182102Y0335252D01*
X0181734Y0330293D02*
X0182510Y0330293D01*
X0182510Y0328695D02*
X0181734Y0328695D01*
X0181734Y0327096D02*
X0182510Y0327096D01*
X0184102Y0325498D02*
X0180142Y0325498D01*
X0187531Y0323899D02*
X0171891Y0323899D01*
X0165542Y0314308D02*
X0007694Y0314308D01*
X0007699Y0312710D02*
X0165542Y0312710D01*
X0146669Y0300606D02*
X0146669Y0234858D01*
X0140764Y0228953D01*
X0153362Y0238402D02*
X0173961Y0259000D01*
X0177122Y0259000D01*
X0175165Y0253565D02*
X0173015Y0253565D01*
X0173566Y0251966D02*
X0171417Y0251966D01*
X0172510Y0250368D02*
X0169818Y0250368D01*
X0168220Y0248769D02*
X0172401Y0248769D01*
X0170803Y0247171D02*
X0166621Y0247171D01*
X0165023Y0245572D02*
X0169204Y0245572D01*
X0167606Y0243974D02*
X0163424Y0243974D01*
X0161826Y0242375D02*
X0166007Y0242375D01*
X0164409Y0240777D02*
X0160227Y0240777D01*
X0158629Y0239178D02*
X0163310Y0239178D01*
X0163180Y0237580D02*
X0157030Y0237580D01*
X0156537Y0235981D02*
X0163180Y0235981D01*
X0163180Y0234383D02*
X0156537Y0234383D01*
X0156537Y0232784D02*
X0163180Y0232784D01*
X0163180Y0231186D02*
X0156537Y0231186D01*
X0156537Y0229587D02*
X0163180Y0229587D01*
X0163180Y0227989D02*
X0156537Y0227989D01*
X0156537Y0226390D02*
X0163180Y0226390D01*
X0163180Y0224792D02*
X0156537Y0224792D01*
X0156537Y0223193D02*
X0163180Y0223193D01*
X0163180Y0221595D02*
X0156537Y0221595D01*
X0156537Y0219996D02*
X0163180Y0219996D01*
X0163180Y0218398D02*
X0156537Y0218398D01*
X0156537Y0216799D02*
X0163340Y0216799D01*
X0164646Y0215201D02*
X0156537Y0215201D01*
X0156537Y0213602D02*
X0166786Y0213602D01*
X0168877Y0212003D02*
X0156537Y0212003D01*
X0156537Y0210405D02*
X0169832Y0210405D01*
X0173047Y0212811D02*
X0166354Y0217929D01*
X0166354Y0238232D01*
X0177122Y0249000D01*
X0177000Y0244388D02*
X0178928Y0244388D01*
X0178928Y0243812D01*
X0177326Y0243812D01*
X0177326Y0239204D01*
X0176918Y0239204D01*
X0176918Y0243812D01*
X0176424Y0243812D01*
X0177000Y0244388D01*
X0176586Y0243974D02*
X0178928Y0243974D01*
X0177326Y0242375D02*
X0176918Y0242375D01*
X0176918Y0240777D02*
X0177326Y0240777D01*
X0176918Y0239178D02*
X0171790Y0239178D01*
X0172310Y0237580D02*
X0170192Y0237580D01*
X0169529Y0235981D02*
X0173336Y0235981D01*
X0174934Y0234383D02*
X0169529Y0234383D01*
X0169529Y0232784D02*
X0178928Y0232784D01*
X0178928Y0231186D02*
X0169529Y0231186D01*
X0169529Y0229587D02*
X0178928Y0229587D01*
X0178928Y0227989D02*
X0169529Y0227989D01*
X0169529Y0226390D02*
X0178928Y0226390D01*
X0178928Y0224792D02*
X0169529Y0224792D01*
X0169529Y0223193D02*
X0178928Y0223193D01*
X0178928Y0221595D02*
X0169529Y0221595D01*
X0169529Y0219996D02*
X0178928Y0219996D01*
X0178928Y0218398D02*
X0170968Y0218398D01*
X0173059Y0216799D02*
X0178928Y0216799D01*
X0178928Y0215201D02*
X0176279Y0215201D01*
X0176262Y0210405D02*
X0178928Y0210405D01*
X0178928Y0208806D02*
X0156537Y0208806D01*
X0156537Y0207208D02*
X0178928Y0207208D01*
X0178928Y0205609D02*
X0156537Y0205609D01*
X0156537Y0204011D02*
X0178928Y0204011D01*
X0178928Y0202412D02*
X0156537Y0202412D01*
X0156537Y0200814D02*
X0178928Y0200814D01*
X0178928Y0199215D02*
X0156537Y0199215D01*
X0156946Y0197617D02*
X0179815Y0197617D01*
X0181413Y0196018D02*
X0157337Y0196018D01*
X0157059Y0194420D02*
X0183012Y0194420D01*
X0184610Y0192821D02*
X0155923Y0192821D01*
X0153362Y0195882D02*
X0153362Y0238402D01*
X0176918Y0237580D02*
X0177326Y0237580D01*
X0177326Y0235981D02*
X0176918Y0235981D01*
X0176918Y0234383D02*
X0177326Y0234383D01*
X0185277Y0234383D02*
X0220106Y0234383D01*
X0218507Y0235981D02*
X0190625Y0235981D01*
X0191734Y0237580D02*
X0216909Y0237580D01*
X0215310Y0239178D02*
X0191734Y0239178D01*
X0191734Y0240777D02*
X0213712Y0240777D01*
X0212113Y0242375D02*
X0190269Y0242375D01*
X0190216Y0245572D02*
X0208631Y0245572D01*
X0207032Y0247171D02*
X0191734Y0247171D01*
X0191734Y0248769D02*
X0205434Y0248769D01*
X0203835Y0250368D02*
X0191734Y0250368D01*
X0190678Y0251966D02*
X0202237Y0251966D01*
X0200638Y0253565D02*
X0189079Y0253565D01*
X0189807Y0255163D02*
X0199040Y0255163D01*
X0197441Y0256762D02*
X0191406Y0256762D01*
X0191734Y0258360D02*
X0195843Y0258360D01*
X0194549Y0259959D02*
X0191734Y0259959D01*
X0191087Y0261557D02*
X0194282Y0261557D01*
X0194282Y0263156D02*
X0189488Y0263156D01*
X0189398Y0264754D02*
X0194282Y0264754D01*
X0194282Y0266353D02*
X0190997Y0266353D01*
X0191734Y0267951D02*
X0194282Y0267951D01*
X0194282Y0269550D02*
X0191734Y0269550D01*
X0191496Y0271148D02*
X0194282Y0271148D01*
X0194282Y0272747D02*
X0189897Y0272747D01*
X0190588Y0275944D02*
X0194282Y0275944D01*
X0194282Y0277542D02*
X0191734Y0277542D01*
X0191734Y0279141D02*
X0193960Y0279141D01*
X0192361Y0280739D02*
X0191734Y0280739D01*
X0194282Y0274345D02*
X0185277Y0274345D01*
X0182102Y0274020D02*
X0182102Y0199819D01*
X0271079Y0110843D01*
X0271079Y0044701D01*
X0285280Y0030500D01*
X0289125Y0030500D01*
X0285553Y0026576D02*
X0249039Y0026576D01*
X0247440Y0028175D02*
X0283115Y0028175D01*
X0281516Y0029773D02*
X0245842Y0029773D01*
X0244243Y0031372D02*
X0279918Y0031372D01*
X0278319Y0032970D02*
X0242645Y0032970D01*
X0240813Y0030312D02*
X0209340Y0030312D01*
X0194412Y0030312D01*
X0182340Y0030312D01*
X0166787Y0030312D01*
X0154715Y0030312D01*
X0138162Y0030312D01*
X0127840Y0030312D01*
X0110787Y0030312D01*
X0098090Y0030312D01*
X0082287Y0030312D01*
X0070590Y0030312D01*
X0053662Y0030312D01*
X0041465Y0030312D01*
X0025162Y0030312D01*
X0020850Y0026000D01*
X0018535Y0028175D02*
X0008087Y0028175D01*
X0008087Y0029773D02*
X0020133Y0029773D01*
X0021732Y0031372D02*
X0008087Y0031372D01*
X0008087Y0032970D02*
X0023330Y0032970D01*
X0026650Y0026000D02*
X0032299Y0026000D01*
X0032496Y0025803D01*
X0030650Y0026000D02*
X0026650Y0026000D01*
X0030650Y0026000D01*
X0030650Y0026837D01*
X0030570Y0027137D01*
X0039292Y0027137D01*
X0039323Y0027107D01*
X0040712Y0026531D01*
X0042217Y0026531D01*
X0043606Y0027107D01*
X0043637Y0027137D01*
X0046050Y0027137D01*
X0046050Y0025337D01*
X0046050Y0022342D01*
X0045246Y0023147D01*
X0045246Y0023190D01*
X0044670Y0024580D01*
X0043606Y0025643D01*
X0042217Y0026219D01*
X0040712Y0026219D01*
X0039323Y0025643D01*
X0038259Y0024580D01*
X0037683Y0023190D01*
X0037683Y0022285D01*
X0030599Y0022285D01*
X0030450Y0022457D01*
X0030450Y0023263D01*
X0029827Y0023886D01*
X0029955Y0023960D01*
X0030290Y0024295D01*
X0030527Y0024705D01*
X0030650Y0025163D01*
X0030650Y0026000D01*
X0030650Y0026576D02*
X0040603Y0026576D01*
X0042326Y0026576D02*
X0046050Y0026576D01*
X0046050Y0024978D02*
X0044272Y0024978D01*
X0045167Y0023379D02*
X0046050Y0023379D01*
X0044792Y0019110D02*
X0059040Y0019110D01*
X0055650Y0022500D01*
X0058827Y0024386D02*
X0058955Y0024460D01*
X0059290Y0024795D01*
X0059527Y0025205D01*
X0059650Y0025663D01*
X0059650Y0026500D01*
X0059650Y0027137D01*
X0068417Y0027137D01*
X0068448Y0027107D01*
X0069837Y0026531D01*
X0071342Y0026531D01*
X0072731Y0027107D01*
X0072762Y0027137D01*
X0074675Y0027137D01*
X0074675Y0025337D01*
X0074675Y0022842D01*
X0074371Y0023147D01*
X0074371Y0023190D01*
X0073795Y0024580D01*
X0072731Y0025643D01*
X0071342Y0026219D01*
X0069837Y0026219D01*
X0068448Y0025643D01*
X0067384Y0024580D01*
X0066808Y0023190D01*
X0066808Y0022285D01*
X0060355Y0022285D01*
X0059450Y0023190D01*
X0059450Y0023763D01*
X0058827Y0024386D01*
X0059396Y0024978D02*
X0067782Y0024978D01*
X0066887Y0023379D02*
X0059450Y0023379D01*
X0059650Y0026500D02*
X0055650Y0026500D01*
X0059965Y0026500D01*
X0064386Y0025409D01*
X0059650Y0026500D02*
X0055650Y0026500D01*
X0055650Y0026500D01*
X0059650Y0026576D02*
X0069728Y0026576D01*
X0071451Y0026576D02*
X0074675Y0026576D01*
X0074675Y0024978D02*
X0073397Y0024978D01*
X0074292Y0023379D02*
X0074675Y0023379D01*
X0070590Y0022438D02*
X0073917Y0019110D01*
X0087220Y0019110D01*
X0087220Y0019555D01*
X0084275Y0022500D01*
X0087452Y0024386D02*
X0087580Y0024460D01*
X0087915Y0024795D01*
X0088152Y0025205D01*
X0088275Y0025663D01*
X0088275Y0026500D01*
X0088275Y0027137D01*
X0095917Y0027137D01*
X0095948Y0027107D01*
X0097337Y0026531D01*
X0098842Y0026531D01*
X0100231Y0027107D01*
X0100262Y0027137D01*
X0103175Y0027137D01*
X0103175Y0025337D01*
X0103175Y0022285D01*
X0102732Y0022285D01*
X0101871Y0023147D01*
X0101871Y0023190D01*
X0101295Y0024580D01*
X0100231Y0025643D01*
X0098842Y0026219D01*
X0097337Y0026219D01*
X0095948Y0025643D01*
X0094884Y0024580D01*
X0094308Y0023190D01*
X0094308Y0022285D01*
X0088980Y0022285D01*
X0088075Y0023190D01*
X0088075Y0023763D01*
X0087452Y0024386D01*
X0088021Y0024978D02*
X0095282Y0024978D01*
X0094387Y0023379D02*
X0088075Y0023379D01*
X0088275Y0026500D02*
X0084275Y0026500D01*
X0091067Y0026500D01*
X0092339Y0025803D01*
X0088275Y0026500D02*
X0084275Y0026500D01*
X0084275Y0026500D01*
X0088275Y0026576D02*
X0097228Y0026576D01*
X0098951Y0026576D02*
X0103175Y0026576D01*
X0103175Y0024978D02*
X0100897Y0024978D01*
X0101792Y0023379D02*
X0103175Y0023379D01*
X0101417Y0019110D02*
X0116165Y0019110D01*
X0112775Y0022500D01*
X0115952Y0024386D02*
X0116080Y0024460D01*
X0116415Y0024795D01*
X0116652Y0025205D01*
X0116775Y0025663D01*
X0116775Y0026500D01*
X0116775Y0027137D01*
X0125667Y0027137D01*
X0125698Y0027107D01*
X0127087Y0026531D01*
X0128592Y0026531D01*
X0129981Y0027107D01*
X0130012Y0027137D01*
X0130550Y0027137D01*
X0130550Y0025337D01*
X0130550Y0025075D01*
X0129981Y0025643D01*
X0128592Y0026219D01*
X0127087Y0026219D01*
X0125698Y0025643D01*
X0124634Y0024580D01*
X0124058Y0023190D01*
X0124058Y0022285D01*
X0117480Y0022285D01*
X0116575Y0023190D01*
X0116575Y0023763D01*
X0115952Y0024386D01*
X0116521Y0024978D02*
X0125032Y0024978D01*
X0124137Y0023379D02*
X0116575Y0023379D01*
X0116775Y0026500D02*
X0112775Y0026500D01*
X0119988Y0026500D01*
X0120685Y0025803D01*
X0116775Y0026500D02*
X0112775Y0026500D01*
X0112775Y0026500D01*
X0116775Y0026576D02*
X0126978Y0026576D01*
X0128701Y0026576D02*
X0130550Y0026576D01*
X0134350Y0026500D02*
X0138162Y0030312D01*
X0140150Y0026500D02*
X0146760Y0026500D01*
X0149031Y0025409D01*
X0151509Y0024580D02*
X0150933Y0023190D01*
X0150933Y0022746D01*
X0150472Y0022285D01*
X0144855Y0022285D01*
X0143950Y0023190D01*
X0143950Y0023763D01*
X0143327Y0024386D01*
X0143455Y0024460D01*
X0143790Y0024795D01*
X0144027Y0025205D01*
X0144150Y0025663D01*
X0144150Y0026500D01*
X0144150Y0027137D01*
X0152542Y0027137D01*
X0152573Y0027107D01*
X0153962Y0026531D01*
X0155467Y0026531D01*
X0156856Y0027107D01*
X0156887Y0027137D01*
X0159175Y0027137D01*
X0159175Y0025337D01*
X0159175Y0022467D01*
X0158496Y0023147D01*
X0158496Y0023190D01*
X0157920Y0024580D01*
X0156856Y0025643D01*
X0155467Y0026219D01*
X0153962Y0026219D01*
X0152573Y0025643D01*
X0151509Y0024580D01*
X0151907Y0024978D02*
X0143896Y0024978D01*
X0144150Y0026500D02*
X0140150Y0026500D01*
X0144150Y0026500D01*
X0144150Y0026576D02*
X0153853Y0026576D01*
X0155576Y0026576D02*
X0159175Y0026576D01*
X0159175Y0024978D02*
X0157522Y0024978D01*
X0158417Y0023379D02*
X0159175Y0023379D01*
X0158042Y0019110D02*
X0174527Y0019110D01*
X0185667Y0019110D01*
X0199790Y0019110D01*
X0196400Y0022500D01*
X0200200Y0023379D02*
X0205637Y0023379D01*
X0206532Y0024978D02*
X0200146Y0024978D01*
X0200400Y0026500D02*
X0196400Y0026500D01*
X0201091Y0026500D01*
X0202575Y0025803D01*
X0200400Y0026500D02*
X0196400Y0026500D01*
X0196400Y0026500D01*
X0200400Y0026576D02*
X0208478Y0026576D01*
X0209340Y0022438D02*
X0209340Y0021151D01*
X0207299Y0019110D02*
X0199790Y0019110D01*
X0196779Y0014036D02*
X0195462Y0014581D01*
X0194038Y0014581D01*
X0192721Y0014036D01*
X0191714Y0013029D01*
X0191169Y0011712D01*
X0191169Y0010288D01*
X0191714Y0008971D01*
X0192721Y0007964D01*
X0194038Y0007419D01*
X0195462Y0007419D01*
X0196779Y0007964D01*
X0197786Y0008971D01*
X0198331Y0010288D01*
X0198331Y0011712D01*
X0197786Y0013029D01*
X0196779Y0014036D01*
X0197026Y0013788D02*
X0435890Y0013788D01*
X0435373Y0012190D02*
X0198133Y0012190D01*
X0198331Y0010591D02*
X0435373Y0010591D01*
X0435436Y0008993D02*
X0197795Y0008993D01*
X0191705Y0008993D02*
X0141545Y0008993D01*
X0142081Y0010591D02*
X0191169Y0010591D01*
X0191367Y0012190D02*
X0141883Y0012190D01*
X0140776Y0013788D02*
X0192474Y0013788D01*
X0185667Y0019110D02*
X0182340Y0022438D01*
X0182340Y0021710D01*
X0178558Y0022285D02*
X0175393Y0022285D01*
X0172130Y0024208D01*
X0171952Y0024386D01*
X0172080Y0024460D01*
X0172415Y0024795D01*
X0172652Y0025205D01*
X0172775Y0025663D01*
X0172775Y0026500D01*
X0172775Y0027137D01*
X0180167Y0027137D01*
X0180198Y0027107D01*
X0181587Y0026531D01*
X0183092Y0026531D01*
X0184481Y0027107D01*
X0184512Y0027137D01*
X0186800Y0027137D01*
X0186800Y0025337D01*
X0186800Y0022467D01*
X0186121Y0023147D01*
X0186121Y0023190D01*
X0185545Y0024580D01*
X0184481Y0025643D01*
X0183092Y0026219D01*
X0181587Y0026219D01*
X0180198Y0025643D01*
X0179134Y0024580D01*
X0178558Y0023190D01*
X0178558Y0022285D01*
X0178637Y0023379D02*
X0173536Y0023379D01*
X0172521Y0024978D02*
X0179532Y0024978D01*
X0181478Y0026576D02*
X0172775Y0026576D01*
X0172775Y0026500D02*
X0168775Y0026500D01*
X0174319Y0026500D01*
X0175016Y0025803D01*
X0172775Y0026500D02*
X0168775Y0026500D01*
X0168775Y0026500D01*
X0168775Y0022500D02*
X0174527Y0019110D01*
X0183201Y0026576D02*
X0186800Y0026576D01*
X0186800Y0024978D02*
X0185147Y0024978D01*
X0186042Y0023379D02*
X0186800Y0023379D01*
X0190600Y0026500D02*
X0194412Y0030312D01*
X0183487Y0034569D02*
X0208192Y0034569D01*
X0210487Y0034569D02*
X0276721Y0034569D01*
X0275122Y0036167D02*
X0212596Y0036167D01*
X0213121Y0037766D02*
X0273524Y0037766D01*
X0271925Y0039364D02*
X0212944Y0039364D01*
X0211910Y0040963D02*
X0270327Y0040963D01*
X0268387Y0042902D02*
X0267904Y0044069D01*
X0267904Y0045473D01*
X0267887Y0045450D01*
X0267400Y0044963D01*
X0266843Y0044558D01*
X0266229Y0044246D01*
X0265574Y0044033D01*
X0264894Y0043925D01*
X0264550Y0043925D01*
X0264550Y0048300D01*
X0264550Y0048300D01*
X0264550Y0052675D01*
X0264550Y0048300D01*
X0264550Y0048300D01*
X0264550Y0048300D01*
X0264550Y0043925D01*
X0264206Y0043925D01*
X0263526Y0044033D01*
X0262871Y0044246D01*
X0262257Y0044558D01*
X0261700Y0044963D01*
X0261213Y0045450D01*
X0260808Y0046007D01*
X0260496Y0046621D01*
X0260283Y0047276D01*
X0260175Y0047956D01*
X0260175Y0048300D01*
X0264550Y0048300D01*
X0264550Y0048955D02*
X0264550Y0048955D01*
X0264550Y0047357D02*
X0264550Y0047357D01*
X0264550Y0045758D02*
X0264550Y0045758D01*
X0264550Y0044160D02*
X0264550Y0044160D01*
X0265965Y0044160D02*
X0267904Y0044160D01*
X0263135Y0044160D02*
X0254300Y0044160D01*
X0252500Y0044160D02*
X0252500Y0044160D01*
X0252500Y0045758D02*
X0252500Y0045758D01*
X0252500Y0047357D02*
X0252500Y0047357D01*
X0252500Y0048955D02*
X0252500Y0048955D01*
X0252500Y0050554D02*
X0252500Y0050554D01*
X0252500Y0052152D02*
X0252500Y0052152D01*
X0254286Y0052152D02*
X0262474Y0052152D01*
X0264550Y0052152D02*
X0264550Y0052152D01*
X0264550Y0050554D02*
X0264550Y0050554D01*
X0266626Y0052152D02*
X0267904Y0052152D01*
X0267904Y0053751D02*
X0008087Y0053751D01*
X0008087Y0055349D02*
X0267904Y0055349D01*
X0267904Y0056948D02*
X0008087Y0056948D01*
X0008087Y0058546D02*
X0267904Y0058546D01*
X0267904Y0060145D02*
X0008087Y0060145D01*
X0008087Y0061743D02*
X0267904Y0061743D01*
X0267904Y0063342D02*
X0008087Y0063342D01*
X0008087Y0064940D02*
X0267904Y0064940D01*
X0267904Y0066539D02*
X0008087Y0066539D01*
X0008087Y0068137D02*
X0267904Y0068137D01*
X0267904Y0069736D02*
X0008087Y0069736D01*
X0008087Y0071334D02*
X0267904Y0071334D01*
X0267904Y0072933D02*
X0008087Y0072933D01*
X0008087Y0074532D02*
X0267904Y0074532D01*
X0267904Y0076130D02*
X0008087Y0076130D01*
X0008087Y0077729D02*
X0254647Y0077729D01*
X0255440Y0077400D02*
X0253566Y0078176D01*
X0252131Y0079611D01*
X0251355Y0081486D01*
X0251355Y0083514D01*
X0252131Y0085389D01*
X0253566Y0086824D01*
X0255440Y0087600D01*
X0257469Y0087600D01*
X0259344Y0086824D01*
X0260778Y0085389D01*
X0261555Y0083514D01*
X0261555Y0081486D01*
X0260778Y0079611D01*
X0259344Y0078176D01*
X0257469Y0077400D01*
X0255440Y0077400D01*
X0258262Y0077729D02*
X0267904Y0077729D01*
X0267904Y0079327D02*
X0260494Y0079327D01*
X0261323Y0080926D02*
X0267904Y0080926D01*
X0267904Y0082524D02*
X0261555Y0082524D01*
X0261303Y0084123D02*
X0267904Y0084123D01*
X0267904Y0085721D02*
X0260446Y0085721D01*
X0258146Y0087320D02*
X0267904Y0087320D01*
X0267904Y0088918D02*
X0156605Y0088918D01*
X0155954Y0089187D02*
X0154530Y0089187D01*
X0153214Y0088642D01*
X0152206Y0087635D01*
X0151661Y0086319D01*
X0151661Y0084894D01*
X0152206Y0083578D01*
X0153214Y0082570D01*
X0154530Y0082025D01*
X0155954Y0082025D01*
X0157271Y0082570D01*
X0158278Y0083578D01*
X0158823Y0084894D01*
X0158823Y0086319D01*
X0158278Y0087635D01*
X0157271Y0088642D01*
X0155954Y0089187D01*
X0153880Y0088918D02*
X0120380Y0088918D01*
X0120271Y0088511D02*
X0121450Y0092911D01*
X0121450Y0097467D01*
X0120271Y0101867D01*
X0117993Y0105811D01*
X0114772Y0109032D01*
X0110827Y0111310D01*
X0106427Y0112489D01*
X0101872Y0112489D01*
X0097472Y0111310D01*
X0093527Y0109032D01*
X0090306Y0105811D01*
X0088029Y0101867D01*
X0086850Y0097467D01*
X0086850Y0092911D01*
X0088029Y0088511D01*
X0090306Y0084567D01*
X0093527Y0081346D01*
X0097472Y0079068D01*
X0101872Y0077889D01*
X0106427Y0077889D01*
X0110827Y0079068D01*
X0114772Y0081346D01*
X0117993Y0084567D01*
X0120271Y0088511D01*
X0119583Y0087320D02*
X0152076Y0087320D01*
X0151661Y0085721D02*
X0118660Y0085721D01*
X0117549Y0084123D02*
X0151981Y0084123D01*
X0153325Y0082524D02*
X0115951Y0082524D01*
X0114045Y0080926D02*
X0251587Y0080926D01*
X0251355Y0082524D02*
X0157159Y0082524D01*
X0158504Y0084123D02*
X0251607Y0084123D01*
X0252463Y0085721D02*
X0158823Y0085721D01*
X0158409Y0087320D02*
X0254763Y0087320D01*
X0252415Y0079327D02*
X0111276Y0079327D01*
X0120808Y0090517D02*
X0267904Y0090517D01*
X0267904Y0092115D02*
X0121236Y0092115D01*
X0121450Y0093714D02*
X0267904Y0093714D01*
X0267904Y0095312D02*
X0121450Y0095312D01*
X0121450Y0096911D02*
X0267904Y0096911D01*
X0267904Y0098509D02*
X0121170Y0098509D01*
X0120742Y0100108D02*
X0267904Y0100108D01*
X0267904Y0101706D02*
X0120314Y0101706D01*
X0119440Y0103305D02*
X0267904Y0103305D01*
X0267904Y0104903D02*
X0149107Y0104903D01*
X0148921Y0104717D02*
X0150039Y0105835D01*
X0150644Y0107296D01*
X0150644Y0108877D01*
X0150039Y0110338D01*
X0148921Y0111456D01*
X0147460Y0112061D01*
X0145879Y0112061D01*
X0144418Y0111456D01*
X0143300Y0110338D01*
X0142694Y0108877D01*
X0142694Y0107296D01*
X0143300Y0105835D01*
X0144418Y0104717D01*
X0145879Y0104112D01*
X0147460Y0104112D01*
X0148921Y0104717D01*
X0150315Y0106502D02*
X0267904Y0106502D01*
X0267904Y0108100D02*
X0150644Y0108100D01*
X0150304Y0109699D02*
X0267733Y0109699D01*
X0266134Y0111297D02*
X0149080Y0111297D01*
X0144259Y0111297D02*
X0110849Y0111297D01*
X0113618Y0109699D02*
X0143035Y0109699D01*
X0142694Y0108100D02*
X0115704Y0108100D01*
X0117303Y0106502D02*
X0143023Y0106502D01*
X0144231Y0104903D02*
X0118517Y0104903D01*
X0097450Y0111297D02*
X0008087Y0111297D01*
X0008087Y0109699D02*
X0094681Y0109699D01*
X0092595Y0108100D02*
X0008087Y0108100D01*
X0008087Y0106502D02*
X0090996Y0106502D01*
X0089782Y0104903D02*
X0008087Y0104903D01*
X0008087Y0103305D02*
X0088859Y0103305D01*
X0087986Y0101706D02*
X0008087Y0101706D01*
X0008087Y0100108D02*
X0087557Y0100108D01*
X0087129Y0098509D02*
X0008087Y0098509D01*
X0008087Y0096911D02*
X0086850Y0096911D01*
X0086850Y0095312D02*
X0008087Y0095312D01*
X0008087Y0093714D02*
X0086850Y0093714D01*
X0087063Y0092115D02*
X0008087Y0092115D01*
X0008087Y0090517D02*
X0087491Y0090517D01*
X0087920Y0088918D02*
X0008087Y0088918D01*
X0008087Y0087320D02*
X0088717Y0087320D01*
X0089640Y0085721D02*
X0008087Y0085721D01*
X0008087Y0084123D02*
X0090750Y0084123D01*
X0092349Y0082524D02*
X0008087Y0082524D01*
X0008087Y0080926D02*
X0094255Y0080926D01*
X0097023Y0079327D02*
X0008087Y0079327D01*
X0008087Y0052152D02*
X0226214Y0052152D01*
X0228000Y0052152D02*
X0228000Y0052152D01*
X0228000Y0050554D02*
X0228000Y0050554D01*
X0228000Y0048955D02*
X0228000Y0048955D01*
X0228000Y0047357D02*
X0228000Y0047357D01*
X0228000Y0045758D02*
X0228000Y0045758D01*
X0228000Y0044160D02*
X0228000Y0044160D01*
X0229800Y0044160D02*
X0250700Y0044160D01*
X0248832Y0045758D02*
X0243536Y0045758D01*
X0243512Y0045725D02*
X0243917Y0046282D01*
X0244229Y0046896D01*
X0244442Y0047551D01*
X0244550Y0048231D01*
X0244550Y0048575D01*
X0244550Y0048919D01*
X0244442Y0049599D01*
X0244229Y0050254D01*
X0243917Y0050868D01*
X0243512Y0051425D01*
X0243025Y0051912D01*
X0242468Y0052317D01*
X0241854Y0052629D01*
X0241199Y0052842D01*
X0240519Y0052950D01*
X0240175Y0052950D01*
X0239831Y0052950D01*
X0239151Y0052842D01*
X0238496Y0052629D01*
X0237882Y0052317D01*
X0237325Y0051912D01*
X0236838Y0051425D01*
X0236433Y0050868D01*
X0236121Y0050254D01*
X0235908Y0049599D01*
X0235800Y0048919D01*
X0235800Y0048575D01*
X0240175Y0048575D01*
X0240175Y0048575D01*
X0240175Y0052950D01*
X0240175Y0048575D01*
X0244550Y0048575D01*
X0240175Y0048575D01*
X0240175Y0048575D01*
X0240175Y0048575D01*
X0240175Y0044200D01*
X0240519Y0044200D01*
X0241199Y0044308D01*
X0241854Y0044521D01*
X0242468Y0044833D01*
X0243025Y0045238D01*
X0243512Y0045725D01*
X0244379Y0047357D02*
X0248197Y0047357D01*
X0248198Y0048955D02*
X0244544Y0048955D01*
X0244077Y0050554D02*
X0248837Y0050554D01*
X0250714Y0052152D02*
X0242694Y0052152D01*
X0240175Y0052152D02*
X0240175Y0052152D01*
X0240175Y0050554D02*
X0240175Y0050554D01*
X0240175Y0048955D02*
X0240175Y0048955D01*
X0240175Y0048575D02*
X0235800Y0048575D01*
X0235800Y0048231D01*
X0235908Y0047551D01*
X0236121Y0046896D01*
X0236433Y0046282D01*
X0236838Y0045725D01*
X0237325Y0045238D01*
X0237882Y0044833D01*
X0238496Y0044521D01*
X0239151Y0044308D01*
X0239831Y0044200D01*
X0240175Y0044200D01*
X0240175Y0048575D01*
X0240175Y0048575D01*
X0240175Y0047357D02*
X0240175Y0047357D01*
X0240175Y0045758D02*
X0240175Y0045758D01*
X0236814Y0045758D02*
X0231668Y0045758D01*
X0232303Y0047357D02*
X0235971Y0047357D01*
X0235806Y0048955D02*
X0232302Y0048955D01*
X0231663Y0050554D02*
X0236273Y0050554D01*
X0237656Y0052152D02*
X0229786Y0052152D01*
X0224337Y0050554D02*
X0008087Y0050554D01*
X0008087Y0048955D02*
X0038730Y0048955D01*
X0038927Y0049152D02*
X0038372Y0048598D01*
X0037937Y0047946D01*
X0037636Y0047221D01*
X0037483Y0046452D01*
X0037483Y0046060D01*
X0037483Y0045668D01*
X0037636Y0044899D01*
X0037937Y0044174D01*
X0038372Y0043522D01*
X0038927Y0042968D01*
X0039579Y0042532D01*
X0040303Y0042232D01*
X0041072Y0042079D01*
X0041464Y0042079D01*
X0041464Y0046060D01*
X0037483Y0046060D01*
X0041464Y0046060D01*
X0041464Y0046060D01*
X0041465Y0046060D01*
X0045446Y0046060D01*
X0045446Y0046452D01*
X0045293Y0047221D01*
X0044993Y0047946D01*
X0044557Y0048598D01*
X0044002Y0049152D01*
X0043350Y0049588D01*
X0042626Y0049888D01*
X0041857Y0050041D01*
X0041465Y0050041D01*
X0041465Y0046060D01*
X0041465Y0046060D01*
X0045446Y0046060D01*
X0045446Y0045668D01*
X0045293Y0044899D01*
X0044993Y0044174D01*
X0044557Y0043522D01*
X0044002Y0042968D01*
X0043350Y0042532D01*
X0042626Y0042232D01*
X0041857Y0042079D01*
X0041465Y0042079D01*
X0041465Y0046060D01*
X0041464Y0046060D01*
X0041464Y0050041D01*
X0041072Y0050041D01*
X0040303Y0049888D01*
X0039579Y0049588D01*
X0038927Y0049152D01*
X0037693Y0047357D02*
X0008087Y0047357D01*
X0008087Y0045758D02*
X0037483Y0045758D01*
X0037946Y0044160D02*
X0008087Y0044160D01*
X0008087Y0042561D02*
X0039535Y0042561D01*
X0038894Y0040963D02*
X0008087Y0040963D01*
X0008087Y0039364D02*
X0037860Y0039364D01*
X0037683Y0037766D02*
X0008087Y0037766D01*
X0008087Y0036167D02*
X0038208Y0036167D01*
X0040317Y0034569D02*
X0008087Y0034569D01*
X0008087Y0026576D02*
X0017050Y0026576D01*
X0017050Y0024978D02*
X0008087Y0024978D01*
X0008087Y0023379D02*
X0017050Y0023379D01*
X0017050Y0021781D02*
X0008087Y0021781D01*
X0008087Y0020182D02*
X0017705Y0020182D01*
X0016778Y0016985D02*
X0026781Y0016985D01*
X0025406Y0018584D02*
X0014470Y0018584D01*
X0026650Y0022000D02*
X0029146Y0019110D01*
X0044792Y0019110D01*
X0041465Y0022438D01*
X0041465Y0022173D01*
X0037762Y0023379D02*
X0030334Y0023379D01*
X0030600Y0024978D02*
X0038657Y0024978D01*
X0042612Y0034569D02*
X0069442Y0034569D01*
X0071737Y0034569D02*
X0096942Y0034569D01*
X0099237Y0034569D02*
X0126692Y0034569D01*
X0128987Y0034569D02*
X0153567Y0034569D01*
X0155862Y0034569D02*
X0181192Y0034569D01*
X0181947Y0042079D02*
X0181178Y0042232D01*
X0180454Y0042532D01*
X0179802Y0042968D01*
X0179247Y0043522D01*
X0178812Y0044174D01*
X0178511Y0044899D01*
X0178358Y0045668D01*
X0178358Y0046060D01*
X0182339Y0046060D01*
X0182339Y0046060D01*
X0178358Y0046060D01*
X0178358Y0046452D01*
X0178511Y0047221D01*
X0178812Y0047946D01*
X0179247Y0048598D01*
X0179802Y0049152D01*
X0180454Y0049588D01*
X0181178Y0049888D01*
X0181947Y0050041D01*
X0182339Y0050041D01*
X0182339Y0046060D01*
X0182340Y0046060D01*
X0186321Y0046060D01*
X0186321Y0046452D01*
X0186168Y0047221D01*
X0185868Y0047946D01*
X0185432Y0048598D01*
X0184877Y0049152D01*
X0184225Y0049588D01*
X0183501Y0049888D01*
X0182732Y0050041D01*
X0182340Y0050041D01*
X0182340Y0046060D01*
X0182340Y0046060D01*
X0186321Y0046060D01*
X0186321Y0045668D01*
X0186168Y0044899D01*
X0185868Y0044174D01*
X0185432Y0043522D01*
X0184877Y0042968D01*
X0184225Y0042532D01*
X0183501Y0042232D01*
X0182732Y0042079D01*
X0182340Y0042079D01*
X0182340Y0046060D01*
X0182339Y0046060D01*
X0182339Y0042079D01*
X0181947Y0042079D01*
X0182339Y0042561D02*
X0182340Y0042561D01*
X0182339Y0044160D02*
X0182340Y0044160D01*
X0182339Y0045758D02*
X0182340Y0045758D01*
X0182339Y0047357D02*
X0182340Y0047357D01*
X0182339Y0048955D02*
X0182340Y0048955D01*
X0185074Y0048955D02*
X0206605Y0048955D01*
X0205568Y0047357D02*
X0186112Y0047357D01*
X0186321Y0045758D02*
X0205358Y0045758D01*
X0205821Y0044160D02*
X0185858Y0044160D01*
X0184269Y0042561D02*
X0207410Y0042561D01*
X0209339Y0047357D02*
X0209340Y0047357D01*
X0209339Y0048955D02*
X0209340Y0048955D01*
X0212074Y0048955D02*
X0223698Y0048955D01*
X0223697Y0047357D02*
X0213112Y0047357D01*
X0213321Y0045758D02*
X0224332Y0045758D01*
X0226200Y0044160D02*
X0212858Y0044160D01*
X0180410Y0042561D02*
X0156644Y0042561D01*
X0156600Y0042532D02*
X0157252Y0042968D01*
X0157807Y0043522D01*
X0158243Y0044174D01*
X0158543Y0044899D01*
X0158696Y0045668D01*
X0158696Y0046060D01*
X0158696Y0046452D01*
X0158543Y0047221D01*
X0158243Y0047946D01*
X0157807Y0048598D01*
X0157252Y0049152D01*
X0156600Y0049588D01*
X0155876Y0049888D01*
X0155107Y0050041D01*
X0154715Y0050041D01*
X0154715Y0046060D01*
X0158696Y0046060D01*
X0154715Y0046060D01*
X0154715Y0046060D01*
X0154715Y0042079D01*
X0155107Y0042079D01*
X0155876Y0042232D01*
X0156600Y0042532D01*
X0154715Y0042561D02*
X0154714Y0042561D01*
X0154714Y0042079D02*
X0154714Y0046060D01*
X0150733Y0046060D01*
X0150733Y0045668D01*
X0150886Y0044899D01*
X0151187Y0044174D01*
X0151622Y0043522D01*
X0152177Y0042968D01*
X0152829Y0042532D01*
X0153553Y0042232D01*
X0154322Y0042079D01*
X0154714Y0042079D01*
X0152785Y0042561D02*
X0129769Y0042561D01*
X0129725Y0042532D02*
X0130377Y0042968D01*
X0130932Y0043522D01*
X0131368Y0044174D01*
X0131668Y0044899D01*
X0131821Y0045668D01*
X0131821Y0046060D01*
X0131821Y0046452D01*
X0131668Y0047221D01*
X0131368Y0047946D01*
X0130932Y0048598D01*
X0130377Y0049152D01*
X0129725Y0049588D01*
X0129001Y0049888D01*
X0128232Y0050041D01*
X0127840Y0050041D01*
X0127840Y0046060D01*
X0131821Y0046060D01*
X0127840Y0046060D01*
X0127840Y0046060D01*
X0127840Y0042079D01*
X0128232Y0042079D01*
X0129001Y0042232D01*
X0129725Y0042532D01*
X0127840Y0042561D02*
X0127839Y0042561D01*
X0127839Y0042079D02*
X0127839Y0046060D01*
X0123858Y0046060D01*
X0123858Y0045668D01*
X0124011Y0044899D01*
X0124312Y0044174D01*
X0124747Y0043522D01*
X0125302Y0042968D01*
X0125954Y0042532D01*
X0126678Y0042232D01*
X0127447Y0042079D01*
X0127839Y0042079D01*
X0125910Y0042561D02*
X0100019Y0042561D01*
X0099975Y0042532D02*
X0100627Y0042968D01*
X0101182Y0043522D01*
X0101618Y0044174D01*
X0101918Y0044899D01*
X0102071Y0045668D01*
X0102071Y0046060D01*
X0102071Y0046452D01*
X0101918Y0047221D01*
X0101618Y0047946D01*
X0101182Y0048598D01*
X0100627Y0049152D01*
X0099975Y0049588D01*
X0099251Y0049888D01*
X0098482Y0050041D01*
X0098090Y0050041D01*
X0098090Y0046060D01*
X0102071Y0046060D01*
X0098090Y0046060D01*
X0098090Y0046060D01*
X0098090Y0042079D01*
X0098482Y0042079D01*
X0099251Y0042232D01*
X0099975Y0042532D01*
X0098090Y0042561D02*
X0098089Y0042561D01*
X0098089Y0042079D02*
X0098089Y0046060D01*
X0094108Y0046060D01*
X0094108Y0045668D01*
X0094261Y0044899D01*
X0094562Y0044174D01*
X0094997Y0043522D01*
X0095552Y0042968D01*
X0096204Y0042532D01*
X0096928Y0042232D01*
X0097697Y0042079D01*
X0098089Y0042079D01*
X0096160Y0042561D02*
X0072519Y0042561D01*
X0072475Y0042532D02*
X0073127Y0042968D01*
X0073682Y0043522D01*
X0074118Y0044174D01*
X0074418Y0044899D01*
X0074571Y0045668D01*
X0074571Y0046060D01*
X0074571Y0046452D01*
X0074418Y0047221D01*
X0074118Y0047946D01*
X0073682Y0048598D01*
X0073127Y0049152D01*
X0072475Y0049588D01*
X0071751Y0049888D01*
X0070982Y0050041D01*
X0070590Y0050041D01*
X0070590Y0046060D01*
X0074571Y0046060D01*
X0070590Y0046060D01*
X0070590Y0046060D01*
X0070590Y0042079D01*
X0070982Y0042079D01*
X0071751Y0042232D01*
X0072475Y0042532D01*
X0070590Y0042561D02*
X0070589Y0042561D01*
X0070589Y0042079D02*
X0070589Y0046060D01*
X0066608Y0046060D01*
X0066608Y0045668D01*
X0066761Y0044899D01*
X0067062Y0044174D01*
X0067497Y0043522D01*
X0068052Y0042968D01*
X0068704Y0042532D01*
X0069428Y0042232D01*
X0070197Y0042079D01*
X0070589Y0042079D01*
X0068660Y0042561D02*
X0043394Y0042561D01*
X0041465Y0042561D02*
X0041464Y0042561D01*
X0041464Y0044160D02*
X0041465Y0044160D01*
X0041464Y0045758D02*
X0041465Y0045758D01*
X0041464Y0047357D02*
X0041465Y0047357D01*
X0041464Y0048955D02*
X0041465Y0048955D01*
X0044199Y0048955D02*
X0067855Y0048955D01*
X0068052Y0049152D02*
X0067497Y0048598D01*
X0067062Y0047946D01*
X0066761Y0047221D01*
X0066608Y0046452D01*
X0066608Y0046060D01*
X0070589Y0046060D01*
X0070589Y0046060D01*
X0070590Y0046060D01*
X0070589Y0046060D01*
X0070589Y0050041D01*
X0070197Y0050041D01*
X0069428Y0049888D01*
X0068704Y0049588D01*
X0068052Y0049152D01*
X0066818Y0047357D02*
X0045237Y0047357D01*
X0045446Y0045758D02*
X0066608Y0045758D01*
X0067071Y0044160D02*
X0044983Y0044160D01*
X0053662Y0030312D02*
X0049850Y0026500D01*
X0059040Y0019110D02*
X0073917Y0019110D01*
X0078475Y0026500D02*
X0082287Y0030312D01*
X0087220Y0019110D02*
X0101417Y0019110D01*
X0098090Y0022438D01*
X0098090Y0021318D01*
X0106975Y0026500D02*
X0110787Y0030312D01*
X0116165Y0019110D02*
X0131167Y0019110D01*
X0143540Y0019110D01*
X0140150Y0022500D01*
X0143950Y0023379D02*
X0151012Y0023379D01*
X0154715Y0022438D02*
X0158042Y0019110D01*
X0155678Y0016985D02*
X0154152Y0016985D01*
X0151787Y0019110D02*
X0154715Y0022037D01*
X0154715Y0022438D01*
X0151787Y0019110D02*
X0143540Y0019110D01*
X0140150Y0026500D02*
X0140150Y0026500D01*
X0131167Y0019110D02*
X0127840Y0022438D01*
X0127840Y0021540D01*
X0127839Y0044160D02*
X0127840Y0044160D01*
X0127839Y0045758D02*
X0127840Y0045758D01*
X0127839Y0046060D02*
X0127840Y0046060D01*
X0127839Y0046060D01*
X0127839Y0046060D01*
X0123858Y0046060D01*
X0123858Y0046452D01*
X0124011Y0047221D01*
X0124312Y0047946D01*
X0124747Y0048598D01*
X0125302Y0049152D01*
X0125954Y0049588D01*
X0126678Y0049888D01*
X0127447Y0050041D01*
X0127839Y0050041D01*
X0127839Y0046060D01*
X0127839Y0047357D02*
X0127840Y0047357D01*
X0127839Y0048955D02*
X0127840Y0048955D01*
X0130574Y0048955D02*
X0151980Y0048955D01*
X0152177Y0049152D02*
X0151622Y0048598D01*
X0151187Y0047946D01*
X0150886Y0047221D01*
X0150733Y0046452D01*
X0150733Y0046060D01*
X0154714Y0046060D01*
X0154714Y0046060D01*
X0154715Y0046060D01*
X0154714Y0046060D01*
X0154714Y0050041D01*
X0154322Y0050041D01*
X0153553Y0049888D01*
X0152829Y0049588D01*
X0152177Y0049152D01*
X0150943Y0047357D02*
X0131612Y0047357D01*
X0131821Y0045758D02*
X0150733Y0045758D01*
X0151196Y0044160D02*
X0131358Y0044160D01*
X0124321Y0044160D02*
X0101608Y0044160D01*
X0102071Y0045758D02*
X0123858Y0045758D01*
X0124068Y0047357D02*
X0101862Y0047357D01*
X0100824Y0048955D02*
X0125105Y0048955D01*
X0098090Y0048955D02*
X0098089Y0048955D01*
X0098089Y0050041D02*
X0097697Y0050041D01*
X0096928Y0049888D01*
X0096204Y0049588D01*
X0095552Y0049152D01*
X0094997Y0048598D01*
X0094562Y0047946D01*
X0094261Y0047221D01*
X0094108Y0046452D01*
X0094108Y0046060D01*
X0098089Y0046060D01*
X0098089Y0046060D01*
X0098090Y0046060D01*
X0098089Y0046060D01*
X0098089Y0050041D01*
X0098089Y0047357D02*
X0098090Y0047357D01*
X0098089Y0045758D02*
X0098090Y0045758D01*
X0098089Y0044160D02*
X0098090Y0044160D01*
X0094571Y0044160D02*
X0074108Y0044160D01*
X0074571Y0045758D02*
X0094108Y0045758D01*
X0094318Y0047357D02*
X0074362Y0047357D01*
X0073324Y0048955D02*
X0095355Y0048955D01*
X0070590Y0048955D02*
X0070589Y0048955D01*
X0070589Y0047357D02*
X0070590Y0047357D01*
X0070589Y0045758D02*
X0070590Y0045758D01*
X0070589Y0044160D02*
X0070590Y0044160D01*
X0026650Y0026000D02*
X0026650Y0026000D01*
X0018658Y0007394D02*
X0436098Y0007394D01*
X0436552Y0015387D02*
X0267068Y0015387D01*
X0268328Y0016985D02*
X0437978Y0016985D01*
X0368865Y0053751D02*
X0322675Y0053751D01*
X0322675Y0055349D02*
X0367190Y0055349D01*
X0366710Y0056948D02*
X0322675Y0056948D01*
X0322675Y0058546D02*
X0366899Y0058546D01*
X0369626Y0098509D02*
X0362624Y0098509D01*
X0365103Y0100108D02*
X0367147Y0100108D01*
X0366183Y0101706D02*
X0366067Y0101706D01*
X0365670Y0106502D02*
X0366580Y0106502D01*
X0368105Y0108100D02*
X0364145Y0108100D01*
X0368397Y0111297D02*
X0307004Y0111297D01*
X0308602Y0109699D02*
X0369996Y0109699D01*
X0366799Y0112896D02*
X0305405Y0112896D01*
X0303807Y0114494D02*
X0365200Y0114494D01*
X0358105Y0108100D02*
X0354145Y0108100D01*
X0355670Y0106502D02*
X0356580Y0106502D01*
X0356183Y0101706D02*
X0356067Y0101706D01*
X0355103Y0100108D02*
X0357147Y0100108D01*
X0359626Y0098509D02*
X0352624Y0098509D01*
X0372624Y0098509D02*
X0379626Y0098509D01*
X0377147Y0100108D02*
X0375103Y0100108D01*
X0376067Y0101706D02*
X0376183Y0101706D01*
X0395103Y0100108D02*
X0396882Y0100108D01*
X0400925Y0100108D02*
X0401325Y0100108D01*
X0401325Y0101706D02*
X0400925Y0101706D01*
X0400925Y0103305D02*
X0401325Y0103305D01*
X0401125Y0103625D02*
X0401000Y0103750D01*
X0401000Y0111630D01*
X0388008Y0124622D01*
X0373835Y0124622D01*
X0394145Y0108100D02*
X0397928Y0108100D01*
X0396418Y0106502D02*
X0395670Y0106502D01*
X0400925Y0106502D02*
X0401325Y0106502D01*
X0401325Y0108100D02*
X0400925Y0108100D01*
X0401325Y0109125D02*
X0401325Y0103825D01*
X0406625Y0103825D01*
X0406625Y0104058D01*
X0406490Y0104913D01*
X0406222Y0105736D01*
X0405829Y0106508D01*
X0405320Y0107208D01*
X0404708Y0107820D01*
X0404008Y0108329D01*
X0403236Y0108722D01*
X0402413Y0108990D01*
X0401558Y0109125D01*
X0401325Y0109125D01*
X0404322Y0108100D02*
X0417066Y0108100D01*
X0416985Y0107007D02*
X0416985Y0106832D01*
X0417104Y0106084D01*
X0417338Y0105364D01*
X0417682Y0104689D01*
X0418127Y0104076D01*
X0418663Y0103540D01*
X0419275Y0103095D01*
X0419950Y0102751D01*
X0420670Y0102517D01*
X0421419Y0102399D01*
X0421593Y0102399D01*
X0421593Y0107007D01*
X0416985Y0107007D01*
X0417038Y0106502D02*
X0405832Y0106502D01*
X0406491Y0104903D02*
X0417572Y0104903D01*
X0418987Y0103305D02*
X0406625Y0103305D01*
X0406285Y0101706D02*
X0430890Y0101706D01*
X0430890Y0100108D02*
X0405368Y0100108D01*
X0401325Y0104903D02*
X0400925Y0104903D01*
X0421593Y0104903D02*
X0422001Y0104903D01*
X0422001Y0103305D02*
X0421593Y0103305D01*
X0422001Y0102399D02*
X0422176Y0102399D01*
X0422924Y0102517D01*
X0423644Y0102751D01*
X0424319Y0103095D01*
X0424932Y0103540D01*
X0425467Y0104076D01*
X0425913Y0104689D01*
X0426257Y0105364D01*
X0426491Y0106084D01*
X0426609Y0106832D01*
X0426609Y0107007D01*
X0422001Y0107007D01*
X0422001Y0107415D01*
X0421593Y0107415D01*
X0421593Y0107007D01*
X0422001Y0107007D01*
X0422001Y0102399D01*
X0424608Y0103305D02*
X0430890Y0103305D01*
X0430890Y0104903D02*
X0426022Y0104903D01*
X0426557Y0106502D02*
X0430890Y0106502D01*
X0430890Y0108100D02*
X0426528Y0108100D01*
X0426491Y0108337D02*
X0426257Y0109058D01*
X0425913Y0109733D01*
X0425467Y0110345D01*
X0424932Y0110881D01*
X0424319Y0111326D01*
X0423644Y0111670D01*
X0422924Y0111904D01*
X0422176Y0112022D01*
X0422001Y0112022D01*
X0422001Y0107415D01*
X0426609Y0107415D01*
X0426609Y0107589D01*
X0426491Y0108337D01*
X0425930Y0109699D02*
X0430890Y0109699D01*
X0430890Y0111297D02*
X0424359Y0111297D01*
X0423812Y0112896D02*
X0430890Y0112896D01*
X0430890Y0114494D02*
X0425729Y0114494D01*
X0426391Y0116093D02*
X0430890Y0116093D01*
X0430890Y0117691D02*
X0426409Y0117691D01*
X0425863Y0119290D02*
X0430890Y0119290D01*
X0430890Y0120888D02*
X0424484Y0120888D01*
X0422001Y0111297D02*
X0421593Y0111297D01*
X0421593Y0109699D02*
X0422001Y0109699D01*
X0422001Y0108100D02*
X0421593Y0108100D01*
X0421593Y0106502D02*
X0422001Y0106502D01*
X0422054Y0132078D02*
X0421646Y0132078D01*
X0421646Y0133676D02*
X0422054Y0133676D01*
X0422054Y0135275D02*
X0421646Y0135275D01*
X0422054Y0136558D02*
X0426662Y0136558D01*
X0426662Y0136733D01*
X0426544Y0137481D01*
X0426310Y0138201D01*
X0425966Y0138876D01*
X0425521Y0139489D01*
X0424985Y0140025D01*
X0424372Y0140470D01*
X0423697Y0140814D01*
X0422977Y0141048D01*
X0422229Y0141166D01*
X0422054Y0141166D01*
X0422054Y0136558D01*
X0422054Y0136873D02*
X0421646Y0136873D01*
X0421646Y0138472D02*
X0422054Y0138472D01*
X0422054Y0140070D02*
X0421646Y0140070D01*
X0422970Y0141669D02*
X0430890Y0141669D01*
X0430890Y0140070D02*
X0424922Y0140070D01*
X0426172Y0138472D02*
X0430890Y0138472D01*
X0430890Y0136873D02*
X0426640Y0136873D01*
X0426551Y0135275D02*
X0430890Y0135275D01*
X0430890Y0133676D02*
X0425853Y0133676D01*
X0424056Y0132078D02*
X0430890Y0132078D01*
X0430890Y0143268D02*
X0425443Y0143268D01*
X0426291Y0144866D02*
X0430890Y0144866D01*
X0430795Y0146465D02*
X0426462Y0146465D01*
X0426069Y0148063D02*
X0429196Y0148063D01*
X0427598Y0149662D02*
X0424908Y0149662D01*
X0440341Y0159253D02*
X0448956Y0159253D01*
X0448956Y0160851D02*
X0440895Y0160851D01*
X0440895Y0162450D02*
X0448956Y0162450D01*
X0448956Y0164048D02*
X0440895Y0164048D01*
X0440895Y0165647D02*
X0448956Y0165647D01*
X0448956Y0167245D02*
X0440806Y0167245D01*
X0448956Y0168844D02*
X0373803Y0168844D01*
X0375401Y0170442D02*
X0448956Y0170442D01*
X0448956Y0172041D02*
X0377000Y0172041D01*
X0378598Y0173639D02*
X0448956Y0173639D01*
X0448956Y0175238D02*
X0380197Y0175238D01*
X0381795Y0176836D02*
X0448956Y0176836D01*
X0448956Y0178435D02*
X0383394Y0178435D01*
X0384992Y0180033D02*
X0448956Y0180033D01*
X0448956Y0181632D02*
X0386591Y0181632D01*
X0388189Y0183230D02*
X0448956Y0183230D01*
X0448956Y0184829D02*
X0389788Y0184829D01*
X0390883Y0186427D02*
X0448956Y0186427D01*
X0448956Y0188026D02*
X0391071Y0188026D01*
X0391071Y0189624D02*
X0448956Y0189624D01*
X0448956Y0191223D02*
X0391071Y0191223D01*
X0391071Y0192821D02*
X0448956Y0192821D01*
X0448956Y0194420D02*
X0392060Y0194420D01*
X0393475Y0196018D02*
X0448956Y0196018D01*
X0448956Y0197617D02*
X0395074Y0197617D01*
X0396673Y0199215D02*
X0448956Y0199215D01*
X0432423Y0221595D02*
X0402683Y0221595D01*
X0403415Y0223193D02*
X0431691Y0223193D01*
X0431691Y0224792D02*
X0403415Y0224792D01*
X0403415Y0226390D02*
X0431691Y0226390D01*
X0431691Y0227989D02*
X0403415Y0227989D01*
X0403415Y0229587D02*
X0431691Y0229587D01*
X0385122Y0212003D02*
X0379174Y0212003D01*
X0372204Y0167245D02*
X0394147Y0167245D01*
X0394114Y0167188D02*
X0393991Y0166730D01*
X0393991Y0163685D01*
X0398599Y0163685D01*
X0398599Y0163277D01*
X0399007Y0163277D01*
X0399007Y0163685D01*
X0398599Y0163685D01*
X0398599Y0168293D01*
X0395554Y0168293D01*
X0395097Y0168170D01*
X0394686Y0167933D01*
X0394351Y0167598D01*
X0394114Y0167188D01*
X0393991Y0165647D02*
X0370606Y0165647D01*
X0369007Y0164048D02*
X0393991Y0164048D01*
X0393991Y0163277D02*
X0393991Y0160233D01*
X0394114Y0159775D01*
X0394351Y0159364D01*
X0394686Y0159029D01*
X0395097Y0158792D01*
X0395554Y0158669D01*
X0398599Y0158669D01*
X0398599Y0163277D01*
X0393991Y0163277D01*
X0393991Y0162450D02*
X0367409Y0162450D01*
X0365810Y0160851D02*
X0393991Y0160851D01*
X0394463Y0159253D02*
X0364212Y0159253D01*
X0398599Y0159253D02*
X0399007Y0159253D01*
X0399007Y0160851D02*
X0398599Y0160851D01*
X0398599Y0162450D02*
X0399007Y0162450D01*
X0399007Y0164048D02*
X0398599Y0164048D01*
X0398599Y0165647D02*
X0399007Y0165647D01*
X0399007Y0167245D02*
X0398599Y0167245D01*
X0304543Y0091945D02*
X0304543Y0044337D01*
X0304500Y0040750D01*
X0285962Y0036167D02*
X0284102Y0036167D01*
X0284521Y0037766D02*
X0282504Y0037766D01*
X0283859Y0039364D02*
X0280905Y0039364D01*
X0279307Y0040963D02*
X0283825Y0040963D01*
X0284242Y0042561D02*
X0277708Y0042561D01*
X0276110Y0044160D02*
X0285289Y0044160D01*
X0260989Y0045758D02*
X0256168Y0045758D01*
X0256803Y0047357D02*
X0260270Y0047357D01*
X0260224Y0048955D02*
X0256802Y0048955D01*
X0256163Y0050554D02*
X0260788Y0050554D01*
X0262032Y0015387D02*
X0255166Y0015387D01*
X0178821Y0044160D02*
X0158233Y0044160D01*
X0158696Y0045758D02*
X0178358Y0045758D01*
X0178568Y0047357D02*
X0158487Y0047357D01*
X0157449Y0048955D02*
X0179605Y0048955D01*
X0166787Y0030312D02*
X0162975Y0026500D01*
X0154714Y0044160D02*
X0154715Y0044160D01*
X0154714Y0045758D02*
X0154715Y0045758D01*
X0154714Y0047357D02*
X0154715Y0047357D01*
X0154714Y0048955D02*
X0154715Y0048955D01*
X0246952Y0130479D02*
X0008087Y0130479D01*
X0008087Y0128881D02*
X0248550Y0128881D01*
X0250149Y0127282D02*
X0008087Y0127282D01*
X0008087Y0125684D02*
X0251748Y0125684D01*
X0253346Y0124085D02*
X0008087Y0124085D01*
X0008087Y0122487D02*
X0254945Y0122487D01*
X0256543Y0120888D02*
X0008087Y0120888D01*
X0008087Y0119290D02*
X0258142Y0119290D01*
X0259740Y0117691D02*
X0008087Y0117691D01*
X0008087Y0116093D02*
X0261339Y0116093D01*
X0262937Y0114494D02*
X0008087Y0114494D01*
X0008087Y0112896D02*
X0264536Y0112896D01*
X0268720Y0117691D02*
X0274307Y0117691D01*
X0273809Y0119290D02*
X0267121Y0119290D01*
X0265523Y0120888D02*
X0273809Y0120888D01*
X0273809Y0122487D02*
X0263924Y0122487D01*
X0262326Y0124085D02*
X0273809Y0124085D01*
X0273809Y0125684D02*
X0260727Y0125684D01*
X0259129Y0127282D02*
X0273809Y0127282D01*
X0273809Y0128881D02*
X0257530Y0128881D01*
X0255932Y0130479D02*
X0273809Y0130479D01*
X0273809Y0132078D02*
X0254333Y0132078D01*
X0252735Y0133676D02*
X0273809Y0133676D01*
X0273809Y0135275D02*
X0251136Y0135275D01*
X0249538Y0136873D02*
X0273809Y0136873D01*
X0273809Y0138472D02*
X0247939Y0138472D01*
X0246341Y0140070D02*
X0273809Y0140070D01*
X0273449Y0141669D02*
X0244742Y0141669D01*
X0243144Y0143268D02*
X0273009Y0143268D01*
X0273240Y0144866D02*
X0241545Y0144866D01*
X0239947Y0146465D02*
X0274308Y0146465D01*
X0276984Y0143520D02*
X0276984Y0119504D01*
X0304543Y0091945D01*
X0301369Y0090517D02*
X0274254Y0090517D01*
X0274254Y0092115D02*
X0299883Y0092115D01*
X0298285Y0093714D02*
X0274254Y0093714D01*
X0274254Y0095312D02*
X0296686Y0095312D01*
X0295088Y0096911D02*
X0274254Y0096911D01*
X0274254Y0098509D02*
X0293489Y0098509D01*
X0291891Y0100108D02*
X0274254Y0100108D01*
X0274254Y0101706D02*
X0290292Y0101706D01*
X0288694Y0103305D02*
X0274254Y0103305D01*
X0274254Y0104903D02*
X0287095Y0104903D01*
X0285497Y0106502D02*
X0274254Y0106502D01*
X0274254Y0108100D02*
X0283898Y0108100D01*
X0282300Y0109699D02*
X0274254Y0109699D01*
X0274254Y0111297D02*
X0280701Y0111297D01*
X0279103Y0112896D02*
X0273515Y0112896D01*
X0271917Y0114494D02*
X0277504Y0114494D01*
X0275906Y0116093D02*
X0270318Y0116093D01*
X0245353Y0132078D02*
X0008087Y0132078D01*
X0008087Y0133676D02*
X0243755Y0133676D01*
X0242156Y0135275D02*
X0112811Y0135275D01*
X0113205Y0136873D02*
X0240558Y0136873D01*
X0238959Y0138472D02*
X0113205Y0138472D01*
X0113205Y0140070D02*
X0237361Y0140070D01*
X0235762Y0141669D02*
X0113205Y0141669D01*
X0113205Y0143268D02*
X0234164Y0143268D01*
X0232565Y0144866D02*
X0113205Y0144866D01*
X0113205Y0146465D02*
X0230967Y0146465D01*
X0229368Y0148063D02*
X0113205Y0148063D01*
X0113205Y0149662D02*
X0227770Y0149662D01*
X0230614Y0221595D02*
X0224142Y0221595D01*
X0226466Y0223193D02*
X0228290Y0223193D01*
X0227391Y0224792D02*
X0227365Y0224792D01*
X0220614Y0221595D02*
X0214142Y0221595D01*
X0216466Y0223193D02*
X0218290Y0223193D01*
X0217391Y0224792D02*
X0217365Y0224792D01*
X0210614Y0221595D02*
X0204142Y0221595D01*
X0206466Y0223193D02*
X0208290Y0223193D01*
X0207391Y0224792D02*
X0207365Y0224792D01*
X0200614Y0221595D02*
X0197035Y0221595D01*
X0197678Y0223193D02*
X0198290Y0223193D01*
X0192378Y0226600D02*
X0192339Y0226561D01*
X0187078Y0226390D02*
X0185277Y0226390D01*
X0185277Y0224792D02*
X0187078Y0224792D01*
X0187078Y0223193D02*
X0185277Y0223193D01*
X0185277Y0221595D02*
X0187721Y0221595D01*
X0187078Y0227989D02*
X0185277Y0227989D01*
X0185277Y0229587D02*
X0187078Y0229587D01*
X0187300Y0231186D02*
X0185277Y0231186D01*
X0185277Y0232784D02*
X0221704Y0232784D01*
X0219598Y0231186D02*
X0215158Y0231186D01*
X0216877Y0229587D02*
X0217878Y0229587D01*
X0209598Y0231186D02*
X0205158Y0231186D01*
X0206877Y0229587D02*
X0207878Y0229587D01*
X0199598Y0231186D02*
X0197455Y0231186D01*
X0197678Y0229587D02*
X0197878Y0229587D01*
X0185277Y0243974D02*
X0210515Y0243974D01*
X0215507Y0258360D02*
X0216329Y0258360D01*
X0216329Y0259959D02*
X0213964Y0259959D01*
X0212420Y0261557D02*
X0216329Y0261557D01*
X0215711Y0263156D02*
X0210877Y0263156D01*
X0209334Y0264754D02*
X0215529Y0264754D01*
X0216016Y0266353D02*
X0207790Y0266353D01*
X0206931Y0267951D02*
X0216329Y0267951D01*
X0216329Y0269550D02*
X0206931Y0269550D01*
X0206931Y0271148D02*
X0216329Y0271148D01*
X0231093Y0242375D02*
X0231152Y0242375D01*
X0232691Y0240777D02*
X0232961Y0240777D01*
X0234290Y0239178D02*
X0234769Y0239178D01*
X0235889Y0237580D02*
X0246909Y0237580D01*
X0248507Y0235981D02*
X0237487Y0235981D01*
X0239086Y0234383D02*
X0250106Y0234383D01*
X0182102Y0274020D02*
X0177122Y0279000D01*
X0154799Y0344680D02*
X0091374Y0344680D01*
X0092470Y0346278D02*
X0153200Y0346278D01*
X0151602Y0347877D02*
X0092870Y0347877D01*
X0092872Y0349475D02*
X0150003Y0349475D01*
X0148405Y0351074D02*
X0092872Y0351074D01*
X0092872Y0352672D02*
X0146806Y0352672D01*
X0145208Y0354271D02*
X0092872Y0354271D01*
X0092780Y0355870D02*
X0143609Y0355870D01*
X0142011Y0357468D02*
X0092182Y0357468D01*
X0090701Y0359067D02*
X0140412Y0359067D01*
X0051824Y0176836D02*
X0029411Y0176836D01*
X0020668Y0176836D02*
X0008084Y0176836D01*
X0008087Y0167245D02*
X0066966Y0167245D01*
X0064657Y0165647D02*
X0008087Y0165647D01*
X0008087Y0164048D02*
X0063764Y0164048D01*
X0063456Y0162450D02*
X0008087Y0162450D01*
X0008087Y0160851D02*
X0063599Y0160851D01*
X0064261Y0159253D02*
X0008087Y0159253D01*
X0008087Y0157654D02*
X0066002Y0157654D01*
X0071079Y0156056D02*
X0008087Y0156056D01*
X0008087Y0154457D02*
X0071079Y0154457D01*
X0071079Y0152859D02*
X0008087Y0152859D01*
X0008087Y0151260D02*
X0071079Y0151260D01*
X0071079Y0149662D02*
X0008087Y0149662D01*
X0008087Y0148063D02*
X0071079Y0148063D01*
X0071079Y0146465D02*
X0008087Y0146465D01*
X0008087Y0144866D02*
X0071079Y0144866D01*
X0071079Y0143268D02*
X0008087Y0143268D01*
X0008087Y0141669D02*
X0071079Y0141669D01*
X0071079Y0140070D02*
X0008087Y0140070D01*
X0008087Y0138472D02*
X0071079Y0138472D01*
X0071079Y0136873D02*
X0008087Y0136873D01*
X0008087Y0135275D02*
X0071079Y0135275D01*
X0071079Y0167245D02*
X0070546Y0167245D01*
X0115285Y0156056D02*
X0144269Y0156056D01*
X0144578Y0157654D02*
X0117844Y0157654D01*
X0384356Y0301520D02*
X0436862Y0301520D01*
X0438524Y0301520D02*
X0448956Y0301520D01*
X0448956Y0299922D02*
X0440890Y0299922D01*
X0441474Y0298323D02*
X0448956Y0298323D01*
X0448956Y0296725D02*
X0441352Y0296725D01*
X0440513Y0303119D02*
X0448956Y0303119D01*
X0448956Y0304717D02*
X0441401Y0304717D01*
X0441474Y0306316D02*
X0448956Y0306316D01*
X0448956Y0307914D02*
X0440772Y0307914D01*
X0437693Y0305646D02*
X0383992Y0305646D01*
X0441450Y0312710D02*
X0448956Y0312710D01*
X0448956Y0314308D02*
X0441459Y0314308D01*
D29*
X0155242Y0085606D03*
X0138500Y0011000D03*
X0194750Y0011000D03*
M02*
