%
M48
M72
T01C0.02362
T02C0.03150
T03C0.03543
T04C0.04000
T05C0.04016
T06C0.04400
T07C0.05118
T08C0.05200
T09C0.07480
T10C0.13000
%
T01
X41465Y22438
X41465Y30312
X41465Y38186
X41465Y46060
X70590Y46060
X70590Y38186
X70590Y30312
X70590Y22438
X98090Y22438
X98090Y30312
X98090Y38186
X98090Y46060
X127840Y46060
X127840Y38186
X127840Y30312
X127840Y22438
X138500Y11000
X154715Y22438
X154715Y30312
X154715Y38186
X154715Y46060
X182340Y46060
X182340Y38186
X182340Y30312
X182340Y22438
X194750Y11000
X209340Y22438
X209340Y30312
X209340Y38186
X209340Y46060
X155242Y85606
X437693Y256827
X437693Y264701
X437693Y272575
X437693Y280449
X437693Y297772
X437693Y305646
X437693Y313520
X437693Y321394
X404858Y376512
X396984Y376512
X389110Y376512
X381236Y376512
X155252Y378087
X147378Y378087
X139504Y378087
X131630Y378087
X111945Y378480
X104071Y378480
X96197Y378480
X88323Y378480
T02
X146669Y335646
X146669Y318717
X146669Y306512
X119110Y283283
X76591Y253756
X69898Y202969
X54937Y191551
X54937Y155331
X140764Y228953
X153362Y195882
X173047Y212811
X219504Y264386
X224622Y270291
X219504Y278165
X243126Y266354
X249031Y273835
X281315Y273441
X313992Y288402
X313992Y307693
X313992Y324228
X313992Y339189
X346669Y341551
X339583Y295488
X325331Y234976
X293520Y235252
X299031Y198638
X300213Y177772
X314386Y167535
X320685Y160055
X305331Y162024
X295882Y162024
X286433Y174622
X262024Y162024
X276984Y143520
X373835Y124622
X370685Y57299
X264550Y48300
X252500Y48153
X240175Y48575
X228000Y48153
X202575Y25803
X228000Y18625
X240175Y19047
X252500Y18625
X264550Y18772
X175016Y25803
X149031Y25409
X120685Y25803
X92339Y25803
X64386Y25409
X32496Y25803
X146669Y108087
X148244Y156118
X219504Y303362
X219504Y315173
X218717Y329740
X192732Y344307
X182102Y335252
X215567Y376984
X238795Y367535
X254543Y368717
X268717Y369898
X405724Y244701
T03
X350543Y150640
X350543Y120640
X282045Y82500
X256455Y82500
X55039Y173587
X25039Y173587
T04
X68756Y162250
X78756Y162250
X32939Y232750
X32939Y242750
X135770Y238780
X135770Y249530
X135520Y260030
X135770Y270530
X135895Y280905
X192378Y226600
X202378Y226600
X212378Y226600
X222378Y226600
X232378Y226600
X242378Y226600
X252378Y226600
X262378Y226600
X375435Y239750
X374935Y250500
X387496Y207250
X387496Y197250
X391125Y103625
X401125Y103625
X381125Y103625
X371125Y103625
X361125Y103625
X351125Y103625
X319500Y40500
X319500Y30500
X304500Y30750
X304500Y40750
X289125Y40500
X289125Y30500
T05
X421725Y34548
X421725Y24706
X422676Y52616
X422676Y62459
X422624Y79711
X422624Y89553
X421797Y107211
X421797Y117053
X421850Y136354
X421850Y146197
X423764Y163481
X436283Y163481
X398803Y163481
X398803Y226001
X436303Y226001
X357122Y239000
X347122Y239000
X347122Y249000
X357122Y249000
X357122Y259000
X347122Y259000
X347122Y269000
X357122Y269000
X357122Y279000
X347122Y279000
X347122Y289000
X347122Y299000
X357122Y299000
X357122Y289000
X357122Y309000
X347122Y309000
X347122Y319000
X357122Y319000
X357122Y329000
X347122Y329000
X423180Y337565
X423180Y347407
X423180Y357250
X423180Y367093
X187122Y329000
X177122Y329000
X177122Y319000
X177122Y309000
X177122Y299000
X177122Y289000
X177122Y279000
X177122Y269000
X177122Y259000
X177122Y249000
X177122Y239000
X187122Y239000
X187122Y249000
X187122Y259000
X187122Y269000
X187122Y279000
X187122Y289000
X187122Y299000
X187122Y309000
X187122Y319000
T06
X87772Y351591
X77772Y351591
X67772Y351591
X94150Y164189
X104150Y164189
X114150Y164189
T07
X54406Y374356
X34720Y374356
T08
X32939Y343926
X32939Y255326
T09
X10843Y10843
X10843Y384858
X443913Y384858
X443913Y10843
T10
X104150Y95189
X77772Y282591
M30
