G75*
%MOIN*%
%OFA0B0*%
%FSLAX25Y25*%
%IPPOS*%
%LPD*%
%AMOC8*
5,1,8,0,0,1.08239X$1,22.5*
%
%ADD10C,0.00000*%
%ADD11C,0.01600*%
%ADD12C,0.00600*%
%ADD13R,0.02000X0.10000*%
%ADD14R,0.01500X0.03000*%
%ADD15C,0.00500*%
%ADD16C,0.00400*%
%ADD17C,0.00300*%
%ADD18R,0.10000X0.02000*%
%ADD19R,0.03000X0.01500*%
%ADD20C,0.00800*%
%ADD21R,0.01673X0.01280*%
%ADD22R,0.01378X0.01378*%
%ADD23R,0.01280X0.01673*%
%ADD24C,0.00100*%
%ADD25C,0.00200*%
%ADD26R,0.04500X0.02500*%
%ADD27R,0.16000X0.02500*%
%ADD28R,0.02000X0.40000*%
%ADD29R,0.00500X0.15500*%
%ADD30R,0.02000X0.19000*%
%ADD31C,0.00700*%
%ADD32R,0.03000X0.02500*%
%ADD33R,0.05000X0.11000*%
D10*
X0001000Y0001000D02*
X0001000Y0394701D01*
X0453756Y0394701D01*
X0453756Y0001000D01*
X0001000Y0001000D01*
X0007103Y0010843D02*
X0007105Y0010965D01*
X0007111Y0011086D01*
X0007121Y0011208D01*
X0007135Y0011329D01*
X0007152Y0011449D01*
X0007174Y0011569D01*
X0007200Y0011688D01*
X0007229Y0011806D01*
X0007262Y0011923D01*
X0007299Y0012039D01*
X0007340Y0012154D01*
X0007385Y0012267D01*
X0007433Y0012379D01*
X0007485Y0012489D01*
X0007540Y0012598D01*
X0007599Y0012704D01*
X0007661Y0012809D01*
X0007727Y0012911D01*
X0007796Y0013012D01*
X0007868Y0013110D01*
X0007944Y0013205D01*
X0008022Y0013298D01*
X0008103Y0013389D01*
X0008188Y0013477D01*
X0008275Y0013562D01*
X0008365Y0013644D01*
X0008457Y0013723D01*
X0008552Y0013799D01*
X0008650Y0013872D01*
X0008749Y0013942D01*
X0008851Y0014009D01*
X0008955Y0014072D01*
X0009062Y0014131D01*
X0009170Y0014188D01*
X0009279Y0014240D01*
X0009391Y0014290D01*
X0009504Y0014335D01*
X0009618Y0014377D01*
X0009734Y0014415D01*
X0009851Y0014449D01*
X0009968Y0014479D01*
X0010087Y0014506D01*
X0010207Y0014529D01*
X0010327Y0014547D01*
X0010448Y0014562D01*
X0010569Y0014573D01*
X0010691Y0014580D01*
X0010813Y0014583D01*
X0010934Y0014582D01*
X0011056Y0014577D01*
X0011177Y0014568D01*
X0011298Y0014555D01*
X0011419Y0014538D01*
X0011539Y0014518D01*
X0011658Y0014493D01*
X0011777Y0014465D01*
X0011894Y0014432D01*
X0012010Y0014396D01*
X0012125Y0014356D01*
X0012239Y0014313D01*
X0012351Y0014265D01*
X0012462Y0014215D01*
X0012571Y0014160D01*
X0012678Y0014102D01*
X0012783Y0014041D01*
X0012886Y0013976D01*
X0012987Y0013908D01*
X0013085Y0013836D01*
X0013182Y0013762D01*
X0013275Y0013684D01*
X0013367Y0013603D01*
X0013455Y0013520D01*
X0013541Y0013433D01*
X0013624Y0013344D01*
X0013704Y0013252D01*
X0013781Y0013158D01*
X0013854Y0013061D01*
X0013925Y0012962D01*
X0013992Y0012860D01*
X0014056Y0012757D01*
X0014117Y0012651D01*
X0014174Y0012544D01*
X0014228Y0012434D01*
X0014278Y0012323D01*
X0014324Y0012211D01*
X0014367Y0012097D01*
X0014406Y0011981D01*
X0014441Y0011865D01*
X0014472Y0011747D01*
X0014500Y0011629D01*
X0014523Y0011509D01*
X0014543Y0011389D01*
X0014559Y0011268D01*
X0014571Y0011147D01*
X0014579Y0011026D01*
X0014583Y0010904D01*
X0014583Y0010782D01*
X0014579Y0010660D01*
X0014571Y0010539D01*
X0014559Y0010418D01*
X0014543Y0010297D01*
X0014523Y0010177D01*
X0014500Y0010057D01*
X0014472Y0009939D01*
X0014441Y0009821D01*
X0014406Y0009705D01*
X0014367Y0009589D01*
X0014324Y0009475D01*
X0014278Y0009363D01*
X0014228Y0009252D01*
X0014174Y0009142D01*
X0014117Y0009035D01*
X0014056Y0008929D01*
X0013992Y0008826D01*
X0013925Y0008724D01*
X0013854Y0008625D01*
X0013781Y0008528D01*
X0013704Y0008434D01*
X0013624Y0008342D01*
X0013541Y0008253D01*
X0013455Y0008166D01*
X0013367Y0008083D01*
X0013275Y0008002D01*
X0013182Y0007924D01*
X0013085Y0007850D01*
X0012987Y0007778D01*
X0012886Y0007710D01*
X0012783Y0007645D01*
X0012678Y0007584D01*
X0012571Y0007526D01*
X0012462Y0007471D01*
X0012351Y0007421D01*
X0012239Y0007373D01*
X0012125Y0007330D01*
X0012010Y0007290D01*
X0011894Y0007254D01*
X0011777Y0007221D01*
X0011658Y0007193D01*
X0011539Y0007168D01*
X0011419Y0007148D01*
X0011298Y0007131D01*
X0011177Y0007118D01*
X0011056Y0007109D01*
X0010934Y0007104D01*
X0010813Y0007103D01*
X0010691Y0007106D01*
X0010569Y0007113D01*
X0010448Y0007124D01*
X0010327Y0007139D01*
X0010207Y0007157D01*
X0010087Y0007180D01*
X0009968Y0007207D01*
X0009851Y0007237D01*
X0009734Y0007271D01*
X0009618Y0007309D01*
X0009504Y0007351D01*
X0009391Y0007396D01*
X0009279Y0007446D01*
X0009170Y0007498D01*
X0009062Y0007555D01*
X0008955Y0007614D01*
X0008851Y0007677D01*
X0008749Y0007744D01*
X0008650Y0007814D01*
X0008552Y0007887D01*
X0008457Y0007963D01*
X0008365Y0008042D01*
X0008275Y0008124D01*
X0008188Y0008209D01*
X0008103Y0008297D01*
X0008022Y0008388D01*
X0007944Y0008481D01*
X0007868Y0008576D01*
X0007796Y0008674D01*
X0007727Y0008775D01*
X0007661Y0008877D01*
X0007599Y0008982D01*
X0007540Y0009088D01*
X0007485Y0009197D01*
X0007433Y0009307D01*
X0007385Y0009419D01*
X0007340Y0009532D01*
X0007299Y0009647D01*
X0007262Y0009763D01*
X0007229Y0009880D01*
X0007200Y0009998D01*
X0007174Y0010117D01*
X0007152Y0010237D01*
X0007135Y0010357D01*
X0007121Y0010478D01*
X0007111Y0010600D01*
X0007105Y0010721D01*
X0007103Y0010843D01*
X0097650Y0095189D02*
X0097652Y0095350D01*
X0097658Y0095510D01*
X0097668Y0095671D01*
X0097682Y0095831D01*
X0097700Y0095991D01*
X0097721Y0096150D01*
X0097747Y0096309D01*
X0097777Y0096467D01*
X0097810Y0096624D01*
X0097848Y0096781D01*
X0097889Y0096936D01*
X0097934Y0097090D01*
X0097983Y0097243D01*
X0098036Y0097395D01*
X0098092Y0097546D01*
X0098153Y0097695D01*
X0098216Y0097843D01*
X0098284Y0097989D01*
X0098355Y0098133D01*
X0098429Y0098275D01*
X0098507Y0098416D01*
X0098589Y0098554D01*
X0098674Y0098691D01*
X0098762Y0098825D01*
X0098854Y0098957D01*
X0098949Y0099087D01*
X0099047Y0099215D01*
X0099148Y0099340D01*
X0099252Y0099462D01*
X0099359Y0099582D01*
X0099469Y0099699D01*
X0099582Y0099814D01*
X0099698Y0099925D01*
X0099817Y0100034D01*
X0099938Y0100139D01*
X0100062Y0100242D01*
X0100188Y0100342D01*
X0100316Y0100438D01*
X0100447Y0100531D01*
X0100581Y0100621D01*
X0100716Y0100708D01*
X0100854Y0100791D01*
X0100993Y0100871D01*
X0101135Y0100947D01*
X0101278Y0101020D01*
X0101423Y0101089D01*
X0101570Y0101155D01*
X0101718Y0101217D01*
X0101868Y0101275D01*
X0102019Y0101330D01*
X0102172Y0101381D01*
X0102326Y0101428D01*
X0102481Y0101471D01*
X0102637Y0101510D01*
X0102793Y0101546D01*
X0102951Y0101577D01*
X0103109Y0101605D01*
X0103268Y0101629D01*
X0103428Y0101649D01*
X0103588Y0101665D01*
X0103748Y0101677D01*
X0103909Y0101685D01*
X0104070Y0101689D01*
X0104230Y0101689D01*
X0104391Y0101685D01*
X0104552Y0101677D01*
X0104712Y0101665D01*
X0104872Y0101649D01*
X0105032Y0101629D01*
X0105191Y0101605D01*
X0105349Y0101577D01*
X0105507Y0101546D01*
X0105663Y0101510D01*
X0105819Y0101471D01*
X0105974Y0101428D01*
X0106128Y0101381D01*
X0106281Y0101330D01*
X0106432Y0101275D01*
X0106582Y0101217D01*
X0106730Y0101155D01*
X0106877Y0101089D01*
X0107022Y0101020D01*
X0107165Y0100947D01*
X0107307Y0100871D01*
X0107446Y0100791D01*
X0107584Y0100708D01*
X0107719Y0100621D01*
X0107853Y0100531D01*
X0107984Y0100438D01*
X0108112Y0100342D01*
X0108238Y0100242D01*
X0108362Y0100139D01*
X0108483Y0100034D01*
X0108602Y0099925D01*
X0108718Y0099814D01*
X0108831Y0099699D01*
X0108941Y0099582D01*
X0109048Y0099462D01*
X0109152Y0099340D01*
X0109253Y0099215D01*
X0109351Y0099087D01*
X0109446Y0098957D01*
X0109538Y0098825D01*
X0109626Y0098691D01*
X0109711Y0098554D01*
X0109793Y0098416D01*
X0109871Y0098275D01*
X0109945Y0098133D01*
X0110016Y0097989D01*
X0110084Y0097843D01*
X0110147Y0097695D01*
X0110208Y0097546D01*
X0110264Y0097395D01*
X0110317Y0097243D01*
X0110366Y0097090D01*
X0110411Y0096936D01*
X0110452Y0096781D01*
X0110490Y0096624D01*
X0110523Y0096467D01*
X0110553Y0096309D01*
X0110579Y0096150D01*
X0110600Y0095991D01*
X0110618Y0095831D01*
X0110632Y0095671D01*
X0110642Y0095510D01*
X0110648Y0095350D01*
X0110650Y0095189D01*
X0110648Y0095028D01*
X0110642Y0094868D01*
X0110632Y0094707D01*
X0110618Y0094547D01*
X0110600Y0094387D01*
X0110579Y0094228D01*
X0110553Y0094069D01*
X0110523Y0093911D01*
X0110490Y0093754D01*
X0110452Y0093597D01*
X0110411Y0093442D01*
X0110366Y0093288D01*
X0110317Y0093135D01*
X0110264Y0092983D01*
X0110208Y0092832D01*
X0110147Y0092683D01*
X0110084Y0092535D01*
X0110016Y0092389D01*
X0109945Y0092245D01*
X0109871Y0092103D01*
X0109793Y0091962D01*
X0109711Y0091824D01*
X0109626Y0091687D01*
X0109538Y0091553D01*
X0109446Y0091421D01*
X0109351Y0091291D01*
X0109253Y0091163D01*
X0109152Y0091038D01*
X0109048Y0090916D01*
X0108941Y0090796D01*
X0108831Y0090679D01*
X0108718Y0090564D01*
X0108602Y0090453D01*
X0108483Y0090344D01*
X0108362Y0090239D01*
X0108238Y0090136D01*
X0108112Y0090036D01*
X0107984Y0089940D01*
X0107853Y0089847D01*
X0107719Y0089757D01*
X0107584Y0089670D01*
X0107446Y0089587D01*
X0107307Y0089507D01*
X0107165Y0089431D01*
X0107022Y0089358D01*
X0106877Y0089289D01*
X0106730Y0089223D01*
X0106582Y0089161D01*
X0106432Y0089103D01*
X0106281Y0089048D01*
X0106128Y0088997D01*
X0105974Y0088950D01*
X0105819Y0088907D01*
X0105663Y0088868D01*
X0105507Y0088832D01*
X0105349Y0088801D01*
X0105191Y0088773D01*
X0105032Y0088749D01*
X0104872Y0088729D01*
X0104712Y0088713D01*
X0104552Y0088701D01*
X0104391Y0088693D01*
X0104230Y0088689D01*
X0104070Y0088689D01*
X0103909Y0088693D01*
X0103748Y0088701D01*
X0103588Y0088713D01*
X0103428Y0088729D01*
X0103268Y0088749D01*
X0103109Y0088773D01*
X0102951Y0088801D01*
X0102793Y0088832D01*
X0102637Y0088868D01*
X0102481Y0088907D01*
X0102326Y0088950D01*
X0102172Y0088997D01*
X0102019Y0089048D01*
X0101868Y0089103D01*
X0101718Y0089161D01*
X0101570Y0089223D01*
X0101423Y0089289D01*
X0101278Y0089358D01*
X0101135Y0089431D01*
X0100993Y0089507D01*
X0100854Y0089587D01*
X0100716Y0089670D01*
X0100581Y0089757D01*
X0100447Y0089847D01*
X0100316Y0089940D01*
X0100188Y0090036D01*
X0100062Y0090136D01*
X0099938Y0090239D01*
X0099817Y0090344D01*
X0099698Y0090453D01*
X0099582Y0090564D01*
X0099469Y0090679D01*
X0099359Y0090796D01*
X0099252Y0090916D01*
X0099148Y0091038D01*
X0099047Y0091163D01*
X0098949Y0091291D01*
X0098854Y0091421D01*
X0098762Y0091553D01*
X0098674Y0091687D01*
X0098589Y0091824D01*
X0098507Y0091962D01*
X0098429Y0092103D01*
X0098355Y0092245D01*
X0098284Y0092389D01*
X0098216Y0092535D01*
X0098153Y0092683D01*
X0098092Y0092832D01*
X0098036Y0092983D01*
X0097983Y0093135D01*
X0097934Y0093288D01*
X0097889Y0093442D01*
X0097848Y0093597D01*
X0097810Y0093754D01*
X0097777Y0093911D01*
X0097747Y0094069D01*
X0097721Y0094228D01*
X0097700Y0094387D01*
X0097682Y0094547D01*
X0097668Y0094707D01*
X0097658Y0094868D01*
X0097652Y0095028D01*
X0097650Y0095189D01*
X0071272Y0282591D02*
X0071274Y0282752D01*
X0071280Y0282912D01*
X0071290Y0283073D01*
X0071304Y0283233D01*
X0071322Y0283393D01*
X0071343Y0283552D01*
X0071369Y0283711D01*
X0071399Y0283869D01*
X0071432Y0284026D01*
X0071470Y0284183D01*
X0071511Y0284338D01*
X0071556Y0284492D01*
X0071605Y0284645D01*
X0071658Y0284797D01*
X0071714Y0284948D01*
X0071775Y0285097D01*
X0071838Y0285245D01*
X0071906Y0285391D01*
X0071977Y0285535D01*
X0072051Y0285677D01*
X0072129Y0285818D01*
X0072211Y0285956D01*
X0072296Y0286093D01*
X0072384Y0286227D01*
X0072476Y0286359D01*
X0072571Y0286489D01*
X0072669Y0286617D01*
X0072770Y0286742D01*
X0072874Y0286864D01*
X0072981Y0286984D01*
X0073091Y0287101D01*
X0073204Y0287216D01*
X0073320Y0287327D01*
X0073439Y0287436D01*
X0073560Y0287541D01*
X0073684Y0287644D01*
X0073810Y0287744D01*
X0073938Y0287840D01*
X0074069Y0287933D01*
X0074203Y0288023D01*
X0074338Y0288110D01*
X0074476Y0288193D01*
X0074615Y0288273D01*
X0074757Y0288349D01*
X0074900Y0288422D01*
X0075045Y0288491D01*
X0075192Y0288557D01*
X0075340Y0288619D01*
X0075490Y0288677D01*
X0075641Y0288732D01*
X0075794Y0288783D01*
X0075948Y0288830D01*
X0076103Y0288873D01*
X0076259Y0288912D01*
X0076415Y0288948D01*
X0076573Y0288979D01*
X0076731Y0289007D01*
X0076890Y0289031D01*
X0077050Y0289051D01*
X0077210Y0289067D01*
X0077370Y0289079D01*
X0077531Y0289087D01*
X0077692Y0289091D01*
X0077852Y0289091D01*
X0078013Y0289087D01*
X0078174Y0289079D01*
X0078334Y0289067D01*
X0078494Y0289051D01*
X0078654Y0289031D01*
X0078813Y0289007D01*
X0078971Y0288979D01*
X0079129Y0288948D01*
X0079285Y0288912D01*
X0079441Y0288873D01*
X0079596Y0288830D01*
X0079750Y0288783D01*
X0079903Y0288732D01*
X0080054Y0288677D01*
X0080204Y0288619D01*
X0080352Y0288557D01*
X0080499Y0288491D01*
X0080644Y0288422D01*
X0080787Y0288349D01*
X0080929Y0288273D01*
X0081068Y0288193D01*
X0081206Y0288110D01*
X0081341Y0288023D01*
X0081475Y0287933D01*
X0081606Y0287840D01*
X0081734Y0287744D01*
X0081860Y0287644D01*
X0081984Y0287541D01*
X0082105Y0287436D01*
X0082224Y0287327D01*
X0082340Y0287216D01*
X0082453Y0287101D01*
X0082563Y0286984D01*
X0082670Y0286864D01*
X0082774Y0286742D01*
X0082875Y0286617D01*
X0082973Y0286489D01*
X0083068Y0286359D01*
X0083160Y0286227D01*
X0083248Y0286093D01*
X0083333Y0285956D01*
X0083415Y0285818D01*
X0083493Y0285677D01*
X0083567Y0285535D01*
X0083638Y0285391D01*
X0083706Y0285245D01*
X0083769Y0285097D01*
X0083830Y0284948D01*
X0083886Y0284797D01*
X0083939Y0284645D01*
X0083988Y0284492D01*
X0084033Y0284338D01*
X0084074Y0284183D01*
X0084112Y0284026D01*
X0084145Y0283869D01*
X0084175Y0283711D01*
X0084201Y0283552D01*
X0084222Y0283393D01*
X0084240Y0283233D01*
X0084254Y0283073D01*
X0084264Y0282912D01*
X0084270Y0282752D01*
X0084272Y0282591D01*
X0084270Y0282430D01*
X0084264Y0282270D01*
X0084254Y0282109D01*
X0084240Y0281949D01*
X0084222Y0281789D01*
X0084201Y0281630D01*
X0084175Y0281471D01*
X0084145Y0281313D01*
X0084112Y0281156D01*
X0084074Y0280999D01*
X0084033Y0280844D01*
X0083988Y0280690D01*
X0083939Y0280537D01*
X0083886Y0280385D01*
X0083830Y0280234D01*
X0083769Y0280085D01*
X0083706Y0279937D01*
X0083638Y0279791D01*
X0083567Y0279647D01*
X0083493Y0279505D01*
X0083415Y0279364D01*
X0083333Y0279226D01*
X0083248Y0279089D01*
X0083160Y0278955D01*
X0083068Y0278823D01*
X0082973Y0278693D01*
X0082875Y0278565D01*
X0082774Y0278440D01*
X0082670Y0278318D01*
X0082563Y0278198D01*
X0082453Y0278081D01*
X0082340Y0277966D01*
X0082224Y0277855D01*
X0082105Y0277746D01*
X0081984Y0277641D01*
X0081860Y0277538D01*
X0081734Y0277438D01*
X0081606Y0277342D01*
X0081475Y0277249D01*
X0081341Y0277159D01*
X0081206Y0277072D01*
X0081068Y0276989D01*
X0080929Y0276909D01*
X0080787Y0276833D01*
X0080644Y0276760D01*
X0080499Y0276691D01*
X0080352Y0276625D01*
X0080204Y0276563D01*
X0080054Y0276505D01*
X0079903Y0276450D01*
X0079750Y0276399D01*
X0079596Y0276352D01*
X0079441Y0276309D01*
X0079285Y0276270D01*
X0079129Y0276234D01*
X0078971Y0276203D01*
X0078813Y0276175D01*
X0078654Y0276151D01*
X0078494Y0276131D01*
X0078334Y0276115D01*
X0078174Y0276103D01*
X0078013Y0276095D01*
X0077852Y0276091D01*
X0077692Y0276091D01*
X0077531Y0276095D01*
X0077370Y0276103D01*
X0077210Y0276115D01*
X0077050Y0276131D01*
X0076890Y0276151D01*
X0076731Y0276175D01*
X0076573Y0276203D01*
X0076415Y0276234D01*
X0076259Y0276270D01*
X0076103Y0276309D01*
X0075948Y0276352D01*
X0075794Y0276399D01*
X0075641Y0276450D01*
X0075490Y0276505D01*
X0075340Y0276563D01*
X0075192Y0276625D01*
X0075045Y0276691D01*
X0074900Y0276760D01*
X0074757Y0276833D01*
X0074615Y0276909D01*
X0074476Y0276989D01*
X0074338Y0277072D01*
X0074203Y0277159D01*
X0074069Y0277249D01*
X0073938Y0277342D01*
X0073810Y0277438D01*
X0073684Y0277538D01*
X0073560Y0277641D01*
X0073439Y0277746D01*
X0073320Y0277855D01*
X0073204Y0277966D01*
X0073091Y0278081D01*
X0072981Y0278198D01*
X0072874Y0278318D01*
X0072770Y0278440D01*
X0072669Y0278565D01*
X0072571Y0278693D01*
X0072476Y0278823D01*
X0072384Y0278955D01*
X0072296Y0279089D01*
X0072211Y0279226D01*
X0072129Y0279364D01*
X0072051Y0279505D01*
X0071977Y0279647D01*
X0071906Y0279791D01*
X0071838Y0279937D01*
X0071775Y0280085D01*
X0071714Y0280234D01*
X0071658Y0280385D01*
X0071605Y0280537D01*
X0071556Y0280690D01*
X0071511Y0280844D01*
X0071470Y0280999D01*
X0071432Y0281156D01*
X0071399Y0281313D01*
X0071369Y0281471D01*
X0071343Y0281630D01*
X0071322Y0281789D01*
X0071304Y0281949D01*
X0071290Y0282109D01*
X0071280Y0282270D01*
X0071274Y0282430D01*
X0071272Y0282591D01*
X0007103Y0384858D02*
X0007105Y0384980D01*
X0007111Y0385101D01*
X0007121Y0385223D01*
X0007135Y0385344D01*
X0007152Y0385464D01*
X0007174Y0385584D01*
X0007200Y0385703D01*
X0007229Y0385821D01*
X0007262Y0385938D01*
X0007299Y0386054D01*
X0007340Y0386169D01*
X0007385Y0386282D01*
X0007433Y0386394D01*
X0007485Y0386504D01*
X0007540Y0386613D01*
X0007599Y0386719D01*
X0007661Y0386824D01*
X0007727Y0386926D01*
X0007796Y0387027D01*
X0007868Y0387125D01*
X0007944Y0387220D01*
X0008022Y0387313D01*
X0008103Y0387404D01*
X0008188Y0387492D01*
X0008275Y0387577D01*
X0008365Y0387659D01*
X0008457Y0387738D01*
X0008552Y0387814D01*
X0008650Y0387887D01*
X0008749Y0387957D01*
X0008851Y0388024D01*
X0008955Y0388087D01*
X0009062Y0388146D01*
X0009170Y0388203D01*
X0009279Y0388255D01*
X0009391Y0388305D01*
X0009504Y0388350D01*
X0009618Y0388392D01*
X0009734Y0388430D01*
X0009851Y0388464D01*
X0009968Y0388494D01*
X0010087Y0388521D01*
X0010207Y0388544D01*
X0010327Y0388562D01*
X0010448Y0388577D01*
X0010569Y0388588D01*
X0010691Y0388595D01*
X0010813Y0388598D01*
X0010934Y0388597D01*
X0011056Y0388592D01*
X0011177Y0388583D01*
X0011298Y0388570D01*
X0011419Y0388553D01*
X0011539Y0388533D01*
X0011658Y0388508D01*
X0011777Y0388480D01*
X0011894Y0388447D01*
X0012010Y0388411D01*
X0012125Y0388371D01*
X0012239Y0388328D01*
X0012351Y0388280D01*
X0012462Y0388230D01*
X0012571Y0388175D01*
X0012678Y0388117D01*
X0012783Y0388056D01*
X0012886Y0387991D01*
X0012987Y0387923D01*
X0013085Y0387851D01*
X0013182Y0387777D01*
X0013275Y0387699D01*
X0013367Y0387618D01*
X0013455Y0387535D01*
X0013541Y0387448D01*
X0013624Y0387359D01*
X0013704Y0387267D01*
X0013781Y0387173D01*
X0013854Y0387076D01*
X0013925Y0386977D01*
X0013992Y0386875D01*
X0014056Y0386772D01*
X0014117Y0386666D01*
X0014174Y0386559D01*
X0014228Y0386449D01*
X0014278Y0386338D01*
X0014324Y0386226D01*
X0014367Y0386112D01*
X0014406Y0385996D01*
X0014441Y0385880D01*
X0014472Y0385762D01*
X0014500Y0385644D01*
X0014523Y0385524D01*
X0014543Y0385404D01*
X0014559Y0385283D01*
X0014571Y0385162D01*
X0014579Y0385041D01*
X0014583Y0384919D01*
X0014583Y0384797D01*
X0014579Y0384675D01*
X0014571Y0384554D01*
X0014559Y0384433D01*
X0014543Y0384312D01*
X0014523Y0384192D01*
X0014500Y0384072D01*
X0014472Y0383954D01*
X0014441Y0383836D01*
X0014406Y0383720D01*
X0014367Y0383604D01*
X0014324Y0383490D01*
X0014278Y0383378D01*
X0014228Y0383267D01*
X0014174Y0383157D01*
X0014117Y0383050D01*
X0014056Y0382944D01*
X0013992Y0382841D01*
X0013925Y0382739D01*
X0013854Y0382640D01*
X0013781Y0382543D01*
X0013704Y0382449D01*
X0013624Y0382357D01*
X0013541Y0382268D01*
X0013455Y0382181D01*
X0013367Y0382098D01*
X0013275Y0382017D01*
X0013182Y0381939D01*
X0013085Y0381865D01*
X0012987Y0381793D01*
X0012886Y0381725D01*
X0012783Y0381660D01*
X0012678Y0381599D01*
X0012571Y0381541D01*
X0012462Y0381486D01*
X0012351Y0381436D01*
X0012239Y0381388D01*
X0012125Y0381345D01*
X0012010Y0381305D01*
X0011894Y0381269D01*
X0011777Y0381236D01*
X0011658Y0381208D01*
X0011539Y0381183D01*
X0011419Y0381163D01*
X0011298Y0381146D01*
X0011177Y0381133D01*
X0011056Y0381124D01*
X0010934Y0381119D01*
X0010813Y0381118D01*
X0010691Y0381121D01*
X0010569Y0381128D01*
X0010448Y0381139D01*
X0010327Y0381154D01*
X0010207Y0381172D01*
X0010087Y0381195D01*
X0009968Y0381222D01*
X0009851Y0381252D01*
X0009734Y0381286D01*
X0009618Y0381324D01*
X0009504Y0381366D01*
X0009391Y0381411D01*
X0009279Y0381461D01*
X0009170Y0381513D01*
X0009062Y0381570D01*
X0008955Y0381629D01*
X0008851Y0381692D01*
X0008749Y0381759D01*
X0008650Y0381829D01*
X0008552Y0381902D01*
X0008457Y0381978D01*
X0008365Y0382057D01*
X0008275Y0382139D01*
X0008188Y0382224D01*
X0008103Y0382312D01*
X0008022Y0382403D01*
X0007944Y0382496D01*
X0007868Y0382591D01*
X0007796Y0382689D01*
X0007727Y0382790D01*
X0007661Y0382892D01*
X0007599Y0382997D01*
X0007540Y0383103D01*
X0007485Y0383212D01*
X0007433Y0383322D01*
X0007385Y0383434D01*
X0007340Y0383547D01*
X0007299Y0383662D01*
X0007262Y0383778D01*
X0007229Y0383895D01*
X0007200Y0384013D01*
X0007174Y0384132D01*
X0007152Y0384252D01*
X0007135Y0384372D01*
X0007121Y0384493D01*
X0007111Y0384615D01*
X0007105Y0384736D01*
X0007103Y0384858D01*
X0440173Y0384858D02*
X0440175Y0384980D01*
X0440181Y0385101D01*
X0440191Y0385223D01*
X0440205Y0385344D01*
X0440222Y0385464D01*
X0440244Y0385584D01*
X0440270Y0385703D01*
X0440299Y0385821D01*
X0440332Y0385938D01*
X0440369Y0386054D01*
X0440410Y0386169D01*
X0440455Y0386282D01*
X0440503Y0386394D01*
X0440555Y0386504D01*
X0440610Y0386613D01*
X0440669Y0386719D01*
X0440731Y0386824D01*
X0440797Y0386926D01*
X0440866Y0387027D01*
X0440938Y0387125D01*
X0441014Y0387220D01*
X0441092Y0387313D01*
X0441173Y0387404D01*
X0441258Y0387492D01*
X0441345Y0387577D01*
X0441435Y0387659D01*
X0441527Y0387738D01*
X0441622Y0387814D01*
X0441720Y0387887D01*
X0441819Y0387957D01*
X0441921Y0388024D01*
X0442025Y0388087D01*
X0442132Y0388146D01*
X0442240Y0388203D01*
X0442349Y0388255D01*
X0442461Y0388305D01*
X0442574Y0388350D01*
X0442688Y0388392D01*
X0442804Y0388430D01*
X0442921Y0388464D01*
X0443038Y0388494D01*
X0443157Y0388521D01*
X0443277Y0388544D01*
X0443397Y0388562D01*
X0443518Y0388577D01*
X0443639Y0388588D01*
X0443761Y0388595D01*
X0443883Y0388598D01*
X0444004Y0388597D01*
X0444126Y0388592D01*
X0444247Y0388583D01*
X0444368Y0388570D01*
X0444489Y0388553D01*
X0444609Y0388533D01*
X0444728Y0388508D01*
X0444847Y0388480D01*
X0444964Y0388447D01*
X0445080Y0388411D01*
X0445195Y0388371D01*
X0445309Y0388328D01*
X0445421Y0388280D01*
X0445532Y0388230D01*
X0445641Y0388175D01*
X0445748Y0388117D01*
X0445853Y0388056D01*
X0445956Y0387991D01*
X0446057Y0387923D01*
X0446155Y0387851D01*
X0446252Y0387777D01*
X0446345Y0387699D01*
X0446437Y0387618D01*
X0446525Y0387535D01*
X0446611Y0387448D01*
X0446694Y0387359D01*
X0446774Y0387267D01*
X0446851Y0387173D01*
X0446924Y0387076D01*
X0446995Y0386977D01*
X0447062Y0386875D01*
X0447126Y0386772D01*
X0447187Y0386666D01*
X0447244Y0386559D01*
X0447298Y0386449D01*
X0447348Y0386338D01*
X0447394Y0386226D01*
X0447437Y0386112D01*
X0447476Y0385996D01*
X0447511Y0385880D01*
X0447542Y0385762D01*
X0447570Y0385644D01*
X0447593Y0385524D01*
X0447613Y0385404D01*
X0447629Y0385283D01*
X0447641Y0385162D01*
X0447649Y0385041D01*
X0447653Y0384919D01*
X0447653Y0384797D01*
X0447649Y0384675D01*
X0447641Y0384554D01*
X0447629Y0384433D01*
X0447613Y0384312D01*
X0447593Y0384192D01*
X0447570Y0384072D01*
X0447542Y0383954D01*
X0447511Y0383836D01*
X0447476Y0383720D01*
X0447437Y0383604D01*
X0447394Y0383490D01*
X0447348Y0383378D01*
X0447298Y0383267D01*
X0447244Y0383157D01*
X0447187Y0383050D01*
X0447126Y0382944D01*
X0447062Y0382841D01*
X0446995Y0382739D01*
X0446924Y0382640D01*
X0446851Y0382543D01*
X0446774Y0382449D01*
X0446694Y0382357D01*
X0446611Y0382268D01*
X0446525Y0382181D01*
X0446437Y0382098D01*
X0446345Y0382017D01*
X0446252Y0381939D01*
X0446155Y0381865D01*
X0446057Y0381793D01*
X0445956Y0381725D01*
X0445853Y0381660D01*
X0445748Y0381599D01*
X0445641Y0381541D01*
X0445532Y0381486D01*
X0445421Y0381436D01*
X0445309Y0381388D01*
X0445195Y0381345D01*
X0445080Y0381305D01*
X0444964Y0381269D01*
X0444847Y0381236D01*
X0444728Y0381208D01*
X0444609Y0381183D01*
X0444489Y0381163D01*
X0444368Y0381146D01*
X0444247Y0381133D01*
X0444126Y0381124D01*
X0444004Y0381119D01*
X0443883Y0381118D01*
X0443761Y0381121D01*
X0443639Y0381128D01*
X0443518Y0381139D01*
X0443397Y0381154D01*
X0443277Y0381172D01*
X0443157Y0381195D01*
X0443038Y0381222D01*
X0442921Y0381252D01*
X0442804Y0381286D01*
X0442688Y0381324D01*
X0442574Y0381366D01*
X0442461Y0381411D01*
X0442349Y0381461D01*
X0442240Y0381513D01*
X0442132Y0381570D01*
X0442025Y0381629D01*
X0441921Y0381692D01*
X0441819Y0381759D01*
X0441720Y0381829D01*
X0441622Y0381902D01*
X0441527Y0381978D01*
X0441435Y0382057D01*
X0441345Y0382139D01*
X0441258Y0382224D01*
X0441173Y0382312D01*
X0441092Y0382403D01*
X0441014Y0382496D01*
X0440938Y0382591D01*
X0440866Y0382689D01*
X0440797Y0382790D01*
X0440731Y0382892D01*
X0440669Y0382997D01*
X0440610Y0383103D01*
X0440555Y0383212D01*
X0440503Y0383322D01*
X0440455Y0383434D01*
X0440410Y0383547D01*
X0440369Y0383662D01*
X0440332Y0383778D01*
X0440299Y0383895D01*
X0440270Y0384013D01*
X0440244Y0384132D01*
X0440222Y0384252D01*
X0440205Y0384372D01*
X0440191Y0384493D01*
X0440181Y0384615D01*
X0440175Y0384736D01*
X0440173Y0384858D01*
X0440173Y0010843D02*
X0440175Y0010965D01*
X0440181Y0011086D01*
X0440191Y0011208D01*
X0440205Y0011329D01*
X0440222Y0011449D01*
X0440244Y0011569D01*
X0440270Y0011688D01*
X0440299Y0011806D01*
X0440332Y0011923D01*
X0440369Y0012039D01*
X0440410Y0012154D01*
X0440455Y0012267D01*
X0440503Y0012379D01*
X0440555Y0012489D01*
X0440610Y0012598D01*
X0440669Y0012704D01*
X0440731Y0012809D01*
X0440797Y0012911D01*
X0440866Y0013012D01*
X0440938Y0013110D01*
X0441014Y0013205D01*
X0441092Y0013298D01*
X0441173Y0013389D01*
X0441258Y0013477D01*
X0441345Y0013562D01*
X0441435Y0013644D01*
X0441527Y0013723D01*
X0441622Y0013799D01*
X0441720Y0013872D01*
X0441819Y0013942D01*
X0441921Y0014009D01*
X0442025Y0014072D01*
X0442132Y0014131D01*
X0442240Y0014188D01*
X0442349Y0014240D01*
X0442461Y0014290D01*
X0442574Y0014335D01*
X0442688Y0014377D01*
X0442804Y0014415D01*
X0442921Y0014449D01*
X0443038Y0014479D01*
X0443157Y0014506D01*
X0443277Y0014529D01*
X0443397Y0014547D01*
X0443518Y0014562D01*
X0443639Y0014573D01*
X0443761Y0014580D01*
X0443883Y0014583D01*
X0444004Y0014582D01*
X0444126Y0014577D01*
X0444247Y0014568D01*
X0444368Y0014555D01*
X0444489Y0014538D01*
X0444609Y0014518D01*
X0444728Y0014493D01*
X0444847Y0014465D01*
X0444964Y0014432D01*
X0445080Y0014396D01*
X0445195Y0014356D01*
X0445309Y0014313D01*
X0445421Y0014265D01*
X0445532Y0014215D01*
X0445641Y0014160D01*
X0445748Y0014102D01*
X0445853Y0014041D01*
X0445956Y0013976D01*
X0446057Y0013908D01*
X0446155Y0013836D01*
X0446252Y0013762D01*
X0446345Y0013684D01*
X0446437Y0013603D01*
X0446525Y0013520D01*
X0446611Y0013433D01*
X0446694Y0013344D01*
X0446774Y0013252D01*
X0446851Y0013158D01*
X0446924Y0013061D01*
X0446995Y0012962D01*
X0447062Y0012860D01*
X0447126Y0012757D01*
X0447187Y0012651D01*
X0447244Y0012544D01*
X0447298Y0012434D01*
X0447348Y0012323D01*
X0447394Y0012211D01*
X0447437Y0012097D01*
X0447476Y0011981D01*
X0447511Y0011865D01*
X0447542Y0011747D01*
X0447570Y0011629D01*
X0447593Y0011509D01*
X0447613Y0011389D01*
X0447629Y0011268D01*
X0447641Y0011147D01*
X0447649Y0011026D01*
X0447653Y0010904D01*
X0447653Y0010782D01*
X0447649Y0010660D01*
X0447641Y0010539D01*
X0447629Y0010418D01*
X0447613Y0010297D01*
X0447593Y0010177D01*
X0447570Y0010057D01*
X0447542Y0009939D01*
X0447511Y0009821D01*
X0447476Y0009705D01*
X0447437Y0009589D01*
X0447394Y0009475D01*
X0447348Y0009363D01*
X0447298Y0009252D01*
X0447244Y0009142D01*
X0447187Y0009035D01*
X0447126Y0008929D01*
X0447062Y0008826D01*
X0446995Y0008724D01*
X0446924Y0008625D01*
X0446851Y0008528D01*
X0446774Y0008434D01*
X0446694Y0008342D01*
X0446611Y0008253D01*
X0446525Y0008166D01*
X0446437Y0008083D01*
X0446345Y0008002D01*
X0446252Y0007924D01*
X0446155Y0007850D01*
X0446057Y0007778D01*
X0445956Y0007710D01*
X0445853Y0007645D01*
X0445748Y0007584D01*
X0445641Y0007526D01*
X0445532Y0007471D01*
X0445421Y0007421D01*
X0445309Y0007373D01*
X0445195Y0007330D01*
X0445080Y0007290D01*
X0444964Y0007254D01*
X0444847Y0007221D01*
X0444728Y0007193D01*
X0444609Y0007168D01*
X0444489Y0007148D01*
X0444368Y0007131D01*
X0444247Y0007118D01*
X0444126Y0007109D01*
X0444004Y0007104D01*
X0443883Y0007103D01*
X0443761Y0007106D01*
X0443639Y0007113D01*
X0443518Y0007124D01*
X0443397Y0007139D01*
X0443277Y0007157D01*
X0443157Y0007180D01*
X0443038Y0007207D01*
X0442921Y0007237D01*
X0442804Y0007271D01*
X0442688Y0007309D01*
X0442574Y0007351D01*
X0442461Y0007396D01*
X0442349Y0007446D01*
X0442240Y0007498D01*
X0442132Y0007555D01*
X0442025Y0007614D01*
X0441921Y0007677D01*
X0441819Y0007744D01*
X0441720Y0007814D01*
X0441622Y0007887D01*
X0441527Y0007963D01*
X0441435Y0008042D01*
X0441345Y0008124D01*
X0441258Y0008209D01*
X0441173Y0008297D01*
X0441092Y0008388D01*
X0441014Y0008481D01*
X0440938Y0008576D01*
X0440866Y0008674D01*
X0440797Y0008775D01*
X0440731Y0008877D01*
X0440669Y0008982D01*
X0440610Y0009088D01*
X0440555Y0009197D01*
X0440503Y0009307D01*
X0440455Y0009419D01*
X0440410Y0009532D01*
X0440369Y0009647D01*
X0440332Y0009763D01*
X0440299Y0009880D01*
X0440270Y0009998D01*
X0440244Y0010117D01*
X0440222Y0010237D01*
X0440205Y0010357D01*
X0440191Y0010478D01*
X0440181Y0010600D01*
X0440175Y0010721D01*
X0440173Y0010843D01*
D11*
X0151302Y0077759D02*
X0151302Y0083898D01*
X0151302Y0080828D02*
X0132887Y0080828D01*
X0132887Y0077759D02*
X0132887Y0083898D01*
X0132887Y0090036D02*
X0145164Y0090036D01*
X0151302Y0096175D01*
X0145164Y0102313D01*
X0132887Y0102313D01*
X0132887Y0108452D02*
X0151302Y0108452D01*
X0151302Y0120729D01*
X0151302Y0126868D02*
X0139025Y0126868D01*
X0132887Y0133006D01*
X0139025Y0139145D01*
X0151302Y0139145D01*
X0151302Y0145283D02*
X0151302Y0154491D01*
X0148233Y0157561D01*
X0145164Y0157561D01*
X0142095Y0154491D01*
X0142095Y0145283D01*
X0142095Y0139145D02*
X0142095Y0126868D01*
X0151302Y0145283D02*
X0132887Y0145283D01*
X0132887Y0154491D01*
X0135956Y0157561D01*
X0139025Y0157561D01*
X0142095Y0154491D01*
X0139025Y0163699D02*
X0135956Y0163699D01*
X0132887Y0166768D01*
X0132887Y0172907D01*
X0135956Y0175976D01*
X0142095Y0172907D02*
X0142095Y0166768D01*
X0139025Y0163699D01*
X0148233Y0163699D02*
X0151302Y0166768D01*
X0151302Y0172907D01*
X0148233Y0175976D01*
X0145164Y0175976D01*
X0142095Y0172907D01*
D12*
X0157287Y0164374D02*
X0158354Y0165441D01*
X0162625Y0161171D01*
X0163692Y0162239D01*
X0163692Y0164374D01*
X0162625Y0165441D01*
X0158354Y0165441D01*
X0157287Y0164374D02*
X0157287Y0162239D01*
X0158354Y0161171D01*
X0162625Y0161171D01*
X0162625Y0159016D02*
X0163692Y0159016D01*
X0163692Y0157948D01*
X0162625Y0157948D01*
X0162625Y0159016D01*
X0163692Y0155773D02*
X0163692Y0151503D01*
X0163692Y0153638D02*
X0157287Y0153638D01*
X0159422Y0151503D01*
X0160489Y0149328D02*
X0160489Y0145057D01*
X0157287Y0142882D02*
X0163692Y0142882D01*
X0157287Y0138612D01*
X0163692Y0138612D01*
X0162625Y0136437D02*
X0158354Y0136437D01*
X0157287Y0135369D01*
X0157287Y0133234D01*
X0158354Y0132166D01*
X0162625Y0132166D01*
X0163692Y0133234D01*
X0163692Y0135369D01*
X0162625Y0136437D01*
X0163692Y0130005D02*
X0163692Y0127869D01*
X0163692Y0128937D02*
X0157287Y0128937D01*
X0157287Y0127869D02*
X0157287Y0130005D01*
X0158354Y0125694D02*
X0157287Y0124627D01*
X0157287Y0122491D01*
X0158354Y0121424D01*
X0159422Y0121424D01*
X0160489Y0122491D01*
X0160489Y0124627D01*
X0161557Y0125694D01*
X0162625Y0125694D01*
X0163692Y0124627D01*
X0163692Y0122491D01*
X0162625Y0121424D01*
X0163692Y0119249D02*
X0161557Y0117114D01*
X0161557Y0118181D02*
X0161557Y0114978D01*
X0163692Y0114978D02*
X0157287Y0114978D01*
X0157287Y0118181D01*
X0158354Y0119249D01*
X0160489Y0119249D01*
X0161557Y0118181D01*
X0163692Y0112803D02*
X0163692Y0108533D01*
X0157287Y0108533D01*
X0157287Y0112803D01*
X0160489Y0110668D02*
X0160489Y0108533D01*
X0161557Y0106358D02*
X0157287Y0106358D01*
X0161557Y0106358D02*
X0163692Y0104223D01*
X0161557Y0102087D01*
X0157287Y0102087D01*
X0061995Y0171387D02*
X0059059Y0171387D01*
X0061995Y0174322D01*
X0061995Y0175056D01*
X0061261Y0175790D01*
X0059793Y0175790D01*
X0059059Y0175056D01*
X0057391Y0173588D02*
X0054455Y0173588D01*
X0056657Y0175790D01*
X0056657Y0171387D01*
X0052787Y0175056D02*
X0049851Y0172121D01*
X0049851Y0171387D01*
X0047449Y0171387D02*
X0047449Y0175790D01*
X0045247Y0173588D01*
X0048183Y0173588D01*
X0049851Y0175790D02*
X0052787Y0175790D01*
X0052787Y0175056D01*
X0048039Y0178587D02*
X0032039Y0178587D01*
X0032039Y0168587D01*
X0048039Y0168587D01*
X0048039Y0178587D01*
X0043579Y0175790D02*
X0043579Y0171387D01*
X0040643Y0175790D01*
X0040643Y0171387D01*
X0038975Y0171387D02*
X0036039Y0171387D01*
X0037507Y0171387D02*
X0037507Y0175790D01*
X0036039Y0174322D01*
X0039439Y0250126D02*
X0048439Y0250126D01*
X0048439Y0349126D01*
X0039439Y0349126D01*
X0042939Y0342126D02*
X0042939Y0322126D01*
X0047439Y0322126D01*
X0047439Y0342126D01*
X0042939Y0342126D01*
X0026439Y0349126D02*
X0017439Y0349126D01*
X0017439Y0250126D01*
X0026439Y0250126D01*
X0022939Y0257126D02*
X0018439Y0257126D01*
X0018439Y0277126D01*
X0022939Y0277126D01*
X0022939Y0257126D01*
X0040939Y0255626D02*
X0045439Y0255626D01*
X0045439Y0257126D01*
X0042939Y0257126D01*
X0042939Y0277126D01*
X0047439Y0277126D01*
X0047439Y0257126D01*
X0047439Y0254626D01*
X0040939Y0254626D01*
X0045439Y0257126D02*
X0047439Y0257126D01*
X0022939Y0322126D02*
X0018439Y0322126D01*
X0018439Y0342126D01*
X0018439Y0344626D01*
X0024939Y0344626D01*
X0024939Y0343626D02*
X0020439Y0343626D01*
X0020439Y0342126D01*
X0022939Y0342126D01*
X0022939Y0322126D01*
X0020439Y0342126D02*
X0018439Y0342126D01*
X0228265Y0277704D02*
X0228265Y0272504D01*
X0239465Y0272504D01*
X0239465Y0277704D01*
X0228265Y0277704D01*
X0235436Y0264925D02*
X0240636Y0264925D01*
X0240636Y0253725D01*
X0235436Y0253725D01*
X0235436Y0264925D01*
X0345543Y0143640D02*
X0345543Y0127640D01*
X0355543Y0127640D01*
X0355543Y0143640D01*
X0345543Y0143640D01*
X0349074Y0139180D02*
X0348340Y0138446D01*
X0348340Y0136978D01*
X0349074Y0136244D01*
X0349074Y0134576D02*
X0348340Y0133842D01*
X0348340Y0131640D01*
X0352743Y0131640D01*
X0352743Y0133842D01*
X0352009Y0134576D01*
X0349074Y0134576D01*
X0352743Y0136244D02*
X0349807Y0139180D01*
X0349074Y0139180D01*
X0352743Y0139180D02*
X0352743Y0136244D01*
D13*
X0034539Y0173587D03*
D14*
X0031289Y0173587D03*
X0048789Y0173587D03*
D15*
X0070494Y0154804D02*
X0073497Y0154804D01*
X0071995Y0154804D02*
X0071995Y0150300D01*
X0075098Y0150300D02*
X0078101Y0154804D01*
X0079702Y0153303D02*
X0081203Y0154804D01*
X0081203Y0150300D01*
X0079702Y0150300D02*
X0082705Y0150300D01*
X0078101Y0150300D02*
X0075098Y0154804D01*
X0083650Y0144189D02*
X0083650Y0095189D01*
X0087150Y0095189D01*
X0087150Y0089189D01*
X0083650Y0089189D01*
X0083650Y0081689D01*
X0124650Y0081689D01*
X0124650Y0089189D01*
X0121150Y0089189D01*
X0121150Y0095189D01*
X0124650Y0095189D01*
X0124650Y0144189D01*
X0083650Y0144189D01*
X0099093Y0107942D02*
X0100228Y0106808D01*
X0100228Y0104539D01*
X0101550Y0104539D02*
X0103819Y0104539D01*
X0102685Y0104539D02*
X0102685Y0107942D01*
X0101550Y0106808D01*
X0100228Y0106240D02*
X0097959Y0106240D01*
X0097959Y0106808D02*
X0099093Y0107942D01*
X0097959Y0106808D02*
X0097959Y0104539D01*
X0105141Y0104539D02*
X0105141Y0105106D01*
X0107410Y0107375D01*
X0107410Y0107942D01*
X0105141Y0107942D01*
X0109300Y0105106D02*
X0109300Y0104539D01*
X0109867Y0104539D01*
X0109867Y0105106D01*
X0109300Y0105106D01*
X0109867Y0104539D02*
X0108732Y0103405D01*
X0111126Y0105106D02*
X0111694Y0104539D01*
X0112828Y0104539D01*
X0113395Y0105106D01*
X0113395Y0106240D01*
X0112828Y0106808D01*
X0112261Y0106808D01*
X0111126Y0106240D01*
X0111126Y0107942D01*
X0113395Y0107942D01*
X0114717Y0106808D02*
X0115285Y0106808D01*
X0115852Y0106240D01*
X0116419Y0106808D01*
X0116986Y0106240D01*
X0116986Y0104539D01*
X0115852Y0104539D02*
X0115852Y0106240D01*
X0114717Y0106808D02*
X0114717Y0104539D01*
X0118309Y0104539D02*
X0118309Y0106808D01*
X0118876Y0106808D01*
X0119443Y0106240D01*
X0120010Y0106808D01*
X0120577Y0106240D01*
X0120577Y0104539D01*
X0119443Y0104539D02*
X0119443Y0106240D01*
X0097050Y0095189D02*
X0097052Y0095363D01*
X0097059Y0095537D01*
X0097069Y0095711D01*
X0097084Y0095885D01*
X0097103Y0096058D01*
X0097127Y0096231D01*
X0097155Y0096403D01*
X0097186Y0096574D01*
X0097223Y0096745D01*
X0097263Y0096914D01*
X0097307Y0097083D01*
X0097356Y0097250D01*
X0097408Y0097416D01*
X0097465Y0097581D01*
X0097526Y0097744D01*
X0097590Y0097906D01*
X0097659Y0098066D01*
X0097732Y0098225D01*
X0097808Y0098381D01*
X0097888Y0098536D01*
X0097972Y0098689D01*
X0098060Y0098839D01*
X0098152Y0098987D01*
X0098247Y0099134D01*
X0098345Y0099277D01*
X0098447Y0099418D01*
X0098553Y0099557D01*
X0098662Y0099693D01*
X0098774Y0099827D01*
X0098889Y0099957D01*
X0099008Y0100085D01*
X0099130Y0100209D01*
X0099254Y0100331D01*
X0099382Y0100450D01*
X0099512Y0100565D01*
X0099646Y0100677D01*
X0099782Y0100786D01*
X0099921Y0100892D01*
X0100062Y0100994D01*
X0100205Y0101092D01*
X0100352Y0101187D01*
X0100500Y0101279D01*
X0100650Y0101367D01*
X0100803Y0101451D01*
X0100958Y0101531D01*
X0101114Y0101607D01*
X0101273Y0101680D01*
X0101433Y0101749D01*
X0101595Y0101813D01*
X0101758Y0101874D01*
X0101923Y0101931D01*
X0102089Y0101983D01*
X0102256Y0102032D01*
X0102425Y0102076D01*
X0102594Y0102116D01*
X0102765Y0102153D01*
X0102936Y0102184D01*
X0103108Y0102212D01*
X0103281Y0102236D01*
X0103454Y0102255D01*
X0103628Y0102270D01*
X0103802Y0102280D01*
X0103976Y0102287D01*
X0104150Y0102289D01*
X0104324Y0102287D01*
X0104498Y0102280D01*
X0104672Y0102270D01*
X0104846Y0102255D01*
X0105019Y0102236D01*
X0105192Y0102212D01*
X0105364Y0102184D01*
X0105535Y0102153D01*
X0105706Y0102116D01*
X0105875Y0102076D01*
X0106044Y0102032D01*
X0106211Y0101983D01*
X0106377Y0101931D01*
X0106542Y0101874D01*
X0106705Y0101813D01*
X0106867Y0101749D01*
X0107027Y0101680D01*
X0107186Y0101607D01*
X0107342Y0101531D01*
X0107497Y0101451D01*
X0107650Y0101367D01*
X0107800Y0101279D01*
X0107948Y0101187D01*
X0108095Y0101092D01*
X0108238Y0100994D01*
X0108379Y0100892D01*
X0108518Y0100786D01*
X0108654Y0100677D01*
X0108788Y0100565D01*
X0108918Y0100450D01*
X0109046Y0100331D01*
X0109170Y0100209D01*
X0109292Y0100085D01*
X0109411Y0099957D01*
X0109526Y0099827D01*
X0109638Y0099693D01*
X0109747Y0099557D01*
X0109853Y0099418D01*
X0109955Y0099277D01*
X0110053Y0099134D01*
X0110148Y0098987D01*
X0110240Y0098839D01*
X0110328Y0098689D01*
X0110412Y0098536D01*
X0110492Y0098381D01*
X0110568Y0098225D01*
X0110641Y0098066D01*
X0110710Y0097906D01*
X0110774Y0097744D01*
X0110835Y0097581D01*
X0110892Y0097416D01*
X0110944Y0097250D01*
X0110993Y0097083D01*
X0111037Y0096914D01*
X0111077Y0096745D01*
X0111114Y0096574D01*
X0111145Y0096403D01*
X0111173Y0096231D01*
X0111197Y0096058D01*
X0111216Y0095885D01*
X0111231Y0095711D01*
X0111241Y0095537D01*
X0111248Y0095363D01*
X0111250Y0095189D01*
X0111248Y0095015D01*
X0111241Y0094841D01*
X0111231Y0094667D01*
X0111216Y0094493D01*
X0111197Y0094320D01*
X0111173Y0094147D01*
X0111145Y0093975D01*
X0111114Y0093804D01*
X0111077Y0093633D01*
X0111037Y0093464D01*
X0110993Y0093295D01*
X0110944Y0093128D01*
X0110892Y0092962D01*
X0110835Y0092797D01*
X0110774Y0092634D01*
X0110710Y0092472D01*
X0110641Y0092312D01*
X0110568Y0092153D01*
X0110492Y0091997D01*
X0110412Y0091842D01*
X0110328Y0091689D01*
X0110240Y0091539D01*
X0110148Y0091391D01*
X0110053Y0091244D01*
X0109955Y0091101D01*
X0109853Y0090960D01*
X0109747Y0090821D01*
X0109638Y0090685D01*
X0109526Y0090551D01*
X0109411Y0090421D01*
X0109292Y0090293D01*
X0109170Y0090169D01*
X0109046Y0090047D01*
X0108918Y0089928D01*
X0108788Y0089813D01*
X0108654Y0089701D01*
X0108518Y0089592D01*
X0108379Y0089486D01*
X0108238Y0089384D01*
X0108095Y0089286D01*
X0107948Y0089191D01*
X0107800Y0089099D01*
X0107650Y0089011D01*
X0107497Y0088927D01*
X0107342Y0088847D01*
X0107186Y0088771D01*
X0107027Y0088698D01*
X0106867Y0088629D01*
X0106705Y0088565D01*
X0106542Y0088504D01*
X0106377Y0088447D01*
X0106211Y0088395D01*
X0106044Y0088346D01*
X0105875Y0088302D01*
X0105706Y0088262D01*
X0105535Y0088225D01*
X0105364Y0088194D01*
X0105192Y0088166D01*
X0105019Y0088142D01*
X0104846Y0088123D01*
X0104672Y0088108D01*
X0104498Y0088098D01*
X0104324Y0088091D01*
X0104150Y0088089D01*
X0103976Y0088091D01*
X0103802Y0088098D01*
X0103628Y0088108D01*
X0103454Y0088123D01*
X0103281Y0088142D01*
X0103108Y0088166D01*
X0102936Y0088194D01*
X0102765Y0088225D01*
X0102594Y0088262D01*
X0102425Y0088302D01*
X0102256Y0088346D01*
X0102089Y0088395D01*
X0101923Y0088447D01*
X0101758Y0088504D01*
X0101595Y0088565D01*
X0101433Y0088629D01*
X0101273Y0088698D01*
X0101114Y0088771D01*
X0100958Y0088847D01*
X0100803Y0088927D01*
X0100650Y0089011D01*
X0100500Y0089099D01*
X0100352Y0089191D01*
X0100205Y0089286D01*
X0100062Y0089384D01*
X0099921Y0089486D01*
X0099782Y0089592D01*
X0099646Y0089701D01*
X0099512Y0089813D01*
X0099382Y0089928D01*
X0099254Y0090047D01*
X0099130Y0090169D01*
X0099008Y0090293D01*
X0098889Y0090421D01*
X0098774Y0090551D01*
X0098662Y0090685D01*
X0098553Y0090821D01*
X0098447Y0090960D01*
X0098345Y0091101D01*
X0098247Y0091244D01*
X0098152Y0091391D01*
X0098060Y0091539D01*
X0097972Y0091689D01*
X0097888Y0091842D01*
X0097808Y0091997D01*
X0097732Y0092153D01*
X0097659Y0092312D01*
X0097590Y0092472D01*
X0097526Y0092634D01*
X0097465Y0092797D01*
X0097408Y0092962D01*
X0097356Y0093128D01*
X0097307Y0093295D01*
X0097263Y0093464D01*
X0097223Y0093633D01*
X0097186Y0093804D01*
X0097155Y0093975D01*
X0097127Y0094147D01*
X0097103Y0094320D01*
X0097084Y0094493D01*
X0097069Y0094667D01*
X0097059Y0094841D01*
X0097052Y0095015D01*
X0097050Y0095189D01*
X0105964Y0053684D02*
X0087001Y0053684D01*
X0086932Y0053487D02*
X0086932Y0014867D01*
X0087001Y0014684D02*
X0105964Y0014684D01*
X0105964Y0053684D01*
X0116682Y0053487D02*
X0116682Y0014867D01*
X0116751Y0014684D02*
X0135714Y0014684D01*
X0135714Y0053684D01*
X0116751Y0053684D01*
X0143557Y0053487D02*
X0143557Y0014867D01*
X0143626Y0014684D02*
X0162589Y0014684D01*
X0162589Y0053684D01*
X0143626Y0053684D01*
X0171182Y0053487D02*
X0171182Y0014867D01*
X0171251Y0014684D02*
X0190214Y0014684D01*
X0190214Y0053684D01*
X0171251Y0053684D01*
X0198182Y0053487D02*
X0198182Y0014867D01*
X0198251Y0014684D02*
X0217214Y0014684D01*
X0217214Y0053684D01*
X0198251Y0053684D01*
X0223000Y0053625D02*
X0223000Y0013625D01*
X0233000Y0013625D01*
X0233000Y0053625D01*
X0223000Y0053625D01*
X0235175Y0053575D02*
X0235175Y0013575D01*
X0245175Y0013575D01*
X0245175Y0053575D01*
X0235175Y0053575D01*
X0247500Y0053625D02*
X0247500Y0013625D01*
X0257500Y0013625D01*
X0257500Y0053625D01*
X0247500Y0053625D01*
X0259550Y0053300D02*
X0259550Y0013300D01*
X0269550Y0013300D01*
X0269550Y0053300D01*
X0259550Y0053300D01*
X0286546Y0022660D02*
X0286546Y0019658D01*
X0286546Y0021159D02*
X0291050Y0021159D01*
X0290299Y0018056D02*
X0291050Y0017306D01*
X0291050Y0015805D01*
X0290299Y0015054D01*
X0288798Y0015805D02*
X0288798Y0017306D01*
X0289549Y0018056D01*
X0290299Y0018056D01*
X0288798Y0015805D02*
X0288047Y0015054D01*
X0287297Y0015054D01*
X0286546Y0015805D01*
X0286546Y0017306D01*
X0287297Y0018056D01*
X0287297Y0013453D02*
X0288798Y0013453D01*
X0289549Y0012702D01*
X0289549Y0010450D01*
X0291050Y0010450D02*
X0286546Y0010450D01*
X0286546Y0012702D01*
X0287297Y0013453D01*
X0289549Y0011951D02*
X0291050Y0013453D01*
X0304446Y0013593D02*
X0308950Y0013593D01*
X0308950Y0016696D02*
X0304446Y0019699D01*
X0304446Y0016696D02*
X0308950Y0019699D01*
X0304446Y0015095D02*
X0304446Y0012092D01*
X0318821Y0012467D02*
X0318821Y0014719D01*
X0319572Y0015470D01*
X0321073Y0015470D01*
X0321824Y0014719D01*
X0321824Y0012467D01*
X0323325Y0012467D02*
X0318821Y0012467D01*
X0321824Y0013968D02*
X0323325Y0015470D01*
X0323325Y0017071D02*
X0318821Y0020074D01*
X0318821Y0017071D02*
X0323325Y0020074D01*
X0415820Y0018800D02*
X0421725Y0018800D01*
X0421725Y0040454D01*
X0415820Y0040454D01*
X0415820Y0018800D01*
X0421725Y0018800D02*
X0449284Y0018800D01*
X0449284Y0026674D01*
X0431568Y0026674D01*
X0431568Y0032580D01*
X0449284Y0032580D01*
X0449284Y0040454D01*
X0421725Y0040454D01*
X0422676Y0046711D02*
X0416771Y0046711D01*
X0416771Y0068364D01*
X0422676Y0068364D01*
X0422676Y0046711D01*
X0450235Y0046711D01*
X0450235Y0054585D01*
X0432519Y0054585D01*
X0432519Y0060490D01*
X0450235Y0060490D01*
X0450235Y0068364D01*
X0422676Y0068364D01*
X0422624Y0073805D02*
X0416719Y0073805D01*
X0416719Y0095459D01*
X0422624Y0095459D01*
X0422624Y0073805D01*
X0450183Y0073805D01*
X0450183Y0081679D01*
X0432467Y0081679D01*
X0432467Y0087585D01*
X0450183Y0087585D01*
X0450183Y0095459D01*
X0422624Y0095459D01*
X0421797Y0101305D02*
X0415892Y0101305D01*
X0415892Y0122959D01*
X0421797Y0122959D01*
X0421797Y0101305D01*
X0449356Y0101305D01*
X0449356Y0109179D01*
X0431640Y0109179D01*
X0431640Y0115085D01*
X0449356Y0115085D01*
X0449356Y0122959D01*
X0421797Y0122959D01*
X0421850Y0130449D02*
X0415945Y0130449D01*
X0415945Y0152102D01*
X0421850Y0152102D01*
X0421850Y0130449D01*
X0449409Y0130449D01*
X0449409Y0138323D01*
X0431693Y0138323D01*
X0431693Y0144228D01*
X0449409Y0144228D01*
X0449409Y0152102D01*
X0421850Y0152102D01*
X0442287Y0157497D02*
X0392799Y0157497D01*
X0392799Y0231985D01*
X0442287Y0231985D01*
X0442287Y0157497D01*
X0449409Y0144228D02*
X0449409Y0138323D01*
X0449356Y0115085D02*
X0449356Y0109179D01*
X0450183Y0087585D02*
X0450183Y0081679D01*
X0450235Y0060490D02*
X0450235Y0054585D01*
X0449284Y0032580D02*
X0449284Y0026674D01*
X0364996Y0113016D02*
X0168146Y0113016D01*
X0168146Y0380732D01*
X0364996Y0380732D01*
X0364996Y0113016D01*
X0375542Y0192200D02*
X0378545Y0192200D01*
X0380046Y0193701D01*
X0378545Y0195203D01*
X0375542Y0195203D01*
X0375542Y0196804D02*
X0375542Y0199056D01*
X0376293Y0199806D01*
X0377044Y0199806D01*
X0377794Y0199056D01*
X0377794Y0196804D01*
X0380046Y0196804D02*
X0375542Y0196804D01*
X0377794Y0199056D02*
X0378545Y0199806D01*
X0379295Y0199806D01*
X0380046Y0199056D01*
X0380046Y0196804D01*
X0379295Y0201408D02*
X0375542Y0201408D01*
X0375542Y0204410D02*
X0379295Y0204410D01*
X0380046Y0203660D01*
X0380046Y0202158D01*
X0379295Y0201408D01*
X0379295Y0206012D02*
X0380046Y0206762D01*
X0380046Y0208264D01*
X0379295Y0209014D01*
X0378545Y0209014D01*
X0377794Y0208264D01*
X0377794Y0206762D01*
X0377044Y0206012D01*
X0376293Y0206012D01*
X0375542Y0206762D01*
X0375542Y0208264D01*
X0376293Y0209014D01*
X0362122Y0234000D02*
X0352122Y0234000D01*
X0352122Y0334000D01*
X0362122Y0334000D01*
X0362122Y0234000D01*
X0352122Y0234000D02*
X0342122Y0234000D01*
X0342122Y0334000D01*
X0352122Y0334000D01*
X0373612Y0365423D02*
X0373612Y0384386D01*
X0412612Y0384386D01*
X0412612Y0365423D01*
X0412429Y0365354D02*
X0373809Y0365354D01*
X0417275Y0372998D02*
X0417275Y0331659D01*
X0423180Y0331659D01*
X0423180Y0372998D01*
X0417275Y0372998D01*
X0423180Y0372998D02*
X0450739Y0372998D01*
X0450739Y0331659D01*
X0423180Y0331659D01*
X0429819Y0329148D02*
X0429819Y0290148D01*
X0448781Y0290148D01*
X0448850Y0290344D02*
X0448850Y0328965D01*
X0448781Y0329148D02*
X0429819Y0329148D01*
X0429819Y0288203D02*
X0429819Y0249203D01*
X0448781Y0249203D01*
X0448850Y0249400D02*
X0448850Y0288020D01*
X0448781Y0288203D02*
X0429819Y0288203D01*
X0222413Y0214538D02*
X0222413Y0210785D01*
X0221663Y0210035D01*
X0220161Y0210035D01*
X0219411Y0210785D01*
X0219411Y0214538D01*
X0217809Y0214538D02*
X0217809Y0210035D01*
X0214807Y0210035D02*
X0214807Y0214538D01*
X0216308Y0213037D01*
X0217809Y0214538D01*
X0213239Y0214538D02*
X0211737Y0214538D01*
X0212488Y0214538D02*
X0212488Y0210035D01*
X0211737Y0210035D02*
X0213239Y0210035D01*
X0192122Y0234000D02*
X0182122Y0234000D01*
X0182122Y0334000D01*
X0172122Y0334000D01*
X0172122Y0234000D01*
X0182122Y0234000D01*
X0192122Y0234000D02*
X0192122Y0334000D01*
X0182122Y0334000D01*
X0163006Y0366998D02*
X0163006Y0385961D01*
X0124006Y0385961D01*
X0124006Y0366998D01*
X0124203Y0366929D02*
X0162823Y0366929D01*
X0133402Y0361656D02*
X0133402Y0341970D01*
X0113717Y0341970D01*
X0113717Y0357719D01*
X0117654Y0361656D01*
X0133402Y0361656D01*
X0115291Y0351813D02*
X0115293Y0352016D01*
X0115301Y0352219D01*
X0115313Y0352421D01*
X0115331Y0352623D01*
X0115353Y0352825D01*
X0115380Y0353026D01*
X0115413Y0353227D01*
X0115450Y0353426D01*
X0115492Y0353625D01*
X0115539Y0353822D01*
X0115590Y0354018D01*
X0115647Y0354213D01*
X0115708Y0354407D01*
X0115774Y0354598D01*
X0115845Y0354789D01*
X0115920Y0354977D01*
X0116000Y0355164D01*
X0116085Y0355348D01*
X0116174Y0355530D01*
X0116267Y0355711D01*
X0116365Y0355888D01*
X0116467Y0356064D01*
X0116574Y0356236D01*
X0116684Y0356406D01*
X0116799Y0356574D01*
X0116918Y0356738D01*
X0117041Y0356900D01*
X0117168Y0357058D01*
X0117298Y0357213D01*
X0117433Y0357365D01*
X0117571Y0357514D01*
X0117713Y0357659D01*
X0117858Y0357801D01*
X0118007Y0357939D01*
X0118159Y0358074D01*
X0118314Y0358204D01*
X0118472Y0358331D01*
X0118634Y0358454D01*
X0118798Y0358573D01*
X0118966Y0358688D01*
X0119136Y0358798D01*
X0119308Y0358905D01*
X0119484Y0359007D01*
X0119661Y0359105D01*
X0119842Y0359198D01*
X0120024Y0359287D01*
X0120208Y0359372D01*
X0120395Y0359452D01*
X0120583Y0359527D01*
X0120774Y0359598D01*
X0120965Y0359664D01*
X0121159Y0359725D01*
X0121354Y0359782D01*
X0121550Y0359833D01*
X0121747Y0359880D01*
X0121946Y0359922D01*
X0122145Y0359959D01*
X0122346Y0359992D01*
X0122547Y0360019D01*
X0122749Y0360041D01*
X0122951Y0360059D01*
X0123153Y0360071D01*
X0123356Y0360079D01*
X0123559Y0360081D01*
X0123762Y0360079D01*
X0123965Y0360071D01*
X0124167Y0360059D01*
X0124369Y0360041D01*
X0124571Y0360019D01*
X0124772Y0359992D01*
X0124973Y0359959D01*
X0125172Y0359922D01*
X0125371Y0359880D01*
X0125568Y0359833D01*
X0125764Y0359782D01*
X0125959Y0359725D01*
X0126153Y0359664D01*
X0126344Y0359598D01*
X0126535Y0359527D01*
X0126723Y0359452D01*
X0126910Y0359372D01*
X0127094Y0359287D01*
X0127276Y0359198D01*
X0127457Y0359105D01*
X0127634Y0359007D01*
X0127810Y0358905D01*
X0127982Y0358798D01*
X0128152Y0358688D01*
X0128320Y0358573D01*
X0128484Y0358454D01*
X0128646Y0358331D01*
X0128804Y0358204D01*
X0128959Y0358074D01*
X0129111Y0357939D01*
X0129260Y0357801D01*
X0129405Y0357659D01*
X0129547Y0357514D01*
X0129685Y0357365D01*
X0129820Y0357213D01*
X0129950Y0357058D01*
X0130077Y0356900D01*
X0130200Y0356738D01*
X0130319Y0356574D01*
X0130434Y0356406D01*
X0130544Y0356236D01*
X0130651Y0356064D01*
X0130753Y0355888D01*
X0130851Y0355711D01*
X0130944Y0355530D01*
X0131033Y0355348D01*
X0131118Y0355164D01*
X0131198Y0354977D01*
X0131273Y0354789D01*
X0131344Y0354598D01*
X0131410Y0354407D01*
X0131471Y0354213D01*
X0131528Y0354018D01*
X0131579Y0353822D01*
X0131626Y0353625D01*
X0131668Y0353426D01*
X0131705Y0353227D01*
X0131738Y0353026D01*
X0131765Y0352825D01*
X0131787Y0352623D01*
X0131805Y0352421D01*
X0131817Y0352219D01*
X0131825Y0352016D01*
X0131827Y0351813D01*
X0131825Y0351610D01*
X0131817Y0351407D01*
X0131805Y0351205D01*
X0131787Y0351003D01*
X0131765Y0350801D01*
X0131738Y0350600D01*
X0131705Y0350399D01*
X0131668Y0350200D01*
X0131626Y0350001D01*
X0131579Y0349804D01*
X0131528Y0349608D01*
X0131471Y0349413D01*
X0131410Y0349219D01*
X0131344Y0349028D01*
X0131273Y0348837D01*
X0131198Y0348649D01*
X0131118Y0348462D01*
X0131033Y0348278D01*
X0130944Y0348096D01*
X0130851Y0347915D01*
X0130753Y0347738D01*
X0130651Y0347562D01*
X0130544Y0347390D01*
X0130434Y0347220D01*
X0130319Y0347052D01*
X0130200Y0346888D01*
X0130077Y0346726D01*
X0129950Y0346568D01*
X0129820Y0346413D01*
X0129685Y0346261D01*
X0129547Y0346112D01*
X0129405Y0345967D01*
X0129260Y0345825D01*
X0129111Y0345687D01*
X0128959Y0345552D01*
X0128804Y0345422D01*
X0128646Y0345295D01*
X0128484Y0345172D01*
X0128320Y0345053D01*
X0128152Y0344938D01*
X0127982Y0344828D01*
X0127810Y0344721D01*
X0127634Y0344619D01*
X0127457Y0344521D01*
X0127276Y0344428D01*
X0127094Y0344339D01*
X0126910Y0344254D01*
X0126723Y0344174D01*
X0126535Y0344099D01*
X0126344Y0344028D01*
X0126153Y0343962D01*
X0125959Y0343901D01*
X0125764Y0343844D01*
X0125568Y0343793D01*
X0125371Y0343746D01*
X0125172Y0343704D01*
X0124973Y0343667D01*
X0124772Y0343634D01*
X0124571Y0343607D01*
X0124369Y0343585D01*
X0124167Y0343567D01*
X0123965Y0343555D01*
X0123762Y0343547D01*
X0123559Y0343545D01*
X0123356Y0343547D01*
X0123153Y0343555D01*
X0122951Y0343567D01*
X0122749Y0343585D01*
X0122547Y0343607D01*
X0122346Y0343634D01*
X0122145Y0343667D01*
X0121946Y0343704D01*
X0121747Y0343746D01*
X0121550Y0343793D01*
X0121354Y0343844D01*
X0121159Y0343901D01*
X0120965Y0343962D01*
X0120774Y0344028D01*
X0120583Y0344099D01*
X0120395Y0344174D01*
X0120208Y0344254D01*
X0120024Y0344339D01*
X0119842Y0344428D01*
X0119661Y0344521D01*
X0119484Y0344619D01*
X0119308Y0344721D01*
X0119136Y0344828D01*
X0118966Y0344938D01*
X0118798Y0345053D01*
X0118634Y0345172D01*
X0118472Y0345295D01*
X0118314Y0345422D01*
X0118159Y0345552D01*
X0118007Y0345687D01*
X0117858Y0345825D01*
X0117713Y0345967D01*
X0117571Y0346112D01*
X0117433Y0346261D01*
X0117298Y0346413D01*
X0117168Y0346568D01*
X0117041Y0346726D01*
X0116918Y0346888D01*
X0116799Y0347052D01*
X0116684Y0347220D01*
X0116574Y0347390D01*
X0116467Y0347562D01*
X0116365Y0347738D01*
X0116267Y0347915D01*
X0116174Y0348096D01*
X0116085Y0348278D01*
X0116000Y0348462D01*
X0115920Y0348649D01*
X0115845Y0348837D01*
X0115774Y0349028D01*
X0115708Y0349219D01*
X0115647Y0349413D01*
X0115590Y0349608D01*
X0115539Y0349804D01*
X0115492Y0350001D01*
X0115450Y0350200D01*
X0115413Y0350399D01*
X0115380Y0350600D01*
X0115353Y0350801D01*
X0115331Y0351003D01*
X0115313Y0351205D01*
X0115301Y0351407D01*
X0115293Y0351610D01*
X0115291Y0351813D01*
X0113717Y0357719D02*
X0113717Y0361656D01*
X0117654Y0361656D01*
X0111451Y0362396D02*
X0111453Y0362443D01*
X0111459Y0362489D01*
X0111468Y0362535D01*
X0111482Y0362579D01*
X0111499Y0362623D01*
X0111520Y0362664D01*
X0111544Y0362704D01*
X0111571Y0362742D01*
X0111602Y0362777D01*
X0111635Y0362810D01*
X0111671Y0362840D01*
X0111710Y0362866D01*
X0111750Y0362890D01*
X0111792Y0362909D01*
X0111836Y0362926D01*
X0111881Y0362938D01*
X0111927Y0362947D01*
X0111973Y0362952D01*
X0112020Y0362953D01*
X0112066Y0362950D01*
X0112112Y0362943D01*
X0112158Y0362932D01*
X0112202Y0362918D01*
X0112245Y0362900D01*
X0112286Y0362878D01*
X0112326Y0362853D01*
X0112363Y0362825D01*
X0112398Y0362794D01*
X0112430Y0362760D01*
X0112459Y0362723D01*
X0112484Y0362685D01*
X0112507Y0362644D01*
X0112526Y0362601D01*
X0112541Y0362557D01*
X0112553Y0362512D01*
X0112561Y0362466D01*
X0112565Y0362419D01*
X0112565Y0362373D01*
X0112561Y0362326D01*
X0112553Y0362280D01*
X0112541Y0362235D01*
X0112526Y0362191D01*
X0112507Y0362148D01*
X0112484Y0362107D01*
X0112459Y0362069D01*
X0112430Y0362032D01*
X0112398Y0361998D01*
X0112363Y0361967D01*
X0112326Y0361939D01*
X0112287Y0361914D01*
X0112245Y0361892D01*
X0112202Y0361874D01*
X0112158Y0361860D01*
X0112112Y0361849D01*
X0112066Y0361842D01*
X0112020Y0361839D01*
X0111973Y0361840D01*
X0111927Y0361845D01*
X0111881Y0361854D01*
X0111836Y0361866D01*
X0111792Y0361883D01*
X0111750Y0361902D01*
X0111710Y0361926D01*
X0111671Y0361952D01*
X0111635Y0361982D01*
X0111602Y0362015D01*
X0111571Y0362050D01*
X0111544Y0362088D01*
X0111520Y0362128D01*
X0111499Y0362169D01*
X0111482Y0362213D01*
X0111468Y0362257D01*
X0111459Y0362303D01*
X0111453Y0362349D01*
X0111451Y0362396D01*
X0119516Y0367323D02*
X0080896Y0367323D01*
X0080699Y0367392D02*
X0080699Y0386354D01*
X0119699Y0386354D01*
X0119699Y0367392D01*
X0098272Y0331591D02*
X0098272Y0282591D01*
X0094772Y0282591D01*
X0094772Y0276591D01*
X0098272Y0276591D01*
X0098272Y0269091D01*
X0057272Y0269091D01*
X0057272Y0276591D01*
X0060772Y0276591D01*
X0060772Y0282591D01*
X0057272Y0282591D01*
X0057272Y0331591D01*
X0098272Y0331591D01*
X0093632Y0294209D02*
X0094199Y0293642D01*
X0094199Y0291941D01*
X0093065Y0291941D02*
X0093065Y0293642D01*
X0093632Y0294209D01*
X0093065Y0293642D02*
X0092498Y0294209D01*
X0091931Y0294209D01*
X0091931Y0291941D01*
X0090608Y0291941D02*
X0090608Y0293642D01*
X0090041Y0294209D01*
X0089474Y0293642D01*
X0089474Y0291941D01*
X0088340Y0291941D02*
X0088340Y0294209D01*
X0088907Y0294209D01*
X0089474Y0293642D01*
X0087017Y0293642D02*
X0087017Y0292508D01*
X0086450Y0291941D01*
X0085316Y0291941D01*
X0084748Y0292508D01*
X0084748Y0293642D02*
X0085883Y0294209D01*
X0086450Y0294209D01*
X0087017Y0293642D01*
X0087017Y0295343D02*
X0084748Y0295343D01*
X0084748Y0293642D01*
X0083489Y0292508D02*
X0082922Y0292508D01*
X0082922Y0291941D01*
X0083489Y0291941D01*
X0083489Y0292508D01*
X0083489Y0291941D02*
X0082354Y0290806D01*
X0078763Y0291941D02*
X0078763Y0292508D01*
X0081032Y0294776D01*
X0081032Y0295343D01*
X0078763Y0295343D01*
X0076307Y0295343D02*
X0076307Y0291941D01*
X0077441Y0291941D02*
X0075172Y0291941D01*
X0073850Y0291941D02*
X0073850Y0294209D01*
X0072716Y0295343D01*
X0071581Y0294209D01*
X0071581Y0291941D01*
X0071581Y0293642D02*
X0073850Y0293642D01*
X0075172Y0294209D02*
X0076307Y0295343D01*
X0070672Y0282591D02*
X0070674Y0282765D01*
X0070681Y0282939D01*
X0070691Y0283113D01*
X0070706Y0283287D01*
X0070725Y0283460D01*
X0070749Y0283633D01*
X0070777Y0283805D01*
X0070808Y0283976D01*
X0070845Y0284147D01*
X0070885Y0284316D01*
X0070929Y0284485D01*
X0070978Y0284652D01*
X0071030Y0284818D01*
X0071087Y0284983D01*
X0071148Y0285146D01*
X0071212Y0285308D01*
X0071281Y0285468D01*
X0071354Y0285627D01*
X0071430Y0285783D01*
X0071510Y0285938D01*
X0071594Y0286091D01*
X0071682Y0286241D01*
X0071774Y0286389D01*
X0071869Y0286536D01*
X0071967Y0286679D01*
X0072069Y0286820D01*
X0072175Y0286959D01*
X0072284Y0287095D01*
X0072396Y0287229D01*
X0072511Y0287359D01*
X0072630Y0287487D01*
X0072752Y0287611D01*
X0072876Y0287733D01*
X0073004Y0287852D01*
X0073134Y0287967D01*
X0073268Y0288079D01*
X0073404Y0288188D01*
X0073543Y0288294D01*
X0073684Y0288396D01*
X0073827Y0288494D01*
X0073974Y0288589D01*
X0074122Y0288681D01*
X0074272Y0288769D01*
X0074425Y0288853D01*
X0074580Y0288933D01*
X0074736Y0289009D01*
X0074895Y0289082D01*
X0075055Y0289151D01*
X0075217Y0289215D01*
X0075380Y0289276D01*
X0075545Y0289333D01*
X0075711Y0289385D01*
X0075878Y0289434D01*
X0076047Y0289478D01*
X0076216Y0289518D01*
X0076387Y0289555D01*
X0076558Y0289586D01*
X0076730Y0289614D01*
X0076903Y0289638D01*
X0077076Y0289657D01*
X0077250Y0289672D01*
X0077424Y0289682D01*
X0077598Y0289689D01*
X0077772Y0289691D01*
X0077946Y0289689D01*
X0078120Y0289682D01*
X0078294Y0289672D01*
X0078468Y0289657D01*
X0078641Y0289638D01*
X0078814Y0289614D01*
X0078986Y0289586D01*
X0079157Y0289555D01*
X0079328Y0289518D01*
X0079497Y0289478D01*
X0079666Y0289434D01*
X0079833Y0289385D01*
X0079999Y0289333D01*
X0080164Y0289276D01*
X0080327Y0289215D01*
X0080489Y0289151D01*
X0080649Y0289082D01*
X0080808Y0289009D01*
X0080964Y0288933D01*
X0081119Y0288853D01*
X0081272Y0288769D01*
X0081422Y0288681D01*
X0081570Y0288589D01*
X0081717Y0288494D01*
X0081860Y0288396D01*
X0082001Y0288294D01*
X0082140Y0288188D01*
X0082276Y0288079D01*
X0082410Y0287967D01*
X0082540Y0287852D01*
X0082668Y0287733D01*
X0082792Y0287611D01*
X0082914Y0287487D01*
X0083033Y0287359D01*
X0083148Y0287229D01*
X0083260Y0287095D01*
X0083369Y0286959D01*
X0083475Y0286820D01*
X0083577Y0286679D01*
X0083675Y0286536D01*
X0083770Y0286389D01*
X0083862Y0286241D01*
X0083950Y0286091D01*
X0084034Y0285938D01*
X0084114Y0285783D01*
X0084190Y0285627D01*
X0084263Y0285468D01*
X0084332Y0285308D01*
X0084396Y0285146D01*
X0084457Y0284983D01*
X0084514Y0284818D01*
X0084566Y0284652D01*
X0084615Y0284485D01*
X0084659Y0284316D01*
X0084699Y0284147D01*
X0084736Y0283976D01*
X0084767Y0283805D01*
X0084795Y0283633D01*
X0084819Y0283460D01*
X0084838Y0283287D01*
X0084853Y0283113D01*
X0084863Y0282939D01*
X0084870Y0282765D01*
X0084872Y0282591D01*
X0084870Y0282417D01*
X0084863Y0282243D01*
X0084853Y0282069D01*
X0084838Y0281895D01*
X0084819Y0281722D01*
X0084795Y0281549D01*
X0084767Y0281377D01*
X0084736Y0281206D01*
X0084699Y0281035D01*
X0084659Y0280866D01*
X0084615Y0280697D01*
X0084566Y0280530D01*
X0084514Y0280364D01*
X0084457Y0280199D01*
X0084396Y0280036D01*
X0084332Y0279874D01*
X0084263Y0279714D01*
X0084190Y0279555D01*
X0084114Y0279399D01*
X0084034Y0279244D01*
X0083950Y0279091D01*
X0083862Y0278941D01*
X0083770Y0278793D01*
X0083675Y0278646D01*
X0083577Y0278503D01*
X0083475Y0278362D01*
X0083369Y0278223D01*
X0083260Y0278087D01*
X0083148Y0277953D01*
X0083033Y0277823D01*
X0082914Y0277695D01*
X0082792Y0277571D01*
X0082668Y0277449D01*
X0082540Y0277330D01*
X0082410Y0277215D01*
X0082276Y0277103D01*
X0082140Y0276994D01*
X0082001Y0276888D01*
X0081860Y0276786D01*
X0081717Y0276688D01*
X0081570Y0276593D01*
X0081422Y0276501D01*
X0081272Y0276413D01*
X0081119Y0276329D01*
X0080964Y0276249D01*
X0080808Y0276173D01*
X0080649Y0276100D01*
X0080489Y0276031D01*
X0080327Y0275967D01*
X0080164Y0275906D01*
X0079999Y0275849D01*
X0079833Y0275797D01*
X0079666Y0275748D01*
X0079497Y0275704D01*
X0079328Y0275664D01*
X0079157Y0275627D01*
X0078986Y0275596D01*
X0078814Y0275568D01*
X0078641Y0275544D01*
X0078468Y0275525D01*
X0078294Y0275510D01*
X0078120Y0275500D01*
X0077946Y0275493D01*
X0077772Y0275491D01*
X0077598Y0275493D01*
X0077424Y0275500D01*
X0077250Y0275510D01*
X0077076Y0275525D01*
X0076903Y0275544D01*
X0076730Y0275568D01*
X0076558Y0275596D01*
X0076387Y0275627D01*
X0076216Y0275664D01*
X0076047Y0275704D01*
X0075878Y0275748D01*
X0075711Y0275797D01*
X0075545Y0275849D01*
X0075380Y0275906D01*
X0075217Y0275967D01*
X0075055Y0276031D01*
X0074895Y0276100D01*
X0074736Y0276173D01*
X0074580Y0276249D01*
X0074425Y0276329D01*
X0074272Y0276413D01*
X0074122Y0276501D01*
X0073974Y0276593D01*
X0073827Y0276688D01*
X0073684Y0276786D01*
X0073543Y0276888D01*
X0073404Y0276994D01*
X0073268Y0277103D01*
X0073134Y0277215D01*
X0073004Y0277330D01*
X0072876Y0277449D01*
X0072752Y0277571D01*
X0072630Y0277695D01*
X0072511Y0277823D01*
X0072396Y0277953D01*
X0072284Y0278087D01*
X0072175Y0278223D01*
X0072069Y0278362D01*
X0071967Y0278503D01*
X0071869Y0278646D01*
X0071774Y0278793D01*
X0071682Y0278941D01*
X0071594Y0279091D01*
X0071510Y0279244D01*
X0071430Y0279399D01*
X0071354Y0279555D01*
X0071281Y0279714D01*
X0071212Y0279874D01*
X0071148Y0280036D01*
X0071087Y0280199D01*
X0071030Y0280364D01*
X0070978Y0280530D01*
X0070929Y0280697D01*
X0070885Y0280866D01*
X0070845Y0281035D01*
X0070808Y0281206D01*
X0070777Y0281377D01*
X0070749Y0281549D01*
X0070725Y0281722D01*
X0070706Y0281895D01*
X0070691Y0282069D01*
X0070681Y0282243D01*
X0070674Y0282417D01*
X0070672Y0282591D01*
X0019869Y0245724D02*
X0018368Y0244223D01*
X0019869Y0242722D01*
X0015365Y0242722D01*
X0016116Y0241120D02*
X0015365Y0240370D01*
X0015365Y0238868D01*
X0016116Y0238118D01*
X0016867Y0238118D01*
X0017617Y0238868D01*
X0017617Y0240370D01*
X0018368Y0241120D01*
X0019119Y0241120D01*
X0019869Y0240370D01*
X0019869Y0238868D01*
X0019119Y0238118D01*
X0020620Y0236516D02*
X0020620Y0233514D01*
X0019869Y0231912D02*
X0018368Y0230411D01*
X0018368Y0231162D02*
X0018368Y0228910D01*
X0019869Y0228910D02*
X0015365Y0228910D01*
X0015365Y0231162D01*
X0016116Y0231912D01*
X0017617Y0231912D01*
X0018368Y0231162D01*
X0019869Y0227308D02*
X0015365Y0227308D01*
X0015365Y0224306D02*
X0019869Y0224306D01*
X0018368Y0225807D01*
X0019869Y0227308D01*
X0017617Y0222705D02*
X0018368Y0221954D01*
X0018368Y0219702D01*
X0019869Y0219702D02*
X0015365Y0219702D01*
X0015365Y0221954D01*
X0016116Y0222705D01*
X0017617Y0222705D01*
X0019869Y0245724D02*
X0015365Y0245724D01*
X0030376Y0053684D02*
X0049339Y0053684D01*
X0049339Y0014684D01*
X0030376Y0014684D01*
X0030307Y0014867D02*
X0030307Y0053487D01*
X0059432Y0053487D02*
X0059432Y0014867D01*
X0059501Y0014684D02*
X0078464Y0014684D01*
X0078464Y0053684D01*
X0059501Y0053684D01*
D16*
X0070008Y0061439D02*
X0070775Y0060671D01*
X0073845Y0060671D01*
X0074612Y0061439D01*
X0074612Y0062973D01*
X0073845Y0063741D01*
X0074612Y0065275D02*
X0074612Y0068345D01*
X0074612Y0066810D02*
X0070008Y0066810D01*
X0071543Y0065275D01*
X0070775Y0063741D02*
X0070008Y0062973D01*
X0070008Y0061439D01*
X0070775Y0069879D02*
X0070008Y0070647D01*
X0070008Y0072181D01*
X0070775Y0072949D01*
X0071543Y0072949D01*
X0072310Y0072181D01*
X0073077Y0072949D01*
X0073845Y0072949D01*
X0074612Y0072181D01*
X0074612Y0070647D01*
X0073845Y0069879D01*
X0072310Y0071414D02*
X0072310Y0072181D01*
X0056402Y0083829D02*
X0033173Y0083829D01*
X0024118Y0092884D01*
X0024118Y0096427D01*
X0024118Y0103514D02*
X0024118Y0107057D01*
X0033173Y0116112D01*
X0056402Y0116112D01*
X0056402Y0103514D01*
X0056402Y0096427D02*
X0056402Y0083829D01*
X0048015Y0072621D02*
X0044946Y0072621D01*
X0044178Y0071854D01*
X0044178Y0070319D01*
X0044946Y0069552D01*
X0045713Y0069552D01*
X0046480Y0070319D01*
X0046480Y0072621D01*
X0048015Y0072621D02*
X0048782Y0071854D01*
X0048782Y0070319D01*
X0048015Y0069552D01*
X0048782Y0068017D02*
X0048782Y0064948D01*
X0048782Y0066482D02*
X0044178Y0066482D01*
X0045713Y0064948D01*
X0044946Y0063413D02*
X0044178Y0062646D01*
X0044178Y0061111D01*
X0044946Y0060344D01*
X0048015Y0060344D01*
X0048782Y0061111D01*
X0048782Y0062646D01*
X0048015Y0063413D01*
X0055417Y0096427D02*
X0055326Y0096058D01*
X0055227Y0095692D01*
X0055118Y0095328D01*
X0055000Y0094967D01*
X0054874Y0094610D01*
X0054739Y0094255D01*
X0054595Y0093904D01*
X0054443Y0093556D01*
X0054282Y0093212D01*
X0054113Y0092872D01*
X0053936Y0092536D01*
X0053751Y0092205D01*
X0053558Y0091878D01*
X0053356Y0091557D01*
X0053147Y0091240D01*
X0052931Y0090928D01*
X0052706Y0090622D01*
X0052475Y0090321D01*
X0052236Y0090026D01*
X0051990Y0089737D01*
X0051737Y0089454D01*
X0051477Y0089178D01*
X0051211Y0088907D01*
X0050938Y0088644D01*
X0050658Y0088387D01*
X0050373Y0088137D01*
X0050081Y0087893D01*
X0049784Y0087658D01*
X0049481Y0087429D01*
X0049172Y0087208D01*
X0048859Y0086994D01*
X0048540Y0086789D01*
X0048216Y0086591D01*
X0047887Y0086401D01*
X0047554Y0086219D01*
X0047217Y0086045D01*
X0046875Y0085880D01*
X0046529Y0085722D01*
X0046180Y0085574D01*
X0045827Y0085434D01*
X0045471Y0085302D01*
X0045112Y0085180D01*
X0044750Y0085066D01*
X0044385Y0084961D01*
X0044018Y0084864D01*
X0043649Y0084777D01*
X0043277Y0084699D01*
X0042904Y0084630D01*
X0042529Y0084570D01*
X0042153Y0084520D01*
X0041776Y0084478D01*
X0041398Y0084446D01*
X0041019Y0084423D01*
X0040640Y0084409D01*
X0040260Y0084404D01*
X0039880Y0084409D01*
X0039501Y0084423D01*
X0039122Y0084446D01*
X0038744Y0084478D01*
X0038367Y0084520D01*
X0037991Y0084570D01*
X0037616Y0084630D01*
X0037243Y0084699D01*
X0036871Y0084777D01*
X0036502Y0084864D01*
X0036135Y0084961D01*
X0035770Y0085066D01*
X0035408Y0085180D01*
X0035049Y0085302D01*
X0034693Y0085434D01*
X0034340Y0085574D01*
X0033991Y0085722D01*
X0033645Y0085880D01*
X0033303Y0086045D01*
X0032966Y0086219D01*
X0032633Y0086401D01*
X0032304Y0086591D01*
X0031980Y0086789D01*
X0031661Y0086994D01*
X0031348Y0087208D01*
X0031039Y0087429D01*
X0030736Y0087658D01*
X0030439Y0087893D01*
X0030147Y0088137D01*
X0029862Y0088387D01*
X0029582Y0088644D01*
X0029309Y0088907D01*
X0029043Y0089178D01*
X0028783Y0089454D01*
X0028530Y0089737D01*
X0028284Y0090026D01*
X0028045Y0090321D01*
X0027814Y0090622D01*
X0027589Y0090928D01*
X0027373Y0091240D01*
X0027164Y0091557D01*
X0026962Y0091878D01*
X0026769Y0092205D01*
X0026584Y0092536D01*
X0026407Y0092872D01*
X0026238Y0093212D01*
X0026077Y0093556D01*
X0025925Y0093904D01*
X0025781Y0094255D01*
X0025646Y0094610D01*
X0025520Y0094967D01*
X0025402Y0095328D01*
X0025293Y0095692D01*
X0025194Y0096058D01*
X0025103Y0096427D01*
X0025103Y0103513D02*
X0025194Y0103882D01*
X0025293Y0104248D01*
X0025402Y0104612D01*
X0025520Y0104973D01*
X0025646Y0105330D01*
X0025781Y0105685D01*
X0025925Y0106036D01*
X0026077Y0106384D01*
X0026238Y0106728D01*
X0026407Y0107068D01*
X0026584Y0107404D01*
X0026769Y0107735D01*
X0026962Y0108062D01*
X0027164Y0108383D01*
X0027373Y0108700D01*
X0027589Y0109012D01*
X0027814Y0109318D01*
X0028045Y0109619D01*
X0028284Y0109914D01*
X0028530Y0110203D01*
X0028783Y0110486D01*
X0029043Y0110762D01*
X0029309Y0111033D01*
X0029582Y0111296D01*
X0029862Y0111553D01*
X0030147Y0111803D01*
X0030439Y0112047D01*
X0030736Y0112282D01*
X0031039Y0112511D01*
X0031348Y0112732D01*
X0031661Y0112946D01*
X0031980Y0113151D01*
X0032304Y0113349D01*
X0032633Y0113539D01*
X0032966Y0113721D01*
X0033303Y0113895D01*
X0033645Y0114060D01*
X0033991Y0114218D01*
X0034340Y0114366D01*
X0034693Y0114506D01*
X0035049Y0114638D01*
X0035408Y0114760D01*
X0035770Y0114874D01*
X0036135Y0114979D01*
X0036502Y0115076D01*
X0036871Y0115163D01*
X0037243Y0115241D01*
X0037616Y0115310D01*
X0037991Y0115370D01*
X0038367Y0115420D01*
X0038744Y0115462D01*
X0039122Y0115494D01*
X0039501Y0115517D01*
X0039880Y0115531D01*
X0040260Y0115536D01*
X0040640Y0115531D01*
X0041019Y0115517D01*
X0041398Y0115494D01*
X0041776Y0115462D01*
X0042153Y0115420D01*
X0042529Y0115370D01*
X0042904Y0115310D01*
X0043277Y0115241D01*
X0043649Y0115163D01*
X0044018Y0115076D01*
X0044385Y0114979D01*
X0044750Y0114874D01*
X0045112Y0114760D01*
X0045471Y0114638D01*
X0045827Y0114506D01*
X0046180Y0114366D01*
X0046529Y0114218D01*
X0046875Y0114060D01*
X0047217Y0113895D01*
X0047554Y0113721D01*
X0047887Y0113539D01*
X0048216Y0113349D01*
X0048540Y0113151D01*
X0048859Y0112946D01*
X0049172Y0112732D01*
X0049481Y0112511D01*
X0049784Y0112282D01*
X0050081Y0112047D01*
X0050373Y0111803D01*
X0050658Y0111553D01*
X0050938Y0111296D01*
X0051211Y0111033D01*
X0051477Y0110762D01*
X0051737Y0110486D01*
X0051990Y0110203D01*
X0052236Y0109914D01*
X0052475Y0109619D01*
X0052706Y0109318D01*
X0052931Y0109012D01*
X0053147Y0108700D01*
X0053356Y0108383D01*
X0053558Y0108062D01*
X0053751Y0107735D01*
X0053936Y0107404D01*
X0054113Y0107068D01*
X0054282Y0106728D01*
X0054443Y0106384D01*
X0054595Y0106036D01*
X0054739Y0105685D01*
X0054874Y0105330D01*
X0055000Y0104973D01*
X0055118Y0104612D01*
X0055227Y0104248D01*
X0055326Y0103882D01*
X0055417Y0103513D01*
X0056089Y0128516D02*
X0032860Y0128516D01*
X0023805Y0137571D01*
X0023805Y0141114D01*
X0023805Y0148201D02*
X0023805Y0151744D01*
X0032860Y0160799D01*
X0056089Y0160799D01*
X0056089Y0148201D01*
X0056089Y0141114D02*
X0056089Y0128516D01*
X0055104Y0141114D02*
X0055013Y0140745D01*
X0054914Y0140379D01*
X0054805Y0140015D01*
X0054687Y0139654D01*
X0054561Y0139297D01*
X0054426Y0138942D01*
X0054282Y0138591D01*
X0054130Y0138243D01*
X0053969Y0137899D01*
X0053800Y0137559D01*
X0053623Y0137223D01*
X0053438Y0136892D01*
X0053245Y0136565D01*
X0053043Y0136244D01*
X0052834Y0135927D01*
X0052618Y0135615D01*
X0052393Y0135309D01*
X0052162Y0135008D01*
X0051923Y0134713D01*
X0051677Y0134424D01*
X0051424Y0134141D01*
X0051164Y0133865D01*
X0050898Y0133594D01*
X0050625Y0133331D01*
X0050345Y0133074D01*
X0050060Y0132824D01*
X0049768Y0132580D01*
X0049471Y0132345D01*
X0049168Y0132116D01*
X0048859Y0131895D01*
X0048546Y0131681D01*
X0048227Y0131476D01*
X0047903Y0131278D01*
X0047574Y0131088D01*
X0047241Y0130906D01*
X0046904Y0130732D01*
X0046562Y0130567D01*
X0046216Y0130409D01*
X0045867Y0130261D01*
X0045514Y0130121D01*
X0045158Y0129989D01*
X0044799Y0129867D01*
X0044437Y0129753D01*
X0044072Y0129648D01*
X0043705Y0129551D01*
X0043336Y0129464D01*
X0042964Y0129386D01*
X0042591Y0129317D01*
X0042216Y0129257D01*
X0041840Y0129207D01*
X0041463Y0129165D01*
X0041085Y0129133D01*
X0040706Y0129110D01*
X0040327Y0129096D01*
X0039947Y0129091D01*
X0039567Y0129096D01*
X0039188Y0129110D01*
X0038809Y0129133D01*
X0038431Y0129165D01*
X0038054Y0129207D01*
X0037678Y0129257D01*
X0037303Y0129317D01*
X0036930Y0129386D01*
X0036558Y0129464D01*
X0036189Y0129551D01*
X0035822Y0129648D01*
X0035457Y0129753D01*
X0035095Y0129867D01*
X0034736Y0129989D01*
X0034380Y0130121D01*
X0034027Y0130261D01*
X0033678Y0130409D01*
X0033332Y0130567D01*
X0032990Y0130732D01*
X0032653Y0130906D01*
X0032320Y0131088D01*
X0031991Y0131278D01*
X0031667Y0131476D01*
X0031348Y0131681D01*
X0031035Y0131895D01*
X0030726Y0132116D01*
X0030423Y0132345D01*
X0030126Y0132580D01*
X0029834Y0132824D01*
X0029549Y0133074D01*
X0029269Y0133331D01*
X0028996Y0133594D01*
X0028730Y0133865D01*
X0028470Y0134141D01*
X0028217Y0134424D01*
X0027971Y0134713D01*
X0027732Y0135008D01*
X0027501Y0135309D01*
X0027276Y0135615D01*
X0027060Y0135927D01*
X0026851Y0136244D01*
X0026649Y0136565D01*
X0026456Y0136892D01*
X0026271Y0137223D01*
X0026094Y0137559D01*
X0025925Y0137899D01*
X0025764Y0138243D01*
X0025612Y0138591D01*
X0025468Y0138942D01*
X0025333Y0139297D01*
X0025207Y0139654D01*
X0025089Y0140015D01*
X0024980Y0140379D01*
X0024881Y0140745D01*
X0024790Y0141114D01*
X0024790Y0148200D02*
X0024881Y0148569D01*
X0024980Y0148935D01*
X0025089Y0149299D01*
X0025207Y0149660D01*
X0025333Y0150017D01*
X0025468Y0150372D01*
X0025612Y0150723D01*
X0025764Y0151071D01*
X0025925Y0151415D01*
X0026094Y0151755D01*
X0026271Y0152091D01*
X0026456Y0152422D01*
X0026649Y0152749D01*
X0026851Y0153070D01*
X0027060Y0153387D01*
X0027276Y0153699D01*
X0027501Y0154005D01*
X0027732Y0154306D01*
X0027971Y0154601D01*
X0028217Y0154890D01*
X0028470Y0155173D01*
X0028730Y0155449D01*
X0028996Y0155720D01*
X0029269Y0155983D01*
X0029549Y0156240D01*
X0029834Y0156490D01*
X0030126Y0156734D01*
X0030423Y0156969D01*
X0030726Y0157198D01*
X0031035Y0157419D01*
X0031348Y0157633D01*
X0031667Y0157838D01*
X0031991Y0158036D01*
X0032320Y0158226D01*
X0032653Y0158408D01*
X0032990Y0158582D01*
X0033332Y0158747D01*
X0033678Y0158905D01*
X0034027Y0159053D01*
X0034380Y0159193D01*
X0034736Y0159325D01*
X0035095Y0159447D01*
X0035457Y0159561D01*
X0035822Y0159666D01*
X0036189Y0159763D01*
X0036558Y0159850D01*
X0036930Y0159928D01*
X0037303Y0159997D01*
X0037678Y0160057D01*
X0038054Y0160107D01*
X0038431Y0160149D01*
X0038809Y0160181D01*
X0039188Y0160204D01*
X0039567Y0160218D01*
X0039947Y0160223D01*
X0040327Y0160218D01*
X0040706Y0160204D01*
X0041085Y0160181D01*
X0041463Y0160149D01*
X0041840Y0160107D01*
X0042216Y0160057D01*
X0042591Y0159997D01*
X0042964Y0159928D01*
X0043336Y0159850D01*
X0043705Y0159763D01*
X0044072Y0159666D01*
X0044437Y0159561D01*
X0044799Y0159447D01*
X0045158Y0159325D01*
X0045514Y0159193D01*
X0045867Y0159053D01*
X0046216Y0158905D01*
X0046562Y0158747D01*
X0046904Y0158582D01*
X0047241Y0158408D01*
X0047574Y0158226D01*
X0047903Y0158036D01*
X0048227Y0157838D01*
X0048546Y0157633D01*
X0048859Y0157419D01*
X0049168Y0157198D01*
X0049471Y0156969D01*
X0049768Y0156734D01*
X0050060Y0156490D01*
X0050345Y0156240D01*
X0050625Y0155983D01*
X0050898Y0155720D01*
X0051164Y0155449D01*
X0051424Y0155173D01*
X0051677Y0154890D01*
X0051923Y0154601D01*
X0052162Y0154306D01*
X0052393Y0154005D01*
X0052618Y0153699D01*
X0052834Y0153387D01*
X0053043Y0153070D01*
X0053245Y0152749D01*
X0053438Y0152422D01*
X0053623Y0152091D01*
X0053800Y0151755D01*
X0053969Y0151415D01*
X0054130Y0151071D01*
X0054282Y0150723D01*
X0054426Y0150372D01*
X0054561Y0150017D01*
X0054687Y0149660D01*
X0054805Y0149299D01*
X0054914Y0148935D01*
X0055013Y0148569D01*
X0055104Y0148200D01*
X0060618Y0182809D02*
X0029516Y0182809D01*
X0020461Y0191864D01*
X0020461Y0198951D01*
X0020461Y0206825D02*
X0020461Y0213911D01*
X0029516Y0222967D01*
X0060618Y0222967D01*
X0060618Y0206825D01*
X0060618Y0198951D02*
X0060618Y0182809D01*
X0059633Y0198951D02*
X0059532Y0198486D01*
X0059418Y0198024D01*
X0059294Y0197564D01*
X0059158Y0197108D01*
X0059012Y0196655D01*
X0058854Y0196206D01*
X0058685Y0195760D01*
X0058506Y0195319D01*
X0058316Y0194883D01*
X0058115Y0194451D01*
X0057904Y0194025D01*
X0057682Y0193603D01*
X0057450Y0193188D01*
X0057209Y0192778D01*
X0056957Y0192374D01*
X0056695Y0191976D01*
X0056424Y0191585D01*
X0056143Y0191200D01*
X0055853Y0190823D01*
X0055554Y0190452D01*
X0055246Y0190089D01*
X0054929Y0189734D01*
X0054603Y0189387D01*
X0054270Y0189047D01*
X0053928Y0188716D01*
X0053578Y0188394D01*
X0053220Y0188079D01*
X0052854Y0187774D01*
X0052482Y0187478D01*
X0052102Y0187191D01*
X0051715Y0186913D01*
X0051322Y0186645D01*
X0050922Y0186387D01*
X0050516Y0186138D01*
X0050104Y0185900D01*
X0049686Y0185671D01*
X0049263Y0185453D01*
X0048835Y0185245D01*
X0048402Y0185048D01*
X0047964Y0184861D01*
X0047521Y0184685D01*
X0047075Y0184520D01*
X0046625Y0184366D01*
X0046170Y0184223D01*
X0045713Y0184091D01*
X0045253Y0183970D01*
X0044789Y0183861D01*
X0044323Y0183763D01*
X0043855Y0183676D01*
X0043385Y0183601D01*
X0042913Y0183537D01*
X0042440Y0183485D01*
X0041966Y0183444D01*
X0041491Y0183415D01*
X0041015Y0183398D01*
X0040539Y0183392D01*
X0040063Y0183398D01*
X0039587Y0183415D01*
X0039112Y0183444D01*
X0038638Y0183485D01*
X0038165Y0183537D01*
X0037693Y0183601D01*
X0037223Y0183676D01*
X0036755Y0183763D01*
X0036289Y0183861D01*
X0035825Y0183970D01*
X0035365Y0184091D01*
X0034908Y0184223D01*
X0034453Y0184366D01*
X0034003Y0184520D01*
X0033557Y0184685D01*
X0033114Y0184861D01*
X0032676Y0185048D01*
X0032243Y0185245D01*
X0031815Y0185453D01*
X0031392Y0185671D01*
X0030974Y0185900D01*
X0030562Y0186138D01*
X0030156Y0186387D01*
X0029756Y0186645D01*
X0029363Y0186913D01*
X0028976Y0187191D01*
X0028596Y0187478D01*
X0028224Y0187774D01*
X0027858Y0188079D01*
X0027500Y0188394D01*
X0027150Y0188716D01*
X0026808Y0189047D01*
X0026475Y0189387D01*
X0026149Y0189734D01*
X0025832Y0190089D01*
X0025524Y0190452D01*
X0025225Y0190823D01*
X0024935Y0191200D01*
X0024654Y0191585D01*
X0024383Y0191976D01*
X0024121Y0192374D01*
X0023869Y0192778D01*
X0023628Y0193188D01*
X0023396Y0193603D01*
X0023174Y0194025D01*
X0022963Y0194451D01*
X0022762Y0194883D01*
X0022572Y0195319D01*
X0022393Y0195760D01*
X0022224Y0196206D01*
X0022066Y0196655D01*
X0021920Y0197108D01*
X0021784Y0197564D01*
X0021660Y0198024D01*
X0021546Y0198486D01*
X0021445Y0198951D01*
X0021445Y0206825D02*
X0021546Y0207290D01*
X0021660Y0207752D01*
X0021784Y0208212D01*
X0021920Y0208668D01*
X0022066Y0209121D01*
X0022224Y0209570D01*
X0022393Y0210016D01*
X0022572Y0210457D01*
X0022762Y0210893D01*
X0022963Y0211325D01*
X0023174Y0211751D01*
X0023396Y0212173D01*
X0023628Y0212588D01*
X0023869Y0212998D01*
X0024121Y0213402D01*
X0024383Y0213800D01*
X0024654Y0214191D01*
X0024935Y0214576D01*
X0025225Y0214953D01*
X0025524Y0215324D01*
X0025832Y0215687D01*
X0026149Y0216042D01*
X0026475Y0216389D01*
X0026808Y0216729D01*
X0027150Y0217060D01*
X0027500Y0217382D01*
X0027858Y0217697D01*
X0028224Y0218002D01*
X0028596Y0218298D01*
X0028976Y0218585D01*
X0029363Y0218863D01*
X0029756Y0219131D01*
X0030156Y0219389D01*
X0030562Y0219638D01*
X0030974Y0219876D01*
X0031392Y0220105D01*
X0031815Y0220323D01*
X0032243Y0220531D01*
X0032676Y0220728D01*
X0033114Y0220915D01*
X0033557Y0221091D01*
X0034003Y0221256D01*
X0034453Y0221410D01*
X0034908Y0221553D01*
X0035365Y0221685D01*
X0035825Y0221806D01*
X0036289Y0221915D01*
X0036755Y0222013D01*
X0037223Y0222100D01*
X0037693Y0222175D01*
X0038165Y0222239D01*
X0038638Y0222291D01*
X0039112Y0222332D01*
X0039587Y0222361D01*
X0040063Y0222378D01*
X0040539Y0222384D01*
X0041015Y0222378D01*
X0041491Y0222361D01*
X0041966Y0222332D01*
X0042440Y0222291D01*
X0042913Y0222239D01*
X0043385Y0222175D01*
X0043855Y0222100D01*
X0044323Y0222013D01*
X0044789Y0221915D01*
X0045253Y0221806D01*
X0045713Y0221685D01*
X0046170Y0221553D01*
X0046625Y0221410D01*
X0047075Y0221256D01*
X0047521Y0221091D01*
X0047964Y0220915D01*
X0048402Y0220728D01*
X0048835Y0220531D01*
X0049263Y0220323D01*
X0049686Y0220105D01*
X0050104Y0219876D01*
X0050516Y0219638D01*
X0050922Y0219389D01*
X0051322Y0219131D01*
X0051715Y0218863D01*
X0052102Y0218585D01*
X0052482Y0218298D01*
X0052854Y0218002D01*
X0053220Y0217697D01*
X0053578Y0217382D01*
X0053928Y0217060D01*
X0054270Y0216729D01*
X0054603Y0216389D01*
X0054929Y0216042D01*
X0055246Y0215687D01*
X0055554Y0215324D01*
X0055853Y0214953D01*
X0056143Y0214576D01*
X0056424Y0214191D01*
X0056695Y0213800D01*
X0056957Y0213402D01*
X0057209Y0212998D01*
X0057450Y0212588D01*
X0057682Y0212173D01*
X0057904Y0211751D01*
X0058115Y0211325D01*
X0058316Y0210893D01*
X0058506Y0210457D01*
X0058685Y0210016D01*
X0058854Y0209570D01*
X0059012Y0209121D01*
X0059158Y0208668D01*
X0059294Y0208212D01*
X0059418Y0207752D01*
X0059532Y0207290D01*
X0059633Y0206825D01*
X0082846Y0216938D02*
X0082846Y0219240D01*
X0083613Y0220007D01*
X0085148Y0220007D01*
X0085915Y0219240D01*
X0085915Y0216938D01*
X0087450Y0216938D02*
X0082846Y0216938D01*
X0085915Y0218473D02*
X0087450Y0220007D01*
X0087450Y0221542D02*
X0087450Y0224611D01*
X0087450Y0223077D02*
X0082846Y0223077D01*
X0084380Y0221542D01*
X0084177Y0233649D02*
X0084177Y0238253D01*
X0082642Y0236719D01*
X0082642Y0233649D02*
X0085711Y0233649D01*
X0081107Y0233649D02*
X0078038Y0233649D01*
X0078038Y0238253D01*
X0087570Y0196418D02*
X0089872Y0196418D01*
X0090639Y0195651D01*
X0090639Y0194116D01*
X0089872Y0193349D01*
X0087570Y0193349D01*
X0089105Y0193349D02*
X0090639Y0191814D01*
X0092174Y0192581D02*
X0092941Y0191814D01*
X0094476Y0191814D01*
X0095243Y0192581D01*
X0095243Y0193349D01*
X0094476Y0194116D01*
X0093709Y0194116D01*
X0094476Y0194116D02*
X0095243Y0194883D01*
X0095243Y0195651D01*
X0094476Y0196418D01*
X0092941Y0196418D01*
X0092174Y0195651D01*
X0087570Y0196418D02*
X0087570Y0191814D01*
X0096778Y0192581D02*
X0097545Y0191814D01*
X0099080Y0191814D01*
X0099847Y0192581D01*
X0099847Y0194116D01*
X0099080Y0194883D01*
X0098313Y0194883D01*
X0096778Y0194116D01*
X0096778Y0196418D01*
X0099847Y0196418D01*
X0109335Y0196847D02*
X0112404Y0196847D01*
X0110869Y0196847D02*
X0110869Y0192243D01*
X0113939Y0193011D02*
X0113939Y0193778D01*
X0114706Y0194545D01*
X0116241Y0194545D01*
X0117008Y0193778D01*
X0117008Y0193011D01*
X0116241Y0192243D01*
X0114706Y0192243D01*
X0113939Y0193011D01*
X0114706Y0194545D02*
X0113939Y0195313D01*
X0113939Y0196080D01*
X0114706Y0196847D01*
X0116241Y0196847D01*
X0117008Y0196080D01*
X0117008Y0195313D01*
X0116241Y0194545D01*
X0129696Y0194924D02*
X0131998Y0194924D01*
X0132765Y0195691D01*
X0132765Y0197226D01*
X0131998Y0197993D01*
X0129696Y0197993D01*
X0129696Y0193389D01*
X0131231Y0194924D02*
X0132765Y0193389D01*
X0134300Y0194156D02*
X0135067Y0193389D01*
X0136602Y0193389D01*
X0137369Y0194156D01*
X0137369Y0194924D01*
X0136602Y0195691D01*
X0135067Y0195691D01*
X0134300Y0196458D01*
X0134300Y0197226D01*
X0135067Y0197993D01*
X0136602Y0197993D01*
X0137369Y0197226D01*
X0137369Y0196458D01*
X0136602Y0195691D01*
X0135067Y0195691D02*
X0134300Y0194924D01*
X0134300Y0194156D01*
X0145670Y0238680D02*
X0145670Y0243283D01*
X0147972Y0243283D01*
X0148739Y0242516D01*
X0148739Y0240981D01*
X0147972Y0240214D01*
X0145670Y0240214D01*
X0150274Y0238680D02*
X0153343Y0241749D01*
X0153343Y0242516D01*
X0152576Y0243283D01*
X0151041Y0243283D01*
X0150274Y0242516D01*
X0150274Y0238680D02*
X0153343Y0238680D01*
X0154878Y0238680D02*
X0157947Y0238680D01*
X0156412Y0238680D02*
X0156412Y0243283D01*
X0154878Y0241749D01*
X0154878Y0249430D02*
X0157947Y0252499D01*
X0157947Y0253266D01*
X0157179Y0254033D01*
X0155645Y0254033D01*
X0154878Y0253266D01*
X0153343Y0253266D02*
X0153343Y0252499D01*
X0150274Y0249430D01*
X0153343Y0249430D01*
X0154878Y0249430D02*
X0157947Y0249430D01*
X0153343Y0253266D02*
X0152576Y0254033D01*
X0151041Y0254033D01*
X0150274Y0253266D01*
X0148739Y0253266D02*
X0148739Y0251731D01*
X0147972Y0250964D01*
X0145670Y0250964D01*
X0145670Y0249430D02*
X0145670Y0254033D01*
X0147972Y0254033D01*
X0148739Y0253266D01*
X0150024Y0259930D02*
X0153093Y0262999D01*
X0153093Y0263766D01*
X0152326Y0264533D01*
X0150791Y0264533D01*
X0150024Y0263766D01*
X0148489Y0263766D02*
X0148489Y0262231D01*
X0147722Y0261464D01*
X0145420Y0261464D01*
X0145420Y0259930D02*
X0145420Y0264533D01*
X0147722Y0264533D01*
X0148489Y0263766D01*
X0150024Y0259930D02*
X0153093Y0259930D01*
X0154628Y0260697D02*
X0155395Y0259930D01*
X0156929Y0259930D01*
X0157697Y0260697D01*
X0157697Y0261464D01*
X0156929Y0262231D01*
X0156162Y0262231D01*
X0156929Y0262231D02*
X0157697Y0262999D01*
X0157697Y0263766D01*
X0156929Y0264533D01*
X0155395Y0264533D01*
X0154628Y0263766D01*
X0155645Y0270430D02*
X0157179Y0270430D01*
X0157947Y0271197D01*
X0157947Y0271964D01*
X0157179Y0272731D01*
X0154878Y0272731D01*
X0154878Y0271197D01*
X0155645Y0270430D01*
X0153343Y0270430D02*
X0150274Y0270430D01*
X0153343Y0273499D01*
X0153343Y0274266D01*
X0152576Y0275033D01*
X0151041Y0275033D01*
X0150274Y0274266D01*
X0148739Y0274266D02*
X0148739Y0272731D01*
X0147972Y0271964D01*
X0145670Y0271964D01*
X0145670Y0270430D02*
X0145670Y0275033D01*
X0147972Y0275033D01*
X0148739Y0274266D01*
X0150399Y0280805D02*
X0153468Y0283874D01*
X0153468Y0284641D01*
X0152701Y0285408D01*
X0151166Y0285408D01*
X0150399Y0284641D01*
X0148864Y0284641D02*
X0148097Y0285408D01*
X0145795Y0285408D01*
X0145795Y0280805D01*
X0145795Y0282339D02*
X0148097Y0282339D01*
X0148864Y0283106D01*
X0148864Y0284641D01*
X0150399Y0280805D02*
X0153468Y0280805D01*
X0155003Y0280805D02*
X0155003Y0281572D01*
X0158072Y0284641D01*
X0158072Y0285408D01*
X0155003Y0285408D01*
X0155227Y0291981D02*
X0152157Y0291981D01*
X0155227Y0295051D01*
X0155227Y0295818D01*
X0154459Y0296585D01*
X0152925Y0296585D01*
X0152157Y0295818D01*
X0150623Y0295818D02*
X0150623Y0294283D01*
X0149856Y0293516D01*
X0147554Y0293516D01*
X0149088Y0293516D02*
X0150623Y0291981D01*
X0147554Y0291981D02*
X0147554Y0296585D01*
X0149856Y0296585D01*
X0150623Y0295818D01*
X0156761Y0295818D02*
X0156761Y0295051D01*
X0157529Y0294283D01*
X0159831Y0294283D01*
X0159831Y0292749D02*
X0159831Y0295818D01*
X0159063Y0296585D01*
X0157529Y0296585D01*
X0156761Y0295818D01*
X0156761Y0292749D02*
X0157529Y0291981D01*
X0159063Y0291981D01*
X0159831Y0292749D01*
X0159690Y0305513D02*
X0159690Y0310117D01*
X0158155Y0308582D01*
X0156620Y0308582D02*
X0155853Y0307815D01*
X0156620Y0307048D01*
X0156620Y0306280D01*
X0155853Y0305513D01*
X0154318Y0305513D01*
X0153551Y0306280D01*
X0152017Y0305513D02*
X0150482Y0307048D01*
X0151249Y0307048D02*
X0148947Y0307048D01*
X0148947Y0305513D02*
X0148947Y0310117D01*
X0151249Y0310117D01*
X0152017Y0309350D01*
X0152017Y0307815D01*
X0151249Y0307048D01*
X0153551Y0309350D02*
X0154318Y0310117D01*
X0155853Y0310117D01*
X0156620Y0309350D01*
X0156620Y0308582D01*
X0155853Y0307815D02*
X0155086Y0307815D01*
X0158155Y0305513D02*
X0161224Y0305513D01*
X0159207Y0333513D02*
X0157672Y0333513D01*
X0156905Y0334280D01*
X0155370Y0334280D02*
X0154603Y0333513D01*
X0153068Y0333513D01*
X0152301Y0334280D01*
X0150767Y0333513D02*
X0149232Y0335048D01*
X0149999Y0335048D02*
X0147697Y0335048D01*
X0147697Y0333513D02*
X0147697Y0338117D01*
X0149999Y0338117D01*
X0150767Y0337350D01*
X0150767Y0335815D01*
X0149999Y0335048D01*
X0152301Y0337350D02*
X0153068Y0338117D01*
X0154603Y0338117D01*
X0155370Y0337350D01*
X0155370Y0336582D01*
X0154603Y0335815D01*
X0155370Y0335048D01*
X0155370Y0334280D01*
X0154603Y0335815D02*
X0153836Y0335815D01*
X0156905Y0337350D02*
X0157672Y0338117D01*
X0159207Y0338117D01*
X0159974Y0337350D01*
X0159974Y0336582D01*
X0159207Y0335815D01*
X0159974Y0335048D01*
X0159974Y0334280D01*
X0159207Y0333513D01*
X0159207Y0335815D02*
X0158440Y0335815D01*
X0142850Y0359271D02*
X0142850Y0363875D01*
X0139780Y0363875D02*
X0139780Y0359271D01*
X0141315Y0360805D01*
X0142850Y0359271D01*
X0138246Y0360038D02*
X0138246Y0360805D01*
X0137478Y0361573D01*
X0135944Y0361573D01*
X0135176Y0362340D01*
X0135176Y0363107D01*
X0135944Y0363875D01*
X0137478Y0363875D01*
X0138246Y0363107D01*
X0138246Y0360038D02*
X0137478Y0359271D01*
X0135944Y0359271D01*
X0135176Y0360038D01*
X0128150Y0340200D02*
X0126615Y0340200D01*
X0125848Y0339432D01*
X0124313Y0339432D02*
X0123546Y0340200D01*
X0121244Y0340200D01*
X0121244Y0335596D01*
X0123546Y0335596D01*
X0124313Y0336363D01*
X0124313Y0339432D01*
X0128150Y0340200D02*
X0128917Y0339432D01*
X0128917Y0338665D01*
X0125848Y0335596D01*
X0128917Y0335596D01*
X0126609Y0334686D02*
X0126609Y0331617D01*
X0126609Y0333152D02*
X0122005Y0333152D01*
X0123540Y0331617D01*
X0122005Y0330082D02*
X0122005Y0327013D01*
X0122005Y0328548D02*
X0126609Y0328548D01*
X0119709Y0335596D02*
X0116640Y0335596D01*
X0116640Y0340200D01*
X0119709Y0340200D01*
X0118175Y0337898D02*
X0116640Y0337898D01*
X0115106Y0335596D02*
X0112036Y0335596D01*
X0112036Y0340200D01*
X0109853Y0324867D02*
X0108318Y0324867D01*
X0107551Y0324100D01*
X0106017Y0324100D02*
X0106017Y0322565D01*
X0105249Y0321798D01*
X0102947Y0321798D01*
X0104482Y0321798D02*
X0106017Y0320263D01*
X0107551Y0321030D02*
X0108318Y0320263D01*
X0109853Y0320263D01*
X0110620Y0321030D01*
X0110620Y0321798D01*
X0109853Y0322565D01*
X0109086Y0322565D01*
X0109853Y0322565D02*
X0110620Y0323332D01*
X0110620Y0324100D01*
X0109853Y0324867D01*
X0112155Y0322565D02*
X0115224Y0322565D01*
X0114457Y0320263D02*
X0114457Y0324867D01*
X0112155Y0322565D01*
X0106017Y0324100D02*
X0105249Y0324867D01*
X0102947Y0324867D01*
X0102947Y0320263D01*
X0104197Y0308367D02*
X0106499Y0308367D01*
X0107267Y0307600D01*
X0107267Y0306065D01*
X0106499Y0305298D01*
X0104197Y0305298D01*
X0105732Y0305298D02*
X0107267Y0303763D01*
X0108801Y0304530D02*
X0109568Y0303763D01*
X0111103Y0303763D01*
X0111870Y0304530D01*
X0111870Y0305298D01*
X0111103Y0306065D01*
X0110336Y0306065D01*
X0111103Y0306065D02*
X0111870Y0306832D01*
X0111870Y0307600D01*
X0111103Y0308367D01*
X0109568Y0308367D01*
X0108801Y0307600D01*
X0113405Y0307600D02*
X0114172Y0308367D01*
X0115707Y0308367D01*
X0116474Y0307600D01*
X0116474Y0306832D01*
X0113405Y0303763D01*
X0116474Y0303763D01*
X0123255Y0307763D02*
X0123255Y0310832D01*
X0123255Y0309298D02*
X0127859Y0309298D01*
X0127859Y0312367D02*
X0124790Y0315436D01*
X0124022Y0315436D01*
X0123255Y0314669D01*
X0123255Y0313134D01*
X0124022Y0312367D01*
X0127859Y0312367D02*
X0127859Y0315436D01*
X0127842Y0298436D02*
X0127074Y0298436D01*
X0126307Y0297669D01*
X0126307Y0296902D01*
X0126307Y0297669D02*
X0125540Y0298436D01*
X0124772Y0298436D01*
X0124005Y0297669D01*
X0124005Y0296134D01*
X0124772Y0295367D01*
X0124005Y0293832D02*
X0124005Y0290763D01*
X0124005Y0292298D02*
X0128609Y0292298D01*
X0127842Y0295367D02*
X0128609Y0296134D01*
X0128609Y0297669D01*
X0127842Y0298436D01*
X0122536Y0292850D02*
X0119467Y0289780D01*
X0120234Y0289013D01*
X0121769Y0289013D01*
X0122536Y0289780D01*
X0122536Y0292850D01*
X0121769Y0293617D01*
X0120234Y0293617D01*
X0119467Y0292850D01*
X0119467Y0289780D01*
X0117932Y0289780D02*
X0117165Y0289013D01*
X0115630Y0289013D01*
X0114863Y0289780D01*
X0113328Y0289013D02*
X0111794Y0290548D01*
X0112561Y0290548D02*
X0110259Y0290548D01*
X0110259Y0289013D02*
X0110259Y0293617D01*
X0112561Y0293617D01*
X0113328Y0292850D01*
X0113328Y0291315D01*
X0112561Y0290548D01*
X0114863Y0292850D02*
X0115630Y0293617D01*
X0117165Y0293617D01*
X0117932Y0292850D01*
X0117932Y0292082D01*
X0117165Y0291315D01*
X0117932Y0290548D01*
X0117932Y0289780D01*
X0117165Y0291315D02*
X0116398Y0291315D01*
X0104197Y0303763D02*
X0104197Y0308367D01*
X0154878Y0272731D02*
X0156412Y0274266D01*
X0157947Y0275033D01*
X0198510Y0247554D02*
X0198510Y0242950D01*
X0198510Y0244485D02*
X0200812Y0244485D01*
X0201580Y0245252D01*
X0201580Y0246787D01*
X0200812Y0247554D01*
X0198510Y0247554D01*
X0200045Y0244485D02*
X0201580Y0242950D01*
X0203114Y0242950D02*
X0206183Y0246019D01*
X0206183Y0246787D01*
X0205416Y0247554D01*
X0203881Y0247554D01*
X0203114Y0246787D01*
X0203114Y0242950D02*
X0206183Y0242950D01*
X0207718Y0245252D02*
X0210787Y0245252D01*
X0210020Y0242950D02*
X0210020Y0247554D01*
X0207718Y0245252D01*
X0206879Y0268104D02*
X0206879Y0272707D01*
X0209181Y0272707D01*
X0209948Y0271940D01*
X0209948Y0270405D01*
X0209181Y0269638D01*
X0206879Y0269638D01*
X0208414Y0269638D02*
X0209948Y0268104D01*
X0211483Y0268104D02*
X0214552Y0268104D01*
X0213018Y0268104D02*
X0213018Y0272707D01*
X0211483Y0271173D01*
X0216087Y0271940D02*
X0216854Y0272707D01*
X0218389Y0272707D01*
X0219156Y0271940D01*
X0219156Y0271173D01*
X0216087Y0268104D01*
X0219156Y0268104D01*
X0218389Y0281669D02*
X0216854Y0281669D01*
X0216087Y0282436D01*
X0219156Y0285505D01*
X0219156Y0282436D01*
X0218389Y0281669D01*
X0216087Y0282436D02*
X0216087Y0285505D01*
X0216854Y0286272D01*
X0218389Y0286272D01*
X0219156Y0285505D01*
X0214552Y0281669D02*
X0211483Y0281669D01*
X0209948Y0281669D02*
X0208414Y0283203D01*
X0209181Y0283203D02*
X0206879Y0283203D01*
X0206879Y0281669D02*
X0206879Y0286272D01*
X0209181Y0286272D01*
X0209948Y0285505D01*
X0209948Y0283970D01*
X0209181Y0283203D01*
X0211483Y0284738D02*
X0213018Y0286272D01*
X0213018Y0281669D01*
X0214145Y0294800D02*
X0211076Y0294800D01*
X0214145Y0297869D01*
X0214145Y0298637D01*
X0213378Y0299404D01*
X0211843Y0299404D01*
X0211076Y0298637D01*
X0209541Y0298637D02*
X0209541Y0297102D01*
X0208774Y0296335D01*
X0206472Y0296335D01*
X0208007Y0296335D02*
X0209541Y0294800D01*
X0206472Y0294800D02*
X0206472Y0299404D01*
X0208774Y0299404D01*
X0209541Y0298637D01*
X0215680Y0298637D02*
X0215680Y0297869D01*
X0216447Y0297102D01*
X0217982Y0297102D01*
X0218749Y0296335D01*
X0218749Y0295567D01*
X0217982Y0294800D01*
X0216447Y0294800D01*
X0215680Y0295567D01*
X0215680Y0296335D01*
X0216447Y0297102D01*
X0217982Y0297102D02*
X0218749Y0297869D01*
X0218749Y0298637D01*
X0217982Y0299404D01*
X0216447Y0299404D01*
X0215680Y0298637D01*
X0215280Y0307700D02*
X0215280Y0308467D01*
X0218349Y0311537D01*
X0218349Y0312304D01*
X0215280Y0312304D01*
X0213745Y0311537D02*
X0212978Y0312304D01*
X0211443Y0312304D01*
X0210676Y0311537D01*
X0209141Y0311537D02*
X0209141Y0310002D01*
X0208374Y0309235D01*
X0206072Y0309235D01*
X0207607Y0309235D02*
X0209141Y0307700D01*
X0210676Y0307700D02*
X0213745Y0310769D01*
X0213745Y0311537D01*
X0213745Y0307700D02*
X0210676Y0307700D01*
X0209141Y0311537D02*
X0208374Y0312304D01*
X0206072Y0312304D01*
X0206072Y0307700D01*
X0206072Y0319950D02*
X0206072Y0324554D01*
X0208374Y0324554D01*
X0209141Y0323787D01*
X0209141Y0322252D01*
X0208374Y0321485D01*
X0206072Y0321485D01*
X0207607Y0321485D02*
X0209141Y0319950D01*
X0210676Y0319950D02*
X0213745Y0323019D01*
X0213745Y0323787D01*
X0212978Y0324554D01*
X0211443Y0324554D01*
X0210676Y0323787D01*
X0210676Y0319950D02*
X0213745Y0319950D01*
X0215280Y0320717D02*
X0216047Y0319950D01*
X0217582Y0319950D01*
X0218349Y0320717D01*
X0218349Y0321485D01*
X0217582Y0322252D01*
X0215280Y0322252D01*
X0215280Y0320717D01*
X0215280Y0322252D02*
X0216815Y0323787D01*
X0218349Y0324554D01*
X0218082Y0334950D02*
X0216547Y0334950D01*
X0215780Y0335717D01*
X0215780Y0337252D02*
X0217315Y0338019D01*
X0218082Y0338019D01*
X0218849Y0337252D01*
X0218849Y0335717D01*
X0218082Y0334950D01*
X0215780Y0337252D02*
X0215780Y0339554D01*
X0218849Y0339554D01*
X0214245Y0338787D02*
X0213478Y0339554D01*
X0211943Y0339554D01*
X0211176Y0338787D01*
X0209641Y0338787D02*
X0209641Y0337252D01*
X0208874Y0336485D01*
X0206572Y0336485D01*
X0208107Y0336485D02*
X0209641Y0334950D01*
X0211176Y0334950D02*
X0214245Y0338019D01*
X0214245Y0338787D01*
X0214245Y0334950D02*
X0211176Y0334950D01*
X0209641Y0338787D02*
X0208874Y0339554D01*
X0206572Y0339554D01*
X0206572Y0334950D01*
X0221741Y0352362D02*
X0221741Y0354664D01*
X0222509Y0355432D01*
X0224043Y0355432D01*
X0224811Y0354664D01*
X0224811Y0352362D01*
X0226345Y0352362D02*
X0221741Y0352362D01*
X0224811Y0353897D02*
X0226345Y0355432D01*
X0226345Y0356966D02*
X0226345Y0360036D01*
X0226345Y0358501D02*
X0221741Y0358501D01*
X0223276Y0356966D01*
X0224043Y0361570D02*
X0222509Y0363105D01*
X0221741Y0364640D01*
X0224043Y0363872D02*
X0224043Y0361570D01*
X0225578Y0361570D01*
X0226345Y0362338D01*
X0226345Y0363872D01*
X0225578Y0364640D01*
X0224811Y0364640D01*
X0224043Y0363872D01*
X0237737Y0363997D02*
X0238505Y0364765D01*
X0239272Y0364765D01*
X0240039Y0363997D01*
X0240039Y0362463D01*
X0239272Y0361695D01*
X0238505Y0361695D01*
X0237737Y0362463D01*
X0237737Y0363997D01*
X0240039Y0363997D02*
X0240807Y0364765D01*
X0241574Y0364765D01*
X0242341Y0363997D01*
X0242341Y0362463D01*
X0241574Y0361695D01*
X0240807Y0361695D01*
X0240039Y0362463D01*
X0242341Y0360161D02*
X0242341Y0357091D01*
X0242341Y0355557D02*
X0240807Y0354022D01*
X0240807Y0354789D02*
X0240807Y0352487D01*
X0242341Y0352487D02*
X0237737Y0352487D01*
X0237737Y0354789D01*
X0238505Y0355557D01*
X0240039Y0355557D01*
X0240807Y0354789D01*
X0239272Y0357091D02*
X0237737Y0358626D01*
X0242341Y0358626D01*
X0251052Y0357984D02*
X0251820Y0357216D01*
X0251052Y0357984D02*
X0251052Y0359518D01*
X0251820Y0360286D01*
X0252587Y0360286D01*
X0255656Y0357216D01*
X0255656Y0360286D01*
X0254889Y0361820D02*
X0251820Y0364890D01*
X0254889Y0364890D01*
X0255656Y0364122D01*
X0255656Y0362588D01*
X0254889Y0361820D01*
X0251820Y0361820D01*
X0251052Y0362588D01*
X0251052Y0364122D01*
X0251820Y0364890D01*
X0251820Y0355682D02*
X0253354Y0355682D01*
X0254122Y0354914D01*
X0254122Y0352612D01*
X0255656Y0352612D02*
X0251052Y0352612D01*
X0251052Y0354914D01*
X0251820Y0355682D01*
X0254122Y0354147D02*
X0255656Y0355682D01*
X0265474Y0354789D02*
X0266241Y0355557D01*
X0267776Y0355557D01*
X0268543Y0354789D01*
X0268543Y0352487D01*
X0270078Y0352487D02*
X0265474Y0352487D01*
X0265474Y0354789D01*
X0266241Y0357091D02*
X0265474Y0357859D01*
X0265474Y0359393D01*
X0266241Y0360161D01*
X0267008Y0360161D01*
X0270078Y0357091D01*
X0270078Y0360161D01*
X0270078Y0361695D02*
X0267008Y0364765D01*
X0266241Y0364765D01*
X0265474Y0363997D01*
X0265474Y0362463D01*
X0266241Y0361695D01*
X0270078Y0361695D02*
X0270078Y0364765D01*
X0270078Y0355557D02*
X0268543Y0354022D01*
X0288169Y0343716D02*
X0288936Y0342181D01*
X0290470Y0340646D01*
X0290470Y0342948D01*
X0291238Y0343716D01*
X0292005Y0343716D01*
X0292772Y0342948D01*
X0292772Y0341414D01*
X0292005Y0340646D01*
X0290470Y0340646D01*
X0288169Y0339112D02*
X0288169Y0336043D01*
X0288169Y0337577D02*
X0292772Y0337577D01*
X0289348Y0327432D02*
X0292418Y0324363D01*
X0293185Y0324363D01*
X0293185Y0321294D02*
X0288581Y0321294D01*
X0288581Y0322828D02*
X0288581Y0319759D01*
X0288581Y0324363D02*
X0288581Y0327432D01*
X0289348Y0327432D01*
X0291008Y0306962D02*
X0291008Y0303893D01*
X0288706Y0306194D01*
X0293310Y0306194D01*
X0293310Y0300823D02*
X0288706Y0300823D01*
X0288706Y0299289D02*
X0288706Y0302358D01*
X0288743Y0290566D02*
X0288743Y0287497D01*
X0291045Y0287497D01*
X0290278Y0289031D01*
X0290278Y0289799D01*
X0291045Y0290566D01*
X0292580Y0290566D01*
X0293347Y0289799D01*
X0293347Y0288264D01*
X0292580Y0287497D01*
X0293347Y0284428D02*
X0288743Y0284428D01*
X0288743Y0285962D02*
X0288743Y0282893D01*
X0264574Y0275298D02*
X0264574Y0272229D01*
X0264574Y0273764D02*
X0259970Y0273764D01*
X0261504Y0272229D01*
X0259970Y0269160D02*
X0264574Y0269160D01*
X0264574Y0270694D02*
X0264574Y0267625D01*
X0264574Y0266090D02*
X0263039Y0264556D01*
X0263039Y0265323D02*
X0263039Y0263021D01*
X0264574Y0263021D02*
X0259970Y0263021D01*
X0259970Y0265323D01*
X0260737Y0266090D01*
X0262272Y0266090D01*
X0263039Y0265323D01*
X0261504Y0267625D02*
X0259970Y0269160D01*
X0251454Y0264455D02*
X0251454Y0262920D01*
X0250686Y0262153D01*
X0251454Y0260618D02*
X0251454Y0257549D01*
X0251454Y0259084D02*
X0246850Y0259084D01*
X0248384Y0257549D01*
X0247617Y0256014D02*
X0249152Y0256014D01*
X0249919Y0255247D01*
X0249919Y0252945D01*
X0251454Y0252945D02*
X0246850Y0252945D01*
X0246850Y0255247D01*
X0247617Y0256014D01*
X0249919Y0254480D02*
X0251454Y0256014D01*
X0247617Y0262153D02*
X0246850Y0262920D01*
X0246850Y0264455D01*
X0247617Y0265222D01*
X0248384Y0265222D01*
X0249152Y0264455D01*
X0249919Y0265222D01*
X0250686Y0265222D01*
X0251454Y0264455D01*
X0249152Y0264455D02*
X0249152Y0263688D01*
X0247038Y0234804D02*
X0245503Y0234804D01*
X0244736Y0234037D01*
X0243201Y0234037D02*
X0243201Y0230967D01*
X0242434Y0230200D01*
X0240899Y0230200D01*
X0240132Y0230967D01*
X0240132Y0234037D01*
X0240899Y0234804D01*
X0242434Y0234804D01*
X0243201Y0234037D01*
X0241667Y0231735D02*
X0243201Y0230200D01*
X0244736Y0230200D02*
X0247805Y0233269D01*
X0247805Y0234037D01*
X0247038Y0234804D01*
X0247805Y0230200D02*
X0244736Y0230200D01*
X0310960Y0219287D02*
X0310960Y0216217D01*
X0311728Y0215450D01*
X0313262Y0215450D01*
X0314030Y0216217D01*
X0315564Y0216217D02*
X0316331Y0215450D01*
X0317866Y0215450D01*
X0318633Y0216217D01*
X0318633Y0216985D01*
X0317866Y0217752D01*
X0317099Y0217752D01*
X0317866Y0217752D02*
X0318633Y0218519D01*
X0318633Y0219287D01*
X0317866Y0220054D01*
X0316331Y0220054D01*
X0315564Y0219287D01*
X0314030Y0219287D02*
X0313262Y0220054D01*
X0311728Y0220054D01*
X0310960Y0219287D01*
X0320168Y0219287D02*
X0320168Y0216217D01*
X0323237Y0219287D01*
X0323237Y0216217D01*
X0322470Y0215450D01*
X0320935Y0215450D01*
X0320168Y0216217D01*
X0320168Y0219287D02*
X0320935Y0220054D01*
X0322470Y0220054D01*
X0323237Y0219287D01*
X0322003Y0201204D02*
X0322003Y0196600D01*
X0323537Y0196600D02*
X0320468Y0196600D01*
X0318933Y0197367D02*
X0318166Y0196600D01*
X0316631Y0196600D01*
X0315864Y0197367D01*
X0314330Y0197367D02*
X0313562Y0196600D01*
X0312028Y0196600D01*
X0311260Y0197367D01*
X0311260Y0200437D01*
X0312028Y0201204D01*
X0313562Y0201204D01*
X0314330Y0200437D01*
X0315864Y0200437D02*
X0316631Y0201204D01*
X0318166Y0201204D01*
X0318933Y0200437D01*
X0318933Y0199669D01*
X0318166Y0198902D01*
X0318933Y0198135D01*
X0318933Y0197367D01*
X0318166Y0198902D02*
X0317399Y0198902D01*
X0320468Y0199669D02*
X0322003Y0201204D01*
X0323622Y0187649D02*
X0314173Y0187649D01*
X0314173Y0185090D01*
X0316141Y0185090D02*
X0316240Y0185201D01*
X0316342Y0185310D01*
X0316446Y0185416D01*
X0316553Y0185520D01*
X0316663Y0185620D01*
X0316775Y0185718D01*
X0316890Y0185812D01*
X0317008Y0185904D01*
X0317127Y0185993D01*
X0317249Y0186078D01*
X0317373Y0186160D01*
X0317499Y0186239D01*
X0317628Y0186315D01*
X0317758Y0186387D01*
X0317890Y0186456D01*
X0318023Y0186522D01*
X0318159Y0186583D01*
X0318296Y0186642D01*
X0318434Y0186697D01*
X0318574Y0186748D01*
X0318715Y0186795D01*
X0318857Y0186839D01*
X0319000Y0186879D01*
X0319145Y0186916D01*
X0319290Y0186949D01*
X0319436Y0186977D01*
X0319583Y0187002D01*
X0319730Y0187024D01*
X0319878Y0187041D01*
X0320026Y0187055D01*
X0320174Y0187064D01*
X0320323Y0187070D01*
X0320472Y0187072D01*
X0320621Y0187070D01*
X0320770Y0187064D01*
X0320918Y0187055D01*
X0321066Y0187041D01*
X0321214Y0187024D01*
X0321361Y0187002D01*
X0321508Y0186977D01*
X0321654Y0186949D01*
X0321799Y0186916D01*
X0321944Y0186879D01*
X0322087Y0186839D01*
X0322229Y0186795D01*
X0322370Y0186748D01*
X0322510Y0186697D01*
X0322648Y0186642D01*
X0322785Y0186583D01*
X0322921Y0186522D01*
X0323054Y0186456D01*
X0323186Y0186387D01*
X0323316Y0186315D01*
X0323445Y0186239D01*
X0323571Y0186160D01*
X0323695Y0186078D01*
X0323817Y0185993D01*
X0323936Y0185904D01*
X0324054Y0185812D01*
X0324169Y0185718D01*
X0324281Y0185620D01*
X0324391Y0185520D01*
X0324498Y0185416D01*
X0324602Y0185310D01*
X0324704Y0185201D01*
X0324803Y0185090D01*
X0326378Y0184893D02*
X0323622Y0187649D01*
X0325000Y0177807D02*
X0324905Y0177689D01*
X0324807Y0177574D01*
X0324706Y0177462D01*
X0324602Y0177352D01*
X0324495Y0177245D01*
X0324386Y0177141D01*
X0324273Y0177040D01*
X0324159Y0176942D01*
X0324041Y0176847D01*
X0323921Y0176755D01*
X0323799Y0176666D01*
X0323675Y0176580D01*
X0323548Y0176498D01*
X0323419Y0176419D01*
X0323288Y0176344D01*
X0323155Y0176272D01*
X0323020Y0176203D01*
X0322884Y0176139D01*
X0322746Y0176077D01*
X0322606Y0176020D01*
X0322465Y0175966D01*
X0322322Y0175916D01*
X0322179Y0175869D01*
X0322034Y0175827D01*
X0321888Y0175788D01*
X0321741Y0175753D01*
X0321593Y0175722D01*
X0321444Y0175695D01*
X0321295Y0175672D01*
X0321145Y0175653D01*
X0320995Y0175637D01*
X0320844Y0175626D01*
X0320693Y0175619D01*
X0320542Y0175615D01*
X0320391Y0175616D01*
X0320240Y0175620D01*
X0320089Y0175629D01*
X0319938Y0175642D01*
X0319788Y0175658D01*
X0319638Y0175679D01*
X0319489Y0175703D01*
X0319341Y0175731D01*
X0319193Y0175764D01*
X0319047Y0175800D01*
X0318901Y0175840D01*
X0318756Y0175883D01*
X0318613Y0175931D01*
X0318471Y0175982D01*
X0318330Y0176037D01*
X0318191Y0176096D01*
X0318053Y0176158D01*
X0317917Y0176224D01*
X0317783Y0176294D01*
X0317651Y0176367D01*
X0317521Y0176444D01*
X0317392Y0176524D01*
X0317266Y0176607D01*
X0317142Y0176693D01*
X0317021Y0176783D01*
X0316902Y0176876D01*
X0316785Y0176972D01*
X0316671Y0177071D01*
X0316560Y0177174D01*
X0316451Y0177279D01*
X0316345Y0177386D01*
X0316242Y0177497D01*
X0316142Y0177610D01*
X0314173Y0177610D02*
X0314173Y0175051D01*
X0323622Y0175051D01*
X0326378Y0177807D01*
X0311922Y0149601D02*
X0309120Y0149601D01*
X0310521Y0148200D01*
X0310521Y0150068D01*
X0336120Y0146120D02*
X0336587Y0146587D01*
X0337054Y0146587D01*
X0337521Y0146120D01*
X0337988Y0146587D01*
X0338455Y0146587D01*
X0338922Y0146120D01*
X0338922Y0145186D01*
X0338455Y0144719D01*
X0337521Y0145653D02*
X0337521Y0146120D01*
X0336120Y0146120D02*
X0336120Y0145186D01*
X0336587Y0144719D01*
X0336624Y0137487D02*
X0336157Y0137020D01*
X0336157Y0136086D01*
X0336624Y0135619D01*
X0336624Y0137487D02*
X0337091Y0137487D01*
X0338959Y0135619D01*
X0338959Y0137487D01*
X0338922Y0128975D02*
X0338922Y0127107D01*
X0338922Y0128041D02*
X0336120Y0128041D01*
X0337054Y0127107D01*
X0360088Y0119684D02*
X0360088Y0116615D01*
X0360855Y0115848D01*
X0362390Y0115848D01*
X0363157Y0116615D01*
X0364692Y0115848D02*
X0367761Y0115848D01*
X0366226Y0115848D02*
X0366226Y0120452D01*
X0364692Y0118917D01*
X0363157Y0119684D02*
X0362390Y0120452D01*
X0360855Y0120452D01*
X0360088Y0119684D01*
X0369296Y0119684D02*
X0369296Y0116615D01*
X0372365Y0119684D01*
X0372365Y0116615D01*
X0371598Y0115848D01*
X0370063Y0115848D01*
X0369296Y0116615D01*
X0369296Y0119684D02*
X0370063Y0120452D01*
X0371598Y0120452D01*
X0372365Y0119684D01*
X0381144Y0131138D02*
X0381144Y0132319D01*
X0381144Y0131138D02*
X0386459Y0125823D01*
X0401616Y0125823D01*
X0401616Y0132319D01*
X0401616Y0139799D02*
X0401616Y0146295D01*
X0386459Y0146295D01*
X0381144Y0140980D01*
X0381144Y0139799D01*
X0382325Y0139406D02*
X0382409Y0139625D01*
X0382498Y0139842D01*
X0382593Y0140057D01*
X0382693Y0140270D01*
X0382798Y0140480D01*
X0382908Y0140687D01*
X0383023Y0140892D01*
X0383143Y0141094D01*
X0383268Y0141293D01*
X0383398Y0141489D01*
X0383532Y0141682D01*
X0383671Y0141871D01*
X0383815Y0142057D01*
X0383963Y0142239D01*
X0384116Y0142418D01*
X0384273Y0142593D01*
X0384434Y0142764D01*
X0384599Y0142931D01*
X0384768Y0143094D01*
X0384941Y0143252D01*
X0385118Y0143407D01*
X0385299Y0143557D01*
X0385483Y0143703D01*
X0385671Y0143844D01*
X0385862Y0143981D01*
X0386057Y0144113D01*
X0386254Y0144240D01*
X0386455Y0144362D01*
X0386658Y0144479D01*
X0386865Y0144592D01*
X0387074Y0144699D01*
X0387285Y0144801D01*
X0387499Y0144899D01*
X0387715Y0144990D01*
X0387934Y0145077D01*
X0388154Y0145158D01*
X0388376Y0145234D01*
X0388601Y0145304D01*
X0388826Y0145369D01*
X0389054Y0145429D01*
X0389282Y0145482D01*
X0389512Y0145531D01*
X0389743Y0145573D01*
X0389975Y0145610D01*
X0390208Y0145642D01*
X0390442Y0145667D01*
X0390676Y0145687D01*
X0390910Y0145702D01*
X0391145Y0145710D01*
X0391380Y0145713D01*
X0391615Y0145710D01*
X0391850Y0145702D01*
X0392084Y0145687D01*
X0392318Y0145667D01*
X0392552Y0145642D01*
X0392785Y0145610D01*
X0393017Y0145573D01*
X0393248Y0145531D01*
X0393478Y0145482D01*
X0393706Y0145429D01*
X0393934Y0145369D01*
X0394159Y0145304D01*
X0394384Y0145234D01*
X0394606Y0145158D01*
X0394826Y0145077D01*
X0395045Y0144990D01*
X0395261Y0144899D01*
X0395475Y0144801D01*
X0395686Y0144699D01*
X0395895Y0144592D01*
X0396102Y0144479D01*
X0396305Y0144362D01*
X0396506Y0144240D01*
X0396703Y0144113D01*
X0396898Y0143981D01*
X0397089Y0143844D01*
X0397277Y0143703D01*
X0397461Y0143557D01*
X0397642Y0143407D01*
X0397819Y0143252D01*
X0397992Y0143094D01*
X0398161Y0142931D01*
X0398326Y0142764D01*
X0398487Y0142593D01*
X0398644Y0142418D01*
X0398797Y0142239D01*
X0398945Y0142057D01*
X0399089Y0141871D01*
X0399228Y0141682D01*
X0399362Y0141489D01*
X0399492Y0141293D01*
X0399617Y0141094D01*
X0399737Y0140892D01*
X0399852Y0140687D01*
X0399962Y0140480D01*
X0400067Y0140270D01*
X0400167Y0140057D01*
X0400262Y0139842D01*
X0400351Y0139625D01*
X0400435Y0139406D01*
X0400435Y0132712D02*
X0400351Y0132493D01*
X0400262Y0132276D01*
X0400167Y0132061D01*
X0400067Y0131848D01*
X0399962Y0131638D01*
X0399852Y0131431D01*
X0399737Y0131226D01*
X0399617Y0131024D01*
X0399492Y0130825D01*
X0399362Y0130629D01*
X0399228Y0130436D01*
X0399089Y0130247D01*
X0398945Y0130061D01*
X0398797Y0129879D01*
X0398644Y0129700D01*
X0398487Y0129525D01*
X0398326Y0129354D01*
X0398161Y0129187D01*
X0397992Y0129024D01*
X0397819Y0128866D01*
X0397642Y0128711D01*
X0397461Y0128561D01*
X0397277Y0128415D01*
X0397089Y0128274D01*
X0396898Y0128137D01*
X0396703Y0128005D01*
X0396506Y0127878D01*
X0396305Y0127756D01*
X0396102Y0127639D01*
X0395895Y0127526D01*
X0395686Y0127419D01*
X0395475Y0127317D01*
X0395261Y0127219D01*
X0395045Y0127128D01*
X0394826Y0127041D01*
X0394606Y0126960D01*
X0394384Y0126884D01*
X0394159Y0126814D01*
X0393934Y0126749D01*
X0393706Y0126689D01*
X0393478Y0126636D01*
X0393248Y0126587D01*
X0393017Y0126545D01*
X0392785Y0126508D01*
X0392552Y0126476D01*
X0392318Y0126451D01*
X0392084Y0126431D01*
X0391850Y0126416D01*
X0391615Y0126408D01*
X0391380Y0126405D01*
X0391145Y0126408D01*
X0390910Y0126416D01*
X0390676Y0126431D01*
X0390442Y0126451D01*
X0390208Y0126476D01*
X0389975Y0126508D01*
X0389743Y0126545D01*
X0389512Y0126587D01*
X0389282Y0126636D01*
X0389054Y0126689D01*
X0388826Y0126749D01*
X0388601Y0126814D01*
X0388376Y0126884D01*
X0388154Y0126960D01*
X0387934Y0127041D01*
X0387715Y0127128D01*
X0387499Y0127219D01*
X0387285Y0127317D01*
X0387074Y0127419D01*
X0386865Y0127526D01*
X0386658Y0127639D01*
X0386455Y0127756D01*
X0386254Y0127878D01*
X0386057Y0128005D01*
X0385862Y0128137D01*
X0385671Y0128274D01*
X0385483Y0128415D01*
X0385299Y0128561D01*
X0385118Y0128711D01*
X0384941Y0128866D01*
X0384768Y0129024D01*
X0384599Y0129187D01*
X0384434Y0129354D01*
X0384273Y0129525D01*
X0384116Y0129700D01*
X0383963Y0129879D01*
X0383815Y0130061D01*
X0383671Y0130247D01*
X0383532Y0130436D01*
X0383398Y0130629D01*
X0383268Y0130825D01*
X0383143Y0131024D01*
X0383023Y0131226D01*
X0382908Y0131431D01*
X0382798Y0131638D01*
X0382693Y0131848D01*
X0382593Y0132061D01*
X0382498Y0132276D01*
X0382409Y0132493D01*
X0382325Y0132712D01*
X0369545Y0094169D02*
X0368011Y0094169D01*
X0368778Y0094169D02*
X0368778Y0089565D01*
X0368011Y0089565D02*
X0369545Y0089565D01*
X0366476Y0090332D02*
X0366476Y0093402D01*
X0365709Y0094169D01*
X0363407Y0094169D01*
X0363407Y0089565D01*
X0365709Y0089565D01*
X0366476Y0090332D01*
X0361872Y0094169D02*
X0358803Y0094169D01*
X0360338Y0094169D02*
X0360338Y0089565D01*
X0355734Y0091867D02*
X0354199Y0091867D01*
X0354199Y0089565D02*
X0354199Y0094169D01*
X0357268Y0094169D01*
X0413289Y0032574D02*
X0414057Y0032574D01*
X0414824Y0031806D01*
X0414824Y0030272D01*
X0414057Y0029505D01*
X0413289Y0029505D01*
X0412522Y0030272D01*
X0412522Y0031806D01*
X0413289Y0032574D01*
X0414824Y0031806D02*
X0415591Y0032574D01*
X0416358Y0032574D01*
X0417126Y0031806D01*
X0417126Y0030272D01*
X0416358Y0029505D01*
X0415591Y0029505D01*
X0414824Y0030272D01*
X0416358Y0027970D02*
X0417126Y0027203D01*
X0417126Y0025668D01*
X0416358Y0024901D01*
X0413289Y0024901D01*
X0412522Y0025668D01*
X0412522Y0027203D01*
X0413289Y0027970D01*
X0285109Y0130156D02*
X0285109Y0131691D01*
X0284342Y0132458D01*
X0284342Y0133993D02*
X0285109Y0134760D01*
X0285109Y0136295D01*
X0284342Y0137062D01*
X0281272Y0137062D01*
X0280505Y0136295D01*
X0280505Y0134760D01*
X0281272Y0133993D01*
X0282040Y0133993D01*
X0282807Y0134760D01*
X0282807Y0137062D01*
X0281272Y0132458D02*
X0280505Y0131691D01*
X0280505Y0130156D01*
X0281272Y0129389D01*
X0284342Y0129389D01*
X0285109Y0130156D01*
X0237083Y0097304D02*
X0237083Y0092700D01*
X0237850Y0095002D02*
X0234781Y0095002D01*
X0237083Y0097304D01*
X0233246Y0092700D02*
X0230177Y0092700D01*
X0228643Y0092700D02*
X0227108Y0094235D01*
X0227875Y0094235D02*
X0225573Y0094235D01*
X0225573Y0092700D02*
X0225573Y0097304D01*
X0227875Y0097304D01*
X0228643Y0096537D01*
X0228643Y0095002D01*
X0227875Y0094235D01*
X0230177Y0095769D02*
X0231712Y0097304D01*
X0231712Y0092700D01*
X0221940Y0082585D02*
X0218871Y0082585D01*
X0218871Y0080283D01*
X0220405Y0081051D01*
X0221173Y0081051D01*
X0221940Y0080283D01*
X0221940Y0078749D01*
X0221173Y0077981D01*
X0219638Y0077981D01*
X0218871Y0078749D01*
X0217336Y0077981D02*
X0214267Y0077981D01*
X0215801Y0077981D02*
X0215801Y0082585D01*
X0214267Y0081051D01*
X0212732Y0081818D02*
X0212732Y0080283D01*
X0211965Y0079516D01*
X0209663Y0079516D01*
X0211197Y0079516D02*
X0212732Y0077981D01*
X0209663Y0077981D02*
X0209663Y0082585D01*
X0211965Y0082585D01*
X0212732Y0081818D01*
X0212394Y0071343D02*
X0213162Y0071343D01*
X0213929Y0070576D01*
X0213929Y0069041D01*
X0213162Y0068274D01*
X0212394Y0068274D01*
X0211627Y0069041D01*
X0211627Y0070576D01*
X0212394Y0071343D01*
X0211627Y0070576D02*
X0210860Y0071343D01*
X0210092Y0071343D01*
X0209325Y0070576D01*
X0209325Y0069041D01*
X0210092Y0068274D01*
X0210860Y0068274D01*
X0211627Y0069041D01*
X0213929Y0066739D02*
X0213929Y0063670D01*
X0213929Y0065205D02*
X0209325Y0065205D01*
X0210860Y0063670D01*
X0210092Y0062135D02*
X0209325Y0061368D01*
X0209325Y0059833D01*
X0210092Y0059066D01*
X0213162Y0059066D01*
X0213929Y0059833D01*
X0213929Y0061368D01*
X0213162Y0062135D01*
X0187038Y0062716D02*
X0186271Y0063483D01*
X0187038Y0062716D02*
X0187038Y0061181D01*
X0186271Y0060414D01*
X0183202Y0060414D01*
X0182434Y0061181D01*
X0182434Y0062716D01*
X0183202Y0063483D01*
X0183969Y0065018D02*
X0182434Y0066552D01*
X0187038Y0066552D01*
X0187038Y0065018D02*
X0187038Y0068087D01*
X0187038Y0069621D02*
X0186271Y0069621D01*
X0183202Y0072691D01*
X0182434Y0072691D01*
X0182434Y0069621D01*
X0183992Y0078950D02*
X0187061Y0078950D01*
X0188596Y0079717D02*
X0189363Y0078950D01*
X0190898Y0078950D01*
X0191665Y0079717D01*
X0191665Y0080485D01*
X0190898Y0081252D01*
X0190131Y0081252D01*
X0190898Y0081252D02*
X0191665Y0082019D01*
X0191665Y0082787D01*
X0190898Y0083554D01*
X0189363Y0083554D01*
X0188596Y0082787D01*
X0183992Y0083554D02*
X0183992Y0078950D01*
X0200134Y0091700D02*
X0203203Y0091700D01*
X0204738Y0091700D02*
X0207807Y0094769D01*
X0207807Y0095537D01*
X0207040Y0096304D01*
X0205505Y0096304D01*
X0204738Y0095537D01*
X0204738Y0091700D02*
X0207807Y0091700D01*
X0200134Y0091700D02*
X0200134Y0096304D01*
X0158666Y0071552D02*
X0158666Y0070018D01*
X0157899Y0069250D01*
X0156364Y0069250D01*
X0156364Y0071552D01*
X0157132Y0072320D01*
X0157899Y0072320D01*
X0158666Y0071552D01*
X0156364Y0069250D02*
X0154830Y0070785D01*
X0154062Y0072320D01*
X0158666Y0067716D02*
X0158666Y0064646D01*
X0158666Y0066181D02*
X0154062Y0066181D01*
X0155597Y0064646D01*
X0154830Y0063112D02*
X0154062Y0062344D01*
X0154062Y0060810D01*
X0154830Y0060043D01*
X0157899Y0060043D01*
X0158666Y0060810D01*
X0158666Y0062344D01*
X0157899Y0063112D01*
X0130048Y0062745D02*
X0129281Y0063512D01*
X0130048Y0062745D02*
X0130048Y0061210D01*
X0129281Y0060443D01*
X0126211Y0060443D01*
X0125444Y0061210D01*
X0125444Y0062745D01*
X0126211Y0063512D01*
X0126979Y0065047D02*
X0125444Y0066582D01*
X0130048Y0066582D01*
X0130048Y0068116D02*
X0130048Y0065047D01*
X0129281Y0069651D02*
X0130048Y0070418D01*
X0130048Y0071953D01*
X0129281Y0072720D01*
X0127746Y0072720D01*
X0126979Y0071953D01*
X0126979Y0071186D01*
X0127746Y0069651D01*
X0125444Y0069651D01*
X0125444Y0072720D01*
X0102320Y0071238D02*
X0097716Y0071238D01*
X0100018Y0068936D01*
X0100018Y0072006D01*
X0102320Y0067402D02*
X0102320Y0064332D01*
X0102320Y0065867D02*
X0097716Y0065867D01*
X0099250Y0064332D01*
X0098483Y0062798D02*
X0097716Y0062030D01*
X0097716Y0060496D01*
X0098483Y0059729D01*
X0101552Y0059729D01*
X0102320Y0060496D01*
X0102320Y0062030D01*
X0101552Y0062798D01*
X0320981Y0279298D02*
X0320981Y0283902D01*
X0323283Y0283902D01*
X0324050Y0283135D01*
X0324050Y0281600D01*
X0323283Y0280833D01*
X0320981Y0280833D01*
X0322515Y0280833D02*
X0324050Y0279298D01*
X0325585Y0279298D02*
X0328654Y0279298D01*
X0330189Y0279298D02*
X0330189Y0280066D01*
X0333258Y0283135D01*
X0333258Y0283902D01*
X0330189Y0283902D01*
X0327119Y0283902D02*
X0327119Y0279298D01*
X0325585Y0282368D02*
X0327119Y0283902D01*
X0327260Y0295113D02*
X0324191Y0295113D01*
X0325726Y0295113D02*
X0325726Y0299717D01*
X0324191Y0298183D01*
X0322656Y0298950D02*
X0322656Y0297415D01*
X0321889Y0296648D01*
X0319587Y0296648D01*
X0319587Y0295113D02*
X0319587Y0299717D01*
X0321889Y0299717D01*
X0322656Y0298950D01*
X0321122Y0296648D02*
X0322656Y0295113D01*
X0328795Y0295881D02*
X0329562Y0295113D01*
X0331097Y0295113D01*
X0331864Y0295881D01*
X0331864Y0298950D01*
X0331097Y0299717D01*
X0329562Y0299717D01*
X0328795Y0298950D01*
X0328795Y0298183D01*
X0329562Y0297415D01*
X0331864Y0297415D01*
X0332614Y0310216D02*
X0329545Y0310216D01*
X0331080Y0310216D02*
X0331080Y0314820D01*
X0329545Y0313285D01*
X0328010Y0313285D02*
X0328010Y0314052D01*
X0327243Y0314820D01*
X0325708Y0314820D01*
X0324941Y0314052D01*
X0323406Y0314052D02*
X0323406Y0312518D01*
X0322639Y0311750D01*
X0320337Y0311750D01*
X0320337Y0310216D02*
X0320337Y0314820D01*
X0322639Y0314820D01*
X0323406Y0314052D01*
X0321872Y0311750D02*
X0323406Y0310216D01*
X0324941Y0310216D02*
X0328010Y0313285D01*
X0328010Y0310216D02*
X0324941Y0310216D01*
X0324152Y0323680D02*
X0327221Y0326750D01*
X0327221Y0327517D01*
X0326454Y0328284D01*
X0324919Y0328284D01*
X0324152Y0327517D01*
X0322617Y0327517D02*
X0322617Y0325982D01*
X0321850Y0325215D01*
X0319548Y0325215D01*
X0321082Y0325215D02*
X0322617Y0323680D01*
X0324152Y0323680D02*
X0327221Y0323680D01*
X0328755Y0324448D02*
X0329523Y0323680D01*
X0331057Y0323680D01*
X0331825Y0324448D01*
X0331825Y0325215D01*
X0331057Y0325982D01*
X0330290Y0325982D01*
X0331057Y0325982D02*
X0331825Y0326750D01*
X0331825Y0327517D01*
X0331057Y0328284D01*
X0329523Y0328284D01*
X0328755Y0327517D01*
X0322617Y0327517D02*
X0321850Y0328284D01*
X0319548Y0328284D01*
X0319548Y0323680D01*
X0285953Y0376530D02*
X0281349Y0376530D01*
X0281349Y0381133D02*
X0281349Y0384203D01*
X0282116Y0384203D01*
X0285185Y0381133D01*
X0285953Y0381133D01*
X0285953Y0379599D02*
X0285953Y0376530D01*
X0271656Y0376655D02*
X0271656Y0379724D01*
X0270889Y0381258D02*
X0271656Y0382026D01*
X0271656Y0383560D01*
X0270889Y0384328D01*
X0270122Y0384328D01*
X0269354Y0383560D01*
X0269354Y0381258D01*
X0270889Y0381258D01*
X0269354Y0381258D02*
X0267820Y0382793D01*
X0267052Y0384328D01*
X0267052Y0376655D02*
X0271656Y0376655D01*
X0257466Y0376530D02*
X0257466Y0379599D01*
X0256699Y0381133D02*
X0257466Y0381901D01*
X0257466Y0383435D01*
X0256699Y0384203D01*
X0255164Y0384203D01*
X0254397Y0383435D01*
X0254397Y0382668D01*
X0255164Y0381133D01*
X0252862Y0381133D01*
X0252862Y0384203D01*
X0252862Y0376530D02*
X0257466Y0376530D01*
X0241720Y0376530D02*
X0241720Y0379599D01*
X0239418Y0381133D02*
X0239418Y0384203D01*
X0237116Y0383435D02*
X0239418Y0381133D01*
X0241720Y0383435D02*
X0237116Y0383435D01*
X0237116Y0376530D02*
X0241720Y0376530D01*
X0242332Y0340304D02*
X0240797Y0340304D01*
X0240030Y0339537D01*
X0238495Y0339537D02*
X0238495Y0338769D01*
X0237728Y0338002D01*
X0238495Y0337235D01*
X0238495Y0336467D01*
X0237728Y0335700D01*
X0236193Y0335700D01*
X0235426Y0336467D01*
X0233891Y0336467D02*
X0233124Y0335700D01*
X0231589Y0335700D01*
X0230822Y0336467D01*
X0230822Y0339537D01*
X0231589Y0340304D01*
X0233124Y0340304D01*
X0233891Y0339537D01*
X0235426Y0339537D02*
X0236193Y0340304D01*
X0237728Y0340304D01*
X0238495Y0339537D01*
X0237728Y0338002D02*
X0236961Y0338002D01*
X0240030Y0336467D02*
X0240797Y0335700D01*
X0242332Y0335700D01*
X0243099Y0336467D01*
X0243099Y0337235D01*
X0242332Y0338002D01*
X0241565Y0338002D01*
X0242332Y0338002D02*
X0243099Y0338769D01*
X0243099Y0339537D01*
X0242332Y0340304D01*
X0242332Y0327054D02*
X0240030Y0324752D01*
X0243099Y0324752D01*
X0242332Y0322450D02*
X0242332Y0327054D01*
X0238495Y0326287D02*
X0238495Y0325519D01*
X0237728Y0324752D01*
X0238495Y0323985D01*
X0238495Y0323217D01*
X0237728Y0322450D01*
X0236193Y0322450D01*
X0235426Y0323217D01*
X0233891Y0323217D02*
X0233124Y0322450D01*
X0231589Y0322450D01*
X0230822Y0323217D01*
X0230822Y0326287D01*
X0231589Y0327054D01*
X0233124Y0327054D01*
X0233891Y0326287D01*
X0235426Y0326287D02*
X0236193Y0327054D01*
X0237728Y0327054D01*
X0238495Y0326287D01*
X0237728Y0324752D02*
X0236961Y0324752D01*
X0236943Y0312054D02*
X0236176Y0311287D01*
X0236943Y0312054D02*
X0238478Y0312054D01*
X0239245Y0311287D01*
X0239245Y0310519D01*
X0238478Y0309752D01*
X0239245Y0308985D01*
X0239245Y0308217D01*
X0238478Y0307450D01*
X0236943Y0307450D01*
X0236176Y0308217D01*
X0234641Y0308217D02*
X0233874Y0307450D01*
X0232339Y0307450D01*
X0231572Y0308217D01*
X0231572Y0311287D01*
X0232339Y0312054D01*
X0233874Y0312054D01*
X0234641Y0311287D01*
X0237711Y0309752D02*
X0238478Y0309752D01*
X0240780Y0309752D02*
X0242315Y0310519D01*
X0243082Y0310519D01*
X0243849Y0309752D01*
X0243849Y0308217D01*
X0243082Y0307450D01*
X0241547Y0307450D01*
X0240780Y0308217D01*
X0240780Y0309752D02*
X0240780Y0312054D01*
X0243849Y0312054D01*
X0243649Y0298454D02*
X0242115Y0297687D01*
X0240580Y0296152D01*
X0242882Y0296152D01*
X0243649Y0295385D01*
X0243649Y0294617D01*
X0242882Y0293850D01*
X0241347Y0293850D01*
X0240580Y0294617D01*
X0240580Y0296152D01*
X0239045Y0296919D02*
X0238278Y0296152D01*
X0239045Y0295385D01*
X0239045Y0294617D01*
X0238278Y0293850D01*
X0236743Y0293850D01*
X0235976Y0294617D01*
X0234441Y0294617D02*
X0233674Y0293850D01*
X0232139Y0293850D01*
X0231372Y0294617D01*
X0231372Y0297687D01*
X0232139Y0298454D01*
X0233674Y0298454D01*
X0234441Y0297687D01*
X0235976Y0297687D02*
X0236743Y0298454D01*
X0238278Y0298454D01*
X0239045Y0297687D01*
X0239045Y0296919D01*
X0238278Y0296152D02*
X0237511Y0296152D01*
X0101784Y0359251D02*
X0101017Y0358483D01*
X0098715Y0358483D01*
X0098715Y0363087D01*
X0101017Y0363087D01*
X0101784Y0362320D01*
X0101784Y0361553D01*
X0101017Y0360785D01*
X0098715Y0360785D01*
X0097180Y0360785D02*
X0095646Y0360785D01*
X0097180Y0360785D02*
X0097180Y0359251D01*
X0096413Y0358483D01*
X0094878Y0358483D01*
X0094111Y0359251D01*
X0094111Y0362320D01*
X0094878Y0363087D01*
X0096413Y0363087D01*
X0097180Y0362320D01*
X0101017Y0360785D02*
X0101784Y0360018D01*
X0101784Y0359251D01*
X0092576Y0358483D02*
X0091042Y0360018D01*
X0091809Y0360018D02*
X0089507Y0360018D01*
X0089507Y0358483D02*
X0089507Y0363087D01*
X0091809Y0363087D01*
X0092576Y0362320D01*
X0092576Y0360785D01*
X0091809Y0360018D01*
X0385964Y0362300D02*
X0385964Y0357696D01*
X0389033Y0357696D01*
X0390568Y0357696D02*
X0393637Y0357696D01*
X0395172Y0357696D02*
X0397474Y0357696D01*
X0398241Y0358463D01*
X0398241Y0361533D01*
X0397474Y0362300D01*
X0395172Y0362300D01*
X0395172Y0357696D01*
X0392102Y0359998D02*
X0390568Y0359998D01*
X0390568Y0362300D02*
X0390568Y0357696D01*
X0390568Y0362300D02*
X0393637Y0362300D01*
X0399776Y0361533D02*
X0399776Y0360765D01*
X0400543Y0359998D01*
X0402078Y0359998D01*
X0402845Y0359231D01*
X0402845Y0358463D01*
X0402078Y0357696D01*
X0400543Y0357696D01*
X0399776Y0358463D01*
X0399776Y0361533D02*
X0400543Y0362300D01*
X0402078Y0362300D01*
X0402845Y0361533D01*
X0429343Y0321381D02*
X0429343Y0318312D01*
X0424739Y0318312D01*
X0430111Y0316777D02*
X0430111Y0313708D01*
X0429343Y0312173D02*
X0429343Y0309104D01*
X0424739Y0309104D01*
X0424739Y0312173D01*
X0424359Y0311915D02*
X0424359Y0308846D01*
X0421290Y0311915D01*
X0420522Y0311915D01*
X0419755Y0311148D01*
X0419755Y0309613D01*
X0420522Y0308846D01*
X0420522Y0307311D02*
X0422057Y0307311D01*
X0422824Y0306544D01*
X0422824Y0304242D01*
X0422824Y0305777D02*
X0424359Y0307311D01*
X0424739Y0306802D02*
X0424739Y0305267D01*
X0425507Y0304500D01*
X0428576Y0304500D01*
X0429343Y0305267D01*
X0429343Y0306802D01*
X0428576Y0307569D01*
X0427041Y0309104D02*
X0427041Y0310639D01*
X0425507Y0307569D02*
X0424739Y0306802D01*
X0424359Y0304242D02*
X0419755Y0304242D01*
X0419755Y0306544D01*
X0420522Y0307311D01*
X0425507Y0302965D02*
X0427041Y0302965D01*
X0427809Y0302198D01*
X0427809Y0299896D01*
X0429343Y0299896D02*
X0424739Y0299896D01*
X0424739Y0302198D01*
X0425507Y0302965D01*
X0427809Y0301431D02*
X0429343Y0302965D01*
X0428576Y0298361D02*
X0425507Y0298361D01*
X0424739Y0297594D01*
X0424739Y0296059D01*
X0425507Y0295292D01*
X0428576Y0295292D01*
X0429343Y0296059D01*
X0429343Y0297594D01*
X0428576Y0298361D01*
X0424109Y0297106D02*
X0419505Y0297106D01*
X0421807Y0294804D01*
X0421807Y0297873D01*
X0421807Y0293269D02*
X0422574Y0292502D01*
X0422574Y0290200D01*
X0422574Y0291735D02*
X0424109Y0293269D01*
X0424739Y0293757D02*
X0424739Y0290688D01*
X0429343Y0290688D01*
X0427041Y0290688D02*
X0427041Y0292223D01*
X0424109Y0290200D02*
X0419505Y0290200D01*
X0419505Y0292502D01*
X0420272Y0293269D01*
X0421807Y0293269D01*
X0407609Y0293071D02*
X0406842Y0292304D01*
X0407609Y0293071D02*
X0407609Y0294606D01*
X0406842Y0295373D01*
X0406074Y0295373D01*
X0405307Y0294606D01*
X0405307Y0293839D01*
X0405307Y0294606D02*
X0404540Y0295373D01*
X0403772Y0295373D01*
X0403005Y0294606D01*
X0403005Y0293071D01*
X0403772Y0292304D01*
X0403772Y0290769D02*
X0403005Y0290002D01*
X0403005Y0288467D01*
X0403772Y0287700D01*
X0406842Y0287700D01*
X0407609Y0288467D01*
X0407609Y0290002D01*
X0406842Y0290769D01*
X0389359Y0290613D02*
X0388592Y0289846D01*
X0389359Y0290613D02*
X0389359Y0292148D01*
X0388592Y0292915D01*
X0387057Y0292915D01*
X0386290Y0292148D01*
X0386290Y0291381D01*
X0387057Y0289846D01*
X0384755Y0289846D01*
X0384755Y0292915D01*
X0385522Y0288311D02*
X0387057Y0288311D01*
X0387824Y0287544D01*
X0387824Y0285242D01*
X0387824Y0286777D02*
X0389359Y0288311D01*
X0389359Y0285242D02*
X0384755Y0285242D01*
X0384755Y0287544D01*
X0385522Y0288311D01*
X0387149Y0270974D02*
X0387916Y0270974D01*
X0390985Y0267904D01*
X0391753Y0267904D01*
X0391753Y0266370D02*
X0390218Y0264835D01*
X0390218Y0265602D02*
X0390218Y0263300D01*
X0391753Y0263300D02*
X0387149Y0263300D01*
X0387149Y0265602D01*
X0387916Y0266370D01*
X0389451Y0266370D01*
X0390218Y0265602D01*
X0387149Y0267904D02*
X0387149Y0270974D01*
X0403255Y0270504D02*
X0405557Y0268202D01*
X0405557Y0271272D01*
X0407859Y0270504D02*
X0403255Y0270504D01*
X0404022Y0266668D02*
X0403255Y0265900D01*
X0403255Y0264366D01*
X0404022Y0263598D01*
X0407092Y0263598D01*
X0407859Y0264366D01*
X0407859Y0265900D01*
X0407092Y0266668D01*
X0418430Y0265406D02*
X0418430Y0263104D01*
X0423034Y0263104D01*
X0423558Y0263929D02*
X0424326Y0263161D01*
X0427395Y0263161D01*
X0428162Y0263929D01*
X0428162Y0265463D01*
X0427395Y0266231D01*
X0428162Y0267765D02*
X0423558Y0267765D01*
X0423558Y0270835D01*
X0423034Y0270010D02*
X0422267Y0270778D01*
X0421500Y0270778D01*
X0420732Y0270010D01*
X0420732Y0267708D01*
X0422267Y0267708D01*
X0423034Y0268476D01*
X0423034Y0270010D01*
X0425860Y0269300D02*
X0425860Y0267765D01*
X0424326Y0266231D02*
X0423558Y0265463D01*
X0423558Y0263929D01*
X0421500Y0264639D02*
X0423034Y0266174D01*
X0421500Y0265406D02*
X0421500Y0263104D01*
X0421500Y0265406D02*
X0420732Y0266174D01*
X0419198Y0266174D01*
X0418430Y0265406D01*
X0420732Y0267708D02*
X0419198Y0269243D01*
X0418430Y0270778D01*
X0423558Y0276973D02*
X0423558Y0279275D01*
X0424326Y0280042D01*
X0425860Y0280042D01*
X0426628Y0279275D01*
X0426628Y0276973D01*
X0428162Y0276973D02*
X0423558Y0276973D01*
X0426628Y0278508D02*
X0428162Y0280042D01*
X0428930Y0275439D02*
X0428930Y0272369D01*
X0428162Y0270835D02*
X0428162Y0267765D01*
X0428162Y0261627D02*
X0426628Y0260092D01*
X0426628Y0260859D02*
X0426628Y0258557D01*
X0428162Y0258557D02*
X0423558Y0258557D01*
X0423558Y0260859D01*
X0424326Y0261627D01*
X0425860Y0261627D01*
X0426628Y0260859D01*
X0427395Y0257023D02*
X0424326Y0257023D01*
X0423558Y0256255D01*
X0423558Y0254721D01*
X0424326Y0253954D01*
X0427395Y0253954D01*
X0428162Y0254721D01*
X0428162Y0256255D01*
X0427395Y0257023D01*
X0423558Y0252419D02*
X0423558Y0249350D01*
X0428162Y0249350D01*
X0425860Y0249350D02*
X0425860Y0250884D01*
X0391258Y0251452D02*
X0388189Y0251452D01*
X0390491Y0253754D01*
X0390491Y0249150D01*
X0386654Y0251452D02*
X0385887Y0250685D01*
X0383585Y0250685D01*
X0383585Y0249150D02*
X0383585Y0253754D01*
X0385887Y0253754D01*
X0386654Y0252987D01*
X0386654Y0251452D01*
X0386387Y0244254D02*
X0387154Y0243487D01*
X0387154Y0241952D01*
X0386387Y0241185D01*
X0384085Y0241185D01*
X0384085Y0239650D02*
X0384085Y0244254D01*
X0386387Y0244254D01*
X0388689Y0243487D02*
X0389456Y0244254D01*
X0390991Y0244254D01*
X0391758Y0243487D01*
X0391758Y0242719D01*
X0390991Y0241952D01*
X0391758Y0241185D01*
X0391758Y0240417D01*
X0390991Y0239650D01*
X0389456Y0239650D01*
X0388689Y0240417D01*
X0390224Y0241952D02*
X0390991Y0241952D01*
X0415121Y0219448D02*
X0419725Y0219448D01*
X0418191Y0217913D01*
X0419725Y0216379D01*
X0415121Y0216379D01*
X0415889Y0214844D02*
X0418958Y0211775D01*
X0419725Y0212542D01*
X0419725Y0214077D01*
X0418958Y0214844D01*
X0415889Y0214844D01*
X0415121Y0214077D01*
X0415121Y0212542D01*
X0415889Y0211775D01*
X0418958Y0211775D01*
X0418958Y0210240D02*
X0419725Y0209473D01*
X0419725Y0207938D01*
X0418958Y0207171D01*
X0415889Y0210240D01*
X0418958Y0210240D01*
X0418958Y0207171D02*
X0415889Y0207171D01*
X0415121Y0207938D01*
X0415121Y0209473D01*
X0415889Y0210240D01*
X0409922Y0210096D02*
X0409922Y0208561D01*
X0409155Y0207794D01*
X0409922Y0206259D02*
X0408387Y0204725D01*
X0408387Y0205492D02*
X0408387Y0203190D01*
X0409922Y0203190D02*
X0405318Y0203190D01*
X0405318Y0205492D01*
X0406085Y0206259D01*
X0407620Y0206259D01*
X0408387Y0205492D01*
X0406853Y0207794D02*
X0407620Y0208561D01*
X0407620Y0210863D01*
X0406085Y0210863D02*
X0405318Y0210096D01*
X0405318Y0208561D01*
X0406085Y0207794D01*
X0406853Y0207794D01*
X0406085Y0210863D02*
X0409155Y0210863D01*
X0409922Y0210096D01*
X0415121Y0204869D02*
X0415889Y0205636D01*
X0418958Y0202567D01*
X0419725Y0203334D01*
X0419725Y0204869D01*
X0418958Y0205636D01*
X0415889Y0205636D01*
X0415121Y0204869D02*
X0415121Y0203334D01*
X0415889Y0202567D01*
X0418958Y0202567D01*
X0418958Y0201032D02*
X0418191Y0201032D01*
X0417423Y0200265D01*
X0417423Y0198730D01*
X0416656Y0197963D01*
X0415889Y0197963D01*
X0415121Y0198730D01*
X0415121Y0200265D01*
X0415889Y0201032D01*
X0416656Y0201032D01*
X0417423Y0200265D01*
X0417423Y0198730D02*
X0418191Y0197963D01*
X0418958Y0197963D01*
X0419725Y0198730D01*
X0419725Y0200265D01*
X0418958Y0201032D01*
X0415889Y0196428D02*
X0418958Y0193359D01*
X0419725Y0193359D01*
X0419725Y0191825D02*
X0415121Y0191825D01*
X0415121Y0193359D02*
X0415121Y0196428D01*
X0415889Y0196428D01*
X0419725Y0191825D02*
X0415121Y0188755D01*
X0419725Y0188755D01*
X0419725Y0185686D02*
X0415121Y0185686D01*
X0415121Y0184151D02*
X0415121Y0187221D01*
X0415889Y0182617D02*
X0417423Y0182617D01*
X0418191Y0181849D01*
X0418191Y0179547D01*
X0419725Y0179547D02*
X0415121Y0179547D01*
X0415121Y0181849D01*
X0415889Y0182617D01*
X0431636Y0185777D02*
X0432403Y0185010D01*
X0435473Y0185010D01*
X0436240Y0185777D01*
X0436240Y0187312D01*
X0435473Y0188079D01*
X0436240Y0189614D02*
X0436240Y0192683D01*
X0436240Y0191149D02*
X0431636Y0191149D01*
X0433171Y0189614D01*
X0432403Y0188079D02*
X0431636Y0187312D01*
X0431636Y0185777D01*
X0433171Y0194218D02*
X0431636Y0195753D01*
X0436240Y0195753D01*
X0436240Y0197287D02*
X0436240Y0194218D01*
X0406842Y0309200D02*
X0403772Y0309200D01*
X0403005Y0309967D01*
X0403005Y0311502D01*
X0403772Y0312269D01*
X0403772Y0313804D02*
X0403005Y0314571D01*
X0403005Y0316106D01*
X0403772Y0316873D01*
X0404540Y0316873D01*
X0407609Y0313804D01*
X0407609Y0316873D01*
X0406842Y0312269D02*
X0407609Y0311502D01*
X0407609Y0309967D01*
X0406842Y0309200D01*
X0390109Y0310700D02*
X0385505Y0310700D01*
X0385505Y0313002D01*
X0386272Y0313769D01*
X0387807Y0313769D01*
X0388574Y0313002D01*
X0388574Y0310700D01*
X0388574Y0312235D02*
X0390109Y0313769D01*
X0389342Y0315304D02*
X0390109Y0316071D01*
X0390109Y0317606D01*
X0389342Y0318373D01*
X0388574Y0318373D01*
X0387807Y0317606D01*
X0387807Y0316839D01*
X0387807Y0317606D02*
X0387040Y0318373D01*
X0386272Y0318373D01*
X0385505Y0317606D01*
X0385505Y0316071D01*
X0386272Y0315304D01*
D17*
X0321375Y0194258D02*
X0320141Y0194258D01*
X0319524Y0193641D01*
X0318309Y0193641D02*
X0317692Y0194258D01*
X0316458Y0194258D01*
X0315841Y0193641D01*
X0314626Y0193641D02*
X0314009Y0194258D01*
X0312775Y0194258D01*
X0312157Y0193641D01*
X0312157Y0191172D01*
X0312775Y0190555D01*
X0314009Y0190555D01*
X0314626Y0191172D01*
X0315841Y0191172D02*
X0316458Y0190555D01*
X0317692Y0190555D01*
X0318309Y0191172D01*
X0318309Y0191790D01*
X0317692Y0192407D01*
X0317075Y0192407D01*
X0317692Y0192407D02*
X0318309Y0193024D01*
X0318309Y0193641D01*
X0321375Y0194258D02*
X0321993Y0193641D01*
X0321993Y0193024D01*
X0319524Y0190555D01*
X0321993Y0190555D01*
X0386703Y0116828D02*
X0386086Y0116210D01*
X0386086Y0113742D01*
X0386703Y0113124D01*
X0387937Y0113124D01*
X0388555Y0113742D01*
X0389769Y0113124D02*
X0392238Y0113124D01*
X0393452Y0113124D02*
X0395921Y0115593D01*
X0395921Y0116210D01*
X0395304Y0116828D01*
X0394069Y0116828D01*
X0393452Y0116210D01*
X0391003Y0116828D02*
X0391003Y0113124D01*
X0393452Y0113124D02*
X0395921Y0113124D01*
X0391003Y0116828D02*
X0389769Y0115593D01*
X0388555Y0116210D02*
X0387937Y0116828D01*
X0386703Y0116828D01*
X0014019Y0099868D02*
X0014019Y0098633D01*
X0013402Y0098016D01*
X0010933Y0100485D01*
X0013402Y0100485D01*
X0014019Y0099868D01*
X0013402Y0098016D02*
X0010933Y0098016D01*
X0010316Y0098633D01*
X0010316Y0099868D01*
X0010933Y0100485D01*
X0010933Y0096802D02*
X0010316Y0096184D01*
X0010316Y0094950D01*
X0010933Y0094333D01*
X0010933Y0093119D02*
X0010316Y0092501D01*
X0010316Y0091267D01*
X0010933Y0090650D01*
X0013402Y0090650D01*
X0014019Y0091267D01*
X0014019Y0092501D01*
X0013402Y0093119D01*
X0014019Y0094333D02*
X0011551Y0096802D01*
X0010933Y0096802D01*
X0014019Y0096802D02*
X0014019Y0094333D01*
X0011215Y0136587D02*
X0008746Y0136587D01*
X0008129Y0137204D01*
X0008129Y0138438D01*
X0008746Y0139056D01*
X0008746Y0140270D02*
X0008129Y0140887D01*
X0008129Y0142122D01*
X0008746Y0142739D01*
X0009364Y0142739D01*
X0011832Y0140270D01*
X0011832Y0142739D01*
X0011832Y0143953D02*
X0011832Y0146422D01*
X0011832Y0145187D02*
X0008129Y0145187D01*
X0009364Y0143953D01*
X0011215Y0139056D02*
X0011832Y0138438D01*
X0011832Y0137204D01*
X0011215Y0136587D01*
X0010485Y0197112D02*
X0008016Y0197112D01*
X0007399Y0197730D01*
X0007399Y0198964D01*
X0008016Y0199581D01*
X0008633Y0200796D02*
X0007399Y0202030D01*
X0011102Y0202030D01*
X0011102Y0200796D02*
X0011102Y0203264D01*
X0010485Y0199581D02*
X0011102Y0198964D01*
X0011102Y0197730D01*
X0010485Y0197112D01*
D18*
X0350543Y0130140D03*
D19*
X0350543Y0126890D03*
X0350543Y0144390D03*
D20*
X0329122Y0153400D02*
X0329122Y0127600D01*
X0315122Y0127600D01*
X0315122Y0153400D01*
X0329122Y0153400D01*
X0348625Y0108125D02*
X0353625Y0108125D01*
X0356125Y0105625D01*
X0356125Y0100625D01*
X0353625Y0098125D01*
X0348625Y0098125D01*
X0346125Y0100625D01*
X0346125Y0105625D01*
X0348625Y0108125D01*
X0356125Y0105625D02*
X0358625Y0108125D01*
X0363625Y0108125D01*
X0366125Y0105625D01*
X0366125Y0100625D01*
X0363625Y0098125D01*
X0358625Y0098125D01*
X0356125Y0100625D01*
X0366125Y0100625D02*
X0368625Y0098125D01*
X0373625Y0098125D01*
X0376125Y0100625D01*
X0376125Y0105625D01*
X0378625Y0108125D01*
X0383625Y0108125D01*
X0386125Y0105625D01*
X0386125Y0100625D01*
X0383625Y0098125D01*
X0378625Y0098125D01*
X0376125Y0100625D01*
X0376125Y0105625D02*
X0373625Y0108125D01*
X0368625Y0108125D01*
X0366125Y0105625D01*
X0386125Y0105625D02*
X0388625Y0108125D01*
X0393625Y0108125D01*
X0396125Y0105625D01*
X0396125Y0100625D01*
X0393625Y0098125D01*
X0388625Y0098125D01*
X0386125Y0100625D01*
X0396125Y0100625D02*
X0398625Y0098125D01*
X0403625Y0098125D01*
X0406125Y0100625D01*
X0406125Y0105625D01*
X0403625Y0108125D01*
X0398625Y0108125D01*
X0396125Y0105625D01*
X0324500Y0043000D02*
X0322000Y0045500D01*
X0317000Y0045500D01*
X0314500Y0043000D01*
X0314500Y0038000D01*
X0317000Y0035500D01*
X0314500Y0033000D01*
X0314500Y0028000D01*
X0317000Y0025500D01*
X0322000Y0025500D01*
X0324500Y0028000D01*
X0324500Y0033000D01*
X0322000Y0035500D01*
X0324500Y0038000D01*
X0324500Y0043000D01*
X0309500Y0043250D02*
X0309500Y0038250D01*
X0307000Y0035750D01*
X0309500Y0033250D01*
X0309500Y0028250D01*
X0307000Y0025750D01*
X0302000Y0025750D01*
X0299500Y0028250D01*
X0299500Y0033250D01*
X0302000Y0035750D01*
X0299500Y0038250D01*
X0299500Y0043250D01*
X0302000Y0045750D01*
X0307000Y0045750D01*
X0309500Y0043250D01*
X0294125Y0043000D02*
X0294125Y0038000D01*
X0291625Y0035500D01*
X0294125Y0033000D01*
X0294125Y0028000D01*
X0291625Y0025500D01*
X0286625Y0025500D01*
X0284125Y0028000D01*
X0284125Y0033000D01*
X0286625Y0035500D01*
X0284125Y0038000D01*
X0284125Y0043000D01*
X0286625Y0045500D01*
X0291625Y0045500D01*
X0294125Y0043000D01*
X0246022Y0082500D02*
X0246029Y0083070D01*
X0246050Y0083640D01*
X0246085Y0084209D01*
X0246134Y0084777D01*
X0246197Y0085343D01*
X0246273Y0085908D01*
X0246364Y0086471D01*
X0246468Y0087032D01*
X0246586Y0087589D01*
X0246718Y0088144D01*
X0246863Y0088695D01*
X0247022Y0089243D01*
X0247194Y0089786D01*
X0247380Y0090325D01*
X0247578Y0090860D01*
X0247790Y0091389D01*
X0248015Y0091913D01*
X0248252Y0092431D01*
X0248502Y0092944D01*
X0248765Y0093450D01*
X0249040Y0093949D01*
X0249327Y0094442D01*
X0249626Y0094927D01*
X0249937Y0095405D01*
X0250259Y0095875D01*
X0250593Y0096337D01*
X0250938Y0096791D01*
X0251295Y0097236D01*
X0251662Y0097672D01*
X0252039Y0098099D01*
X0252427Y0098517D01*
X0252825Y0098925D01*
X0253233Y0099323D01*
X0253651Y0099711D01*
X0254078Y0100088D01*
X0254514Y0100455D01*
X0254959Y0100812D01*
X0255413Y0101157D01*
X0255875Y0101491D01*
X0256345Y0101813D01*
X0256823Y0102124D01*
X0257308Y0102423D01*
X0257801Y0102710D01*
X0258300Y0102985D01*
X0258806Y0103248D01*
X0259319Y0103498D01*
X0259837Y0103735D01*
X0260361Y0103960D01*
X0260890Y0104172D01*
X0261425Y0104370D01*
X0261964Y0104556D01*
X0262507Y0104728D01*
X0263055Y0104887D01*
X0263606Y0105032D01*
X0264161Y0105164D01*
X0264718Y0105282D01*
X0265279Y0105386D01*
X0265842Y0105477D01*
X0266407Y0105553D01*
X0266973Y0105616D01*
X0267541Y0105665D01*
X0268110Y0105700D01*
X0268680Y0105721D01*
X0269250Y0105728D01*
X0269820Y0105721D01*
X0270390Y0105700D01*
X0270959Y0105665D01*
X0271527Y0105616D01*
X0272093Y0105553D01*
X0272658Y0105477D01*
X0273221Y0105386D01*
X0273782Y0105282D01*
X0274339Y0105164D01*
X0274894Y0105032D01*
X0275445Y0104887D01*
X0275993Y0104728D01*
X0276536Y0104556D01*
X0277075Y0104370D01*
X0277610Y0104172D01*
X0278139Y0103960D01*
X0278663Y0103735D01*
X0279181Y0103498D01*
X0279694Y0103248D01*
X0280200Y0102985D01*
X0280699Y0102710D01*
X0281192Y0102423D01*
X0281677Y0102124D01*
X0282155Y0101813D01*
X0282625Y0101491D01*
X0283087Y0101157D01*
X0283541Y0100812D01*
X0283986Y0100455D01*
X0284422Y0100088D01*
X0284849Y0099711D01*
X0285267Y0099323D01*
X0285675Y0098925D01*
X0286073Y0098517D01*
X0286461Y0098099D01*
X0286838Y0097672D01*
X0287205Y0097236D01*
X0287562Y0096791D01*
X0287907Y0096337D01*
X0288241Y0095875D01*
X0288563Y0095405D01*
X0288874Y0094927D01*
X0289173Y0094442D01*
X0289460Y0093949D01*
X0289735Y0093450D01*
X0289998Y0092944D01*
X0290248Y0092431D01*
X0290485Y0091913D01*
X0290710Y0091389D01*
X0290922Y0090860D01*
X0291120Y0090325D01*
X0291306Y0089786D01*
X0291478Y0089243D01*
X0291637Y0088695D01*
X0291782Y0088144D01*
X0291914Y0087589D01*
X0292032Y0087032D01*
X0292136Y0086471D01*
X0292227Y0085908D01*
X0292303Y0085343D01*
X0292366Y0084777D01*
X0292415Y0084209D01*
X0292450Y0083640D01*
X0292471Y0083070D01*
X0292478Y0082500D01*
X0292471Y0081930D01*
X0292450Y0081360D01*
X0292415Y0080791D01*
X0292366Y0080223D01*
X0292303Y0079657D01*
X0292227Y0079092D01*
X0292136Y0078529D01*
X0292032Y0077968D01*
X0291914Y0077411D01*
X0291782Y0076856D01*
X0291637Y0076305D01*
X0291478Y0075757D01*
X0291306Y0075214D01*
X0291120Y0074675D01*
X0290922Y0074140D01*
X0290710Y0073611D01*
X0290485Y0073087D01*
X0290248Y0072569D01*
X0289998Y0072056D01*
X0289735Y0071550D01*
X0289460Y0071051D01*
X0289173Y0070558D01*
X0288874Y0070073D01*
X0288563Y0069595D01*
X0288241Y0069125D01*
X0287907Y0068663D01*
X0287562Y0068209D01*
X0287205Y0067764D01*
X0286838Y0067328D01*
X0286461Y0066901D01*
X0286073Y0066483D01*
X0285675Y0066075D01*
X0285267Y0065677D01*
X0284849Y0065289D01*
X0284422Y0064912D01*
X0283986Y0064545D01*
X0283541Y0064188D01*
X0283087Y0063843D01*
X0282625Y0063509D01*
X0282155Y0063187D01*
X0281677Y0062876D01*
X0281192Y0062577D01*
X0280699Y0062290D01*
X0280200Y0062015D01*
X0279694Y0061752D01*
X0279181Y0061502D01*
X0278663Y0061265D01*
X0278139Y0061040D01*
X0277610Y0060828D01*
X0277075Y0060630D01*
X0276536Y0060444D01*
X0275993Y0060272D01*
X0275445Y0060113D01*
X0274894Y0059968D01*
X0274339Y0059836D01*
X0273782Y0059718D01*
X0273221Y0059614D01*
X0272658Y0059523D01*
X0272093Y0059447D01*
X0271527Y0059384D01*
X0270959Y0059335D01*
X0270390Y0059300D01*
X0269820Y0059279D01*
X0269250Y0059272D01*
X0268680Y0059279D01*
X0268110Y0059300D01*
X0267541Y0059335D01*
X0266973Y0059384D01*
X0266407Y0059447D01*
X0265842Y0059523D01*
X0265279Y0059614D01*
X0264718Y0059718D01*
X0264161Y0059836D01*
X0263606Y0059968D01*
X0263055Y0060113D01*
X0262507Y0060272D01*
X0261964Y0060444D01*
X0261425Y0060630D01*
X0260890Y0060828D01*
X0260361Y0061040D01*
X0259837Y0061265D01*
X0259319Y0061502D01*
X0258806Y0061752D01*
X0258300Y0062015D01*
X0257801Y0062290D01*
X0257308Y0062577D01*
X0256823Y0062876D01*
X0256345Y0063187D01*
X0255875Y0063509D01*
X0255413Y0063843D01*
X0254959Y0064188D01*
X0254514Y0064545D01*
X0254078Y0064912D01*
X0253651Y0065289D01*
X0253233Y0065677D01*
X0252825Y0066075D01*
X0252427Y0066483D01*
X0252039Y0066901D01*
X0251662Y0067328D01*
X0251295Y0067764D01*
X0250938Y0068209D01*
X0250593Y0068663D01*
X0250259Y0069125D01*
X0249937Y0069595D01*
X0249626Y0070073D01*
X0249327Y0070558D01*
X0249040Y0071051D01*
X0248765Y0071550D01*
X0248502Y0072056D01*
X0248252Y0072569D01*
X0248015Y0073087D01*
X0247790Y0073611D01*
X0247578Y0074140D01*
X0247380Y0074675D01*
X0247194Y0075214D01*
X0247022Y0075757D01*
X0246863Y0076305D01*
X0246718Y0076856D01*
X0246586Y0077411D01*
X0246468Y0077968D01*
X0246364Y0078529D01*
X0246273Y0079092D01*
X0246197Y0079657D01*
X0246134Y0080223D01*
X0246085Y0080791D01*
X0246050Y0081360D01*
X0246029Y0081930D01*
X0246022Y0082500D01*
X0382496Y0194750D02*
X0382496Y0199750D01*
X0384996Y0202250D01*
X0382496Y0204750D01*
X0382496Y0209750D01*
X0384996Y0212250D01*
X0389996Y0212250D01*
X0392496Y0209750D01*
X0392496Y0204750D01*
X0389996Y0202250D01*
X0392496Y0199750D01*
X0392496Y0194750D01*
X0389996Y0192250D01*
X0384996Y0192250D01*
X0382496Y0194750D01*
X0377935Y0234750D02*
X0372935Y0234750D01*
X0370435Y0237250D01*
X0370435Y0242250D01*
X0372935Y0244750D01*
X0377935Y0244750D01*
X0380435Y0242250D01*
X0380435Y0237250D01*
X0377935Y0234750D01*
X0377435Y0245500D02*
X0372435Y0245500D01*
X0369935Y0248000D01*
X0369935Y0253000D01*
X0372435Y0255500D01*
X0377435Y0255500D01*
X0379935Y0253000D01*
X0379935Y0248000D01*
X0377435Y0245500D01*
X0267378Y0229100D02*
X0267378Y0224100D01*
X0264878Y0221600D01*
X0259878Y0221600D01*
X0257378Y0224100D01*
X0254878Y0221600D01*
X0249878Y0221600D01*
X0247378Y0224100D01*
X0244878Y0221600D01*
X0239878Y0221600D01*
X0237378Y0224100D01*
X0234878Y0221600D01*
X0229878Y0221600D01*
X0227378Y0224100D01*
X0224878Y0221600D01*
X0219878Y0221600D01*
X0217378Y0224100D01*
X0214878Y0221600D01*
X0209878Y0221600D01*
X0207378Y0224100D01*
X0204878Y0221600D01*
X0199878Y0221600D01*
X0197378Y0224100D01*
X0194878Y0221600D01*
X0189878Y0221600D01*
X0187378Y0224100D01*
X0187378Y0229100D01*
X0189878Y0231600D01*
X0194878Y0231600D01*
X0197378Y0229100D01*
X0199878Y0231600D01*
X0204878Y0231600D01*
X0207378Y0229100D01*
X0209878Y0231600D01*
X0214878Y0231600D01*
X0217378Y0229100D01*
X0219878Y0231600D01*
X0224878Y0231600D01*
X0227378Y0229100D01*
X0229878Y0231600D01*
X0234878Y0231600D01*
X0237378Y0229100D01*
X0239878Y0231600D01*
X0244878Y0231600D01*
X0247378Y0229100D01*
X0249878Y0231600D01*
X0254878Y0231600D01*
X0257378Y0229100D01*
X0259878Y0231600D01*
X0264878Y0231600D01*
X0267378Y0229100D01*
X0140770Y0236280D02*
X0140770Y0241280D01*
X0138270Y0243780D01*
X0133270Y0243780D01*
X0130770Y0241280D01*
X0130770Y0236280D01*
X0133270Y0233780D01*
X0138270Y0233780D01*
X0140770Y0236280D01*
X0138270Y0244530D02*
X0133270Y0244530D01*
X0130770Y0247030D01*
X0130770Y0252030D01*
X0133270Y0254530D01*
X0138270Y0254530D01*
X0140770Y0252030D01*
X0140770Y0247030D01*
X0138270Y0244530D01*
X0138020Y0255030D02*
X0133020Y0255030D01*
X0130520Y0257530D01*
X0130520Y0262530D01*
X0133020Y0265030D01*
X0138020Y0265030D01*
X0140520Y0262530D01*
X0140520Y0257530D01*
X0138020Y0255030D01*
X0138270Y0265530D02*
X0133270Y0265530D01*
X0130770Y0268030D01*
X0130770Y0273030D01*
X0133270Y0275530D01*
X0138270Y0275530D01*
X0140770Y0273030D01*
X0140770Y0268030D01*
X0138270Y0265530D01*
X0138395Y0275905D02*
X0133395Y0275905D01*
X0130895Y0278405D01*
X0130895Y0283405D01*
X0133395Y0285905D01*
X0138395Y0285905D01*
X0140895Y0283405D01*
X0140895Y0278405D01*
X0138395Y0275905D01*
X0066610Y0357821D02*
X0066610Y0383411D01*
X0022516Y0383411D01*
X0022516Y0387348D01*
X0066610Y0387348D01*
X0066610Y0383411D01*
X0066610Y0357821D02*
X0022516Y0357821D01*
X0022516Y0383411D01*
X0030439Y0247750D02*
X0027939Y0245250D01*
X0027939Y0240250D01*
X0030439Y0237750D01*
X0027939Y0235250D01*
X0027939Y0230250D01*
X0030439Y0227750D01*
X0035439Y0227750D01*
X0037939Y0230250D01*
X0037939Y0235250D01*
X0035439Y0237750D01*
X0037939Y0240250D01*
X0037939Y0245250D01*
X0035439Y0247750D01*
X0030439Y0247750D01*
X0066256Y0167250D02*
X0071256Y0167250D01*
X0073756Y0164750D01*
X0076256Y0167250D01*
X0081256Y0167250D01*
X0083756Y0164750D01*
X0083756Y0159750D01*
X0081256Y0157250D01*
X0076256Y0157250D01*
X0073756Y0159750D01*
X0071256Y0157250D01*
X0066256Y0157250D01*
X0063756Y0159750D01*
X0063756Y0164750D01*
X0066256Y0167250D01*
D21*
X0085121Y0241205D03*
X0085121Y0246619D03*
X0205470Y0104207D03*
X0205470Y0098793D03*
X0185785Y0091457D03*
X0185785Y0086043D03*
D22*
X0187311Y0088750D03*
X0206996Y0101500D03*
X0083596Y0243912D03*
X0231920Y0379848D03*
X0247666Y0379848D03*
X0261856Y0379973D03*
X0276153Y0379848D03*
D23*
X0278859Y0378323D03*
X0273446Y0378323D03*
X0264563Y0378448D03*
X0259150Y0378448D03*
X0250373Y0378323D03*
X0244960Y0378323D03*
X0234627Y0378323D03*
X0229214Y0378323D03*
D24*
X0230665Y0284656D02*
X0231166Y0284656D01*
X0231416Y0284405D01*
X0231416Y0283405D01*
X0231166Y0283154D01*
X0230665Y0283154D01*
X0230415Y0283405D01*
X0230415Y0284405D01*
X0230665Y0284656D01*
X0230916Y0283655D02*
X0231416Y0283154D01*
X0231888Y0283405D02*
X0232139Y0283154D01*
X0232639Y0283154D01*
X0232889Y0283405D01*
X0232889Y0283905D01*
X0232639Y0284155D01*
X0232389Y0284155D01*
X0231888Y0283905D01*
X0231888Y0284656D01*
X0232889Y0284656D01*
X0246085Y0261902D02*
X0247586Y0261902D01*
X0247586Y0261402D02*
X0247586Y0262402D01*
X0246586Y0261402D02*
X0246085Y0261902D01*
X0246335Y0260929D02*
X0247336Y0260929D01*
X0247586Y0260679D01*
X0247586Y0260178D01*
X0247336Y0259928D01*
X0246335Y0259928D01*
X0246085Y0260178D01*
X0246085Y0260679D01*
X0246335Y0260929D01*
X0247086Y0260429D02*
X0247586Y0260929D01*
X0058483Y0362806D02*
X0058483Y0364308D01*
X0058983Y0364308D02*
X0057982Y0364308D01*
X0057510Y0364308D02*
X0057510Y0363057D01*
X0057260Y0362806D01*
X0056759Y0362806D01*
X0056509Y0363057D01*
X0056509Y0364308D01*
X0056037Y0364057D02*
X0056037Y0363557D01*
X0055786Y0363307D01*
X0055036Y0363307D01*
X0055036Y0362806D02*
X0055036Y0364308D01*
X0055786Y0364308D01*
X0056037Y0364057D01*
X0054563Y0364308D02*
X0054563Y0362806D01*
X0053562Y0364308D01*
X0053562Y0362806D01*
X0053081Y0362806D02*
X0052580Y0362806D01*
X0052830Y0362806D02*
X0052830Y0364308D01*
X0052580Y0364308D02*
X0053081Y0364308D01*
X0052108Y0362556D02*
X0051107Y0362556D01*
X0050635Y0363057D02*
X0050635Y0364057D01*
X0050384Y0364308D01*
X0049884Y0364308D01*
X0049634Y0364057D01*
X0049634Y0363057D01*
X0049884Y0362806D01*
X0050384Y0362806D01*
X0050635Y0363057D01*
X0049161Y0363557D02*
X0049161Y0364057D01*
X0048911Y0364308D01*
X0048161Y0364308D01*
X0048161Y0362806D01*
X0047679Y0362806D02*
X0047178Y0362806D01*
X0047429Y0362806D02*
X0047429Y0364308D01*
X0047679Y0364308D02*
X0047178Y0364308D01*
X0048161Y0363307D02*
X0048911Y0363307D01*
X0049161Y0363557D01*
X0046706Y0362806D02*
X0045705Y0362806D01*
X0045705Y0364308D01*
D25*
X0059772Y0329091D02*
X0059772Y0296591D01*
X0095772Y0296591D01*
X0095772Y0329091D01*
X0059772Y0329091D01*
X0044439Y0319626D02*
X0044439Y0279626D01*
X0032939Y0279126D02*
X0032939Y0320126D01*
X0021439Y0319626D02*
X0021439Y0279626D01*
X0086150Y0141689D02*
X0086150Y0109189D01*
X0122150Y0109189D01*
X0122150Y0141689D01*
X0086150Y0141689D01*
D26*
X0043189Y0278376D03*
X0022689Y0278376D03*
X0022689Y0320876D03*
X0043189Y0320876D03*
D27*
X0032939Y0320876D03*
X0032939Y0278376D03*
D28*
X0042439Y0299626D03*
X0023439Y0299626D03*
D29*
X0025189Y0269376D03*
X0040689Y0269376D03*
X0040689Y0329876D03*
X0025189Y0329876D03*
D30*
X0023939Y0331626D03*
X0041939Y0331626D03*
X0041939Y0267626D03*
X0023939Y0267626D03*
D31*
X0015589Y0288139D02*
X0011385Y0292343D01*
X0010334Y0292343D01*
X0009284Y0291292D01*
X0009284Y0289190D01*
X0010334Y0288139D01*
X0015589Y0288139D02*
X0015589Y0292343D01*
X0014538Y0294585D02*
X0010334Y0294585D01*
X0009284Y0295636D01*
X0009284Y0297738D01*
X0010334Y0298789D01*
X0014538Y0294585D01*
X0015589Y0295636D01*
X0015589Y0297738D01*
X0014538Y0298789D01*
X0010334Y0298789D01*
X0011385Y0301030D02*
X0009284Y0303132D01*
X0011385Y0305234D01*
X0015589Y0305234D01*
X0012436Y0305234D02*
X0012436Y0301030D01*
X0011385Y0301030D02*
X0015589Y0301030D01*
X0080231Y0300491D02*
X0081282Y0299441D01*
X0083383Y0299441D01*
X0084434Y0300491D01*
X0084434Y0304695D01*
X0083383Y0305746D01*
X0081282Y0305746D01*
X0080231Y0304695D01*
X0080231Y0300491D01*
X0082332Y0301542D02*
X0084434Y0299441D01*
X0086676Y0300491D02*
X0087727Y0299441D01*
X0089829Y0299441D01*
X0090880Y0300491D01*
X0090880Y0301542D01*
X0089829Y0302593D01*
X0088778Y0302593D01*
X0089829Y0302593D02*
X0090880Y0303644D01*
X0090880Y0304695D01*
X0089829Y0305746D01*
X0087727Y0305746D01*
X0086676Y0304695D01*
X0107659Y0118344D02*
X0109761Y0118344D01*
X0110812Y0117293D01*
X0110812Y0113090D01*
X0109761Y0112039D01*
X0107659Y0112039D01*
X0106609Y0113090D01*
X0106609Y0117293D01*
X0107659Y0118344D01*
X0108710Y0114141D02*
X0110812Y0112039D01*
X0113054Y0113090D02*
X0114105Y0112039D01*
X0116207Y0112039D01*
X0117258Y0113090D01*
X0117258Y0114141D01*
X0116207Y0115192D01*
X0113054Y0115192D01*
X0113054Y0113090D01*
X0113054Y0115192D02*
X0115156Y0117293D01*
X0117258Y0118344D01*
D32*
X0114150Y0156439D03*
X0104150Y0156439D03*
X0094150Y0156439D03*
X0087772Y0343841D03*
X0077772Y0343841D03*
X0067772Y0343841D03*
D33*
X0067772Y0337091D03*
X0077772Y0337091D03*
X0087772Y0337091D03*
X0094150Y0149689D03*
X0104150Y0149689D03*
X0114150Y0149689D03*
M02*
